<svg xmlns="http://www.w3.org/2000/svg" width="29" height="28" viewBox="0 0 29 28">
  <g id="Group_40510" data-name="Group 40510" transform="translate(0.291 -0.211)">
    <ellipse id="Ellipse_594" data-name="Ellipse 594" cx="14.5" cy="14" rx="14.5" ry="14" transform="translate(-0.291 0.211)" fill="#e1e2e3"/>
    <path id="Path_38750" data-name="Path 38750" d="M.274.218a.8.8,0,0,1,1.095,0L7.774,6.4a1.458,1.458,0,0,1,0,2.114L1.323,14.74a.8.8,0,0,1-1.087.007.729.729,0,0,1-.007-1.066l5.9-5.7a.729.729,0,0,0,0-1.058L.275,1.275a.728.728,0,0,1,0-1.057" transform="translate(10.218 6.853)" fill="#707070" stroke="#707070" stroke-width="0.5" fill-rule="evenodd"/>
  </g>
</svg>
