<svg xmlns="http://www.w3.org/2000/svg" xmlns:xlink="http://www.w3.org/1999/xlink" width="74" height="77" viewBox="0 0 74 77">
  <defs>
    <clipPath id="clip-path">
      <rect id="Rectangle_20550" data-name="Rectangle 20550" width="74" height="77" fill="#fff"/>
    </clipPath>
  </defs>
  <g id="Mask_Group_402" data-name="Mask Group 402" opacity="0.1" clip-path="url(#clip-path)">
    <path id="Path_40640" data-name="Path 40640" d="M79.376,68.891H78.184l-.107,0h-.641l-.057,0h-.162l-.047,0h-.112l-.053,0H76.95l-.107,0-.055,0h-.05l-.056,0-.107,0H76.52l-.05,0-.056,0-.053,0h-.053l-.056,0-.048,0-.058,0-.052,0-.053,0-.057,0-.048,0-.057,0-.053,0-.051,0-.057,0-.047,0h0l-.057,0-.048,0h-.007l-.051,0-.056,0-.048,0h0l-.056,0-.055,0-.049,0-.057,0-.048,0h0l-.056,0-.055,0-.049,0-.057,0-.052,0-.053,0-.056,0-.047,0h0l-.058,0-.051,0-.053,0-.056,0-.046,0h0l-.057,0-.053,0-.051,0-.057,0-.046,0h0l-.056,0-.054,0-.05,0-.057,0-.051,0-.053,0-.056,0-.048,0-.046,0-.058,0h0l-.044,0-.055,0-.053,0h-.005l-.046,0h-.011l-.045,0-.049,0-.055,0h-.01l-.046,0h0l-.047,0h-.011l-.046,0-.05,0h-.007l-.047,0h-.008l-.048,0h0l-.045,0H72.9l-.046,0-.051,0H72.8l-.046,0h-.011l-.046,0h0l-.043,0h-.012l-.044,0h-.01l-.038,0h-.011l-.044,0h-.011l-.045,0h-.007l-.041,0h-.011l-.045,0h-.011l-.042,0h-.006l-.045,0h-.011l-.046,0h-.007l-.041,0h-.011l-.045,0h-.009l-.045,0h0l-.047,0h-.009l-.046,0h-.008l-.042,0h-.008l-.045,0h-.011l-.046,0h0l-.045,0h-.012l-.044,0h-.011l-.038,0h-.01l-.045,0h-.011l-.046,0h-.005l-.043,0h-.009l-.046,0h-.01l-.04,0h-.008l-.044-.005H71.26l-.044,0h-.007l-.041,0h-.01l-.045-.005H71.1l-.04,0h-.007l-.046-.005H71l-.046,0h0l-.044-.005H70.9l-.046-.005H70.84l-.043,0h0l-.046,0h-.011l-.046-.005h-.007l-.042-.005h-.009l-.045-.005h-.011l-.045-.005h0l-.046-.005h-.01l-.045,0h-.009l-.042-.005h-.006l-.046-.005h-.011l-.045-.005h0l-.043-.005h-.011l-.044-.005h-.01l-.04,0h-.007l-.045,0-.012,0-.044-.005H70l-.039-.005h-.011l-.044-.005h-.011l-.043-.005h0l-.046-.005h-.011l-.045-.005h-.007l-.04,0-.011,0-.044-.005h-.011l-.041,0h-.006l-.044-.005-.012,0-.044,0-.01,0-.038,0h-.011l-.043-.005-.013,0-.042-.005h0l-.043-.005-.014,0-.042-.005h-.012l-.035,0-.013,0-.042-.005h-.014l-.043-.005h-.006l-.041-.005h-.012l-.044-.006h-.01l-.041-.005h-.006l-.045-.006h-.011l-.046-.006h0l-.044-.005-.011,0-.044-.005h-.01l-.04-.005h-.009L68.6,68.2h-.011l-.045-.006h-.007l-.04-.005h-.011l-.043-.006H68.43l-.038-.005h-.008l-.043-.006h-.014l-.043-.006h-.008l-.038-.005h-.012l-.043-.006-.013,0-.04-.005h-.009l-.042-.005-.011,0-.045-.006h-.008l-.041-.005h-.008l-.044-.006-.013,0-.044-.005h0l-.042-.006h-.011l-.044-.006h-.009l-.039-.006h-.01l-.043-.006H67.65l-.043-.006H67.6l-.039-.006h-.012l-.043-.006-.013,0-.038-.005h-.008l-.043-.006-.013,0-.043-.006h-.008L67.3,68.02l-.012,0-.043-.006-.011,0L67.195,68h-.007L67.144,68h-.012l-.043-.006-.012,0-.035-.005-.013,0-.042-.006-.013,0-.038-.005-.01,0-.04-.006h-.013l-.043-.007h-.011l-.037-.006h-.011l-.044-.007h-.011l-.039-.006-.013,0-.037-.005-.014,0-.041-.006-.014,0-.033-.005h-.012l-.042-.007-.014,0-.041-.006-.01,0-.035-.005-.014,0-.041-.006-.014,0-.033-.006h-.012l-.042-.007-.014,0-.042-.006-.011,0-.035-.005-.013,0-.041-.007-.015,0-.035-.005-.011,0-.042-.007-.013,0L65.9,67.8l-.012,0-.033-.005-.015,0-.04-.006-.016,0-.034-.006-.013,0L65.7,67.77l-.013,0-.041-.007-.014,0-.033-.005-.012,0-.042-.007-.014,0-.038-.007h-.011l-.037-.006-.015,0-.041-.006-.013,0-.035-.005-.011,0-.042-.007-.013,0-.043-.007H65.22l-.038-.007-.012,0-.042-.007-.012,0-.037-.006h-.009l-.042-.007-.014,0-.042-.007h-.008l-.038-.007-.011,0-.043-.007-.012,0-.038-.006-.008,0-.044-.007-.011,0-.044-.007-.007,0-.04-.007h-.01l-.043-.008-.012,0-.04-.007h0l-.044-.008-.012,0-.043-.008h-.009l-.038-.007-.011,0-.042-.007-.012,0-.041-.008H64.3l-.041-.007-.012,0-.042-.007-.012,0-.037-.007-.009,0-.043-.007-.012,0-.043-.007H64.04L64,67.47l-.014,0-.042-.007-.011,0-.038-.007-.009,0-.043-.007-.012,0-.043-.007-.009,0-.037-.007-.011,0-.043-.008-.011,0-.041-.007h-.005l-.043-.008-.012,0-.043-.008-.008,0-.038-.007-.012,0-.042-.008-.012,0-.037-.007-.011,0-.04-.008-.013,0-.042-.008-.01,0-.036-.007-.011,0-.042-.008-.012,0-.042-.008h-.005l-.041-.008-.013,0-.042-.008-.01,0-.037-.007-.011,0-.042-.009-.012,0-.043-.008h-.007l-.04-.008-.011,0-.043-.009-.011,0-.038-.007-.008,0-.043-.008-.011,0-.044-.009H62.61l-.039-.008-.013,0-.041-.008-.013,0-.035-.007-.01,0-.041-.008-.013,0-.042-.008-.009,0-.036-.007-.012,0-.041-.008-.013,0-.036-.007-.009,0-.041-.008-.013,0-.042-.008-.011,0-.035-.008-.012,0-.041-.008-.013,0-.038-.008-.01,0-.039-.008-.011,0-.042-.009-.011,0-.036-.008-.011,0-.041-.008-.014,0-.041-.009H61.7l-.04-.009-.01,0-.043-.009-.01,0-.037-.008-.01,0-.042-.009-.012,0-.042-.009-.008,0L61.4,66.94l-.012,0-.041-.009-.014,0-.034-.007-.01,0-.042-.009-.013,0-.041-.009-.01,0-.036-.008-.012,0-.041-.009-.013,0-.036-.007-.01,0L61,66.85l-.014,0-.04-.009-.014,0-.032-.007-.013,0-.041-.009-.014,0-.037-.008-.009,0-.039-.008-.013,0-.041-.009-.011,0-.036-.008-.01,0-.042-.009-.013,0-.038-.008-.013,0-.036-.008-.013,0-.041-.009-.013,0-.035-.008-.009,0-.041-.009-.014,0-.039-.008-.012,0-.034-.008-.015,0-.039-.009-.015,0-.031-.007-.012,0-.04-.009-.015,0-.04-.009-.011,0-.033-.008-.014,0-.039-.009-.015,0-.033-.007-.011,0-.039-.009-.016,0-.039-.009-.013,0-.03-.007-.016,0-.038-.008-.015,0-.035-.008-.012,0-.036-.008-.016,0-.038-.009-.016,0-.028-.006-.016,0-.037-.009-.018,0-.031-.008-.019,0-.029-.007-.018-.005-.037-.008-.016,0-.029-.007-.015,0-.038-.009-.017,0-.035-.008-.015,0-.032-.008-.015,0-.039-.01-.015,0-.032-.008-.012,0-.039-.009-.016,0-.039-.01-.011,0-.033-.008-.014,0-.04-.009-.014,0-.033-.008-.014,0-.038-.01-.013,0-.041-.01-.011,0-.034-.008-.013,0-.039-.01-.016,0-.033-.008-.015,0-.035-.009-.016,0-.039-.01-.013,0-.03-.008-.015,0-.038-.01-.016,0-.033-.008-.018-.005-.032-.008-.016,0-.038-.009-.016,0-.029-.007-.015,0-.038-.01-.017,0-.032-.008-.02-.005-.028-.007-.018-.005-.037-.01-.016,0-.028-.007-.019-.005-.033-.008-.018-.005-.03-.007-.025-.007-.026-.006-.017-.005-.038-.01-.015,0L57.592,66l-.016,0-.034-.009-.018,0-.035-.009-.018-.005-.027-.007-.017-.005-.037-.009-.017-.005-.028-.007-.023-.006-.028-.008-.018,0-.036-.01-.017-.005-.026-.007-.017,0-.036-.01-.018-.005-.027-.007-.025-.006-.026-.007-.019-.005-.035-.01-.019-.005-.024-.006-.021-.006-.033-.009-.019-.005-.028-.008-.023-.006-.026-.007-.018-.005-.036-.01-.018-.005-.026-.007-.019-.005-.034-.009-.017-.005-.031-.008-.022-.006-.025-.007-.019-.005L56.5,65.7l-.019-.005-.025-.007-.024-.006L56.4,65.67l-.019-.005-.029-.008-.025-.007-.024-.006-.018-.005-.035-.01-.02-.005-.024-.007-.026-.007-.026-.008-.021-.005-.032-.009-.021-.006-.023-.007-.019-.005-.035-.01-.018-.005-.026-.007-.026-.008-.026-.007-.018-.005-.036-.01-.018-.005-.025-.007-.017-.005-.035-.01-.019-.006-.028-.008-.021-.006-.029-.008-.016-.005-.037-.01-.016-.005-.027-.008-.017-.005-.035-.01L55.5,65.4l-.03-.008-.022-.007-.027-.007-.018-.006-.035-.01-.02-.005-.024-.007-.022-.007-.03-.008-.019-.006-.032-.009-.019-.006-.027-.008-.018-.005-.035-.01-.018-.005-.026-.008-.023-.007-.028-.008L55,65.255l-.032-.009-.021-.006-.025-.008-.017-.005-.036-.01-.017-.005-.03-.009-.018-.006-.03-.009-.018-.005-.036-.011-.015,0-.029-.009-.015,0-.036-.011-.018-.005-.027-.008-.025-.008-.024-.007-.019-.006-.035-.011-.018-.005-.026-.008-.02-.006-.031-.009-.019-.006-.029-.009-.022-.007-.025-.007-.019-.006-.035-.011-.017-.005L54.193,65l-.025-.007-.027-.008-.019-.006-.028-.009-.024-.008-.023-.006-.02-.006-.033-.011-.02-.006-.024-.007-.026-.008-.025-.008-.02-.006-.035-.011-.018-.006-.022-.006-.02-.007-.034-.01-.018-.006-.026-.008-.025-.008-.026-.008-.019-.006-.034-.011-.019-.006L53.56,64.8l-.02-.006-.033-.01-.02-.006-.026-.008-.027-.009-.021-.007-.022-.007-.032-.01-.021-.006-.02-.007-.028-.008-.026-.009-.021-.006-.023-.008-.03-.009-.021-.007-.021-.007-.032-.01-.022-.007-.017-.005-.035-.013-.019-.006L53,64.613l-.021-.007-.033-.01-.019-.006-.021-.007-.033-.011-.02-.006-.021-.007-.029-.009-.025-.008-.019-.006-.03-.01-.024-.008-.023-.007-.018-.006-.034-.011-.02-.007-.023-.007-.027-.009-.025-.008-.019-.006-.034-.013-.019-.006-.021-.007-.025-.008-.029-.01-.02-.006-.024-.008-.027-.009-.024-.008-.019-.006-.033-.011-.021-.007-.02-.007-.028-.009-.026-.008-.021-.007-.021-.007-.031-.011-.021-.006-.02-.007L52,64.272l-.02-.007-.021-.007-.027-.009-.026-.009-.019-.007-.024-.008-.028-.009-.022-.008L51.8,64.2l-.034-.011-.02-.007-.022-.007-.028-.01-.024-.008-.021-.007-.026-.009-.027-.009-.019-.007-.021-.007-.032-.011-.022-.007-.017-.006-.036-.013-.019-.007-.022-.007-.027-.009-.025-.009-.021-.007-.018-.007-.034-.011-.02-.007L51.239,64l-.027-.01-.024-.008-.019-.006-.033-.013-.02-.007-.021-.007-.024-.008-.029-.01-.02-.007L51,63.913l-.026-.009-.024-.008-.018-.007-.034-.013-.018-.006-.025-.009-.018-.006-.032-.011-.019-.007-.025-.009-.027-.01-.02-.007L50.69,63.8l-.031-.011-.021-.008-.019-.007-.031-.011-.021-.007-.021-.008-.021-.007-.032-.013-.019-.007-.02-.007L50.42,63.7l-.021-.008-.022-.007-.029-.011-.021-.007-.022-.008-.022-.008-.03-.011-.02-.007-.022-.008-.03-.011-.02-.007L50.14,63.6l-.03-.011-.021-.007-.02-.008-.032-.011-.021-.008L50,63.541l-.031-.011-.021-.008-.022-.008-.021-.007-.029-.011-.021-.008-.021-.007-.032-.013-.02-.007-.02-.008-.031-.011-.022-.008-.021-.007-.022-.009-.031-.011-.018-.007-.022-.008-.031-.011-.021-.008-.019-.007-.03-.011-.021-.008-.021-.008-.028-.011-.023-.008-.02-.008-.021-.007-.031-.013-.02-.008-.021-.008-.029-.01-.022-.009-.02-.007-.027-.01-.026-.01-.019-.007-.023-.009-.029-.011-.02-.007-.023-.009-.027-.01-.023-.009-.019-.007-.034-.014-.018-.006-.022-.009-.024-.009-.028-.01-.02-.008-.02-.008-.032-.013-.019-.007-.021-.008-.032-.013-.02-.008-.019-.007-.031-.013L48.616,63,48.594,63l-.02-.008-.031-.013-.018-.007-.022-.008-.031-.013-.021-.009-.016-.006-.037-.015-.016-.006-.022-.009-.021-.008-.031-.013-.018-.007-.021-.008-.031-.013-.021-.008-.02-.008-.03-.013-.021-.008-.02-.008L48.1,62.8l-.025-.01-.019-.008-.023-.009L48,62.756l-.019-.008-.022-.008-.029-.013-.021-.008-.02-.008-.023-.009-.03-.013-.018-.007-.027-.011-.025-.01-.021-.008-.019-.007-.033-.014-.018-.007-.021-.009-.031-.013-.02-.008-.02-.008-.026-.011-.026-.01-.019-.008-.023-.009-.029-.011-.02-.008-.02-.008-.032-.014-.02-.008-.02-.008-.03-.013-.021-.008-.021-.009-.021-.008-.03-.013-.018-.008-.021-.008-.031-.014-.022-.008-.018-.008-.031-.013-.021-.009-.02-.008-.023-.009-.03-.014-.015-.006-.039-.017-.013-.005L46.9,62.3l-.014-.005-.037-.017-.016-.006-.023-.01-.014-.006-.038-.016-.013-.006-.044-.019-.009,0-.024-.01-.014-.006-.037-.016-.017-.007-.022-.009-.013-.006-.04-.017-.013-.006-.041-.018-.011,0-.025-.01-.013-.006-.038-.017-.016-.006-.023-.01-.009,0-.043-.019-.014-.005-.04-.018-.012-.005L46.2,62l-.013-.006-.038-.017-.015-.006-.041-.019-.01,0-.024-.01-.013-.005-.04-.018-.012-.005-.024-.011-.014-.006-.037-.016-.016-.007-.042-.019-.009,0-.025-.01-.01-.005-.042-.018-.012-.006-.024-.01-.01,0-.042-.019-.014-.006-.043-.02-.008,0-.026-.011-.009,0-.043-.019-.011-.005-.025-.011h0l-.048-.022-.012-.005L45.4,61.64l-.005,0-.026-.011-.01,0-.043-.02-.011,0-.024-.011-.006,0-.045-.021-.016-.007-.037-.017-.013-.006-.024-.01-.011-.005-.04-.019-.012-.005-.045-.021-.008,0L45,61.458l-.016-.007-.035-.017-.016-.007-.023-.01-.013-.005-.039-.019-.013-.005-.036-.017-.015-.007-.023-.01-.016-.007-.037-.018-.013-.005-.024-.011-.007,0-.044-.021-.013-.006-.039-.018-.014-.006-.022-.01-.015-.006-.039-.019-.012-.005-.077-.035-.011-.005-.046-.022-.006,0-.025-.011-.012-.006-.04-.019-.012-.005-.076-.036-.011,0-.047-.023,0,0-.026-.011-.009-.005-.044-.021-.009,0-.08-.038-.006,0-.048-.023-.007,0-.025-.013-.01,0L43.8,60.9l-.009,0-.051-.025h0l-.025-.013-.009,0-.045-.022-.008,0-.025-.013-.006,0-.046-.022-.011-.005-.042-.02-.01-.005-.024-.011-.011-.005-.042-.02-.011-.005-.024-.011-.009-.005-.044-.021-.01-.005-.045-.021-.008,0-.026-.013-.006,0-.048-.023-.007,0-.025-.013h0l-.051-.024-.01-.005-.046-.022-.006,0-.026-.014,0,0-.048-.023-.009,0-.078-.039-.008,0-.047-.024-.006,0-.027-.013h0l-.052-.025-.006,0-.08-.04-.006,0-.047-.023-.007,0-.08-.039-.006,0-.08-.04-.007,0-.046-.024-.007,0-.078-.039-.009-.005-.048-.024,0,0-.026-.013-.006,0-.048-.024-.006,0-.08-.04-.006,0-.051-.026h0l-.027-.014,0,0-.051-.025-.005,0-.08-.041-.006,0-.133-.068-.007,0-.078-.04-.009,0-.044-.022-.009-.005-.025-.013,0,0-.048-.025-.008,0-.079-.041h0l-.053-.027h0l-.081-.042,0,0-.082-.043h0l-.055-.028h0l-.082-.043h0l-.135-.071,0,0-.08-.042-.007,0-.05-.027h0l-.08-.042-.005,0-.079-.042-.006,0-.05-.026h0l-.08-.043-.005,0-.079-.043,0,0-.051-.027h0l-.078-.043-.008,0-.077-.042-.006,0-.047-.025-.006,0-.078-.042-.007,0-.078-.042,0,0-.047-.026-.008,0-.077-.042-.007,0-.05-.028s0,0,0,0l-.027-.015h0l-.052-.028,0,0-.08-.044,0,0-.053-.029h0l-.08-.044,0,0-.08-.044h0l-.053-.03h0l-.08-.044,0,0-.08-.044h0l-.052-.029h0l-.079-.044,0,0-.133-.074h0l-.081-.046s0,0,0,0c-.237-.133-.471-.266-.706-.4h0l-.216-.125h0l-.215-.125h0l-.216-.126h0L37.2,57.39h0c-.216-.127-.43-.255-.644-.385h0l-.213-.128,0,0A83.228,83.228,0,0,1,.432,11.589,8.861,8.861,0,0,1,17.29,6.121,65.118,65.118,0,0,0,79.376,51.169a8.861,8.861,0,1,1,0,17.722Z" transform="matrix(-0.966, -0.259, 0.259, -0.966, 70.643, 95.69)" fill="#2b7b8a"/>
  </g>
</svg>
