<svg xmlns="http://www.w3.org/2000/svg" xmlns:xlink="http://www.w3.org/1999/xlink" width="197.322" height="72" viewBox="0 0 197.322 72">
  <defs>
    <clipPath id="clip-path">
      <rect id="Rectangle_20363" data-name="Rectangle 20363" width="197.322" height="72" transform="translate(197.322 72) rotate(180)" fill="#fff"/>
    </clipPath>
  </defs>
  <g id="Mask_Group_401" data-name="Mask Group 401" clip-path="url(#clip-path)">
    <g id="Group_45548" data-name="Group 45548" transform="translate(295.576 -35.494) rotate(135)">
      <g id="Group_44694" data-name="Group 44694" transform="translate(285.19 0) rotate(90)">
        <g id="Path_40037" data-name="Path 40037" transform="translate(0 135.122) rotate(-42)">
          <path id="Path_40628" data-name="Path 40628" d="M100.969,0A100.968,100.968,0,1,1,0,100.969,100.968,100.968,0,0,1,100.969,0Z" transform="translate(0 0)" fill="none"/>
          <path id="Path_40629" data-name="Path 40629" d="M96.563,0h-1.45l-.13,0H94.2l-.07,0h-.2l-.057,0h-.136l-.065,0h-.067l-.13,0-.067,0h-.061l-.068,0-.13.005h-.067l-.06,0-.069,0-.064,0H92.83l-.068,0-.059,0-.07,0-.064,0L92.5.08l-.069,0-.058,0-.069,0-.065,0-.062,0-.069,0-.057,0h0l-.069,0-.058,0h-.008l-.062,0-.068,0-.058,0h0l-.068,0-.067,0-.06,0-.069,0-.059,0h0l-.069,0-.067,0-.06,0-.07,0-.063,0-.064,0-.068,0-.057,0h0l-.07,0-.063,0c-.022,0-.042,0-.064,0l-.068,0-.056,0h0l-.07.005-.065,0-.062,0-.07,0-.056,0h0l-.068,0L90.1.2l-.061,0-.069.005-.062,0-.065,0-.068.005-.058,0L89.65.233l-.057,0h0l-.054,0c-.02,0-.048,0-.067.005L89.4.25H89.4l-.056.005h-.013l-.055,0-.06.005c-.019,0-.048,0-.067.005h-.013l-.056,0h0l-.057,0h-.014l-.056,0-.061.005H88.88l-.057,0h-.01L88.755.3h0L88.7.3h-.013l-.056,0-.062.005h-.008l-.055,0h-.014l-.056,0h0l-.052,0h-.015l-.054,0h-.013l-.047,0h-.013l-.054,0h-.014l-.055.005H88.1l-.05.005h-.013l-.055,0h-.013l-.051,0h-.007L87.86.37h-.014l-.055,0h-.008l-.049,0H87.72l-.055.005h-.011L87.6.393h0L87.538.4h-.011L87.47.4h-.01L87.41.41H87.4l-.055.005h-.013l-.056.005h0l-.055.005H87.2c-.016,0-.038,0-.054.005h-.013l-.047.005h-.012l-.055.005h-.013l-.056.005h-.007L86.9.457h-.011L86.83.463h-.012l-.049.005h-.01l-.054.006H86.69l-.053.005h-.009l-.049,0h-.012l-.054.006H86.5L86.448.5H86.44l-.055.006h-.013l-.056.005h-.006L86.256.52h-.01l-.055.006h-.013l-.052.005h0l-.056.005h-.013L86,.547h-.008l-.051.006h-.01l-.055.006h-.013L85.8.567h0l-.056.006h-.013L85.678.58h-.011l-.051.006h-.007l-.056.006h-.014L85.484.6h0l-.052.006h-.014l-.054.006h-.012L85.3.621h-.009l-.054.005-.015,0-.053.006h-.011l-.048.006h-.014l-.054.006h-.013l-.052.006h0l-.056.006H84.9l-.055.006h-.008L84.79.679l-.014,0-.053.006H84.71l-.05.005h-.007L84.6.7l-.015,0L84.53.709l-.012,0-.047.005h-.013l-.053.006-.016,0c-.019,0-.033,0-.051.006h0l-.052.006-.017,0-.051.006H84.2l-.043.005-.015,0-.051.006h-.017l-.053.006h-.007l-.05.006h-.015L83.9.788h-.013L83.833.8h-.007L83.77.8h-.013L83.7.812h0l-.053.008h-.013l-.054.006-.012,0-.048.005h-.01l-.054.008h-.014l-.054.008h-.009L83.328.86h-.013l-.052.008h-.016L83.2.876h-.01l-.052.008h-.017l-.052.008h-.01L83.012.9H83l-.052.008-.016,0-.048.006h-.011L82.82.927l-.013,0-.054.008h-.01l-.05.006h-.01L82.63.954l-.016,0-.053.006h-.005L82.5.971H82.49L82.436.98h-.011l-.047.008h-.012L82.314,1H82.3l-.053.008h-.01l-.047.008h-.014l-.052.008-.015,0-.046.006h-.01L82,1.042l-.015,0-.053.008h-.01l-.046.006-.015,0-.053.008-.013,0-.048.006h-.009l-.053.009h-.015l-.052.008-.015,0-.042.006-.016,0-.051.008-.016,0-.046.006-.012,0-.049.008h-.016l-.052.009h-.013l-.045.008h-.013l-.053.009h-.014l-.048.008-.016,0-.045.006-.017,0c-.016,0-.034.006-.05.008l-.018,0-.041.006h-.015l-.051.009-.018,0-.05.008-.012,0-.043.006-.017,0-.05.008-.018,0-.041.008H80.6l-.051.009-.017,0-.051.008-.013,0-.043.006-.016,0-.05.009-.018,0L80.3,1.3l-.013,0-.051.009a.071.071,0,0,0-.016,0l-.051.008-.015,0-.04.006-.018,0-.048.008-.02,0-.042.008-.016,0-.047.008-.016,0-.05.009-.017,0-.041.006a.062.062,0,0,1-.015,0l-.051.009-.017,0-.047.009h-.014l-.046.008-.018,0-.049.008-.016,0-.043.006-.013,0-.051.009-.016,0-.052.009h-.009l-.047.009-.015,0-.051.009-.015,0-.045.008h-.011l-.051.009-.017,0-.051.009h-.01l-.047.009-.014,0-.052.009-.014,0-.046.008-.01,0-.053.009-.014,0-.054.009-.009,0-.049.009h-.012l-.052.01-.015,0L78.54,1.6h-.006l-.053.01-.015,0-.052.01H78.4l-.046.009-.013,0-.051.009-.015,0-.05.01H78.22l-.05.009-.015,0-.051.009-.014,0-.045.008-.011,0-.052.009-.015,0-.053.009h-.007l-.046.009-.017,0-.051.009-.013,0-.046.009-.011,0-.052.009-.015,0-.052.009-.011,0-.045.009-.014,0-.052.01-.013,0-.049.009h-.007l-.053.01-.015,0-.052.01-.009,0-.046.009-.014,0-.051.01-.014,0-.045.009-.014,0-.048.01-.015,0-.051.01-.013,0-.044.009-.013,0-.051.01-.015,0-.051.01h-.006l-.05.01-.016,0c-.018,0-.033.008-.051.01l-.012,0-.045.009-.013,0-.051.011-.014,0L76.484,2h-.008l-.048.01-.013,0-.052.011-.014,0-.046.009-.01,0-.053.01-.013,0-.054.011h-.007l-.047.01-.016,0-.05.01-.015,0L76,2.1l-.013,0-.05.01-.016,0-.051.01-.012,0-.044.009-.015,0-.05.01-.016,0-.044.009-.011,0-.05.01-.016,0-.051.01-.013,0L75.5,2.2l-.014,0-.05.01-.016,0-.046.01-.013,0-.048.01-.014,0-.052.011-.013,0-.044.01-.013,0-.05.011-.017,0-.05.011h-.007l-.049.011-.013,0-.052.011-.012,0-.045.01-.012,0c-.018,0-.033.006-.051.011l-.015,0-.052.011-.01,0-.045.01-.014,0-.05.011-.017,0-.041.009-.012,0-.051.011-.016,0-.05.011-.012,0-.043.01-.014,0-.05.011-.015,0c-.015,0-.029.006-.044.01l-.012,0-.049.01-.017,0-.049.011-.017,0-.039.009-.016,0-.049.011a.077.077,0,0,0-.017,0l-.046.01-.011,0-.048.01a.074.074,0,0,1-.016,0l-.05.011-.013,0-.044.01-.012,0-.051.011-.015,0-.046.01a.072.072,0,0,1-.016,0c-.015,0-.028.008-.044.01l-.015,0-.049.011-.016,0-.043.01-.012,0-.05.011-.018.005-.047.01-.014,0-.041.01-.018,0-.048.011-.018,0-.038.009-.015,0-.049.011-.018.005-.049.011-.014,0-.041.01-.017,0-.048.011-.019.005-.04.009-.013,0-.047.011-.019.005-.047.011-.016,0-.037.009-.019.005-.046.01-.018.005-.042.01-.015,0-.044.01-.019.005-.046.011-.02.005-.034.008-.02.005-.045.011-.022.005-.038.01-.023.005-.036.009-.022.006-.045.01-.02.005-.035.009L72.049,3,72,3.008l-.02.005-.043.01-.019.005-.039.01-.018,0-.047.013-.018,0-.039.01-.015,0-.047.011-.02.005-.048.013-.013,0-.04.01-.017.005-.048.011-.017.005-.04.01-.017,0-.047.013-.016,0-.05.013-.013,0-.041.01-.016,0-.047.013-.02.005-.04.01-.018,0-.042.011-.019.005-.048.013-.016,0-.037.01-.018,0-.046.013-.019.005-.04.01-.022.006-.039.01-.019.005-.046.011-.019.005-.035.009-.018.005-.046.013-.02.005-.039.01-.024.006-.034.01-.021.005-.045.013-.019.005-.034.009-.023.006-.041.01-.022.006-.036.009-.03.009-.031.008-.021.006-.046.013L70.1,3.5c-.01,0-.027.006-.037.01l-.019.005L70,3.531l-.021.005c-.015.005-.028.008-.043.011l-.021.006-.033.009-.021.006-.045.011-.021.006-.034.009-.028.008-.034.01-.022.005-.044.013-.021.006a.3.3,0,0,0-.032.009l-.021.005-.044.013-.022.006-.033.009-.031.008L69.4,3.7l-.023.006-.043.013-.023.006-.029.008-.026.008-.04.011-.023.006-.035.01-.028.008-.032.009-.022.006-.044.013a.146.146,0,0,0-.022.006l-.031.009-.023.006-.042.011-.021.006-.038.01-.027.008-.03.009-.023.006-.043.013-.023.006-.03.009-.029.008-.036.011-.023.006-.035.01a.274.274,0,0,0-.03.009l-.029.008-.022.006-.042.013-.025.006-.029.009-.032.009-.031.01-.025.006-.039.011-.026.008-.028.009-.023.006-.043.013-.022.006-.031.009-.032.01-.032.009-.022.006-.043.013-.022.006-.03.009-.021.006-.043.013-.024.008-.035.01-.026.008-.036.01-.019.006-.045.013-.02.006-.032.01-.021.006-.042.013-.022.006-.036.01-.026.009-.032.009-.021.008-.042.013-.024.006-.029.009-.026.009-.037.01-.023.008-.039.011-.023.008-.032.01-.022.006-.043.013-.022.006L67,4.4l-.028.009-.034.01-.023.008-.038.011-.026.008-.031.01-.021.006-.044.013-.021.006L66.7,4.49l-.022.008c-.012,0-.024.006-.036.011l-.022.006-.044.014-.018.005-.035.011L66.5,4.55l-.044.014-.022.006-.033.01-.031.01-.03.009-.023.008-.042.014-.021.006-.032.01-.024.008-.038.011-.024.008-.036.011-.026.009-.03.009-.023.008-.043.014-.021.006-.031.01-.03.009-.033.01-.023.008-.035.011-.03.01-.027.008-.024.008-.041.014-.024.008-.029.009-.032.01-.031.01-.024.008-.042.014-.022.008-.027.008-.025.009-.041.013-.022.008-.032.01-.03.01-.031.01-.023.008-.041.014-.023.008-.027.009-.024.008L65.093,5l-.024.008-.031.01L65,5.03l-.026.009-.027.009-.039.013-.026.008-.024.009-.033.01L64.8,5.1l-.025.008-.029.01-.036.011-.025.009-.026.009c-.015,0-.024.008-.039.013l-.027.009-.021.006-.042.015L64.5,5.2l-.027.009-.025.009-.04.013-.023.008-.026.009-.04.014-.025.008-.025.009-.035.011-.03.01-.023.008-.036.013-.029.01-.028.009-.022.008-.041.014L64,5.365l-.027.009-.033.011-.03.01-.023.008-.042.015-.023.008-.026.009-.03.01-.035.013-.024.008-.029.01-.033.011-.029.01L63.6,5.5l-.04.014-.026.009-.024.009-.034.011-.031.01-.025.009-.026.009-.038.014-.025.008-.024.009-.041.014-.024.009-.026.009-.032.011-.032.011-.023.009-.03.01-.034.011-.027.01-.022.008-.041.014-.024.009-.026.01-.034.011-.029.01-.025.009-.031.011-.033.011-.023.009-.025.009-.039.014-.027.009-.021.008-.043.015-.023.009-.026.009-.033.011-.031.011-.026.009-.022.009-.041.014-.025.009a.247.247,0,0,1-.028.01l-.032.013-.029.01-.023.009-.041.014L62.185,6l-.026.009-.029.01-.035.013-.024.009-.03.011-.032.011-.029.01-.022.009c-.015.005-.027.009-.041.015l-.022.008-.03.011-.022.008-.038.014-.024.009-.031.011-.033.013a.181.181,0,0,0-.024.009l-.027.009-.038.014-.026.01-.024.009-.038.014-.026.009-.025.01-.026.009-.039.015a.189.189,0,0,0-.024.009l-.025.009-.039.014-.025.01-.027.009-.035.014-.025.009-.027.01-.027.01-.036.014-.024.009-.027.01-.037.014-.025.009L61,6.443l-.037.014-.025.009-.025.01-.039.014-.025.01-.024.009-.037.014-.026.01-.027.01-.025.009-.036.014-.025.01-.025.009-.039.015-.025.009-.024.01-.037.014-.026.01-.025.009-.027.011-.037.014-.022.009-.027.01-.038.014-.026.01-.024.009-.037.014a.22.22,0,0,1-.026.01l-.025.01-.034.014-.028.01-.025.01-.026.009L60,6.822l-.025.01-.026.01-.035.013-.027.011-.025.009-.032.013L59.8,6.9l-.023.009-.028.011-.035.014-.025.009-.027.011-.033.013-.028.011-.023.009L59.539,7l-.021.008-.027.011a.263.263,0,0,0-.029.011l-.034.013-.025.01-.025.01-.039.015-.023.009-.025.01-.039.015-.025.01-.023.009-.038.015-.024.01-.027.01-.025.01-.038.015-.022.009L59,7.216l-.038.015-.026.011-.019.008-.045.018-.02.008-.027.011L58.8,7.3l-.038.015-.022.009-.026.01-.038.015a.207.207,0,0,1-.025.01l-.024.01-.036.015-.026.01-.025.01-.033.013-.03.013-.023.01-.028.011-.036.014-.023.01-.026.01-.035.015-.026.01-.025.01-.028.011-.036.015-.022.009-.033.014a.316.316,0,0,0-.031.013.212.212,0,0,0-.025.01L58.06,7.6l-.04.016L58,7.626l-.026.011-.038.015-.025.01-.024.01-.032.014-.032.013-.023.01a.25.25,0,0,0-.027.011l-.035.014-.024.01-.024.01-.039.016-.025.01-.024.01-.036.015-.025.01-.026.011-.026.01c-.015.006-.022.01-.037.015l-.022.01-.026.01-.037.016-.026.01-.022.01-.038.015-.026.011-.024.01-.028.011-.037.016-.019.008L57.1,8l-.016.006-.029.013-.016.006-.046.02-.02.008-.028.013-.017.008L56.88,8.1l-.016.008-.053.023-.011,0-.029.013-.017.008-.045.019-.02.009-.027.011-.016.008-.048.02-.016.008-.05.022-.014.005-.03.013-.016.008-.046.02-.019.008-.028.013-.012.005c-.018.008-.034.014-.052.023l-.017.006-.048.022-.015.006-.029.013-.016.008-.047.02-.019.008-.05.023-.013.005-.029.013-.016.008-.048.02-.015.006-.03.014-.017.008-.045.019-.02.009-.051.023a.042.042,0,0,0-.011.005l-.03.013-.013.006-.051.022-.015.008-.029.013-.012.005-.051.023-.018.008-.053.024-.009,0-.031.014-.011.005-.053.023-.013.006-.031.014h0L55.3,8.79l-.014.006-.057.025-.007,0-.031.014-.012.005-.052.024-.014.005-.03.014-.007,0-.055.025L55,8.924l-.045.02-.016.008-.03.013-.014.006-.049.023L54.83,9l-.055.025-.009,0-.027.013-.02.009-.043.02-.02.009-.027.013-.016.006-.048.023-.016.006-.044.02-.019.009-.028.013-.02.009-.045.022-.016.006-.03.014-.009,0-.054.025-.016.008-.047.022-.017.008a.249.249,0,0,0-.027.013l-.018.008-.047.023-.015.006-.093.043-.013.006-.056.027-.007,0-.03.014-.015.008-.049.023-.014.006-.093.044-.013.005-.057.028-.006,0-.031.014-.011.006-.054.025-.011.005-.1.046-.007,0-.059.028-.008,0-.031.015-.012.005-.053.025-.011.005-.062.03h0l-.031.015-.011.005-.055.027-.009,0-.031.015-.008,0L53,9.854l-.013.006-.051.024-.012.006L52.9,9.9l-.013.006-.051.024-.013.006-.029.014-.011.006-.053.025-.012.006-.055.025-.009.005-.031.015-.007,0-.058.028-.009,0-.031.015h0l-.062.029-.012.006-.056.027-.007,0-.032.016,0,0-.058.028-.011.005-.095.047-.009,0-.058.029-.007,0-.032.015h0L52,10.34l-.007,0-.1.048-.007,0-.058.028-.009.005-.1.047-.007,0-.1.048-.009.005-.056.028-.009,0-.095.047-.011.006-.059.029,0,0-.032.015-.007,0-.058.029-.007,0-.1.048-.007,0-.062.032h0l-.033.016,0,0-.062.03-.006,0-.1.049-.007,0-.161.082-.009.005-.094.048-.01.005-.053.027-.011.006-.03.015,0,0-.059.03-.01.005-.1.049h0l-.064.033h0l-.1.051,0,0-.1.052h0l-.067.034h0l-.1.052h0l-.165.086,0,0-.1.051-.008,0-.061.033h0l-.1.051-.006,0-.1.051-.007,0-.06.032h0l-.1.052-.006,0-.1.052-.005,0-.062.033h0l-.1.052-.01.005-.094.051-.007,0-.058.03-.007,0-.095.051-.008.005-.1.051-.005,0-.057.032-.01.005L48.4,12.2a.024.024,0,0,1-.008,0l-.061.034s0,0,0,0l-.033.018s0,0,0,0l-.064.034,0,0-.1.053,0,0-.064.036h0l-.1.053-.005,0-.1.053h0l-.065.037h0l-.1.053-.005,0-.1.053h0l-.063.036h0l-.1.053-.006,0-.162.09h0l-.1.056s0,0,0,0c-.288.162-.573.323-.859.488h0l-.263.152h0l-.262.152h0l-.262.153h0l-.261.155h0c-.262.155-.523.311-.783.468h0l-.259.156,0,0A101.249,101.249,0,0,0,.526,69.709a10.78,10.78,0,0,0,20.508,6.653,79.217,79.217,0,0,1,75.53-54.8,10.78,10.78,0,1,0,0-21.56Z" transform="translate(4.407 0)" fill="#fec717"/>
        </g>
        <g id="Path_40036" data-name="Path 40036" transform="translate(41.627 41.624)">
          <path id="Path_40630" data-name="Path 40630" d="M100.97,0A100.969,100.969,0,1,1,0,100.969,100.968,100.968,0,0,1,100.97,0Z" transform="translate(0 0)" fill="none"/>
          <path id="Path_40631" data-name="Path 40631" d="M96.563,0h-1.45l-.131,0H94.2l-.07,0h-.2l-.057,0h-.136l-.065,0h-.067l-.13,0-.067,0h-.061l-.068,0-.13.005h-.067l-.06,0-.069,0-.064,0H92.83l-.068,0-.059,0-.07,0-.064,0-.064,0-.069,0-.058,0-.069,0-.065,0-.062,0-.069,0-.057,0h0l-.069,0-.058,0h-.008l-.062,0-.068,0-.058,0h0l-.068,0-.067,0-.06,0-.069,0-.059,0h0l-.069,0-.067,0-.06,0-.07,0-.063,0-.064,0-.068,0-.057,0h0l-.07,0-.063,0c-.022,0-.042,0-.064,0l-.068,0-.056,0h0l-.07.005-.065,0-.062,0-.07,0-.056,0h0l-.068,0L90.1.2l-.061,0-.069.005-.062,0-.065,0-.068.005-.058,0-.069.005-.057,0h0l-.054,0c-.02,0-.048,0-.067.005L89.4.25H89.4l-.056.005h-.013l-.055,0-.06.005c-.019,0-.048,0-.067.005h-.013l-.056,0h0l-.057,0h-.014l-.056,0-.061.005H88.88l-.057,0h-.01L88.755.3h0L88.7.3h-.013l-.056,0-.062.005h-.008l-.055,0h-.014l-.056,0h0l-.052,0h-.015l-.054,0H88.3l-.047,0h-.013l-.054,0h-.014l-.055.005H88.1l-.05.005h-.013l-.055,0h-.013l-.051,0h-.007L87.861.37h-.014l-.055,0h-.008l-.049,0H87.72l-.055.005h-.011L87.6.393h0L87.538.4h-.011L87.471.4h-.01L87.41.41H87.4l-.055.005h-.013l-.056.005h0l-.055.005h-.014c-.016,0-.038,0-.054.005h-.013l-.047.005h-.012l-.055.005h-.013l-.056.005h-.007L86.9.457h-.011l-.056.005h-.012L86.77.469h-.01l-.054.006H86.69l-.053.005h-.009l-.049,0h-.012l-.054.006H86.5L86.449.5H86.44l-.055.006h-.013l-.056.005H86.31L86.257.52h-.01l-.055.006h-.013l-.052.005h0l-.056.005h-.013L86,.547h-.008l-.051.006h-.01l-.055.006h-.013L85.8.567h0l-.056.006h-.013L85.678.58h-.011l-.051.006h-.007l-.056.006H85.54L85.484.6h0l-.052.006h-.014L85.36.615h-.012L85.3.621h-.009l-.054.005-.015,0-.053.006h-.011l-.048.006H85.1l-.054.006h-.013l-.052.006h0l-.056.006H84.9l-.055.006h-.008L84.79.679l-.014,0-.053.006H84.71l-.05.005h-.007L84.6.7l-.015,0-.053.005-.012,0-.047.005h-.013l-.053.006-.016,0c-.019,0-.033,0-.051.006h0l-.052.006-.017,0-.051.006H84.2l-.043.005-.015,0-.051.006h-.017L84.02.771h-.007l-.05.006h-.015L83.9.788h-.013L83.833.8h-.007L83.77.8h-.013L83.7.812h0l-.053.008h-.013l-.054.006-.012,0-.048.005h-.01l-.054.008H83.44l-.054.008h-.009L83.328.86h-.013l-.052.008h-.016L83.2.876h-.01l-.052.008h-.017l-.053.008h-.01L83.012.9H83l-.052.008-.016,0-.048.006h-.011L82.82.927l-.013,0-.054.008h-.01l-.05.006h-.01L82.63.954l-.016,0-.053.006h-.005L82.5.971h-.014L82.436.98h-.011l-.047.008h-.012L82.314,1H82.3l-.053.008h-.01l-.047.008h-.014l-.052.008-.015,0-.046.006h-.01L82,1.042l-.015,0-.053.008h-.01l-.046.006-.015,0-.053.008-.013,0-.048.006h-.008l-.053.009h-.015l-.052.008-.015,0-.042.006-.016,0-.051.008-.016,0-.046.006-.012,0-.049.008h-.016l-.052.009h-.013l-.045.008h-.013l-.053.009h-.014l-.048.008-.016,0-.045.006-.017,0c-.016,0-.034.006-.05.008l-.018,0-.041.006h-.015l-.051.009-.017,0-.05.008-.012,0-.043.006-.017,0-.05.008-.018,0-.041.008H80.6l-.051.009-.017,0-.051.008-.013,0-.043.006-.016,0-.05.009-.018,0L80.3,1.3l-.013,0-.051.009a.07.07,0,0,0-.016,0l-.051.008-.015,0-.04.006-.018,0-.048.008-.02,0-.042.008-.016,0-.047.008-.016,0-.05.009-.017,0-.041.006a.062.062,0,0,1-.015,0l-.051.009-.017,0-.047.009h-.014l-.046.008-.018,0-.049.008-.016,0-.043.006-.013,0-.051.009-.016,0-.052.009h-.009l-.047.009-.015,0-.051.009-.015,0-.045.008h-.011l-.051.009-.017,0-.051.009h-.01l-.047.009-.014,0-.052.009-.014,0-.046.008-.01,0-.053.009-.014,0-.054.009-.009,0-.049.009h-.012l-.052.01-.015,0-.049.009h-.006l-.053.01-.015,0-.052.01H78.4l-.046.009-.013,0-.051.009-.015,0-.05.01H78.22l-.05.009-.015,0-.051.009-.014,0-.045.008-.011,0-.052.009-.015,0-.053.009h-.007l-.046.009-.017,0-.051.009-.013,0-.046.009-.011,0-.052.009-.015,0-.052.009-.011,0-.045.009-.014,0-.052.01-.013,0-.049.009h-.007l-.053.01-.015,0-.053.01-.009,0-.046.009-.014,0-.051.01-.014,0-.045.009-.014,0-.048.01-.015,0-.051.01-.013,0-.044.009-.013,0-.051.01-.015,0-.051.01h-.006l-.05.01-.016,0c-.018,0-.033.008-.051.01l-.012,0-.045.009-.013,0-.051.011-.014,0L76.485,2h-.008l-.048.01-.013,0-.052.011-.014,0-.046.009-.01,0-.053.01-.013,0-.054.011h-.007l-.047.01-.016,0-.05.01-.015,0L76,2.1l-.013,0-.05.01-.016,0-.051.01-.012,0-.044.009-.015,0-.05.01-.016,0-.044.009-.011,0-.05.01-.016,0-.051.01-.013,0L75.5,2.2l-.014,0-.05.01-.016,0-.046.01-.013,0-.048.01-.014,0-.052.011-.013,0-.044.01-.013,0-.05.011-.017,0-.05.011h-.007l-.049.011-.013,0-.052.011-.012,0-.045.01-.012,0c-.018,0-.033.006-.051.011l-.015,0-.052.011-.01,0-.045.01-.014,0-.05.011-.017,0-.041.009-.012,0-.051.011-.016,0-.05.011-.012,0-.043.01-.014,0-.05.011-.015,0c-.015,0-.029.006-.044.01l-.012,0-.049.01-.017,0-.049.011-.017,0-.039.009-.016,0-.049.011a.078.078,0,0,0-.017,0l-.046.01-.011,0-.048.01a.074.074,0,0,1-.016,0l-.05.011-.013,0-.044.01-.012,0-.051.011-.015,0-.046.01a.073.073,0,0,1-.016,0c-.015,0-.028.008-.044.01l-.015,0-.049.011-.016,0-.043.01-.012,0-.05.011-.018.005-.047.01-.014,0-.041.01-.018,0-.048.011-.018,0-.038.009-.015,0-.049.011-.018.005-.049.011-.014,0-.041.01-.017,0-.048.011-.019.005-.04.009-.013,0-.047.011-.019.005-.047.011-.016,0-.037.009-.019.005-.046.01-.018.005-.042.01-.015,0-.044.01-.019.005-.046.011-.02.005-.034.008-.02.005-.045.011-.022.005-.038.01-.023.005-.036.009-.022.006-.045.01-.02.005-.035.009L72.049,3,72,3.008l-.02.005-.043.01-.019.005-.039.01-.018,0-.047.013-.018,0-.039.01-.015,0-.047.011-.02.005-.048.013-.013,0-.04.01-.017.005-.048.011-.017.005-.04.01-.017,0-.047.013-.016,0-.05.013-.013,0-.041.01-.016,0-.047.013-.02.005-.04.01-.018,0-.042.011-.019.005-.048.013-.016,0-.037.01-.018,0-.046.013-.019.005-.04.01-.022.006-.039.01-.019.005-.046.011-.019.005-.035.009-.018.005-.046.013-.02.005-.039.01-.024.006-.034.01-.021.005-.045.013-.019.005-.034.009-.023.006-.041.01-.022.006-.036.009-.03.009-.031.008-.021.006-.046.013L70.1,3.5c-.01,0-.027.006-.037.01l-.019.005L70,3.531l-.021.005c-.015.005-.028.008-.043.011l-.021.006-.033.009-.021.006-.045.011-.021.006-.034.009-.028.008-.034.01-.022.005-.044.013-.021.006a.305.305,0,0,0-.032.009l-.021.005-.044.013-.022.006-.033.009-.031.008L69.4,3.7l-.023.006-.043.013-.023.006-.029.008-.026.008-.04.011-.023.006-.035.01-.028.008-.032.009-.022.006-.044.013a.146.146,0,0,0-.022.006l-.031.009-.023.006-.042.011-.021.006-.038.01-.027.008-.03.009-.023.006-.043.013-.023.006-.03.009-.029.008-.036.011-.023.006-.035.01a.274.274,0,0,0-.03.009l-.029.008-.022.006-.042.013-.025.006-.029.009-.032.009-.031.01-.025.006-.039.011-.026.008-.028.009-.023.006-.043.013-.022.006-.031.009-.032.01-.032.009-.022.006-.043.013-.022.006-.03.009-.021.006-.043.013-.024.008-.035.01-.026.008-.036.01-.019.006-.045.013-.02.006-.032.01-.021.006-.042.013-.022.006-.036.01-.026.009-.032.009-.021.008-.042.013-.024.006-.029.009-.026.009-.037.01-.023.008-.039.011-.023.008-.032.01-.022.006-.043.013-.022.006L67,4.4l-.028.009-.034.01-.023.008-.038.011-.026.008-.031.01-.021.006-.044.013-.021.006L66.7,4.49l-.022.008c-.012,0-.024.006-.036.011l-.022.006-.044.014-.018.005-.035.011L66.5,4.55l-.044.014-.022.006-.033.01-.031.01-.03.009-.023.008-.042.014-.021.006-.032.01-.024.008-.038.011-.024.008-.036.011-.026.009-.03.009-.023.008-.043.014-.021.006-.031.01-.03.009-.033.01-.023.008-.035.011-.03.01-.027.008-.024.008-.041.014-.024.008-.029.009-.032.01-.031.01-.024.008-.042.014-.022.008-.027.008-.025.009-.041.013-.022.008-.032.01-.03.01-.031.01-.023.008-.041.014-.023.008-.027.009-.024.008L65.093,5l-.024.008-.031.01-.033.011-.026.009-.027.009-.039.013-.026.008-.024.009-.033.01L64.8,5.1l-.025.008-.029.01-.036.011-.025.009-.026.009c-.015,0-.024.008-.039.013l-.027.009-.021.006-.042.015L64.5,5.2l-.027.009-.025.009-.04.013-.023.008-.026.009-.04.014-.025.008-.025.009-.035.011-.03.01-.023.008-.036.013-.029.01-.028.009-.022.008-.041.014L64,5.365l-.027.009-.033.011-.03.01-.023.008-.042.015-.023.008-.026.009-.03.01-.035.013-.024.008-.029.01-.033.011-.029.01L63.6,5.5l-.04.014-.026.009-.024.009-.034.011-.031.01-.025.009-.026.009-.038.014-.025.008-.024.009-.041.014-.024.009-.026.009-.032.011-.032.011-.023.009-.03.01-.034.011-.027.01-.022.008-.041.014-.024.009-.026.01-.034.011-.029.01-.025.009-.031.011-.033.011-.023.009-.025.009-.039.014-.027.009-.021.008-.043.015-.023.009-.026.009-.033.011-.031.011-.026.009-.022.009-.041.014-.025.009a.247.247,0,0,1-.028.01l-.032.013-.029.01-.023.009-.041.014L62.185,6l-.026.009-.029.01-.035.013-.024.009-.03.011-.032.011-.029.01-.022.009c-.015.005-.027.009-.041.015l-.022.008-.03.011-.022.008-.038.014-.024.009-.031.011-.033.013a.181.181,0,0,0-.024.009l-.027.009-.038.014-.026.01-.024.009-.038.014-.026.009-.025.01-.026.009-.039.015a.188.188,0,0,0-.024.009l-.025.009-.039.014-.025.01-.027.009-.035.014-.025.009-.027.01-.027.01-.036.014-.024.009-.027.01-.037.014-.025.009L61,6.443l-.037.014-.025.009-.025.01-.039.014-.025.01-.024.009-.037.014-.026.01-.027.01-.025.009-.036.014-.025.01-.025.009-.039.015-.025.009-.024.01-.037.014-.026.01-.025.009-.027.011-.037.014-.022.009-.027.01-.038.014-.026.01-.024.009-.037.014a.22.22,0,0,1-.026.01l-.025.01-.034.014-.028.01-.025.01-.026.009L60,6.822l-.025.01-.026.01-.035.013-.027.011-.025.009-.032.013L59.8,6.9l-.023.009-.028.011-.035.014-.025.009-.027.011-.033.013-.028.011-.023.009L59.539,7l-.021.008-.027.011a.263.263,0,0,0-.029.011l-.034.013-.025.01-.025.01-.039.015-.023.009-.025.01-.039.015-.025.01-.023.009-.038.015-.024.01-.027.01-.025.01-.038.015-.022.009L59,7.216l-.038.015-.026.011-.019.008-.045.018-.02.008-.027.011L58.8,7.3l-.038.015-.022.009-.026.01-.038.015a.207.207,0,0,1-.025.01l-.024.01-.036.015-.026.01-.025.01-.033.013-.03.013-.023.01-.028.011-.036.014-.023.01-.026.01-.035.015-.026.01-.025.01-.028.011-.036.015-.022.009-.033.014a.316.316,0,0,0-.031.013.212.212,0,0,0-.025.01L58.06,7.6l-.04.016L58,7.626l-.026.011-.038.015-.025.01-.024.01-.032.014-.032.013-.023.01a.249.249,0,0,0-.027.011l-.035.014-.024.01-.024.01-.039.016-.025.01-.024.01-.036.015-.025.01-.026.011-.026.01c-.015.006-.022.01-.037.015l-.022.01-.026.01-.037.016-.026.01-.022.01-.038.015-.026.011-.024.01-.028.011-.037.016-.019.008L57.1,8l-.016.006-.029.013-.016.006-.046.02-.02.008-.028.013-.018.008-.046.019-.016.008-.053.023-.011,0-.029.013-.017.008-.045.019-.02.009-.027.011-.016.008-.048.02-.016.008-.05.022-.014.005-.03.013-.016.008-.046.02-.019.008-.028.013-.012.005c-.018.008-.034.014-.052.023l-.017.006-.048.022-.015.006-.029.013L56.19,8.4l-.047.02-.019.008-.05.023-.013.005-.029.013-.016.008-.048.02-.015.006-.03.014-.017.008-.045.019-.02.009-.051.023a.042.042,0,0,0-.011.005l-.03.013-.013.006-.051.022-.015.008-.029.013-.012.005-.051.023-.018.008-.053.024-.009,0-.031.014-.011.005-.053.023-.013.006-.031.014h0L55.3,8.79l-.014.006-.057.025-.007,0-.031.014-.012.005-.052.024-.014.005-.03.014-.007,0-.055.025L55,8.925l-.045.02-.016.008-.03.013-.014.006-.049.023L54.83,9l-.055.025-.009,0-.027.013-.02.009-.043.02-.02.009-.027.013-.016.006-.048.023-.016.006-.044.02-.019.009-.028.013-.02.009-.045.022-.016.006-.03.014-.009,0-.054.025-.016.008-.047.022-.017.008a.25.25,0,0,0-.027.013l-.018.008-.047.023-.015.006-.093.043-.013.006-.056.027-.007,0-.03.014-.015.008-.049.023-.014.006-.093.044-.013.005-.057.028-.006,0-.031.014-.011.006-.054.025-.011.005-.1.046-.007,0-.059.028-.008,0-.031.015-.012.005-.053.025-.011.005-.062.03h0l-.031.015-.011.005-.055.027-.009,0-.031.015-.008,0L53,9.854l-.013.006-.051.024-.012.006L52.9,9.9l-.013.006-.051.024-.013.006-.029.014-.011.006-.053.025-.012.006-.055.025-.009.005-.031.015-.007,0-.058.028-.009,0-.031.015h0l-.062.029-.012.006-.056.027-.007,0-.032.016,0,0-.058.028-.011.005-.095.047-.009,0-.058.029-.007,0-.032.015h0L52,10.34l-.007,0-.1.048-.007,0-.058.028-.009.005-.1.047-.007,0-.1.048-.009.005-.056.028-.009,0-.095.047-.011.006-.059.029,0,0-.032.015-.007,0-.058.029-.007,0-.1.048-.007,0-.062.032h0l-.033.016,0,0-.062.03-.006,0-.1.049-.007,0-.161.082-.009.005-.094.048-.01.005-.053.027-.011.006-.03.015,0,0-.059.03-.01.005-.1.049h0l-.064.033h0l-.1.051,0,0-.1.052h0l-.067.034h0l-.1.052h0l-.165.086,0,0-.1.051-.008,0-.061.033h0l-.1.051-.006,0-.1.051-.007,0-.06.032h0l-.1.052-.006,0-.1.052-.005,0-.062.033h0l-.1.052-.01.005-.094.051-.007,0-.058.03-.007,0-.095.051-.008.005-.1.051-.005,0-.057.032-.01.005L48.4,12.2a.024.024,0,0,1-.008,0l-.061.034s0,0,0,0l-.033.018s0,0,0,0l-.064.034,0,0-.1.053,0,0-.064.036h0l-.1.053-.005,0-.1.053h0l-.065.037h0l-.1.053-.005,0-.1.053h0l-.063.036h0l-.1.053-.006,0-.162.09h0l-.1.056s0,0,0,0c-.288.162-.573.323-.859.488h0l-.263.152h0l-.262.152h0l-.262.153h0l-.261.155h0c-.262.155-.523.311-.783.468h0l-.259.156,0,0A101.249,101.249,0,0,0,.526,69.709a10.78,10.78,0,0,0,20.508,6.653,79.218,79.218,0,0,1,75.53-54.8,10.78,10.78,0,1,0,0-21.56Z" transform="translate(4.407 0)" fill="#f47320"/>
        </g>
        <g id="Path_40038" data-name="Path 40038" transform="matrix(0.766, 0.643, -0.643, 0.766, 130.15, 0.346)">
          <path id="Path_40632" data-name="Path 40632" d="M100.97,0A100.97,100.97,0,1,1,0,100.97,100.97,100.97,0,0,1,100.97,0Z" transform="translate(0 0)" fill="none"/>
          <path id="Path_40633" data-name="Path 40633" d="M96.563,0h-1.45l-.131,0H94.2l-.069,0h-.2l-.057,0h-.136l-.065,0h-.067l-.13,0-.067,0h-.061l-.068,0-.13.005h-.067l-.06,0-.069,0-.064,0H92.83l-.068,0-.059,0-.07,0-.064,0L92.5.08l-.069,0-.058,0-.069,0-.065,0-.062,0-.069,0-.057,0h0l-.069,0-.058,0h-.008l-.062,0-.068,0-.058,0h0l-.068,0-.067,0-.06,0-.069,0-.059,0h0l-.069,0-.067,0-.06,0-.07,0-.063,0-.064,0-.068,0-.057,0h0l-.07,0-.063,0-.064,0L90.62.172l-.056,0h0l-.07.005-.065,0-.062,0-.07,0-.056,0h0l-.068,0L90.1.2l-.061,0-.069.005-.062,0-.065,0-.068.005-.058,0-.056,0-.07.005h0l-.054,0c-.02,0-.048,0-.067.005L89.4.25H89.4l-.056.005h-.013l-.055,0-.059.005c-.019,0-.048,0-.067.005h-.013l-.056,0h0l-.057,0h-.014l-.056,0-.061.005H88.88l-.057,0h-.01L88.755.3h0L88.7.3h-.013l-.056,0-.062.005h-.008l-.055,0h-.014l-.056,0h0l-.052,0h-.015l-.054,0H88.3l-.047,0h-.013l-.054,0h-.014l-.055.005H88.1l-.05.005h-.013l-.055,0h-.013l-.051,0h-.007L87.86.37h-.014l-.055,0h-.008l-.049,0H87.72l-.055.005h-.011L87.6.393h0L87.538.4h-.011L87.471.4h-.01L87.41.41H87.4l-.055.005h-.013l-.056.005h0l-.055.005H87.2c-.016,0-.037,0-.054.005h-.013l-.047.005h-.012l-.055.005h-.013l-.056.005h-.007L86.9.457h-.011L86.83.463h-.012l-.049.005h-.01l-.054.006H86.69l-.053.005h-.009l-.049,0h-.012l-.054.006H86.5l-.049,0H86.44l-.055.006h-.013l-.056.005H86.31L86.256.52h-.01l-.055.006h-.013l-.052.005h0l-.056.005h-.013L86,.547h-.008l-.051.006h-.01l-.055.006h-.013L85.8.567h0l-.056.006h-.013L85.678.58h-.011l-.051.006h-.007l-.056.006h-.014L85.484.6h0l-.052.006h-.014l-.054.006h-.012L85.3.621h-.009l-.054.005-.015,0-.053.006h-.011l-.048.006h-.014l-.054.006h-.013l-.052.006h0l-.056.006H84.9l-.055.006h-.008L84.79.679l-.014,0-.053.006H84.71l-.05.005h-.007L84.6.7l-.015,0L84.53.709l-.012,0-.047.005h-.013l-.053.006-.016,0c-.019,0-.033,0-.051.006h0l-.052.006-.017,0-.051.006H84.2l-.043.005-.015,0-.051.006h-.017L84.02.771h-.007l-.05.006h-.015L83.9.788h-.013L83.833.8h-.008L83.77.8h-.013L83.7.812h0l-.053.006-.013,0-.054.006h-.012l-.048.006h-.01l-.054.008H83.44l-.054.008h-.008L83.328.86h-.013l-.052.008h-.016L83.2.876h-.01l-.052.008h-.017l-.053.008h-.01L83.012.9H83l-.052.008-.016,0-.048.006h-.011L82.82.927l-.013,0-.054.008h-.01l-.05.006h-.01L82.63.954l-.016,0-.053.006h-.005L82.5.971H82.49L82.436.98h-.011l-.047.008h-.012L82.314,1H82.3l-.053.008h-.01l-.047.008h-.014l-.052.008-.015,0-.046.006h-.01L82,1.043l-.015,0-.053.008h-.01l-.046.006-.015,0-.053.008-.013,0-.048.006h-.008l-.053.009h-.015l-.052.008-.015,0-.042.006-.016,0-.051.008-.016,0-.047.006-.012,0-.049.008h-.016l-.052.009h-.013l-.045.008h-.013l-.053.009h-.014l-.048.008-.016,0-.045.006-.017,0c-.016,0-.034.006-.05.008l-.018,0-.041.006h-.015l-.051.009-.018,0-.05.008-.012,0-.043.006-.017,0-.05.008-.018,0-.041.008H80.6l-.051.009-.017,0-.051.008-.013,0-.043.006-.016,0-.05.009-.019,0L80.3,1.3l-.013,0-.051.009a.07.07,0,0,0-.016,0l-.051.008-.015,0-.04.006-.018,0-.048.008-.02,0-.042.008-.016,0-.047.008-.016,0-.05.009-.017,0-.041.006a.062.062,0,0,1-.015,0l-.051.009-.017,0-.047.009h-.014l-.046.008-.018,0-.049.008-.016,0-.043.006-.013,0-.051.009-.016,0-.052.009h-.009l-.047.009-.015,0-.051.009-.015,0-.045.008h-.011l-.051.009-.017,0-.051.009h-.01l-.047.009-.014,0-.052.009-.014,0-.046.008-.01,0-.053.009-.014,0-.054.009-.008,0-.049.009h-.012l-.052.01-.015,0-.049.009h-.006l-.053.01-.015,0-.052.01H78.4l-.046.009-.013,0-.051.009-.015,0-.05.01H78.22l-.05.009-.015,0-.051.009a.057.057,0,0,1-.014,0l-.045.009-.011,0-.052.009-.015,0-.053.009h-.007l-.046.009-.017,0-.051.009-.013,0-.046.009-.011,0-.052.009-.015,0-.052.009-.011,0-.045.009-.014,0-.052.01-.013,0-.049.009h-.007l-.053.01-.015,0-.052.01-.009,0-.046.009-.014,0-.051.01-.014,0-.045.009-.014,0-.048.01-.015,0-.051.01-.013,0-.044.009-.013,0-.051.01-.015,0-.051.01h-.006l-.05.01-.016,0c-.018,0-.033.008-.051.01l-.012,0-.045.009-.013,0-.051.011-.014,0L76.484,2h-.008l-.048.01-.013,0-.052.011-.014,0-.046.009-.01,0-.053.01-.013,0-.054.011h-.007l-.047.01-.016,0-.05.01-.015,0L76,2.1l-.013,0-.05.01-.016,0-.051.01-.012,0-.044.009-.015,0-.05.01-.016,0-.044.009-.011,0-.05.01-.016,0-.051.01-.013,0L75.5,2.2l-.014,0-.05.01-.016,0-.046.01-.013,0-.048.01-.014,0-.052.011-.013,0-.044.01-.013,0-.05.01a.079.079,0,0,1-.017,0l-.05.011h-.007l-.049.011-.013,0-.052.011-.012,0-.045.01-.012,0c-.018,0-.033.006-.051.011l-.015,0-.052.011-.01,0-.045.01-.014,0-.05.011-.017,0-.042.009-.012,0-.051.011-.016,0-.05.011-.012,0-.043.01-.014,0-.05.011-.015,0-.044.009-.012,0-.049.01-.017,0-.049.011-.017,0-.039.009-.016,0-.049.011a.077.077,0,0,0-.017,0l-.046.01-.011,0-.048.01a.074.074,0,0,1-.016,0l-.05.011-.013,0-.044.01-.012,0-.051.011-.015,0-.046.01a.073.073,0,0,1-.016,0c-.015,0-.028.008-.044.01l-.015,0-.049.011-.016,0-.043.01-.012,0-.05.011-.018.005-.047.01-.014,0-.041.01-.018,0-.048.011-.018,0-.038.009-.015,0-.049.011-.018.005-.049.011-.014,0-.041.01-.017,0-.048.011-.019.005-.04.009-.013,0-.047.011-.019.005-.047.011a.076.076,0,0,0-.016,0l-.037.009-.019.005-.046.01-.018.005-.042.01-.015,0-.044.01-.019.005-.046.011-.02.005-.034.008-.02.005-.045.011-.022.005-.038.01-.023.005-.036.009-.022.006-.045.01-.02.005-.035.009L72.049,3,72,3.008l-.02.005-.043.01-.019.005-.039.01-.018,0-.047.013-.018,0-.039.01-.015,0-.047.011-.02.005-.048.013-.013,0-.04.01-.017.005-.048.011-.017.005-.04.01-.017,0-.047.013-.016,0-.05.013-.013,0-.041.01-.016,0-.047.013-.02.005-.04.01-.018,0-.042.011-.019.005-.048.013-.016,0-.037.01-.018,0-.046.013-.019.005-.04.01-.022.006-.039.01-.019.005-.046.011-.019.005-.035.009-.018.005-.046.013-.02.005-.039.01-.024.006-.034.009-.021.006-.046.013-.019.005-.034.009-.023.006-.041.01-.022.006-.036.009-.03.009-.031.008-.021.006-.046.013L70.1,3.5c-.01,0-.027.006-.037.01l-.019.005L70,3.531l-.021.005-.043.011-.021.006-.033.009-.021.006-.045.011-.021.006-.034.009-.028.008-.034.01-.022.005-.044.013-.021.006a.305.305,0,0,0-.032.009l-.021.005-.044.013-.022.006-.033.009-.031.008L69.4,3.7l-.023.006-.043.013-.023.006-.029.008-.026.008-.04.011-.023.006-.035.01-.028.008-.032.009-.022.006-.044.013a.142.142,0,0,0-.022.006l-.031.009-.023.006-.042.011-.021.006-.038.01-.027.008-.03.009-.023.006-.043.013-.023.006-.03.009-.029.008-.036.011-.023.006-.035.01a.274.274,0,0,0-.03.009l-.029.008-.022.006-.042.013-.025.006-.029.009-.032.009-.031.01-.025.006-.039.011-.026.008-.028.009-.023.006-.043.013-.022.006-.031.009-.032.01-.032.009-.022.006-.043.013-.022.006-.03.009-.021.006-.043.013-.024.008-.035.01-.026.008-.036.01-.019.006-.045.013-.02.006-.032.01-.021.006-.042.013-.022.006-.036.01-.026.009-.032.009-.021.008-.042.013-.024.006-.029.009-.026.009-.037.01-.023.008-.039.011-.023.008-.032.01-.022.006-.043.013-.022.006L67,4.4l-.028.009-.034.01-.023.008-.038.011-.026.008-.031.01-.021.006-.044.013-.021.006L66.7,4.49l-.022.008c-.012,0-.024.006-.036.011l-.022.006-.044.014-.018.005-.035.011L66.5,4.55l-.044.014-.022.006-.033.01-.031.01-.03.009-.023.008-.042.014-.021.006-.032.01-.024.008-.038.011-.024.008-.036.011-.026.009-.03.009-.023.008-.043.014-.021.006-.031.01-.03.009-.033.01-.023.008-.035.011-.03.01-.027.008-.024.008-.04.014-.024.008-.029.009-.032.01-.031.01-.024.008-.042.014-.022.008-.027.008-.025.009-.041.013-.022.008-.032.01-.03.01-.031.01-.023.008-.041.014-.023.008-.027.009-.024.008L65.093,5l-.024.008-.031.01-.033.011-.026.009-.027.009-.039.013-.026.008-.024.009-.033.01L64.8,5.1l-.025.008-.029.01-.036.011-.025.009-.026.009c-.015,0-.024.008-.039.013l-.027.009-.021.006-.042.015L64.5,5.2l-.027.009-.025.009-.04.013-.023.008-.026.009-.04.014-.025.008-.025.009-.035.011-.03.01-.023.008-.036.013-.029.01-.028.009-.022.008-.041.014L64,5.365l-.027.009-.033.011-.03.01-.023.008-.042.015-.023.008-.026.009-.03.01-.035.013-.024.008-.029.01-.033.011-.029.01L63.6,5.5l-.04.014-.026.009-.024.009-.034.011-.031.01-.025.009-.026.009-.038.014-.025.008-.024.009-.041.014-.024.009-.026.009-.032.011-.032.011-.023.009-.03.01-.034.011-.027.01-.022.008-.041.014-.024.009-.026.009-.034.013-.029.01-.025.009-.031.011-.033.011-.023.009-.025.009-.039.014-.027.009-.021.008-.043.015-.023.009-.026.009-.033.011-.031.011-.026.009-.022.009-.041.014-.025.009a.247.247,0,0,1-.028.01l-.032.013-.029.01-.023.008-.041.015L62.185,6l-.025.009-.029.01-.035.013-.024.009-.03.011-.032.011-.029.01-.022.009-.041.015-.022.008-.03.011-.022.008-.038.014-.024.009-.031.011-.033.013a.182.182,0,0,0-.024.009l-.027.009-.038.014-.026.01-.024.009-.038.014-.026.009-.025.01-.026.009-.039.015a.181.181,0,0,0-.024.009l-.025.009-.039.014-.025.01-.027.009-.035.014-.025.009-.027.01-.027.01-.036.014-.024.009-.027.01-.037.014-.025.009L61,6.443l-.037.014-.025.009-.025.01-.039.014-.025.01-.024.009-.037.014-.026.01-.027.01-.025.009-.036.014-.025.01-.025.009-.039.015-.025.009-.024.01-.037.014-.026.01-.025.009-.027.011-.037.014-.022.009-.026.01-.038.014-.026.01-.024.009-.037.014a.22.22,0,0,1-.026.01l-.025.01-.034.014-.028.01-.025.01-.026.009L60,6.822l-.025.01-.026.01-.035.013-.027.011-.025.009-.032.013L59.8,6.9l-.023.009-.028.011-.035.014-.025.009-.027.011-.033.013-.028.011-.023.009L59.539,7l-.021.008-.027.011a.263.263,0,0,0-.029.011l-.034.013-.025.01-.025.01-.039.015-.023.009-.025.01-.039.015-.025.01-.023.009-.038.015-.024.01-.027.01-.025.01-.038.015-.022.009L59,7.216l-.038.015-.026.011-.019.008-.045.018-.019.008-.027.011L58.8,7.3l-.038.015-.022.009-.026.01-.038.015a.206.206,0,0,1-.025.01l-.024.01-.036.015-.026.01-.025.01-.033.013-.03.013-.023.01-.028.011-.036.014-.023.01-.026.01-.035.015-.026.01-.025.01-.028.011-.036.015-.022.009-.033.014a.316.316,0,0,0-.031.013.211.211,0,0,0-.025.01L58.06,7.6l-.04.016L58,7.626l-.026.011-.038.015-.025.01-.024.01-.032.014-.032.013-.023.01a.251.251,0,0,0-.028.011l-.035.014-.024.01-.024.01-.039.016-.025.01-.024.01-.036.015-.025.01-.026.011-.026.01c-.015.006-.022.01-.037.015l-.022.01-.026.01-.037.016-.026.01-.022.01-.038.015-.026.011-.024.01-.028.011-.037.016-.019.008L57.1,8l-.016.006-.029.013-.016.006-.046.02-.02.008-.028.013-.018.008L56.88,8.1l-.016.008-.053.023-.011,0-.029.013-.017.008-.045.019-.02.009-.027.011-.016.008-.048.02-.016.008-.05.022-.014.005-.03.013-.016.008-.046.02-.019.008-.028.013-.012.005c-.018.008-.034.014-.052.023l-.017.006-.048.022-.015.006-.029.013-.016.008-.047.02-.019.008-.05.023-.013.005-.029.013-.016.006c-.018.009-.031.014-.048.022l-.015.006-.03.014-.017.008-.045.019-.02.009-.051.023a.042.042,0,0,0-.011.005l-.03.013-.013.006-.051.022-.015.008-.029.013-.012.005-.051.023-.018.008-.053.024-.009,0-.031.014-.011.005-.053.023-.013.006-.031.014h0L55.3,8.79l-.014.006-.057.025-.007,0-.031.014-.012.005-.052.024-.014.005-.03.014-.007,0-.055.025L55,8.925l-.045.02-.016.008-.03.013-.014.006-.049.023L54.83,9l-.055.025-.009,0-.027.013-.02.009-.043.02-.02.009-.027.013-.016.006-.047.023-.016.006-.044.02-.019.009-.028.013-.02.009-.045.022-.016.006-.03.014-.009,0-.054.025-.016.008-.047.022-.017.008a.249.249,0,0,0-.027.013l-.018.008-.047.023-.015.006-.093.043-.013.006-.056.027-.007,0-.03.014-.015.008-.049.023-.014.006-.093.044-.013.005-.057.028-.006,0-.031.014-.011.006-.054.025-.011.005-.1.046-.007,0-.059.028-.008,0-.031.015-.012.005-.053.025-.011.005-.062.03h0l-.031.015-.011.005-.055.027-.009,0-.031.015-.008,0L53,9.854l-.013.006-.051.024-.012.006L52.9,9.9l-.013.006-.051.024-.013.006-.029.014-.011.006-.053.025-.012.006-.055.025-.009.005-.031.015-.007,0-.058.028-.009,0-.031.015h0l-.062.029-.012.006-.056.027-.007,0-.032.016,0,0-.058.028-.011.005-.095.047-.009,0-.058.029-.007,0-.032.015h0L52,10.34l-.007,0-.1.048-.007,0-.058.028-.009.005-.1.047-.007,0-.1.048-.009,0-.056.029-.009,0-.095.047-.011.006-.059.029,0,0-.032.015-.007,0-.058.029-.007,0-.1.048-.007,0-.062.032h0l-.033.016,0,0-.062.03-.006,0-.1.049-.007,0-.161.082-.009.005-.094.048-.01.005-.053.027-.011.006-.031.015,0,0-.059.03-.01.005-.1.049h0l-.064.033h0l-.1.051,0,0-.1.052h0l-.067.034h0l-.1.052h0l-.165.086,0,0-.1.051-.008,0-.061.033h0l-.1.051-.006,0-.1.051-.007,0-.061.032h0l-.1.052-.006,0-.1.052-.006,0-.062.033h0l-.1.052-.01.005-.094.051-.007,0-.058.03-.007,0-.095.051-.008.005-.1.051-.005,0-.057.032-.01.005L48.4,12.2a.024.024,0,0,1-.008,0l-.061.034s0,0,0,0l-.033.018s0,0,0,0l-.064.034,0,0-.1.053,0,0-.064.036h0l-.1.053-.005,0-.1.053h0l-.065.037h0l-.1.053-.005,0-.1.053h0l-.063.036h0l-.1.053-.006,0-.162.09h0l-.1.056s0,0,0,0c-.288.162-.573.323-.859.488h0l-.263.152h0l-.262.152h0l-.262.153h0l-.261.155h0c-.262.155-.523.311-.783.468h0l-.259.156,0,0A101.249,101.249,0,0,0,.526,69.709a10.78,10.78,0,0,0,20.508,6.653,79.217,79.217,0,0,1,75.53-54.8,10.78,10.78,0,0,0,0-21.56Z" transform="translate(4.407 0)" fill="#2b7b8a"/>
        </g>
        <g id="Path_40041" data-name="Path 40041" transform="translate(43.905 142.761) rotate(-45)">
          <path id="Path_40634" data-name="Path 40634" d="M69.753,0A69.753,69.753,0,1,1,0,69.753,69.753,69.753,0,0,1,69.753,0Z" fill="none"/>
          <path id="Path_40635" data-name="Path 40635" d="M68.711,0H66.918l-.05,0H66.62l-.1,0h-.05l-.051,0h-.1l-.051,0h-.1l-.047,0h-.051l-.05,0h-.05l-.046,0H65.88l-.051,0H65.78l-.048,0h-.1l-.05,0-.049,0h-.046l-.051,0-.05,0-.049,0-.046,0-.051,0-.05,0-.049,0h-.045l-.045,0h-.006l-.051,0-.05,0-.046,0-.049,0-.051,0-.051,0-.047,0-.047,0-.052,0-.051,0-.049,0-.044,0h0l-.051,0-.051,0-.049,0-.047,0-.049,0-.052,0-.05,0-.048,0-.046,0-.052,0-.05,0-.049,0-.043,0h0l-.051,0-.05,0-.049,0-.045,0h0l-.051,0-.05,0-.049,0-.047,0-.048,0-.05,0-.051,0-.048,0-.046,0-.05,0-.051,0-.049.005-.042,0h0l-.049,0-.05,0-.05,0-.047,0-.047,0-.05.005-.05,0L62.59.265l-.046,0-.051,0-.049.005-.051,0-.039,0h0l-.042,0H62.3l-.041,0h-.009l-.042,0H62.2l-.043,0h0l-.042,0h-.006l-.043,0h-.007l-.042,0h-.007l-.043,0h0l-.044,0h0l-.044,0h-.007l-.042,0h-.007l-.044.005h0l-.045.005h0l-.044,0h-.007l-.042,0h-.008l-.042,0h-.005l-.091.01h0l-.042.005-.05.005h-.008l-.042.005h-.006l-.04.005h-.006L61.238.4h-.009L61.188.4H61.18l-.043,0h0l-.043,0h0l-.043.005h-.008l-.041,0h-.009l-.041.005h-.008L60.9.432h-.005l-.039.005h-.01l-.039,0h-.01l-.04.005h-.008l-.043,0h0l-.044,0H60.65l-.042.005H60.6l-.042,0H60.55l-.042.005h0c-.012,0-.029,0-.041.005h-.005l-.042.005h-.007c-.012,0-.029,0-.041.005h-.008L60.315.5H60.31l-.044.005h0l-.044.005h-.007l-.041.005h-.008l-.041.005h-.008l-.042.005h-.005l-.04.005h-.007l-.04.005h-.01L59.93.547h-.008L59.88.553h-.005l-.043.005h0l-.043.006h-.007l-.042.006H59.73l-.041.006H59.68l-.039.005h0L59.595.59h-.008L59.547.6h-.01L59.5.6h-.009L59.447.61h0L59.4.615h-.008l-.04.005h-.01l-.039.005-.011,0-.04.005h-.006L59.21.642H59.2l-.041.006h-.009l-.04.005H59.1l-.041.006h0l-.042.006h0l-.043.006h-.006l-.041.005h-.009l-.041.006h-.007l-.041.006h0L58.778.7H58.77l-.04.006h-.01l-.04.005h-.009L58.63.723h0l-.04.006h-.007l-.041.005h-.009l-.04.006H58.48l-.041.006h-.007l-.039.005h-.006l-.041.006h-.009L58.3.772H58.29l-.042.006h-.006L58.2.786h0l-.043.006h-.008L58.106.8H58.1l-.042.006h-.006l-.044.006h0l-.042.008h-.008l-.04.006h-.009l-.04.006h-.008l-.041.008h-.006l-.037.006h-.008l-.04.006h-.009l-.04.006h-.008l-.041.006H57.62l-.04.006h-.005L57.534.89h-.008L57.486.9h-.01l-.04.006h-.008L57.39.913h-.008l-.038.006h-.008L57.3.93h-.01l-.039.006h-.009L57.2.945h-.007l-.037.006h-.008l-.04.006-.01,0-.039.006h-.01l-.039.008H57l-.036.005h-.007l-.039.008h-.011L56.868,1l-.011,0-.039.006h-.009l-.037.006h-.008l-.037.006-.011,0-.038.006-.011,0-.038.006h-.012l-.039.008h-.005l-.037.008h-.01l-.039.006-.01,0-.039.006-.01,0-.04.006h-.007l-.037.006h-.008L56.3,1.1h-.01l-.038.008h-.012l-.038.008h-.009l-.038.008h0l-.041.008H56.1l-.039.008h-.01l-.04.008H56l-.042.008h0l-.042.008h-.006l-.04.006-.01,0-.039.008h-.008l-.041.008h-.006l-.039.008h-.005l-.041.008-.009,0-.04.008h-.008l-.041.008h-.006l-.041.008s0,0,0,0l-.042.008h-.008l-.04.008h-.009l-.04.009h-.008l-.041.008h0l-.041.009H55.3l-.04.008h-.008l-.04.008-.008,0-.042.008s0,0,0,0l-.04.008h-.007l-.041.008h-.007l-.041.009h-.007l-.042.009h0l-.041.009h0l-.043.009h-.005l-.041.008-.008,0-.041.008h-.006l-.04.009h-.005l-.041.009h-.006l-.042.009h-.007l-.041.008-.007,0-.042.008h0l-.039.008H54.5l-.04.009h-.008l-.04.009H54.4l-.04.009h-.006l-.038.008H54.31l-.04.009h-.008l-.04.009h-.008l-.04.009h-.008l-.038.009h0l-.04.009-.009,0-.039.008-.01,0-.038.008-.011,0-.035.008-.009,0-.036.008h-.01l-.038.009-.01,0L53.8,1.6l-.008,0-.04.009h-.006l-.037.008H53.7l-.039.009-.011,0-.037.008-.011,0-.038.009h-.008l-.035.009h-.008l-.038.009-.011,0-.036.008-.013,0-.037.009h-.008l-.036.009h-.01l-.035.009a.034.034,0,0,0-.011,0l-.036.008-.014,0-.036.009-.01,0-.039.009h-.007l-.036.008-.009,0-.038.009a.035.035,0,0,0-.011,0l-.038.008-.01,0-.039.009-.007,0-.037.008h-.007l-.038.009-.011,0c-.012,0-.026.006-.037.009l-.011,0-.038.009-.009,0-.037.009h-.006l-.038.009-.01,0c-.012,0-.026.005-.037.009l-.011,0c-.012,0-.026.005-.037.009h-.01l-.039.01h0l-.036.008a.033.033,0,0,1-.011,0c-.012,0-.025.006-.037.009a.033.033,0,0,1-.011,0c-.012,0-.025.006-.037.009l-.011,0-.038.01h-.007l-.035.009H52.3l-.038.009-.011,0-.037.01a.035.035,0,0,0-.011,0l-.037.009-.01,0-.035.008-.007,0-.039.009-.009,0-.037.009-.012,0c-.012,0-.025.006-.037.009l-.011,0-.033.008-.013,0-.033.009-.011,0-.036.009-.014,0-.035.008-.012,0-.033.008-.014,0-.032.008-.009,0-.037.009-.013,0-.036.009-.011,0-.037.01a.029.029,0,0,0-.01,0l-.033.008-.008,0-.038.009-.011,0-.037.01-.012,0-.036.009-.011,0-.035.009h-.007l-.038.01h-.008l-.038.01-.01,0-.037.01-.012,0-.034.009-.011,0-.032.009-.011,0-.036.01-.012,0-.035.009-.014,0-.035.009a.03.03,0,0,1-.01,0l-.031.009-.01,0-.037.01-.01,0-.036.009-.013,0-.035.009-.012,0-.031.008-.015,0-.03.009-.014,0-.034.009-.014,0-.034.009-.013,0-.031.008-.015,0-.029.009-.013,0-.034.01-.013,0-.034.009-.014,0-.03.008-.016.005-.027.008-.016,0-.03.009-.016,0-.033.009-.014,0-.034.01-.012,0-.03.009-.013,0-.032.009-.014,0-.034.009-.013,0L50,2.536l-.013,0-.029.009-.016,0-.028.008-.015.005-.033.009-.014,0-.034.01-.014,0a.284.284,0,0,0-.031.009l-.014,0-.029.008-.012,0-.035.01-.013,0-.035.01-.013,0-.035.01-.011,0-.029.009-.015,0-.031.009-.013,0-.034.01-.014,0-.034.01-.011,0-.031.009-.014,0-.032.009-.011,0-.035.01-.013.005-.034.009-.012,0-.031.009-.015.005-.029.008-.013,0-.034.01-.014,0-.034.01-.013,0L49,2.824l-.011,0-.03.009-.011,0-.035.01-.013,0-.034.01-.013,0-.034.01-.013,0-.029.009-.015.005-.03.009-.014,0-.034.01-.013,0-.033.01-.014,0a.275.275,0,0,1-.03.009l-.013.005-.031.009-.012,0-.034.01-.013,0-.033.01-.015,0L48.408,3,48.4,3l-.031.009-.011,0-.035.01-.013,0-.033.01-.014.005-.034.01-.011,0-.031.009-.01,0-.035.01-.012,0-.034.01-.013,0-.035.011-.011,0L48,3.126l-.01,0-.034.011-.009,0-.035.011-.013,0-.035.01-.011,0-.033.01-.012,0-.031.01-.01,0-.034.011-.015,0-.033.011-.014,0-.032.01-.014.005-.027.008-.016.005-.031.01-.014,0-.033.011-.013,0-.034.011-.013,0-.026.009-.02.005-.025.009-.015.005-.032.01-.015.005-.032.01a.069.069,0,0,0-.015.005l-.028.009-.016.005-.028.009-.013,0-.034.011-.013,0-.034.011-.013,0-.034.011-.012,0-.027.009L47,3.446l-.03.01-.014,0-.033.011-.014.005-.033.01-.013.005-.026.008-.02.006-.027.009-.014.005-.033.011-.014,0-.033.011-.014.005a.22.22,0,0,0-.027.009l-.019.005-.026.009-.014.005-.033.011-.014,0-.033.011-.013,0-.03.01-.016.006-.028.009-.012,0-.034.011-.013.005-.034.011-.013,0-.032.011-.014,0-.026.01-.016.005-.029.009-.015.005-.033.011-.013.005-.033.011-.014,0-.026.01-.019.006-.026.009-.015.005-.031.01-.015.005-.032.011-.015.005-.026.009-.019.006-.025.009-.014.005-.031.01-.016.006-.03.01-.016.006-.027.009-.018.006-.024.009-.02.006-.026.01-.015.005-.031.01-.015.006-.032.011-.013,0-.026.009-.018.008-.027.009-.014.005L45.4,3.99l-.016.005-.031.011-.014.005-.027.009-.018.008a.193.193,0,0,0-.025.009l-.015.005-.031.01-.017.006-.03.011-.015.005-.03.01a.063.063,0,0,1-.014.005l-.027.01-.014.005-.031.011-.015.005L45,4.133l-.014.005-.031.011-.014.005a.228.228,0,0,0-.027.01L44.9,4.17l-.027.01-.015.005a.315.315,0,0,1-.031.011L44.81,4.2l-.032.011-.013.005-.031.01-.012.005-.029.01-.014.005-.032.011a.062.062,0,0,1-.014.005l-.031.013-.016.005-.026.01-.018.006-.023.009-.023.009-.022.008-.017.006-.03.011-.016.006-.028.01-.016.006-.025.009-.017.006-.029.01a.061.061,0,0,1-.014.005l-.031.013-.016.005-.03.011-.016.006-.023.009-.021.008-.025.009-.014.006-.031.011-.015.005-.031.013-.014.005-.026.01-.019.006-.025.01-.013.005-.032.011-.015.006-.031.011-.015.006-.025.009-.021.009-.022.008L43.75,4.6l-.026.01-.015.006-.03.011-.016.006-.027.01-.019.008-.022.009a.13.13,0,0,0-.021.008l-.024.009-.015.006-.03.011-.016.006-.029.011-.017.006-.021.009-.023.009-.022.009-.015.006-.03.011-.016.006-.03.011-.017.006-.024.01-.02.008-.023.009-.019.008-.027.01-.015.006-.03.011-.016.006-.028.011-.016.006-.024.009A.116.116,0,0,1,43,4.889l-.024.01-.016.006-.03.011-.016.008-.03.011-.015.006-.023.009-.022.009-.022.009-.016.006-.029.011-.016.006-.03.013-.015.006-.024.009-.021.009-.023.009-.018.008-.027.01-.016.008-.031.011-.015.006-.026.01-.02.008-.023.01-.017.006-.026.011-.017.006-.03.013-.014.005-.031.013-.014.006-.024.01-.02.008-.024.01-.015.006-.03.013-.015.006-.031.013-.014.005-.025.01-.02.009-.022.009-.018.008-.028.011-.015.006-.031.013-.014.006-.027.01a.107.107,0,0,1-.018.008l-.022.01-.02.008-.025.011-.016.006-.029.011-.017.008-.028.011-.017.008-.022.009-.022.009-.023.01-.015.006-.03.013-.016.006-.03.013-.013.005-.027.011-.016.008-.026.01-.014.006-.031.013-.015.006-.03.013L41.4,5.55l-.027.011-.017.008-.024.01-.014.006-.031.013-.014.006-.031.013-.014.006-.031.014-.013.005-.027.011-.014.006-.028.011-.015.006-.03.014-.014.006-.03.013-.015.006-.025.01-.016.008-.026.011-.014.006-.031.013-.014.006-.03.014-.015.006-.026.011L40.8,5.81l-.026.011-.014.006-.03.013-.014.006-.03.014-.016.006-.026.011-.018.008L40.6,5.9l-.017.008-.026.011-.016.008-.029.013-.016.006-.03.014-.014.006-.023.01-.021.009-.024.01L40.369,6l-.028.011-.018.009a.273.273,0,0,0-.028.013l-.016.006-.022.01-.021.009-.023.01-.014.006-.03.014-.016.006-.029.014-.015.006-.025.011-.02.009-.021.009a.141.141,0,0,1-.02.009L40,6.164l-.016.008-.028.013-.016.008-.026.011-.018.009-.022.01-.02.009-.023.01-.016.008-.029.013-.017.008-.026.011-.018.009L39.7,6.3l-.024.011-.018.009-.024.01-.022.01-.018.008-.027.013-.018.009-.019.009-.025.011-.016.008-.028.013-.018.008-.018.009-.027.013-.019.009a.108.108,0,0,0-.018.008l-.027.013-.017.008-.027.013-.018.008-.018.009-.027.013-.017.008-.023.011-.022.01-.017.008-.027.013-.017.009a.167.167,0,0,0-.022.01l-.023.01-.018.009-.025.011L39,6.624l-.016.008-.03.014-.015.008-.028.013-.017.009-.019.009-.027.013-.017.008-.018.009-.027.013-.016.008-.026.013-.019.009-.018.008-.028.014-.017.008-.022.01-.024.011-.018.009-.024.011-.021.01-.016.008-.028.013-.016.009-.028.013-.016.008-.02.01-.024.011-.019.009-.02.01-.024.011-.018.009-.026.013-.018.009-.019.009-.025.011L38.225,7,38.2,7.01l-.02.009-.018.009-.026.013-.018.009L38.1,7.06l-.02.009-.019.01-.023.011-.02.01L38,7.108l-.026.013-.019.01-.022.01-.021.01-.019.01a.236.236,0,0,0-.025.013l-.018.008-.021.011L37.8,7.2l-.018.01-.026.013-.017.009-.018.009-.025.013-.017.008-.027.014-.016.008-.019.01-.025.013-.019.009-.018.009a.244.244,0,0,1-.026.013l-.017.009-.027.014-.016.008-.024.013-.021.01-.018.009-.017.009-.027.014-.015.008-.028.014-.014.008-.03.015-.015.006-.019.01-.018.009-.026.014-.016.008-.027.014-.016.008-.027.014-.017.009-.018.009-.026.014-.018.009-.016.009-.028.014-.014.008-.028.014-.015.008-.019.01-.025.013-.019.01-.016.008-.029.015-.014.008-.03.015-.015.008-.029.014-.014.008-.021.011-.011.005-.033.018-.011.005-.032.016-.013.008-.027.014-.016.009-.021.01-.007,0-.037.019-.011.006-.033.016-.012.006-.03.015-.015.009-.02.01-.024.013-.02.01-.012.006-.033.018-.01.005L36.241,8l-.014.008-.019.009-.025.014-.019.01-.016.008-.029.015-.013.008-.03.015-.014.008-.027.015a.106.106,0,0,0-.017.009.142.142,0,0,0-.019.01l-.014.008-.03.015-.013.008-.03.015-.013.008-.03.015-.014.008-.019.01-.025.014-.02.01-.014.008-.029.015-.014.008-.029.015-.015.009-.023.011-.021.011-.02.01a.078.078,0,0,1-.014.008l-.029.016a.083.083,0,0,0-.014.008l-.028.014-.016.009-.019.01-.024.014-.018.009-.022.013-.021.011-.016.009-.027.015-.014.008-.03.016-.012.006-.02.011-.024.013-.019.011-.013.006-.03.016-.013.008-.03.016-.013.006-.021.013-.023.011-.019.011-.015.008-.029.016-.013.008-.03.016L35,8.673l-.034.019-.01.005-.02.011-.014.008-.029.016-.012.006-.032.018-.011.006-.035.019-.009.005-.021.011-.013.006a.324.324,0,0,1-.03.016l-.015.009-.028.016-.012.006-.033.019-.01.005-.064.037-.01.005-.034.019-.009.005-.036.02-.008.005L34.405,9l-.009.006-.033.018-.012.008-.033.018-.009.006-.034.019-.01.005-.021.011-.01.006-.033.019-.012.006-.032.018-.01.006-.034.019-.01.005-.021.013-.007,0-.036.02-.011.006L34,9.237l-.013.008-.031.018-.011.006-.032.019-.011.006-.02.011-.008.005-.035.02-.009.005-.034.02-.009.005-.037.022-.007,0-.021.013h0l-.04.024-.006,0-.036.022-.01.006-.036.02-.007,0-.065.038-.006,0-.037.022-.009.005-.035.02-.008.005-.065.038-.007,0-.036.022-.01.005-.031.019-.012.008-.032.019-.01.005L33.2,9.7l-.006,0-.036.022-.01.005-.034.02L33.1,9.76l-.041.025h0L33,9.825l-.008.005-.034.02-.009.005-.032.019-.011.008-.063.038-.008,0-.035.022-.008.005-.036.022-.007,0-.065.039-.006,0-.037.022-.01.006-.033.019-.01.006-.032.019-.012.008-.02.011-.01.006-.033.02-.009.005-.035.022-.006,0-.04.024,0,0-.065.039-.006,0-.036.023-.008,0-.036.023-.007,0-.036.023-.007,0-.02.013-.008.005-.036.022-.005,0-.038.024-.006,0-.064.041,0,0-.039.024-.005,0-.038.023-.006,0-.04.025h0l-.065.041,0,0-.039.024,0,0-.042.025h0l-.066.041,0,0-.04.025,0,0-.038.024-.005,0-.065.041s0,0,0,0l-.041.027-.006,0-.037.023-.006,0-.04.025,0,0-.064.041-.007,0-.036.023s0,0-.006,0l-.038.024-.005,0-.065.042h0L31.1,11l-.006,0-.038.024,0,0-.065.042h0l-.041.025-.007.005-.036.023-.006,0-.106.068-.007.005-.035.023-.008.005-.04.025h0l-.064.041-.007.005-.034.023-.009.005-.036.024,0,0-.064.043h0l-.039.025-.008.005-.035.023-.006,0-.063.042,0,0-.039.025-.006.005-.036.023-.007.005-.04.025h0l-.064.043,0,0-.038.025-.005,0-.039.025,0,0-.064.042,0,0-.038.025,0,0-.038.025,0,0-.064.043s0,0,0,0l-.041.027-.006.005-.035.023-.008.006-.032.022-.009.005-.02.014,0,0c-.013.008-.025.016-.037.025l-.007,0L29.586,12s0,0-.006,0l-.037.025,0,0-.063.043h0l-.039.027,0,0-.04.027h0l-.107.074h0l-.041.028h0l-.107.074h0c-.014.009-.026.018-.04.028l0,0-.041.028h0l-.064.046h0l-.04.028,0,0-.039.027h0l-.257.18s0,0,0,0-.028.019-.042.029h0l-.107.075h0l-.04.029,0,0-.041.029h0l-.063.044-.006,0-.035.025-.006,0-.036.026,0,0L28.142,13h0l-.147.106,0,0-.04.029h0l-.148.107h0l-.146.106,0,0-.039.028,0,0-.293.215,0,0-.145.108h0l-.041.031h0l-.1.077,0,0-.036.027-.006,0-.144.108h0l-.145.11h0l-.04.03,0,0c-.195.148-.388.3-.581.445h0l-.33.257h0l-.288.227h0l-.04.032h0l-.429.343h0l-.142.115h0l-.324.264h0l-.14.115h0l-.181.149h0q-.906.752-1.786,1.534h0l-.312.279h0l-.271.245h0L21.5,18.4h0l-.307.284h0l-.3.285h0q-.419.395-.831.8h0q-.412.4-.817.809h0l-.036.037h0l-.257.26h0l-.036.037h0l-.128.131h0l-.127.131h0l-.289.3v0l-.125.131h0q-.623.653-1.227,1.32l0,0-.244.271h0l-.243.273h0l-.276.313h0l-.273.314,0,0c-.183.211-.363.422-.543.635h0q-.177.21-.353.42h0l-.116.139,0,0-.031.038v0l-.082.1v0l-.032.038v0c-.127.155-.253.309-.379.465h0q-.493.611-.973,1.232h0l-.111.145h0l-.142.186,0,0-.221.291h0l-.031.041h0l-.188.251h0l-.031.041h0l-.031.041h0l-.078.1h0l-.031.042h0l-.077.1v0l-.03.041h0l-.216.3h0l-.215.3h0l-.03.041h0l-.106.148h0l-.03.042h0l-.045.063,0,0-.027.038,0,0-.027.038,0,0-.075.106h0l-.1.149,0,0-.028.039,0,0-.074.106h0l-.028.041,0,0-.028.04v0l-.044.064v0l-.027.038,0,.007-.025.037,0,0-.073.106,0,0-.027.039,0,0-.073.106,0,0-.027.039,0,.005-.027.039,0,0-.043.063,0,0-.026.038,0,.006-.024.036,0,.007-.042.062,0,.006L10.9,30.7l-.006.008-.022.032-.007.011-.021.032-.006.009-.014.02,0,0-.026.039,0,.006-.024.036,0,.006-.024.036,0,.005-.042.063,0,0-.025.038,0,0-.024.036,0,.007-.042.063,0,0-.026.039,0,.005-.025.038,0,0-.028.042h0l-.042.064,0,0-.024.037,0,.007-.024.036,0,.007-.042.063,0,0-.025.038,0,.007-.025.039,0,0-.07.107,0,.005-.025.038,0,0-.027.041v0l-.042.065,0,0-.026.039,0,0-.069.107,0,0-.025.038,0,.006-.025.038,0,0-.041.064,0,.006-.023.036,0,.007-.023.036,0,.005-.041.064,0,.007-.023.036,0,.007-.023.036,0,.007-.025.04,0,0-.041.065,0,0-.025.04,0,0-.027.043h0l-.041.066,0,0-.025.04,0,0-.025.04,0,0-.04.065,0,0-.024.039,0,0-.025.04,0,0-.067.107-.005.008-.022.036,0,.007-.023.037,0,.006-.04.064,0,.007-.022.036,0,.007-.022.035,0,.008-.039.064,0,.007-.022.036-.006.009-.021.035,0,.007-.023.038,0,0-.013.021,0,.007-.022.036-.006.01-.019.031-.007.011-.02.033-.006.009L9,33.671l0,0-.023.039,0,.008-.021.034-.006.01-.021.035,0,.007-.039.065,0,0-.024.039,0,.007-.022.036,0,.007-.039.066h0l-.026.043,0,0-.023.038,0,.007-.065.109,0,.005-.022.037-.006.01-.02.034,0,.008-.038.064,0,.008-.021.036,0,.008-.021.036,0,.008-.038.065,0,.006-.022.037L8.45,34.6l-.02.034-.006.01-.02.035,0,.007-.012.021-.005.009-.02.034-.007.011-.019.032-.006.01-.02.034-.006.01-.012.02,0,.007-.021.036-.006.011-.019.032-.006.011L8.22,35l-.006.011L8.2,35.03l-.014.024-.011.019-.007.012-.018.031-.006.011-.019.033-.006.01L8.1,35.2l-.007.013-.011.019-.009.015-.016.027-.007.013-.018.031-.007.012-.017.03L8,35.376l-.011.019-.008.014-.017.03-.005.009-.02.036,0,.008-.02.036,0,.008-.02.035-.005.009-.011.02-.005.01-.019.034-.006.011-.017.031-.007.012-.013.023-.012.021-.01.019-.009.015-.016.029-.007.012-.018.031-.007.012-.016.029-.008.014-.011.019-.012.022-.012.022-.008.014-.016.029-.008.014-.016.029-.008.014-.011.019L7.6,36.1l-.017.03-.008.014-.016.029-.007.013-.016.029-.008.015-.01.019-.013.024-.011.02-.009.016-.014.026-.008.014-.016.029-.008.014-.012.022-.012.021-.01.019-.012.023-.01.019-.011.02-.012.023-.01.019-.012.021-.011.021-.01.019-.013.025-.01.019-.008.015L7.27,36.7l-.007.014-.016.031-.006.012-.011.021-.013.024-.01.019L7.2,36.84l-.014.027-.009.016-.015.027-.008.015-.012.022-.012.022-.009.018-.011.021-.012.023-.009.016-.014.026-.008.016-.014.026-.009.017-.01.019-.014.026-.009.017L7,37.213l-.012.023-.01.019-.012.023-.01.019-.009.018-.014.026-.009.017-.011.021L6.9,37.4l-.009.017-.013.025-.009.018-.009.017-.014.026-.009.018-.011.021-.012.023-.009.017-.013.024-.01.02-.009.017-.014.026-.009.018-.014.026-.009.018-.008.015-.014.028-.009.017-.009.018-.013.025-.009.017-.013.026-.009.017-.01.02-.012.024-.009.018L6.6,37.98,6.588,38l-.008.016-.014.027-.009.017-.011.021-.011.022-.009.018-.012.023-.01.02-.008.016-.014.028-.008.016-.012.024-.01.02-.01.019-.012.024-.01.019-.01.02-.013.025-.008.016-.014.027-.009.018-.01.019-.012.023-.009.018-.01.021-.012.024-.007.015-.014.028-.008.016-.012.023-.01.02-.01.02-.011.023-.01.02-.008.016-.014.028L6.2,38.77l-.014.028-.008.015-.011.022-.01.02-.011.022-.007.015-.014.028-.008.016-.014.029-.007.015L6.086,39l-.01.021-.01.021-.009.017-.013.025-.008.016-.014.029-.007.015L6,39.172l-.009.019-.01.02-.01.02-.011.023-.008.016-.014.028-.007.015-.013.027-.009.018-.01.021-.01.02-.011.022-.008.016-.014.028-.007.015-.014.029-.007.014-.012.024-.009.019-.011.023-.007.014-.014.03-.007.015-.014.029-.007.014-.013.027-.008.017-.011.022-.009.02L5.7,39.8l-.007.014-.014.03-.007.014-.015.031-.005.011-.012.026-.008.016-.012.026-.006.013-.014.031-.007.014-.014.03-.007.014-.011.024-.009.02-.011.023-.006.014-.014.03-.007.015-.014.03-.006.014-.014.029-.006.012-.013.027-.005.011-.015.031-.006.013-.014.031-.006.013L5.4,40.44l-.007.015-.012.026-.006.014-.013.028-.006.013-.014.031-.006.013-.014.031-.006.013-.013.028-.005.011-.014.03-.006.012-.014.032-.006.013-.014.031-.007.014-.013.027-.006.013-.013.029,0,.01-.015.033-.005.011-.015.033-.005.012L5.144,41l0,.009-.014.031,0,.008-.015.034L5.1,41.09l-.015.032-.005.012-.015.033,0,.01-.014.03,0,.01-.015.033,0,.009-.015.033-.005.012-.015.034,0,.009-.015.033,0,.009-.014.031,0,.01-.014.032-.006.013-.014.032,0,.011-.015.033,0,.01-.013.03,0,.009-.015.034,0,.011-.015.033,0,.011-.015.034,0,.01-.014.031,0,.008-.015.034,0,.01-.015.034,0,.01-.015.034,0,.01-.014.033,0,.008-.014.032,0,.01-.015.035,0,.01-.015.034,0,.012-.014.033,0,.01-.013.029,0,.011-.015.034,0,.01-.015.035,0,.01-.015.035,0,.008-.013.031,0,.01-.015.034,0,.01-.015.035,0,.01-.015.035,0,.009-.014.032,0,.009-.014.033,0,.009-.015.036,0,.008-.016.037,0,.007-.015.037,0,.006-.015.035,0,.006-.015.037,0,.009-.015.035,0,.01-.015.035,0,.009-.013.032,0,.007-.015.036,0,.01-.015.035,0,.008-.015.037,0,.007-.015.035,0,0-.015.037,0,.009-.015.035,0,.009-.015.036,0,.009-.015.035,0,.006-.015.036,0,.007-.015.036,0,.009-.015.036,0,.007-.015.038,0,0-.014.036,0,.007-.015.037,0,.009-.014.035,0,.011-.014.036,0,.006-.014.034,0,.007L4,43.667l0,.008-.015.036,0,.009-.015.037,0,.006-.015.038v0l-.015.038,0,.007-.015.036,0,.009-.014.036,0,.008-.015.038v0l-.015.037,0,.006-.015.037,0,.008-.015.037,0,.007-.015.039,0,0-.015.038,0,0-.015.037,0,.009-.014.037,0,.008-.015.038,0,.006-.015.039h0l-.015.039,0,.007-.015.038,0,.008-.014.037,0,.007-.015.038,0,0-.014.036,0,.007-.014.037,0,.009-.014.036,0,.008-.015.038v0l-.015.038,0,0-.015.039,0,.007-.014.037,0,.009-.014.037,0,.005-.014.036,0,.006-.014.038,0,.007-.014.038,0,.008-.014.038,0,.006-.015.04h0l-.015.041v0L3.4,45.2l0,.007-.014.039,0,.006-.015.04v0l-.015.041h0l-.015.041,0,0-.015.04,0,0L3.3,45.47v0l-.015.041h0l-.015.041,0,0-.015.04,0,.006-.014.039,0,.006-.03.083v0l-.015.042v0l-.015.042v0l-.031.084v0l-.015.041v0L3.109,46l0,.006-.015.04h0l-.015.042v0l-.015.041,0,0-.014.04,0,0-.015.04v0L3,46.309l0,.005-.014.039,0,.007-.014.039,0,.006-.014.04v0l-.015.041v0l-.014.041,0,.005-.015.041v0l-.015.043h0l-.03.085,0,.006-.014.04,0,0-.014.041v0l-.029.085v0l-.014.041,0,0-.014.041v0l-.029.085v0l-.014.041,0,0-.014.041v0l-.029.086v0l-.014.042v0l-.014.042v0l-.044.131v0l-.014.043v0l-.044.132v0l-.014.042v0L2.5,47.74v0l-.029.087v0l-.014.042v0l-.014.042v0l-.043.132v0l-.014.043h0l-.058.179v0l-.014.044h0l-.043.134v0l-.014.043v0l-.042.133h0l-.014.044h0l-.057.179h0c-.038.12-.075.24-.112.361h0l-.014.044h0l-.055.181h0l-.041.136h0q-.068.227-.135.454h0q-.114.387-.223.776h0q-.084.3-.165.6h0q-.7,2.571-1.2,5.218a10.78,10.78,0,1,0,21.18,4.029A48.2,48.2,0,0,1,68.711,21.56a10.78,10.78,0,1,0,0-21.56Z" transform="translate(1.039 0.006)" fill="#00376a"/>
        </g>
        <g id="Path_40040" data-name="Path 40040" transform="translate(72.8 73.011)">
          <path id="Path_40636" data-name="Path 40636" d="M69.752,0A69.752,69.752,0,1,1,0,69.752,69.752,69.752,0,0,1,69.752,0Z" transform="translate(0 0)" fill="none"/>
          <path id="Path_40637" data-name="Path 40637" d="M68.711,0h-.8l-.2,0h0l-.2,0h0A69.737,69.737,0,0,0,7.234,36.771h0l-.022.04h0l-.153.287h0l-.021.04v0l-.021.04h0l-.065.123h0l-.021.041h0l-.064.122v0l-.02.039,0,0-.02.039v0l-.042.081h0l-.02.039,0,0-.02.038,0,0-.041.08h0l-.02.039,0,0-.019.038,0,0-.02.039h0l-.021.04h0l-.02.039,0,0-.019.038,0,0-.019.038,0,0-.04.079v0l-.02.039,0,0-.019.038,0,0-.04.079v0l-.019.039,0,0-.019.037,0,.007-.019.037v0l-.019.037,0,0-.019.038,0,0-.019.037,0,.006-.018.037,0,0-.018.036,0,0-.019.037,0,.006-.018.036,0,.007-.018.036,0,.006-.018.037v0l-.018.037,0,.006-.017.035,0,.009-.017.035,0,.007-.018.036,0,.006-.016.033,0,.007-.017.034,0,.009-.017.035,0,.008L6,39.178l0,.006-.016.033,0,.006-.017.035,0,.01L5.94,39.3l0,.009-.017.034,0,.009-.015.031,0,.008-.016.032-.005.011-.016.033,0,.01-.017.034,0,.008-.017.036,0,0-.016.033,0,.009-.016.034,0,.01-.016.034,0,.009-.017.035,0,.008-.014.029-.006.012L5.7,39.8l-.005.011-.015.033-.005.011-.016.034,0,.008-.014.03-.005.011-.015.031,0,.01-.015.033-.006.012-.015.032-.005.012-.013.027-.008.016-.012.026-.006.012-.015.032-.006.012L5.5,40.23l-.006.012-.015.033,0,.009-.014.029,0,.01-.015.032-.006.013-.014.031-.007.014-.013.029-.007.014-.012.026-.007.015-.013.027-.006.014-.014.031-.006.013-.014.03-.007.015-.011.025-.007.016-.012.026-.007.015-.013.029-.007.015-.013.028-.008.017-.01.022-.009.02-.011.023-.007.016-.013.028-.007.015-.014.03-.007.015-.012.027-.008.017-.011.023-.007.016-.012.027-.007.015-.013.029-.007.016-.012.027-.008.017-.01.022-.009.021-.01.023-.007.016-.012.028L5,41.307l-.012.028-.007.016-.009.02-.011.024-.008.019-.009.02-.011.024-.009.019-.012.027-.008.017-.009.021-.011.024-.009.019-.01.022-.01.022-.008.018-.012.027-.008.018-.009.021-.011.024-.008.018-.011.026-.008.018-.008.018-.012.027-.008.018-.009.02-.011.025-.007.017-.013.029-.006.015L4.7,42l-.007.017-.009.02-.008.019-.012.028-.006.014-.014.031-.006.013-.014.033-.006.014-.009.02-.011.025-.009.021-.006.015L4.57,42.3l-.006.014-.014.032-.006.013-.011.026-.009.02-.009.02-.006.015-.014.032,0,.011-.015.036,0,.011-.013.03-.007.018-.008.019-.009.021-.011.025-.006.014-.013.032L4.4,42.7l-.013.031-.006.014-.009.021,0,.008-.016.039,0,.007-.017.041,0,.006-.017.04,0,.008-.029.069,0,.011-.015.037,0,.009-.016.039,0,.008-.049.119,0,0-.018.043,0,.006-.049.119,0,.006-.018.044v0l-.139.343v0L3.868,44h0l-.068.172v0A69.242,69.242,0,0,0,.188,56.655a10.78,10.78,0,0,0,21.184,4.01A48.2,48.2,0,0,1,68.71,21.559,10.78,10.78,0,1,0,68.711,0Z" transform="translate(1.039 0.006)" fill="#c7def3"/>
        </g>
        <g id="Path_40039" data-name="Path 40039" transform="translate(142.554 44.121) rotate(45)">
          <path id="Path_40638" data-name="Path 40638" d="M69.753,0A69.753,69.753,0,1,1,0,69.753,69.753,69.753,0,0,1,69.753,0Z" fill="none"/>
          <path id="Path_40639" data-name="Path 40639" d="M68.711,0H66.918l-.05,0H66.62l-.1,0h-.05l-.051,0h-.1l-.051,0h-.1l-.047,0h-.051l-.05,0h-.05l-.046,0H65.88l-.051,0H65.78l-.048,0h-.1l-.05,0-.049,0h-.046l-.051,0-.05,0-.048,0-.046,0-.051,0-.05,0-.049,0h-.046l-.045,0h-.006l-.051,0-.05,0-.046,0-.049,0-.051,0-.051,0-.047,0-.047,0-.052,0-.051,0-.049,0-.044,0h0l-.051,0-.051,0-.049,0-.044,0h0l-.049,0-.052,0-.05,0-.048,0-.047,0-.052,0-.05,0-.049,0-.043,0h0l-.051,0-.05,0-.049,0-.045,0h0l-.044,0h-.007l-.05,0-.049,0-.047,0-.048,0-.05,0-.051,0-.048,0-.047,0-.05,0-.051,0-.049.005-.043,0h0l-.049.005-.05,0-.05,0-.047,0-.047,0-.05.005-.05,0L62.59.265l-.046,0-.051,0-.049.005-.051,0-.04,0h0l-.042,0H62.3l-.042,0h-.008l-.042,0H62.2l-.043,0h0l-.043,0h-.005l-.043,0h-.007l-.043,0h-.007l-.044,0h0l-.045,0h0l-.044,0h-.007l-.043,0h-.007l-.044.005h0l-.046.005h0l-.044,0h-.006l-.042,0h-.008l-.043,0h0l-.091.01h0l-.043.005-.05.005h-.007l-.043.005-.046.005h-.006L61.238.4h-.009L61.188.4H61.18l-.043,0h0l-.044,0h0l-.043.005h-.007l-.041,0h-.008l-.041.005h-.008L60.9.432h0l-.041.005h-.01l-.04,0h-.01l-.041.005h-.007l-.044,0h0L60.655.46H60.65l-.043.005H60.6l-.042,0H60.55l-.043.005h0l-.042.005h0l-.043.005h-.007l-.042.005h-.008L60.315.5h0l-.09.011h-.006l-.042.005h-.008l-.042.005h-.007l-.043.005h0c-.012,0-.029,0-.041.005h-.007L59.98.54h-.009L59.93.547h-.007L59.88.553h0l-.044.005h0l-.044.006H59.78l-.042.006H59.73l-.042.006h-.008l-.04.005h0L59.594.59h-.008L59.546.6h-.01L59.5.6h-.009L59.446.61h0L59.4.615h-.007l-.041.005h-.009l-.04.005-.01,0-.041.005h-.005l-.04.006H59.2l-.042.006h-.008l-.04.005H59.1l-.042.006h0l-.043.006h0l-.044.006h-.006l-.042.005h-.009l-.041.006h-.007l-.042.006h0L58.777.7H58.77l-.041.006H58.72l-.04.005h-.008L58.63.723h0l-.041.006h-.006l-.041.005H58.53l-.041.006H58.48l-.041.006h-.006l-.04.005h0l-.042.006h-.008L58.3.772H58.29l-.042.006h-.005L58.2.786h0l-.043.006h-.007L58.105.8H58.1l-.043.006h-.005l-.044.006h0l-.043.008h-.007l-.041.006h-.008l-.041.006h-.008l-.042.008h-.005l-.039.006h-.007L57.725.86h-.008l-.041.006h-.008l-.042.006h-.006L57.58.883h0L57.534.89h-.007L57.486.9h-.009l-.041.006h-.007l-.04.008h-.006l-.04.006h-.007L57.3.93h-.01l-.04.006h-.008L57.2.945h-.006l-.038.006h-.007l-.04.008H57.1l-.039.006h-.01l-.04.008H57l-.037.006h-.006l-.04.008h-.01L56.867,1l-.01,0-.039.006h-.009l-.038.006h-.006c-.014,0-.024.005-.038.006l-.01,0-.039.006-.01,0-.038.006h-.011l-.04.008h0l-.038.008h-.009l-.039.006-.01,0-.039.006H56.43l-.04.008h-.006l-.038.006h-.007L56.3,1.1h-.01l-.039.008h-.011l-.038.008h-.008l-.039.008h0l-.041.008H56.1l-.04.008h-.009l-.04.008H56l-.043.008h0l-.043.009h-.006c-.014,0-.027,0-.04.008h-.009l-.04.008h-.007l-.041.008h0l-.041.008h0l-.041.009h-.008l-.041.008h-.007l-.042.008h0l-.043.008h0l-.042.008h-.007l-.04.008h-.009l-.04.009h-.007l-.042.008h0l-.042.009H55.3l-.041.008h-.007l-.041.008-.007,0-.042.008h0l-.042.009h-.006l-.042.008h-.006l-.042.009h-.006l-.043.009h0l-.042.009h0l-.043.009h0l-.042.009h-.007l-.042.008h-.005l-.041.009h0l-.043.009h-.005l-.042.009h-.006l-.042.008h-.006l-.042.009h0l-.04.008H54.5l-.041.009h-.007l-.041.009H54.4l-.041.009h-.006l-.039.008H54.31l-.041.009h-.007l-.041.009h-.007l-.041.009h-.007l-.04.009h0l-.041.009-.008,0-.039.008-.009,0-.039.008-.01,0-.037.008-.007,0-.037.008h-.009l-.039.009-.009,0L53.8,1.6l-.007,0-.041.009h0l-.039.008H53.7l-.039.009-.01,0c-.012,0-.026.005-.038.009H53.6l-.039.009h-.007l-.036.009h-.007l-.039.009h-.01c-.012,0-.026.006-.037.009l-.012,0-.038.009H53.37l-.038.009h-.007l-.037.009h-.01l-.037.009-.013,0-.037.009-.009,0-.04.009h-.005l-.038.008-.008,0-.039.009-.01,0-.038.008-.009,0-.04.009h-.006l-.039.009h-.006l-.039.01h-.01l-.038.009-.01,0-.039.009-.008,0-.039.009h0l-.04.01-.009,0-.038.009-.01,0-.038.009h-.009l-.04.01h0l-.038.009-.01,0-.038.009-.01,0-.038.009-.01,0-.039.01h-.006l-.037.009H52.3l-.039.01h-.01l-.038.01-.01,0-.038.009h-.008l-.037.01h-.005l-.04.009-.008,0-.038.009-.011,0-.038.01h-.009l-.035.009-.01,0-.035.009-.01,0-.037.009-.013,0-.036.01-.011,0-.036.009-.011,0-.033.008-.008,0-.037.009-.012,0-.037.009-.01,0-.038.01h-.009l-.035.009-.006,0-.039.009-.01,0-.037.01-.011,0-.037.009-.01,0-.036.009h0l-.04.01h-.007l-.039.01-.009,0-.038.01-.011,0-.037.009-.009,0-.034.009-.01,0-.037.01-.011,0-.036.009-.012,0-.036.009-.009,0-.033.009-.009,0-.038.01-.009,0-.037.009-.013,0-.036.01a.032.032,0,0,0-.011,0l-.032.008-.013,0-.032.009-.013,0-.035.009-.013,0-.035.009-.012,0-.033.009-.012,0-.032.009-.011,0-.036.01-.012,0-.035.01-.013,0-.033.009-.013,0-.029.008-.013,0-.033.009-.014,0-.034.009-.013,0-.035.01-.01,0-.032.009-.009,0-.035.01-.012,0-.035.01-.012,0L50,2.536l-.012,0-.031.009-.014,0-.031.009-.013,0-.034.009-.013,0-.035.01-.012,0-.034.01-.011,0-.031.009-.011,0-.036.01-.012,0-.036.01-.011,0-.037.01-.009,0-.031.009-.012,0-.034.01-.012,0-.035.01-.013,0-.036.01-.01,0-.033.01-.011,0-.034.01-.01,0-.035.011-.013,0-.035.01-.011,0-.033.01-.013,0-.03.009-.012,0-.035.01-.013,0-.035.01-.012,0L49,2.824l-.009,0-.032.009-.009,0-.036.01-.012,0-.035.01-.012,0-.035.01-.012,0-.031.009-.013,0-.032.01-.013,0-.034.01-.012,0-.034.01-.013,0-.032.01-.01,0-.032.01-.011,0-.035.01-.012,0-.034.01-.013,0L48.406,3,48.4,3l-.033.01-.009,0-.036.01-.012,0-.035.011-.013,0-.035.01-.01,0-.033.011h-.007l-.037.011-.011,0-.035.01-.012,0-.036.011-.009,0L48,3.126l-.007,0-.037.011-.008,0-.037.011a.04.04,0,0,0-.011,0l-.036.01-.01,0-.037.011-.008,0-.034.01-.008,0-.036.011-.013,0-.034.011-.012,0-.035.011-.011,0-.03.01-.012,0-.033.01-.012,0-.035.011-.011,0-.035.011-.012,0-.029.009-.016.005-.029.009-.014.005-.033.01-.013,0-.033.011-.013,0-.031.01-.013,0-.031.01-.011,0-.035.011-.011,0-.035.011-.011,0-.036.011-.009,0-.029.009L47,3.446l-.033.01-.012,0-.034.011-.013,0-.034.011-.012,0-.029.01-.016.005-.03.01-.013,0-.035.011-.012,0-.035.011-.012,0-.029.01-.015.005-.029.01-.012,0-.034.011-.012,0-.035.011-.011,0-.033.011-.013,0-.03.01-.01,0-.035.011-.011,0-.035.013-.011,0-.035.011-.012,0-.029.01-.012,0-.032.011-.013,0-.034.011-.012.005-.035.011-.012,0-.029.01-.015.005-.029.01-.014.005-.033.01-.013.005-.033.011-.013.005-.029.01-.015.005-.028.009-.012.005-.032.011-.015.005-.031.01-.015.006-.03.01-.015.005-.025.009-.018.006-.029.01-.013.005a.328.328,0,0,0-.032.011.063.063,0,0,0-.014.005l-.033.011-.011,0-.028.01-.016.005-.029.01-.013.005L45.4,3.99l-.015.005-.032.011-.013.005-.03.01-.016.005-.027.01-.013.005a.308.308,0,0,0-.032.011l-.015.005-.031.011-.014.005-.033.011-.011,0-.029.01-.011,0-.033.013-.014.005L45,4.133l-.013.005-.033.011-.012.005-.029.01L44.9,4.17l-.029.01-.014.005-.032.013-.013,0-.034.013-.011,0-.034.013-.008,0-.032.011-.013.005-.033.013-.012,0-.033.013-.014.005-.03.011a.058.058,0,0,0-.014.005l-.026.009-.019.008-.027.01-.015.005-.031.011-.015.005-.032.013-.012,0-.028.01-.013.005-.032.013-.013,0-.032.013-.015.005-.031.011-.014.006-.025.009-.019.008a.227.227,0,0,0-.027.01l-.013,0-.032.013-.014.005-.032.013-.013.005-.028.01-.017.006-.027.01-.012.005-.032.011-.014.006-.032.011-.014.006-.027.01-.019.006-.024.01a.094.094,0,0,0-.017.006l-.028.01-.014.006-.031.011-.015.006-.03.011-.016.006-.024.009-.018.006-.027.01-.014.006-.031.011-.015.006-.03.011-.016.006-.023.009-.021.009-.024.009-.014.005-.031.013-.015.006-.031.011-.016.006-.027.01-.017.006-.025.01-.016.006-.029.011-.014.006-.031.011-.016.006-.03.011-.014.006-.025.01L43,4.889l-.026.01-.015.006-.03.013-.016.005-.03.013-.015.006-.024.009-.02.009-.023.009-.015.006-.03.011-.016.006-.031.013-.014.006-.025.01-.019.008-.024.009-.016.006a.257.257,0,0,1-.029.011l-.015.006-.031.013-.014.006-.027.011L42.48,5.1l-.024.01-.016.006-.027.011-.016.006-.03.013-.014.005-.032.014-.013.005-.025.01-.018.008-.026.01-.014.006-.031.013-.014.005-.032.014-.013.005-.027.011-.018.006-.024.01-.016.006-.03.013-.014.006-.031.013-.013.005-.029.013-.016.006-.024.01-.018.008-.027.011-.015.006-.03.013-.016.006-.03.013-.014.005-.023.01-.02.009-.025.01-.014.006-.031.013-.015.006-.031.013-.012.005-.029.013-.014.006-.027.011-.013.005-.031.013-.014.006-.031.013a.067.067,0,0,1-.014.006l-.028.011-.017.008-.025.01-.013.006-.031.013-.014.006-.031.013-.013.006-.032.014-.012.005-.028.011-.013.005a.294.294,0,0,1-.029.013.067.067,0,0,1-.014.006l-.031.014-.014.005-.031.014-.014.006-.026.011-.015.006-.027.011-.013.006-.031.013-.013.006-.031.014-.014.006-.027.011L40.8,5.81l-.026.011-.013.006-.031.013-.014.006-.03.014-.016.006-.027.011-.016.008L40.6,5.9l-.016.008-.027.011-.015.008-.029.013-.016.006-.03.014-.014.006-.023.01-.02.009-.024.01L40.37,6a.269.269,0,0,1-.029.013l-.017.009a.278.278,0,0,0-.028.013l-.015.006-.023.01-.02.009-.023.01-.013.006-.03.014-.016.006-.03.014-.014.006-.026.011-.019.009-.022.01-.019.008L40,6.164l-.016.008-.029.013-.016.008-.027.013-.016.008-.023.01-.019.009-.024.01-.015.008-.029.013-.016.008-.028.013-.017.008L39.7,6.3l-.024.011-.018.009-.023.01-.023.01-.017.008-.027.013-.018.009-.02.009-.024.011-.017.008-.027.013-.019.008-.017.009-.027.013-.019.008-.019.009-.026.013-.017.008-.026.013-.019.008-.018.009-.028.013-.017.008-.024.011-.021.01-.018.008-.026.013-.018.009-.02.009-.024.011-.018.009-.027.013L39,6.624l-.016.009-.029.013-.015.008-.027.013-.018.009-.018.009-.028.013-.017.008-.019.009-.026.013-.017.008-.025.013-.019.009-.017.008-.028.014-.016.008-.022.01-.023.011-.019.009-.023.011-.022.01-.016.008-.028.013-.016.008-.029.014-.016.008-.02.01-.023.011-.02.009-.019.009-.025.013-.017.009-.026.013-.018.009-.019.009-.024.011L38.225,7l-.024.011-.02.01-.017.009-.027.013-.017.009-.025.011-.018.009-.02.01-.022.01-.022.011L38,7.108l-.027.013-.018.009-.025.013-.018.009-.02.01-.024.011-.019.01-.018.009L37.8,7.2l-.018.009-.027.013-.017.009-.02.009-.023.013-.018.009-.024.011-.019.009-.019.01-.026.013-.018.009-.019.01-.024.011-.018.009-.025.013-.018.009-.021.01-.024.013-.018.009-.02.01a.231.231,0,0,0-.025.013l-.016.008-.027.014-.015.008-.028.014-.016.008-.019.01-.02.01-.025.013-.016.008-.027.014-.016.008-.027.014-.017.009-.018.009-.026.014-.018.009-.016.009-.028.014-.014.008-.028.014-.015.008-.019.01-.025.013-.019.01-.016.008-.029.015-.014.008-.03.015-.015.008-.029.014-.014.008-.021.011-.011.005-.033.018-.011.005-.032.016-.013.008-.027.014-.016.009-.021.01-.007,0-.037.019-.011.006-.033.016-.012.006-.03.015-.015.009-.02.01-.024.013-.02.01-.012.006-.033.018-.01.005L36.241,8l-.014.008-.019.009-.025.014-.019.01-.016.008-.029.015-.013.008-.03.015-.014.008-.027.015a.106.106,0,0,0-.017.009L36,8.131l-.014.008-.03.015-.013.008-.03.015-.013.008-.03.015-.014.008-.019.01-.025.014-.02.01-.014.008-.029.015-.014.008-.029.015-.015.009-.022.011-.021.011-.02.01a.078.078,0,0,1-.014.008l-.029.016a.083.083,0,0,0-.014.008l-.028.014-.016.009-.019.01-.024.014-.018.009-.022.013-.021.011-.016.009-.027.015-.015.008-.03.016-.013.006-.02.011-.024.013-.019.011-.013.006-.03.016-.013.008-.03.016-.013.006-.021.013-.023.011-.019.011-.015.008-.029.016-.013.008-.03.016L35,8.673l-.034.019-.01.005-.02.011-.014.008-.029.016-.012.006-.032.018-.011.006-.035.019-.009.005-.021.011-.013.006a.323.323,0,0,1-.03.016l-.015.009-.028.016-.012.006-.033.019-.01.005-.064.037-.01.005-.034.019-.009.005-.036.02-.008.005L34.405,9,34.4,9.01l-.034.019-.011.008c-.011.006-.022.011-.034.019l-.009,0c-.011.008-.024.014-.035.02l-.009.005-.021.013-.007,0-.035.02-.011.006c-.011.006-.022.011-.033.019l-.009.005-.035.019-.009.005-.021.013h0l-.041.023-.01.006L34,9.238l-.012.006-.032.019-.01.005-.035.02-.008.005-.021.011-.007.005-.036.02-.008.005-.035.02-.008.005-.038.022,0,0-.022.013h0l-.042.024,0,0-.037.022-.009.005-.038.023,0,0-.066.038,0,0-.039.023-.007.005-.037.022-.006,0-.066.038,0,0-.038.023-.008.005-.033.019-.011.006-.038.023,0,0L33.2,9.7h0l-.04.024-.009.005-.036.022-.007,0L33,9.825l-.007,0-.036.022-.008.005-.034.02-.009.005-.064.039-.006,0-.038.023-.007.005-.038.023-.005,0-.065.039,0,0-.039.023-.008.005-.035.022-.008.005-.034.02-.009.006-.02.011-.007.005-.036.022-.008.005-.037.022,0,0-.042.025h0l-.066.039,0,0-.039.024-.006,0-.038.023-.005,0-.042.025h0l-.021.013-.006,0-.039.024,0,0-.04.024,0,0-.065.041h0l-.041.025,0,0-.039.024,0,0-.109.067,0,0-.041.025h0l-.109.068h0l-.042.027,0,0-.041.025h0l-.109.07h0l-.04.025,0,0-.108.068,0,0-.04.025,0,0-.042.027h0L31.1,11h0l-.042.027h0l-.109.07,0,0-.042.027s0,0,0,0l-.109.071h0l-.041.027,0,0-.108.07h0l-.04.027,0,0-.15.1h0l-.042.028h0l-.109.071h0l-.042.028s0,0,0,0l-.152.1h0l-.2.132h0l-.108.074s0,0,0,0l-.041.028,0,0-.107.072h0L29.583,12h0l-.151.1h0l-.346.237h0l-.151.1h0q-.323.224-.643.452h0q-.662.472-1.312.958h0A70.006,70.006,0,0,0,5.036,41.238h0c-.1.226-.2.451-.3.678v0l-.147.339h0l-.02.047v0l-.02.047h0l-.1.244h0l-.02.046,0,.005-.018.042,0,.007-.018.043v0l-.051.121h0l-.051.121v0l-.019.045,0,0-.018.044v0l-.05.121v0l-.019.046,0,0-.049.12,0,0-.018.044v0l-.019.047h0l-.049.121v0l-.019.047h0l-.049.121,0,.006-.017.044v0l-.048.121v0L3.869,44l0,.006-.018.045v0l-.029.072,0,.006L3.8,44.17l0,.008-.017.043v0l-.047.121,0,.005-.017.043,0,0-.047.121v0l-.017.045,0,0-.047.122h0l-.018.046,0,.005-.017.045v0l-.028.073v0l-.017.046,0,.005-.016.043,0,.006-.046.12,0,.006-.016.042,0,.006-.017.045v0l-.027.072,0,.008-.015.04,0,.009-.014.037,0,.011-.026.07,0,.009-.015.04,0,.008-.015.041,0,.006-.018.048h0l-.009.024v0l-.016.044,0,.009-.014.037,0,.012-.012.033-.006.016-.008.021-.006.015-.012.033,0,.013-.012.033,0,.013-.013.035,0,.012-.008.021,0,.014-.013.035,0,.011-.013.035,0,.014-.012.034,0,.013-.009.026-.008.022-.008.021,0,.014-.012.034,0,.012-.013.036L3,46.3l-.014.038,0,.009-.008.023,0,.012-.013.036,0,.011-.013.036,0,.013-.011.032-.005.015-.008.021-.01.027-.007.019-.006.018-.01.029-.006.017-.011.03-.005.015-.008.022-.009.026-.007.021-.006.017-.011.031,0,.014-.011.032-.006.016-.01.028-.007.02-.007.021-.007.02-.009.027-.006.016-.011.032,0,.013-.012.034,0,.014-.007.021-.008.022L2.7,47.17l-.007.019-.009.027-.006.017-.01.029-.006.019-.007.019-.01.028-.006.019-.008.024-.008.022-.006.019-.01.029L2.6,47.46l-.006.019-.009.028-.006.019-.008.024-.007.022-.007.02-.009.028-.006.018-.008.025-.008.023-.006.019-.009.028-.006.019-.006.018-.01.029-.006.017-.009.028-.006.019-.007.02-.009.028-.006.02-.006.019-.009.028L2.42,48l-.009.027-.007.02-.006.019-.01.029-.006.018-.008.025-.007.022-.007.021-.007.022-.008.023-.006.017-.01.03-.006.017-.01.03-.006.018-.007.023-.007.022-.008.024-.005.016-.01.031-.005.017-.01.03-.006.018-.008.024-.007.021-.008.024-.006.017-.009.028-.005.017-.01.03-.005.017-.009.03-.005.016-.008.025-.006.019-.009.029,0,.014-.01.032-.005.016-.01.032,0,.014-.008.026-.006.02-.008.027,0,.013-.01.033,0,.015-.01.032,0,.014-.009.028-.006.019-.008.024-.005.017-.009.03,0,.016-.01.031,0,.016L2,49.311,2,49.33l-.008.025-.005.017-.009.03,0,.014-.01.033,0,.015-.01.032,0,.015-.008.027-.006.019-.008.026,0,.015-.01.033,0,.014-.01.033,0,.015-.009.03,0,.015-.008.028,0,.014-.01.033,0,.013-.01.034,0,.014-.009.031,0,.016-.008.026-.006.019-.008.029,0,.014-.01.033,0,.014-.01.033,0,.013-.008.029,0,.014-.009.031,0,.013-.01.034,0,.013-.01.035,0,.012-.009.03,0,.017-.008.029,0,.012-.01.034,0,.013-.01.034,0,.013-.009.031,0,.015-.008.03,0,.011-.01.035,0,.013-.01.035,0,.012-.01.035,0,.013-.008.028,0,.016-.009.03,0,.014-.009.033,0,.014-.009.034,0,.013-.008.03,0,.013-.009.032,0,.012L1.511,51l0,.013-.01.034,0,.012-.009.034,0,.011-.009.032,0,.011-.01.036,0,.012-.01.035,0,.012-.01.036,0,.009-.009.033,0,.01-.01.037,0,.011-.01.036,0,.013-.01.036,0,.009-.01.036,0,.007-.01.037,0,.01-.01.037,0,.011-.01.037,0,.01-.01.038V51.7l-.01.036,0,.009-.01.037,0,.011-.01.037,0,.009-.01.039,0,.007-.01.037,0,.006-.01.038,0,.01-.01.037,0,.01-.01.038,0,.008-.01.037v0l-.01.039,0,.011-.01.037,0,.01-.01.039,0,.007-.011.041h0l-.011.041v.006l-.01.041,0,.006-.01.041,0,.006-.011.042h0l-.011.042v0l-.01.041,0,.006-.01.041,0,.006-.011.042v0l-.01.041v0l-.011.042v0l-.01.041,0,.007-.01.041v0l-.011.043h0L1,52.937v0l-.01.042,0,.006-.01.042v0l-.011.044v0l-.011.045h0l-.011.044v0l-.01.043v0l-.011.043v0l-.011.045h0L.9,53.354v0l-.01.042v0l-.01.042v0l-.021.087v0l-.01.042v0l-.01.042v.005l-.021.087v0l-.01.043v0l-.01.044v0l-.032.137h0l-.011.046h0L.7,54.194h0L.66,54.38v0l-.041.185h0c-.031.14-.062.28-.092.421h0q-.177.82-.334,1.646a10.78,10.78,0,1,0,21.18,4.029A48.2,48.2,0,0,1,68.711,21.56a10.78,10.78,0,1,0,0-21.56Z" transform="translate(1.039 0.006)" fill="#00376a"/>
        </g>
      </g>
    </g>
  </g>
</svg>
