<svg xmlns="http://www.w3.org/2000/svg" width="385.138" height="248.366" viewBox="0 0 385.138 248.366">
  <g id="Group_45928" data-name="Group 45928" transform="translate(-2.02 -2.019)">
    <path id="Path_40703" data-name="Path 40703" d="M361.361,98.3h0c-2.117,3.2-2.886,7.055-3.532,11.072a72.508,72.508,0,0,1-3.354,14.19,37.5,37.5,0,0,1-11.643,16.475,157.837,157.837,0,0,0-26.977-46.519,37.47,37.47,0,0,1,20.184-1.885,72.612,72.612,0,0,1,13.968,4.188c3.8,1.452,7.521,2.713,11.352,2.478ZM290.873,27.818l0,0h.005c-.235,3.829,1.025,7.551,2.475,11.352a72.607,72.607,0,0,1,4.19,13.967,37.488,37.488,0,0,1-1.894,20.2,157.868,157.868,0,0,0-46.575-26.914A37.46,37.46,0,0,1,265.611,34.7,72.68,72.68,0,0,1,279.8,31.349C283.818,30.7,287.672,29.937,290.873,27.818Zm59.38,139.894a37.531,37.531,0,0,1,18.313,8.444,72.688,72.688,0,0,1,10,10.614c2.563,3.152,5.157,6.106,8.59,7.819H352.571a158.985,158.985,0,0,0-2.316-26.876ZM98.3,27.821l0,0v-.005c3.2,2.118,7.055,2.885,11.07,3.532a72.6,72.6,0,0,1,14.19,3.353A37.46,37.46,0,0,1,140.1,46.428,157.813,157.813,0,0,0,93.529,73.343a37.452,37.452,0,0,1-1.892-20.205A72.64,72.64,0,0,1,95.824,39.17c1.45-3.8,2.713-7.521,2.478-11.351ZM27.816,98.306h0v0c3.829.233,7.551-1.028,11.352-2.478a72.528,72.528,0,0,1,13.966-4.189,37.487,37.487,0,0,1,20.186,1.886,157.9,157.9,0,0,0-26.975,46.519A37.506,37.506,0,0,1,34.7,123.567a72.6,72.6,0,0,1-3.354-14.19c-.646-4.017-1.414-7.87-3.532-11.07ZM2.02,194.59c3.434-1.712,6.026-4.665,8.591-7.819a72.512,72.512,0,0,1,10-10.611,37.493,37.493,0,0,1,18.311-8.445,158.844,158.844,0,0,0-2.312,26.875ZM194.589,2.019v0l0,0c1.711,3.435,4.665,6.027,7.82,8.595a72.512,72.512,0,0,1,10.613,10,37.481,37.481,0,0,1,8.464,18.457,159.03,159.03,0,0,0-53.8,0,37.465,37.465,0,0,1,8.464-18.455,72.688,72.688,0,0,1,10.614-10c3.154-2.564,6.108-5.157,7.821-8.592Z" fill="#fab60f"/>
    <path id="Path_40704" data-name="Path 40704" d="M130.417,153.482l11.887-.034c1.561-10.04-1.492-17.77-11.647-15.925-8.558,1.553-17.751,10.056-23.307,15.925l15.672-.069c1.746-1.148,5.165-2.458,6.568-1.483a1.9,1.9,0,0,1,.827,1.586Z" transform="translate(32.045 41.141)" fill="#d52736"/>
    <path id="Path_40705" data-name="Path 40705" d="M201.443,167.905h14.829c.706-17.512-2.115-35.6-10.256-51.242-7.405-14.236-19.646-23.912-35.492-26.25C147.39,87,124.049,96.793,104.314,110.8c-21.486,15.254-39.221,35.972-54.72,57.1l19.59-.029c17.636-25,58.2-62.946,88.038-63.194,9.508-.078,19.177,2.153,26.326,8.531,5.179,4.622,11.459,13.6,11.151,20.881-.183,4.318-4.016,5.643-7.691,4.3-2.855-1.038-4.871-3.648-6.869-6.392a28.64,28.64,0,0,0-27.728-11.756c-13.25,1.812-29.673,12.1-40.265,21.455a256.537,256.537,0,0,0-25.43,26.2h21.061c7.72-9.32,15.871-17.268,26.349-23.794a59.076,59.076,0,0,1,11.691-5.726c10.828-3.721,21.6-2.778,26.387,10.7,1.879,5.3,2.156,9.95,1.608,18.469v.348h14.32l.037-.438c.01-4.665-.091-7.81.33-12.433.361-3.986,1.6-8.115,5.3-8.605,7.866-1.649,7.489,15.852,7.643,21.477Z" transform="translate(14.473 26.685)" fill="#d52736"/>
    <path id="Path_40706" data-name="Path 40706" d="M234.8,175.635h14.953c.724-16.247-.669-35.5-5.926-52.3a93.714,93.714,0,0,0-3.57-9.607,82.252,82.252,0,0,0-12.57-19.914,86.383,86.383,0,0,0-20.06-17.6,75.815,75.815,0,0,0-6.991-3.891v0a70.765,70.765,0,0,0-7.4-3.116l-.01,0C164.1,58.859,134.655,66.211,109.95,79.649q-7.134,3.891-13.864,8.463-6.478,4.4-12.562,9.337h0l-.008.007a171.3,171.3,0,0,0-16.363,15.159c-1.144,1.212-2.273,2.445-3.371,3.691-2.938,3.332-7.467,8-6.123,12.831,1.064,3.829,6.006,2.7,7.726,1.382a50.418,50.418,0,0,0,8.028-5.766c3.361-2.846,6.537-5.911,9.866-8.8A166.207,166.207,0,0,1,124.6,89.192q4.447-1.962,9.036-3.578,4.406-1.552,8.93-2.731l.013,0C168.3,76.2,196.252,80.528,214.149,101.5c17.242,20.206,20.388,47.254,20.651,74.132ZM49.277,152.795a51.109,51.109,0,0,0,4.95-5.621c2.387-3.028,2.627-5.96,1.682-8.076a5.524,5.524,0,0,0-1.5-2,5.18,5.18,0,0,0-2.159-1.077c-1.945-.445-4.271.252-6.247,2.655-2.233,2.717-5.317,7.364-5.947,11.475a8.483,8.483,0,0,0-.07,2.221,5.546,5.546,0,0,0,.567,1.926l0,.005a2.742,2.742,0,0,0,2.483,1.517,5.357,5.357,0,0,0,.763-.033,7.422,7.422,0,0,0,.857-.153v0l.016,0a10.84,10.84,0,0,0,4.6-2.843Z" transform="translate(11.538 18.955)" fill="#d52736"/>
    <path id="Path_40707" data-name="Path 40707" d="M266.038,182.453l.106,0h.053a6.617,6.617,0,0,0,5.847-3.276,8.044,8.044,0,0,0,.783-1.817,10.845,10.845,0,0,0,.412-2.378l.012-.183c1.188-41.527-11.531-75.906-33.125-99.261A105.646,105.646,0,0,0,226.56,63.19a102.437,102.437,0,0,0-15.348-9.675h0l-.086-.042,0,0a109.374,109.374,0,0,0-58.939-11.125,116.9,116.9,0,0,0-23.25,4.367l-.053.017C108.1,52.876,88.762,65.077,73,81.085a145.162,145.162,0,0,0-12.8,14.892A196.683,196.683,0,0,1,95.512,71.435q4.147-2.225,8.419-4.2,4.224-1.957,8.565-3.647l.008,0,.008,0a129.327,129.327,0,0,1,32.559-8.187,120.522,120.522,0,0,1,32.589.819,98.931,98.931,0,0,1,22.306,6.151q2,.831,3.927,1.767,1.9.921,3.738,1.956h0l.02.01h0c24.184,13.243,40.985,40.415,48.386,71.1a153.159,153.159,0,0,1,4.254,36.841v0l0,.357c.124,3.322,1.262,6.1,3.214,7.353a4.369,4.369,0,0,0,1.175.532h0A4.687,4.687,0,0,0,266.038,182.453Z" transform="translate(17.702 12.142)" fill="#d52736"/>
    <path id="Path_40708" data-name="Path 40708" d="M184.87,43.556a146.4,146.4,0,0,1,100.413,138.4H256.511C258.416,125.6,233.819,74.731,184.87,43.556Z" transform="translate(55.628 12.637)" fill="#fab60f"/>
    <path id="Path_40709" data-name="Path 40709" d="M60.976,191.141H49.339L46.456,201.28H37.182l12.273-38.832H61.206L73.824,201.28H64.146Zm-10.313-6.569h8.93q-3.514-11.38-4.552-15.614h-.116l-1.843,7.375Zm53.06,6.569H92.085l-2.88,10.139H79.929L92.2,162.448h11.755l12.617,38.832h-9.679ZM93.41,184.571h8.93q-3.514-11.38-4.552-15.614h-.115l-1.843,7.375Zm32.031,16.536V162.967a83.149,83.149,0,0,1,12.329-.865q12.417,0,17.824,5.195t5.4,13.587q0,9.911-6.146,15.355t-18.974,5.444A83.159,83.159,0,0,1,125.441,201.108Zm8.93-31.8V194.6a18.423,18.423,0,0,0,3.227.172q6.654,0,10.3-3.5t3.639-10.035q0-5.992-3.322-9.132t-9.583-3.141a21.433,21.433,0,0,0-4.264.347Zm36.179-6.856h8.93v14.922h15.267v-14.92h8.931V201.28h-8.931V185.09H179.48V201.28h-8.93V162.448Zm65.5,28.693H224.416l-2.881,10.139h-9.276l12.273-38.832h11.752L248.9,201.28h-9.68l-3.169-10.139Zm-10.313-6.569h8.93q-3.514-11.38-4.552-15.614H230l-1.844,7.375Zm53.06,6.569H267.162l-2.881,10.139h-9.276l12.271-38.832h11.754l12.617,38.832H281.97Zm-10.314-6.569h8.93q-3.514-11.38-4.552-15.614h-.115l-1.844,7.375Zm32.029,16.707V162.967a70.8,70.8,0,0,1,12.043-.865q8.815,0,12.675,2.91a9.8,9.8,0,0,1,3.861,8.325,9.5,9.5,0,0,1-1.941,5.83,10.374,10.374,0,0,1-5.03,3.677v.23q3.629,1.356,5.243,7.145,2.966,10.427,3.225,11.062h-9.1q-1.15-2.16-2.765-9.046a10.168,10.168,0,0,0-2.189-4.839,6.08,6.08,0,0,0-4.437-1.382h-2.765V201.28h-8.817Zm8.817-32.321v10.659h3.687a8.337,8.337,0,0,0,5.272-1.517,4.9,4.9,0,0,0,1.93-4.072,4.788,4.788,0,0,0-1.739-3.965,7.725,7.725,0,0,0-4.944-1.393,19.685,19.685,0,0,0-4.206.287Z" transform="translate(10.697 48.702)" fill="#d52736"/>
  </g>
</svg>
