<svg id="Group_44595" data-name="Group 44595" xmlns="http://www.w3.org/2000/svg" width="54.509" height="54.509" viewBox="0 0 54.509 54.509">
  <g id="Rectangle_19773" data-name="Rectangle 19773" fill="#fff" stroke="#c7def3" stroke-width="1" opacity="0.8">
    <rect width="54.509" height="54.509" rx="27.255" stroke="none"/>
    <rect x="0.5" y="0.5" width="53.509" height="53.509" rx="26.755" fill="none"/>
  </g>
  <g id="Group_44981" data-name="Group 44981" transform="translate(-1394.455 -204.151)">
    <g id="Group_44980" data-name="Group 44980" transform="translate(1407.892 217.028)">
      <path id="Path_40148" data-name="Path 40148" d="M34.017,86A18.881,18.881,0,0,0,20.2,91.994a18.923,18.923,0,0,0,27.635,0A18.881,18.881,0,0,0,34.017,86Z" transform="translate(-20.2 -69.232)" fill="#c7def3"/>
      <path id="Path_40150" data-name="Path 40150" d="M47.571,25a7.571,7.571,0,1,0,7.571,7.571A7.593,7.593,0,0,0,47.571,25Z" transform="translate(-33.754 -25)" fill="#00376a"/>
    </g>
    <path id="Path_40151" data-name="Path 40151" d="M9.154,8.382l3.453-3.447a.55.55,0,1,0-.778-.778L8.382,7.61,4.934,4.157a.55.55,0,1,0-.778.778L7.609,8.382,4.156,11.829a.55.55,0,1,0,.778.778L8.382,9.155l3.447,3.453a.55.55,0,1,0,.778-.778Z" transform="translate(1419.096 210.952)" stroke="#e12d20" stroke-width="1.1"/>
  </g>
</svg>
