<svg xmlns="http://www.w3.org/2000/svg" width="30.509" height="30.508" viewBox="0 0 30.509 30.508">
  <g id="Group_44349" data-name="Group 44349" transform="translate(0.445 0.445)">
    <g id="Group_44347" data-name="Group 44347" transform="translate(0)">
      <rect id="Rectangle_20168" data-name="Rectangle 20168" width="29.618" height="29.618" rx="14.809" transform="translate(0 29.67) rotate(-90)" fill="#e12d20" opacity="0.2"/>
      <path id="Path_39795" data-name="Path 39795" d="M1563.61,1135.488A14.808,14.808,0,1,1,1548.8,1150.3,14.808,14.808,0,0,1,1563.61,1135.488Z" transform="translate(-1548.801 -1135.488)" fill="none" stroke="#fff" stroke-width="0.892"/>
    </g>
    <g id="Group_44357" data-name="Group 44357" transform="translate(6.809 6.835)">
      <path id="Path_39702" data-name="Path 39702" d="M42.5,2.5v16a8,8,0,0,0,0-16Z" transform="translate(-34.5 -2.5)" fill="#e12d20"/>
      <path id="Path_39703" data-name="Path 39703" d="M2.5,10.5a8,8,0,0,0,8,8V2.5A8,8,0,0,0,2.5,10.5Z" transform="translate(-2.5 -2.5)" fill="#ff9088"/>
      <path id="Path_39844" data-name="Path 39844" d="M676.386,134.593v1.319a.382.382,0,0,1-.377.377H674.5a.382.382,0,0,1-.377-.377v-1.319a.382.382,0,0,1,.377-.377h1.507a.382.382,0,0,1,.377.377Zm.177-6.216L676.4,132.9a.379.379,0,0,1-.121.265.372.372,0,0,1-.268.112H674.5a.372.372,0,0,1-.268-.112.379.379,0,0,1-.121-.265l-.165-4.521a.347.347,0,0,1,.1-.265.353.353,0,0,1,.262-.112H676.2a.352.352,0,0,1,.262.112A.347.347,0,0,1,676.563,128.377Z" transform="translate(-667.009 -124.04)"/>
      <path id="Path_39843" data-name="Path 39843" d="M676.386,134.593v1.319a.382.382,0,0,1-.377.377H674.5a.382.382,0,0,1-.377-.377v-1.319a.382.382,0,0,1,.377-.377h1.507a.382.382,0,0,1,.377.377Zm.177-6.216L676.4,132.9a.379.379,0,0,1-.121.265.372.372,0,0,1-.268.112H674.5a.372.372,0,0,1-.268-.112.379.379,0,0,1-.121-.265l-.165-4.521a.347.347,0,0,1,.1-.265.353.353,0,0,1,.262-.112H676.2a.352.352,0,0,1,.262.112A.347.347,0,0,1,676.563,128.377Z" transform="translate(-667.205 -124.144)" fill="#fff"/>
    </g>
  </g>
</svg>
