<svg xmlns="http://www.w3.org/2000/svg" width="26.18" height="26.18" viewBox="0 0 26.18 26.18">
  <path id="Path_39884" data-name="Path 39884" d="M26.871,2H3.309A1.309,1.309,0,0,0,2,3.309V26.871A1.309,1.309,0,0,0,3.309,28.18H26.871a1.309,1.309,0,0,0,1.309-1.309V3.309A1.309,1.309,0,0,0,26.871,2ZM21.635,16.4H16.4v5.236a1.309,1.309,0,0,1-2.618,0V16.4H8.545a1.309,1.309,0,1,1,0-2.618h5.236V8.545a1.309,1.309,0,1,1,2.618,0v5.236h5.236a1.309,1.309,0,0,1,0,2.618Z" transform="translate(-2 -2)" fill="#1d5a7f"/>
</svg>
