<svg id="Group_45110" data-name="Group 45110" xmlns="http://www.w3.org/2000/svg" width="40" height="40" viewBox="0 0 40 40">
  <path id="Path_40365" data-name="Path 40365" d="M32.5,40H7.5A7.5,7.5,0,0,1,0,32.5V7.5A7.5,7.5,0,0,1,7.5,0h25A7.5,7.5,0,0,1,40,7.5v25A7.5,7.5,0,0,1,32.5,40Z" fill="#c7def3"/>
  <g id="Layer_2" data-name="Layer 2" transform="translate(7.716 7.958)">
    <path id="Path_40372" data-name="Path 40372" d="M12.806,22.839A10.914,10.914,0,0,1,1.645,15.4a.728.728,0,0,1,.5-.953h0a.728.728,0,0,1,.859.458,9.458,9.458,0,1,0-.276-4.94.728.728,0,0,1-.815.6h0A.728.728,0,0,1,1.3,9.677a10.914,10.914,0,1,1,11.5,13.162Z" fill="#00366a"/>
    <rect id="Rectangle_20462" data-name="Rectangle 20462" width="11.757" height="1.455" rx="0.728" transform="translate(6.112 11.197)" fill="#00366a"/>
    <rect id="Rectangle_20463" data-name="Rectangle 20463" width="1.455" height="11.757" rx="0.728" transform="translate(11.263 6.046)" fill="#00366a"/>
  </g>
</svg>
