<svg xmlns="http://www.w3.org/2000/svg" width="22.372" height="22.372" viewBox="0 0 22.372 22.372">
  <g id="Group_44632" data-name="Group 44632" transform="translate(-2.167 -2.167)">
    <path id="Path_40003" data-name="Path 40003" d="M6.237,8.474H4V24.135a2.237,2.237,0,0,0,2.237,2.237H21.9V24.135H6.237ZM24.135,4H10.712A2.237,2.237,0,0,0,8.474,6.237V19.661A2.237,2.237,0,0,0,10.712,21.9H24.135a2.237,2.237,0,0,0,2.237-2.237V6.237A2.237,2.237,0,0,0,24.135,4ZM23.017,14.068H18.542v4.474H16.3V14.068H11.83V11.83H16.3V7.356h2.237V11.83h4.474Z" transform="translate(-1.833 -1.833)" fill="#2b7b8a"/>
  </g>
</svg>
