<svg xmlns="http://www.w3.org/2000/svg" width="38" height="38" viewBox="0 0 38 38">
  <path id="be831d4d557ca96619be92ba9247a9d6" d="M27.786,15.571A12.214,12.214,0,1,1,15.571,27.786,12.214,12.214,0,0,1,27.786,15.571Zm0,5.429a1.357,1.357,0,0,0-1.357,1.357v4.071H22.357a1.357,1.357,0,0,0,0,2.714h4.071v4.071a1.357,1.357,0,1,0,2.714,0V29.143h4.071a1.357,1.357,0,1,0,0-2.714H29.143V22.357A1.357,1.357,0,0,0,27.786,21ZM16.269,18.286a14.958,14.958,0,0,0-2.85,13.571l-.4,0h0c-6.86,0-10.755-2.292-11.007-6.913L2,24.46v-2.1A4.072,4.072,0,0,1,5.679,18.3l.392-.019ZM12.857,2A6.787,6.787,0,1,1,6.07,8.787,6.787,6.787,0,0,1,12.857,2ZM26.429,4.714a5.429,5.429,0,0,1,4.5,8.473,15.018,15.018,0,0,0-8.472.651,5.429,5.429,0,0,1,3.977-9.124Z" transform="translate(-2 -2)" fill="#436187"/>
</svg>
