<svg xmlns="http://www.w3.org/2000/svg" width="43.992" height="43.992" viewBox="0 0 43.992 43.992">
  <g id="Group_44968" data-name="Group 44968" transform="translate(0 0)">
    <path id="Path_40131" data-name="Path 40131" d="M35.744,43.992H8.249A8.248,8.248,0,0,1,0,35.743V8.248A8.248,8.248,0,0,1,8.249,0h27.5a8.248,8.248,0,0,1,8.249,8.248V35.743A8.248,8.248,0,0,1,35.744,43.992Z" transform="translate(0 0)" fill="#00376a" opacity="0.1"/>
    <path id="Path_40132" data-name="Path 40132" d="M22.2,24.548l-1.718-4.124A.688.688,0,0,0,19.843,20H16.406a.688.688,0,0,0-.635.423l-1.718,4.124a.688.688,0,0,0,.635.951h6.874a.688.688,0,0,0,.635-.951Z" transform="translate(5.247 7.495)" fill="#00376a" opacity="0.2"/>
    <path id="Path_40133" data-name="Path 40133" d="M26.946,26.3l-1.714-4.124a.69.69,0,0,0-.635-.423H21.15a.684.684,0,0,0-.51.231l1.651,3.965a1.6,1.6,0,0,1-.045,1.3h4.065a.688.688,0,0,0,.635-.951ZM24.2,19.881l-1.718-4.124a.687.687,0,0,0-.635-.423H18.406a.688.688,0,0,0-.635.423l-1.718,4.124a.688.688,0,0,0,.635.951h6.874a.688.688,0,0,0,.635-.951Z" transform="translate(5.996 5.746)" fill="#00376a"/>
    <path id="Path_40134" data-name="Path 40134" d="M11.926,12.124h7.347l1.585-1.269a1.6,1.6,0,0,0-1-2.855H11.337a1.6,1.6,0,0,0-1,2.855Z" transform="translate(3.648 2.998)" fill="#00376a" opacity="0.2"/>
    <path id="Path_40135" data-name="Path 40135" d="M15.032,27.018l1.718-4.126a2.032,2.032,0,0,1,.946-1.012,2.038,2.038,0,0,1,.085-1.277L19.5,16.478a2.057,2.057,0,0,1,1.9-1.269h1.031A14.363,14.363,0,0,0,20.047,12h-7.6A15.907,15.907,0,0,0,8,22.31C8,25.389,9.629,28.5,13.269,28.5h1.721A2.054,2.054,0,0,1,15.032,27.018Z" transform="translate(2.998 4.498)" fill="#00376a"/>
  </g>
</svg>
