<svg id="Group_44219" data-name="Group 44219" xmlns="http://www.w3.org/2000/svg" width="66" height="66" viewBox="0 0 66 66">
  <rect id="Rectangle_19773" data-name="Rectangle 19773" width="66" height="66" rx="33" fill="#fff" opacity="0.8"/>
  <g id="Group_27557" data-name="Group 27557" transform="translate(16.819 16.667)">
    <path id="Path_17705" data-name="Path 17705" d="M16.284,2.657H2.041A1.244,1.244,0,0,0,.8,3.9V17.154A1.244,1.244,0,0,0,2.043,18.4H16.284a1.244,1.244,0,0,0,1.242-1.242V3.9A1.244,1.244,0,0,0,16.284,2.657Z" transform="translate(-0.8 -1.556)" fill="#c7def3"/>
    <path id="Path_17706" data-name="Path 17706" d="M16.284,2.657H2.041A1.244,1.244,0,0,0,.8,3.9V5.874a.242.242,0,0,0,.243.242h16.24a.243.243,0,0,0,.243-.242V3.9a1.244,1.244,0,0,0-1.242-1.243Z" transform="translate(-0.8 -1.556)" fill="#1d5a7f" opacity="0.2"/>
    <g id="Group_27557-2" data-name="Group 27557" transform="translate(2.283 6.698)">
      <path id="Path_17707" data-name="Path 17707" d="M12.546,13.622H9.891a.16.16,0,0,0-.16.16v2.66a.16.16,0,1,0,.32,0v-2.5h2.5a.16.16,0,1,0,0-.32Zm1.791,2.98a.16.16,0,0,0,.16-.16v-2.5H17a.16.16,0,1,0,0-.32H14.335a.16.16,0,0,0-.16.16v2.66a.16.16,0,0,0,.16.16ZM8.1,18.169H5.436a.16.16,0,0,0-.16.16v2.655a.16.16,0,1,0,.32,0V18.489H8.1a.16.16,0,1,0,0-.32Zm4.45,0H9.891a.16.16,0,0,0-.16.16v2.655a.16.16,0,1,0,.32,0V18.489h2.5a.16.16,0,1,0,0-.32Zm4.45,0H14.335a.16.16,0,0,0-.16.16v2.655a.16.16,0,1,0,.32,0V18.489H17a.16.16,0,1,0,0-.32Z" transform="translate(-5.276 -13.622)" fill="#1d5a7f"/>
    </g>
    <g id="Group_27558" data-name="Group 27558" transform="translate(2.855)">
      <path id="Path_17708" data-name="Path 17708" d="M6.807.5A.4.4,0,0,0,6.4.9V2.783a.4.4,0,0,0,.808,0V.9a.4.4,0,0,0-.4-.4Zm3.4,0a.4.4,0,0,0-.4.4V2.783a.4.4,0,0,0,.808,0V.9a.4.4,0,0,0-.4-.4Zm3.4,0a.4.4,0,0,0-.4.4V2.783a.4.4,0,0,0,.808,0V.9A.4.4,0,0,0,13.607.5Zm3.4,0a.4.4,0,0,0-.4.4V2.783a.4.4,0,0,0,.808,0V.9a.4.4,0,0,0-.405-.4Z" transform="translate(-6.4 -0.5)" fill="#1d5a7f"/>
    </g>
    <g id="Group_27559" data-name="Group 27559" transform="translate(7.089 26.836)">
      <path id="Path_17709" data-name="Path 17709" d="M19.2,53.145a.237.237,0,0,0-.336,0L15.01,57a.793.793,0,1,0,1.119,1.119l3.858-3.858a.237.237,0,0,0,0-.336ZM38.654,57l-3.859-3.859a.244.244,0,0,0-.336,0l-.783.783a.237.237,0,0,0,0,.336l3.85,3.861a.793.793,0,0,0,1.119-1.119Z" transform="translate(-14.735 -53.076)" fill="#c7def3"/>
    </g>
    <path id="Path_17710" data-name="Path 17710" d="M37.206,29.481c-.238,0-.432.112-.432.247v17.38c0,.137.194.247.432.247s.432-.112.432-.247V29.726c0-.137-.194-.247-.432-.247Z" transform="translate(-18.454 -14.689)" fill="#1d5a7f"/>
    <path id="Path_17711" data-name="Path 17711" d="M33.789,46.012H12.013a.525.525,0,0,1-.374-.156l-5.4-5.4a1.1,1.1,0,0,0-1.516,0,1.1,1.1,0,0,0-.138,1.65l5.734,5.731a1.079,1.079,0,0,0,.759.314H33.789a1.073,1.073,0,1,0,0-2.145Z" transform="translate(-2.5 -19.914)" fill="#1d5a7f"/>
    <path id="Path_17712" data-name="Path 17712" d="M27.98,21.543A9.646,9.646,0,0,0,18.306,30.9a.246.246,0,0,0,.247.256H37.406a.247.247,0,0,0,.247-.256A9.646,9.646,0,0,0,27.98,21.543Z" transform="translate(-9.371 -10.802)" fill="#1d5a7f"/>
    <path id="Path_17713" data-name="Path 17713" d="M33.156,21.706c-2.323,0-4.2,4.076-4.281,9.278a.163.163,0,0,0,.163.166h8.235a.165.165,0,0,0,.159-.162C37.354,25.782,35.475,21.706,33.156,21.706Z" transform="translate(-14.544 -10.882)" fill="#c7def3"/>
  </g>
</svg>
