<svg xmlns="http://www.w3.org/2000/svg" width="31.835" height="31.835" viewBox="0 0 31.835 31.835">
  <g id="Group_44281" data-name="Group 44281" transform="translate(-2.5 -2.5)">
    <path id="Path_39702" data-name="Path 39702" d="M42.5,2.5V34.335A15.917,15.917,0,0,0,42.5,2.5Z" transform="translate(-24.083)" fill="#3ea69b"/>
    <path id="Path_39703" data-name="Path 39703" d="M2.5,18.417A15.913,15.913,0,0,0,18.417,34.335V2.5A15.913,15.913,0,0,0,2.5,18.417Z" fill="#44c4a1"/>
    <g id="Group_44278" data-name="Group 44278" transform="translate(7.434 8.986)">
      <path id="Path_39704" data-name="Path 39704" d="M22.461,39.408l-7.561-7.6,3.263-3.263,4.3,4.3L33.6,21.7,36.866,25Z" transform="translate(-14.9 -20.546)" fill="#31978c"/>
      <path id="Path_39705" data-name="Path 39705" d="M22.461,36.508l-7.561-7.6,3.263-3.3,4.3,4.338L33.6,18.8l3.263,3.3Z" transform="translate(-14.9 -18.8)" fill="#fff"/>
    </g>
  </g>
</svg>
