<svg id="Group_44966" data-name="Group 44966" xmlns="http://www.w3.org/2000/svg" width="43.992" height="43.992" viewBox="0 0 43.992 43.992">
  <path id="Path_40123" data-name="Path 40123" d="M35.744,43.992H8.249A8.249,8.249,0,0,1,0,35.744V8.249A8.249,8.249,0,0,1,8.249,0h27.5a8.249,8.249,0,0,1,8.249,8.249v27.5A8.249,8.249,0,0,1,35.744,43.992Z" transform="translate(0 0)" fill="#00376a" opacity="0.1"/>
  <path id="Path_40124" data-name="Path 40124" d="M13.926,12.124h7.347l1.585-1.269a1.6,1.6,0,0,0-1-2.855H13.337a1.6,1.6,0,0,0-1,2.855l1.586,1.269Z" transform="translate(4.397 2.998)" fill="#00376a" opacity="0.2"/>
  <path id="Path_40125" data-name="Path 40125" d="M22.047,12h-7.6A15.92,15.92,0,0,0,10,22.311c0,3.079,1.629,6.186,5.269,6.186h6.186c3.11,0,5.041-2.371,5.041-6.186A15.92,15.92,0,0,0,22.047,12Z" transform="translate(3.748 4.497)" fill="#00376a"/>
</svg>
