<svg xmlns="http://www.w3.org/2000/svg" width="52.06" height="57" viewBox="0 0 52.06 57">
  <g id="Group_44344" data-name="Group 44344" transform="translate(-5.97 -4)">
    <path id="Path_39872" data-name="Path 39872" d="M5.97,43.4v2.04a3.79,3.79,0,0,0,3.78,3.78c8.648,0,22.18,0,30.8,0h13.7a3.79,3.79,0,0,0,3.78-3.78V43.4C57.023,43.4,5.97,43.4,5.97,43.4Z" fill="#f47320"/>
    <path id="Path_39873" data-name="Path 39873" d="M19.72,14.03l2.34,1.9.38.31a.9.9,0,0,1,.01,1.37c-.24.194-2.434,1.983-2.73,2.22a1.011,1.011,0,0,0-.24,1.27l2.65,4.58a.982.982,0,0,0,1.22.43l3.26-1.24a.933.933,0,0,1,1.21.69l.55,3.45a1,1,0,0,0,.99.84h5.28a1,1,0,0,0,.99-.84l.55-3.45a.932.932,0,0,1,1.21-.69l3.26,1.24a.982.982,0,0,0,1.22-.43l2.65-4.58a1.011,1.011,0,0,0-.24-1.27l-2.33-1.9c-.329-.256-.737-.534-.71-1.01-.03-.452.375-.747.69-.99l2.35-1.9a.284.284,0,0,0,.09-.1.983.983,0,0,0,.15-1.18L41.87,8.17a.993.993,0,0,0-1.22-.43L37.39,8.99a.9.9,0,0,1-.79-.09.865.865,0,0,1-.42-.61l-.55-3.45A1.008,1.008,0,0,0,34.64,4H29.36a1.008,1.008,0,0,0-.99.84l-.55,3.45a.938.938,0,0,1-1.21.7L23.35,7.74a.993.993,0,0,0-1.22.43l-2.65,4.58a1.021,1.021,0,0,0,.24,1.28ZM32,12.28c6.144.194,6.144,9.1,0,9.3C25.855,21.379,25.857,12.473,32,12.28Z" fill="#f47320"/>
    <path id="Path_39874" data-name="Path 39874" d="M54.25,15.93H45.11l-1.22,1c.928.839,2.474,1.658,2.68,3a2.962,2.962,0,0,1-.32,2.17l-2.64,4.58a2.992,2.992,0,0,1-3.67,1.3l-2-.76-.33,2.11a3.008,3.008,0,0,1-2.97,2.52H29.36a3.008,3.008,0,0,1-2.97-2.52l-.33-2.11-2,.76a3,3,0,0,1-3.67-1.3L17.75,22.1a2.962,2.962,0,0,1-.32-2.17c.208-1.339,1.745-2.168,2.68-3l-1.22-1H9.75a3.79,3.79,0,0,0-3.78,3.78V41.4c2.824,0,52.06,0,52.06,0V19.71a3.79,3.79,0,0,0-3.78-3.78Z" fill="#ffd1b4"/>
    <circle id="Ellipse_1662" data-name="Ellipse 1662" cx="3" cy="3" r="3" transform="translate(28.97 14)" fill="#f47320"/>
    <g id="Group_44345" data-name="Group 44345" transform="translate(0 1)">
      <path id="Path_39874-2" data-name="Path 39874" d="M45.09,53.92H42.14l-.91-2.7H22.77l-.91,2.7H18.91a4,4,0,0,0-4,4V59a1,1,0,0,0,1,1H48.09a1,1,0,0,0,1-1V57.92a4,4,0,0,0-4-4Z" fill="#f47320"/>
    </g>
  </g>
</svg>
