<svg xmlns="http://www.w3.org/2000/svg" width="27.25" height="30.128" viewBox="0 0 27.25 30.128">
  <path id="eba4622d76fd37d4674327947273e7d4" d="M28.88,46.753a9.125,9.125,0,0,0,6.4-2.623l5.6-5.6a1.069,1.069,0,0,0-1.511-1.511l-5.6,5.557a6.854,6.854,0,0,1-4.89,2,6.931,6.931,0,0,1-4.89-2,6.675,6.675,0,0,1-2-4.89,6.931,6.931,0,0,1,2-4.89L36.659,20.126A4.8,4.8,0,0,1,40.126,18.7a4.876,4.876,0,0,1,3.467,1.423,4.8,4.8,0,0,1,1.423,3.467,4.876,4.876,0,0,1-1.423,3.467L30.88,39.774a2.892,2.892,0,0,1-4.09-4.09l5.646-5.646a1.069,1.069,0,0,0-1.511-1.511l-5.6,5.646a5.029,5.029,0,0,0,7.113,7.113L45.105,28.616a7.084,7.084,0,0,0,0-9.958,7.057,7.057,0,0,0-9.913,0L22.523,31.328a8.971,8.971,0,0,0-2.623,6.4,9.125,9.125,0,0,0,2.623,6.4A8.944,8.944,0,0,0,28.88,46.753Z" transform="translate(-19.9 -16.625)" fill="#909090"/>
</svg>
