<svg id="Group_44219" data-name="Group 44219" xmlns="http://www.w3.org/2000/svg" width="66" height="66" viewBox="0 0 66 66">
  <rect id="Rectangle_19773" data-name="Rectangle 19773" width="66" height="66" rx="33" fill="#fff" opacity="0.8"/>
  <g id="Layer_2" data-name="Layer 2" transform="translate(21.174 21.175)">
    <rect id="Rectangle_20309" data-name="Rectangle 20309" width="22.335" height="22.335" rx="3" transform="translate(0 1.315)" fill="#c7def3"/>
    <path id="Path_39982" data-name="Path 39982" d="M27.538,2A3.424,3.424,0,0,0,22.7,2L11.2,13.5a1.1,1.1,0,0,0-.321.775v3.287a1.1,1.1,0,0,0,1.1,1.1H15.26a1.1,1.1,0,0,0,.774-.321l11.5-11.5a3.417,3.417,0,0,0,0-4.836Z" transform="translate(-4.891 -1)" fill="#a4c4dc"/>
    <path id="Path_39983" data-name="Path 39983" d="M26.718,2a3.424,3.424,0,0,0-4.836,0L19.465,4.417,24.3,9.253l2.417-2.417a3.417,3.417,0,0,0,0-4.836Z" transform="translate(-4.07 -1)" fill="#1d5a7f"/>
  </g>
</svg>
