<svg id="Group_44893" data-name="Group 44893" xmlns="http://www.w3.org/2000/svg" width="30.831" height="33.135" viewBox="0 0 30.831 33.135">
  <path id="Path_39822" data-name="Path 39822" d="M33.924,18.584l-.216-2.852a15.755,15.755,0,0,0-4.726-9.685A14.925,14.925,0,0,0,18.866,2a1.658,1.658,0,1,0,0,3.317,11.608,11.608,0,0,1,7.859,3.067,12.255,12.255,0,0,1,3.683,7.6l.2,2.6a42.024,42.024,0,0,1-.614,8.292,1.658,1.658,0,0,0,1.343,1.907.78.78,0,0,0,.282,0,1.658,1.658,0,0,0,1.658-1.36,45.157,45.157,0,0,0,.647-8.839ZM7.34,17.771a11.609,11.609,0,0,1,6.4-11.26,1.658,1.658,0,1,0-1.476-2.969A14.925,14.925,0,0,0,3.974,18.02v.73a26.634,26.634,0,0,1-.813,8.922,1.658,1.658,0,0,0,1.194,2.023,1.774,1.774,0,0,0,.415,0,1.658,1.658,0,0,0,1.658-1.244A29.983,29.983,0,0,0,7.34,18.5Z" transform="translate(-3.108 -2)" fill="#00376a"/>
  <path id="Path_39823" data-name="Path 39823" d="M24.613,13.221A8.64,8.64,0,0,0,21.927,8.08a8.292,8.292,0,0,0-13.7,7.065v.514a26.8,26.8,0,0,1-1.774,12.9,1.69,1.69,0,0,0,3.168,1.177,30.116,30.116,0,0,0,1.957-14.461v-.514a4.975,4.975,0,0,1,1.161-3.814,5.058,5.058,0,0,1,6.982-.381,5.373,5.373,0,0,1,1.658,3.151l.232,1.957a27.578,27.578,0,0,1,.1,3.566A1.658,1.658,0,0,0,23.369,20.9a1.741,1.741,0,0,0,1.658-1.658,29.071,29.071,0,0,0-.182-3.98Z" transform="translate(-0.945 0.66)" fill="#c7def3"/>
  <path id="Path_39824" data-name="Path 39824" d="M20.375,20.278A1.658,1.658,0,0,0,18.5,21.7a17.181,17.181,0,0,1-.929,4.262l-.365.9a1.636,1.636,0,1,0,3.018,1.26l.381-.912a21.244,21.244,0,0,0,1.144-5.075A1.658,1.658,0,0,0,20.375,20.278ZM13.327,10.012a1.658,1.658,0,0,0-1.31,1.957A26.534,26.534,0,0,1,10.624,27.16l-.166.448a1.652,1.652,0,1,0,3.068,1.227l.182-.431a29.967,29.967,0,0,0,1.559-17.1A1.658,1.658,0,0,0,13.327,10.012Z" transform="translate(1.652 3.255)" fill="#00376a"/>
</svg>
