<svg id="Group_44595" data-name="Group 44595" xmlns="http://www.w3.org/2000/svg" width="54.509" height="54.509" viewBox="0 0 54.509 54.509">
  <g id="Rectangle_19773" data-name="Rectangle 19773" fill="#fff" stroke="#c7def3" stroke-width="1" opacity="0.8">
    <rect width="54.509" height="54.509" rx="27.255" stroke="none"/>
    <rect x="0.5" y="0.5" width="53.509" height="53.509" rx="26.755" fill="none"/>
  </g>
  <g id="Group_44983" data-name="Group 44983" transform="translate(10.077 8.071)">
    <rect id="Rectangle_20489" data-name="Rectangle 20489" width="2.226" height="10.006" rx="1.113" transform="translate(2.506 20.19)" fill="#00376a"/>
    <path id="Path_40155" data-name="Path 40155" d="M24.649,39.434l6.156-4.4a2.352,2.352,0,0,1,3.035.248h0a2.362,2.362,0,0,1-.248,3.541l-8.9,6.677a4.806,4.806,0,0,1-4.826.536L11.33,42.2l-3.89.056V35.979h2.777l1.649-2.145a2.858,2.858,0,0,1,3.936-.587l7.866,5.63a1.791,1.791,0,0,1,.354,2.575h0a1.786,1.786,0,0,1-2.413.349l-5.853-4.047" transform="translate(-2.688 -13.669)" fill="#c7def3"/>
    <circle id="Ellipse_1683" data-name="Ellipse 1683" cx="6.576" cy="6.576" r="6.576" transform="translate(15.658 5.531)" fill="#c7def3"/>
    <path id="Path_40156" data-name="Path 40156" d="M38.091,15.935a1.583,1.583,0,0,0,1.609,1.32c.971,0,1.6-.349,1.6-1.3,0-.678-.319-1.169-1.588-1.518s-1.978-.759-1.978-1.77A1.7,1.7,0,0,1,39.659,11c1.548,0,1.988.951,2.049,1.518H41.2a1.4,1.4,0,0,0-1.518-1.088c-1.012,0-1.376.551-1.376,1.169s.369,1.052,1.518,1.341c1.659.44,2.079,1.067,2.079,1.968-.066,1.143-.825,1.821-2.236,1.821a1.942,1.942,0,0,1-2.089-1.77Zm1.421,2.7V10.28h.465v8.357Z" transform="translate(-17.582 -2.584)" fill="#05cebb"/>
    <path id="Path_40157" data-name="Path 40157" d="M31.511,21.273a2.853,2.853,0,0,0-3.688-.3L21.753,25.3a2.276,2.276,0,0,0-.481-.506l-7.886-5.61a3.354,3.354,0,0,0-4.629.688L7.241,21.829H5.217V20.2a.506.506,0,0,0-.506-.506H2.506A.506.506,0,0,0,2,20.2V30.221a.506.506,0,0,0,.506.506H4.732a.506.506,0,0,0,.506-.506V29.108l3.278-.046,8.433,3.784a5.281,5.281,0,0,0,5.357-.592l8.9-6.677a2.858,2.858,0,0,0,.3-4.315ZM4.226,29.715H3.012V20.706H4.226ZM30.6,24.778l-8.9,6.677a4.29,4.29,0,0,1-4.335.506L8.829,28.1a.562.562,0,0,0-.218-.046L5.237,28.1V22.846H7.509a.506.506,0,0,0,.4-.2L9.557,20.5a2.357,2.357,0,0,1,3.242-.506l7.886,5.655a1.3,1.3,0,0,1-1.518,2.1L13.316,23.7a.506.506,0,1,0-.577.83l5.853,4.047a2.3,2.3,0,0,0,3.642-2.2.744.744,0,0,0-.04-.152l.081-.035,6.156-4.4a1.851,1.851,0,1,1,2.191,2.985Zm-8.367-5.564a7.082,7.082,0,1,0-7.082-7.082,7.082,7.082,0,0,0,7.082,7.082Zm0-13.152a6.07,6.07,0,1,1-6.07,6.07,6.07,6.07,0,0,1,6.07-6.07Z" fill="#00376a"/>
    <path id="Path_40158" data-name="Path 40158" d="M38.1,15.99H37.59a1.922,1.922,0,0,0,1.927,1.76v.941h.465v-.941c1.209-.086,1.872-.728,1.872-1.77,0-.86-.384-1.477-1.872-1.912V11.539A1.335,1.335,0,0,1,41.2,12.606H41.7a1.725,1.725,0,0,0-1.73-1.518V10.33h-.455v.723a1.7,1.7,0,0,0-1.781,1.654c0,.916.612,1.4,1.781,1.735V17.3A1.573,1.573,0,0,1,38.1,15.99Zm3.207,0c0,.85-.506,1.219-1.32,1.285V14.584c1.042.334,1.32.8,1.32,1.426Zm-3.035-3.349c0-.592.339-1.108,1.239-1.163V13.9c-.911-.258-1.2-.627-1.2-1.239Z" transform="translate(-17.587 -2.609)" fill="#00376a"/>
  </g>
</svg>
