<svg id="Group_40418" data-name="Group 40418" xmlns="http://www.w3.org/2000/svg" width="25.22" height="21.911" viewBox="0 0 25.22 21.911">
  <path id="Path_38707" data-name="Path 38707" d="M2.06,14.287a.474.474,0,0,0-.472.475A3.148,3.148,0,0,0,4.54,18.077H22.794a3.148,3.148,0,0,0,2.951-3.315.474.474,0,0,0-.475-.475Z" transform="translate(-1.589 3.834)" fill="#fff"/>
  <g id="Group_40419" data-name="Group 40419" transform="translate(3.522)">
    <path id="Path_38708" data-name="Path 38708" d="M12.635,7.308l-.1,2.237c0,.3.159.535.357.536H15.76V13.9c0,1.739-.923,3.132-2.075,3.132l-.791.016c-.2,0-.359.237-.36.532v2.04c0,.3.162.534.36.533l1.432.09a3.212,3.212,0,0,0,2.4-1.543,6.546,6.546,0,0,0,1.191-3.8V7.415c0-.3-.162-.533-.36-.532H12.635c-.011,0,0,.425,0,.425Z" transform="translate(3.786 -5.807)" fill="#fff"/>
    <path id="Path_38709" data-name="Path 38709" d="M12.176,7.782V8.7c0,.3.146.559.332.56h2.9V8.187H12.842c-.186,0-.667-.11-.666-.4ZM17.549,13a6.849,6.849,0,0,1-1.117,3.8,3,3,0,0,1-2.245,1.543h-1.68a.291.291,0,0,1-.238-.155.722.722,0,0,1-.1-.378v1.069a.722.722,0,0,0,.1.378.291.291,0,0,0,.238.155h1.68a3,3,0,0,0,2.245-1.543,6.849,6.849,0,0,0,1.117-3.8Z" transform="translate(4.15 -4.981)" fill="#fff" opacity="0.6"/>
    <path id="Path_38710" data-name="Path 38710" d="M3.88,6.35a.5.5,0,0,0-.441.536V18.2c0,2.3,1.528,4.177,3.419,4.177H16.4c1.89,0,3.42-1.876,3.42-4.177V6.886a.5.5,0,0,0-.445-.536Z" transform="translate(-3.439 -6.35)" fill="#fff"/>
  </g>
</svg>
