<svg xmlns="http://www.w3.org/2000/svg" width="30.509" height="30.508" viewBox="0 0 30.509 30.508">
  <g id="Group_44349" data-name="Group 44349" transform="translate(0.446 0.445)">
    <g id="Group_44347" data-name="Group 44347">
      <rect id="Rectangle_20168" data-name="Rectangle 20168" width="29.506" height="29.507" rx="14.753" transform="translate(0.054 29.614) rotate(-90)" fill="#fec717" opacity="0.2"/>
      <path id="Path_39795" data-name="Path 39795" d="M1563.61,1135.488A14.808,14.808,0,1,1,1548.8,1150.3,14.808,14.808,0,0,1,1563.61,1135.488Z" transform="translate(-1548.802 -1135.488)" fill="none" stroke="#fff" stroke-width="0.892"/>
    </g>
    <g id="Group_44364" data-name="Group 44364" transform="translate(7.379 6.835)">
      <path id="Path_39830" data-name="Path 39830" d="M20.857,10.857A2.857,2.857,0,0,0,18,8H8.857A2.857,2.857,0,0,0,6,10.857V20a2.857,2.857,0,0,0,2.857,2.857H18A2.857,2.857,0,0,0,20.857,20Z" transform="translate(-6 -6.857)" fill="#fec717" fill-rule="evenodd" opacity="0.2"/>
      <path id="Subtraction_17" data-name="Subtraction 17" d="M17049.385,6011.2h-14.861v-2.854a2.857,2.857,0,0,1,2.859-2.858h9.143a2.839,2.839,0,0,1,2.02.834,2.9,2.9,0,0,1,.84,2.024v2.853Zm-10.859-3.427a.571.571,0,0,0,0,1.143h6.857a.571.571,0,1,0,0-1.143Z" transform="translate(-17034.525 -6004.346)" fill="#fec717"/>
      <path id="Path_39833" data-name="Path 39833" d="M580,262v10.286h1.143V262Z" transform="translate(-575.429 -256.286)" fill="#fec717" fill-rule="evenodd"/>
      <path id="Path_39834" data-name="Path 39834" d="M580,262v10.286h1.143V262Z" transform="translate(-570.857 -256.286)" fill="#fec717" fill-rule="evenodd"/>
      <path id="Path_39835" data-name="Path 39835" d="M0,0V14.857H1.143V0Z" transform="translate(14.857 10.286) rotate(90)" fill="#fec717" fill-rule="evenodd"/>
      <path id="Path_39836" data-name="Path 39836" d="M419.143,369.286v-1.714a.571.571,0,0,0-1.143,0v1.714a.571.571,0,0,0,1.143,0Z" transform="translate(-414.571 -367.001)" fill="#fec717" fill-rule="evenodd"/>
      <path id="Path_39837" data-name="Path 39837" d="M419.143,369.286v-1.714a.571.571,0,0,0-1.143,0v1.714a.571.571,0,0,0,1.143,0Z" transform="translate(-407.714 -367.001)" fill="#fec717" fill-rule="evenodd"/>
    </g>
  </g>
</svg>
