<svg xmlns="http://www.w3.org/2000/svg" width="23.307" height="23.307" viewBox="0 0 23.307 23.307">
  <g id="Group_44770" data-name="Group 44770" transform="translate(-2 -2)">
    <path id="Path_38710" data-name="Path 38710" d="M7.165,6.661A1.165,1.165,0,0,1,6,5.5V3.165a1.165,1.165,0,1,1,2.331,0V5.5A1.165,1.165,0,0,1,7.167,6.661Zm11.654,0A1.165,1.165,0,0,1,17.654,5.5V3.165a1.165,1.165,0,1,1,2.331,0V5.5A1.165,1.165,0,0,1,18.82,6.661Z" transform="translate(0.661)" fill="#2b7b8a"/>
    <path id="Path_38711" data-name="Path 38711" d="M21.811,4H20.646V5.165a1.165,1.165,0,0,1-2.331,0V4H8.992V5.165a1.165,1.165,0,0,1-2.331,0V4H5.5A3.5,3.5,0,0,0,2,7.5V9.827H25.307V7.5a3.5,3.5,0,0,0-3.5-3.5Z" transform="translate(0 0.331)" fill="#2b7b8a"/>
    <circle id="Ellipse_592" data-name="Ellipse 592" cx="2" cy="2" r="2" transform="translate(6 13)" fill="#2b7b8a"/>
    <circle id="Ellipse_593" data-name="Ellipse 593" cx="1.5" cy="1.5" r="1.5" transform="translate(6 18)" fill="#2b7b8a"/>
    <circle id="Ellipse_594" data-name="Ellipse 594" cx="2" cy="2" r="2" transform="translate(12 13)" fill="#2b7b8a"/>
    <circle id="Ellipse_595" data-name="Ellipse 595" cx="1.5" cy="1.5" r="1.5" transform="translate(12 18)" fill="#2b7b8a"/>
    <circle id="Ellipse_596" data-name="Ellipse 596" cx="1.5" cy="1.5" r="1.5" transform="translate(18 13)" fill="#2b7b8a"/>
    <circle id="Ellipse_597" data-name="Ellipse 597" cx="1.5" cy="1.5" r="1.5" transform="translate(18 18)" fill="#2b7b8a"/>
    <path id="Path_38712" data-name="Path 38712" d="M2,9V20.654a3.5,3.5,0,0,0,3.5,3.5H21.811a3.5,3.5,0,0,0,3.5-3.5V9ZM7.827,19.488a1.165,1.165,0,1,1,1.165-1.165A1.165,1.165,0,0,1,7.827,19.488Zm0-4.661a1.165,1.165,0,1,1,1.165-1.165A1.165,1.165,0,0,1,7.827,14.827Zm5.827,4.661a1.165,1.165,0,1,1,1.165-1.165A1.165,1.165,0,0,1,13.654,19.488Zm0-4.661a1.165,1.165,0,1,1,1.165-1.165A1.165,1.165,0,0,1,13.654,14.827Zm5.827,4.661a1.165,1.165,0,1,1,1.165-1.165A1.165,1.165,0,0,1,19.481,19.488Zm0-4.661a1.165,1.165,0,1,1,1.165-1.165A1.165,1.165,0,0,1,19.481,14.827Z" transform="translate(0 1.158)" fill="#c7def3"/>
  </g>
</svg>
