<svg xmlns="http://www.w3.org/2000/svg" width="25" height="19" viewBox="0 0 25 19">
  <g id="Group_44592" data-name="Group 44592" transform="translate(-2 -5)">
    <circle id="Ellipse_1666" data-name="Ellipse 1666" cx="3.5" cy="3.5" r="3.5" transform="translate(11 13)" fill="#fff"/>
    <path id="Path_39987" data-name="Path 39987" d="M25,8H21.721a1,1,0,0,1-.949-.684l-.316-.949A2,2,0,0,0,18.558,5H10.441a2,2,0,0,0-1.9,1.368l-.316.948A1,1,0,0,1,7.279,8H4a2,2,0,0,0-2,2V22a2,2,0,0,0,2,2H25a2,2,0,0,0,2-2V10A2,2,0,0,0,25,8ZM14.5,22A5.5,5.5,0,1,1,20,16.5,5.507,5.507,0,0,1,14.5,22Zm6-10a1,1,0,1,1,1-1A1,1,0,0,1,20.5,12Z" fill="#fff"/>
    <path id="Path_39988" data-name="Path 39988" d="M5.5,7h-2a.5.5,0,0,1,0-1h2a.5.5,0,0,1,0,1Z" fill="#fff"/>
  </g>
</svg>
