<svg xmlns="http://www.w3.org/2000/svg" width="49" height="49" viewBox="0 0 49 49">
  <g id="Group_44227" data-name="Group 44227" transform="translate(-9.365 -9.365)">
    <circle id="Ellipse_1648" data-name="Ellipse 1648" cx="24.5" cy="24.5" r="24.5" transform="translate(9.365 9.365)" fill="#c4c1bf"/>
    <path id="Path_39690" data-name="Path 39690" d="M43.6,21.866a1.956,1.956,0,0,0-2.767,0l-8.1,8.1-8.1-8.1a1.957,1.957,0,0,0-2.768,2.767l8.1,8.1-8.1,8.1A1.957,1.957,0,1,0,24.633,43.6l8.1-8.1,8.1,8.1A1.957,1.957,0,1,0,43.6,40.835l-8.1-8.1,8.1-8.1a1.956,1.956,0,0,0,0-2.768Z" transform="translate(1.131 1.131)" fill="#fff"/>
  </g>
</svg>
