<svg id="_57079dbf0c5f0074aab5c1a22b7416ef" data-name="57079dbf0c5f0074aab5c1a22b7416ef" xmlns="http://www.w3.org/2000/svg" width="22.078" height="22.078" viewBox="0 0 22.078 22.078">
  <path id="Path_39177" data-name="Path 39177" d="M107.041,118.078a11.742,11.742,0,0,1-1.255-.069,9.644,9.644,0,0,1-3.407-1.064,12.608,12.608,0,0,1-5.18-5.087,9.681,9.681,0,0,1-1.122-3.386A11.064,11.064,0,0,1,108.461,96.09a9.721,9.721,0,0,1,3.381,1.12,12.6,12.6,0,0,1,5.084,5.169,9.679,9.679,0,0,1,1.067,3.4,10.964,10.964,0,0,1-1.693,7.247,0,0,0,0,1,0,0,.358.358,0,0,0-.048.279c.159.589.655,2.317.8,2.831a.743.743,0,0,1-.921.921c-1.008-.292-2.314-.669-2.8-.807a.355.355,0,0,0-.295.04A10.913,10.913,0,0,1,107.041,118.078Zm-.008-20.592a9.553,9.553,0,0,0-9.481,10.8,10.246,10.246,0,0,0,8.393,8.245,9.5,9.5,0,0,0,6.284-1.481,1.844,1.844,0,0,1,1.507-.223h0c.289.082.876.252,1.515.438-.175-.613-.353-1.245-.441-1.566v0a1.838,1.838,0,0,1,.239-1.473,9.487,9.487,0,0,0,1.462-6.276,10.251,10.251,0,0,0-8.242-8.383A9.591,9.591,0,0,0,107.033,97.486ZM115.676,112.628Z" transform="translate(-95.986 -96)" fill="#707070"/>
  <g id="Group_44067" data-name="Group 44067" transform="translate(3.743 9.728)">
    <g id="Ellipse_1623" data-name="Ellipse 1623" fill="#707070" stroke="#707070" stroke-width="1">
      <circle cx="1.548" cy="1.548" r="1.548" stroke="none"/>
      <circle cx="1.548" cy="1.548" r="1.048" fill="none"/>
    </g>
    <g id="Ellipse_1624" data-name="Ellipse 1624" transform="translate(6.191)" fill="#707070" stroke="#707070" stroke-width="1">
      <circle cx="1.548" cy="1.548" r="1.548" stroke="none"/>
      <circle cx="1.548" cy="1.548" r="1.048" fill="none"/>
    </g>
    <g id="Ellipse_1625" data-name="Ellipse 1625" transform="translate(11.497)" fill="#707070" stroke="#707070" stroke-width="1">
      <circle cx="1.548" cy="1.548" r="1.548" stroke="none"/>
      <circle cx="1.548" cy="1.548" r="1.048" fill="none"/>
    </g>
  </g>
</svg>
