<svg xmlns="http://www.w3.org/2000/svg" width="23.886" height="19.292" viewBox="0 0 23.886 19.292">
  <g id="Group_40515" data-name="Group 40515" transform="translate(-4 -10.525)">
    <path id="Path_18140" data-name="Path 18140" d="M4,19.512V27.78H9.717a8.3,8.3,0,0,1-.2-1.837V24.106a8.268,8.268,0,0,1,7.8-8.255A5.5,5.5,0,0,0,13.187,14H9.512A5.512,5.512,0,0,0,4,19.512Z" transform="translate(0 -3.475)" fill="#ffc098"/>
    <path id="Path_18141" data-name="Path 18141" d="M36.536,35.78A1.837,1.837,0,0,1,34.7,37.618H27.349A7.349,7.349,0,0,1,20,30.268v-.919A7.349,7.349,0,0,1,27.349,22h1.837a7.349,7.349,0,0,1,7.349,7.349Z" transform="translate(-8.651 -7.8)" fill="#f47320"/>
  </g>
</svg>
