<svg xmlns="http://www.w3.org/2000/svg" width="26.108" height="26.139" viewBox="0 0 26.108 26.139">
  <g id="Group_27365" data-name="Group 27365" transform="translate(-0.004 0)">
    <path id="Path_17628" data-name="Path 17628" d="M8.941,3.418a.909.909,0,1,0-.47-1.756,15.371,15.371,0,0,0-6.918,4A.908.908,0,0,0,2.836,6.945a13.555,13.555,0,0,1,6.1-3.526Zm18.44,17.156a.908.908,0,1,0-1.753-.469A13.555,13.555,0,0,1,22.1,26.2a.909.909,0,1,0,1.285,1.285,15.371,15.371,0,0,0,4-6.918Zm-21.9,2.993a4.542,4.542,0,0,0,5.715.578L4.9,17.852a4.542,4.542,0,0,0,.578,5.715Z" transform="translate(-1.309 -1.631)" fill="#f47320" fill-rule="evenodd"/>
    <path id="Path_17629" data-name="Path 17629" d="M22.842,5.708a8.936,8.936,0,0,0-11.977-.6L8.232,7.265A12.549,12.549,0,0,1,5.9,8.778l-1.337.668A4.268,4.268,0,0,0,3.45,16.282L12.268,25.1A4.269,4.269,0,0,0,19.1,23.992l.668-1.338a12.651,12.651,0,0,1,1.513-2.337l2.155-2.632a8.936,8.936,0,0,0-.6-11.977Z" transform="translate(-1.121 -1.324)" fill="#f47320" fill-rule="evenodd" opacity="0.35"/>
  </g>
</svg>
