<svg xmlns="http://www.w3.org/2000/svg" width="49" height="49" viewBox="0 0 49 49">
  <g id="Group_27350" data-name="Group 27350" transform="translate(-0.49)">
    <rect id="Rectangle_4620" data-name="Rectangle 4620" width="49" height="49" rx="10" transform="translate(0.49)" fill="#00376a" opacity="0.1"/>
    <g id="Group_27354" data-name="Group 27354" transform="translate(11.524 11.524)">
      <path id="Path_17619" data-name="Path 17619" d="M40.565,14.276a1.664,1.664,0,0,1-1.436-.828v-.055A1.657,1.657,0,1,1,41.393,14,1.643,1.643,0,0,1,40.565,14.276Z" transform="translate(-17.705 -5.166)" fill="#00376a"/>
      <path id="Path_17620" data-name="Path 17620" d="M13.476,26.452A12.961,12.961,0,0,0,26.452,13.476a10.948,10.948,0,0,0-.166-1.933,1.648,1.648,0,1,0-3.258.5,13.6,13.6,0,0,1,.11,1.436,9.712,9.712,0,1,1-3.479-7.4,1.605,1.605,0,0,0,2.319-.221,1.605,1.605,0,0,0-.221-2.319A12.565,12.565,0,0,0,13.476.5a12.976,12.976,0,1,0,0,25.952Z" transform="translate(-0.5 -0.5)" fill="#00376a" opacity="0.37"/>
      <path id="Path_17621" data-name="Path 17621" d="M22.29,16.6l-4.2,4.2-1.877-1.877A1.64,1.64,0,0,0,13.9,21.235l3.037,3.037a1.589,1.589,0,0,0,1.16.5,1.5,1.5,0,0,0,1.16-.5l5.356-5.356A1.64,1.64,0,0,0,22.29,16.6Z" transform="translate(-6.277 -7.486)" fill="#00376a"/>
    </g>
  </g>
</svg>
