<svg id="Group_45533" data-name="Group 45533" xmlns="http://www.w3.org/2000/svg" width="23.975" height="23.975" viewBox="0 0 23.975 23.975">
  <path id="Path_40625" data-name="Path 40625" d="M14.235,0H2.747A2.746,2.746,0,0,0,0,2.747V18.231a2.746,2.746,0,0,0,2.747,2.747H9.33a8.722,8.722,0,0,1-.839-3.746,8.451,8.451,0,0,1,.639-3.257,8.233,8.233,0,0,1,.739-1.448,8.818,8.818,0,0,1,2.477-2.537,7.688,7.688,0,0,1,1.628-.859A8.171,8.171,0,0,1,16.982,8.5V2.747A2.746,2.746,0,0,0,14.235,0Z" transform="translate(0 0)" fill="#fbc7a5"/>
  <path id="Path_40626" data-name="Path 40626" d="M13.988,8.995a.614.614,0,0,1-.01.14,7.688,7.688,0,0,0-1.628.859H4A1,1,0,1,1,4,8h8.991A1,1,0,0,1,13.988,8.995ZM9.873,12.531a8.233,8.233,0,0,0-.739,1.448.614.614,0,0,1-.14.01H4a1,1,0,1,1,0-2H8.994A.988.988,0,0,1,9.873,12.531ZM7.995,6H4A1,1,0,0,1,4,4h4a1,1,0,0,1,0,2Z" transform="translate(-0.003 -0.004)" fill="#f47320"/>
  <path id="Path_40627" data-name="Path 40627" d="M17.243,23.986a6.743,6.743,0,1,1,6.743-6.743A6.75,6.75,0,0,1,17.243,23.986Z" transform="translate(-0.011 -0.011)" fill="#f47320"/>
  <path id="Path_40628" data-name="Path 40628" d="M17.249,20.992a1,1,0,0,1-1-1V14.5a1,1,0,0,1,2,0v5.494A1,1,0,0,1,17.249,20.992Z" transform="translate(-0.017 -0.014)" fill="#fff"/>
  <path id="Path_40629" data-name="Path 40629" d="M19.993,18.248H14.5a1,1,0,0,1,0-2h5.494a1,1,0,1,1,0,2Z" transform="translate(-0.014 -0.017)" fill="#fff"/>
</svg>
