<svg xmlns="http://www.w3.org/2000/svg" width="22.998" height="23.001" viewBox="0 0 22.998 23.001">
  <g id="Group_44183" data-name="Group 44183" transform="translate(-3 0)">
    <path id="Path_17698" data-name="Path 17698" d="M8.864,0H1.677A1.679,1.679,0,0,0,0,1.677V5.989A1.679,1.679,0,0,0,1.677,7.667H8.864a1.679,1.679,0,0,0,1.677-1.677V1.677A1.679,1.679,0,0,0,8.864,0Z" transform="translate(3)" fill="#ffd1b4"/>
    <path id="Path_17699" data-name="Path 17699" d="M8.864,10H1.677A1.679,1.679,0,0,0,0,11.677V21.739a1.679,1.679,0,0,0,1.677,1.677H8.864a1.679,1.679,0,0,0,1.677-1.677V11.677A1.679,1.679,0,0,0,8.864,10Z" transform="translate(3 -0.418)" fill="#f47320"/>
    <path id="Path_17700" data-name="Path 17700" d="M21.864,16H14.677A1.679,1.679,0,0,0,13,17.677v4.312a1.679,1.679,0,0,0,1.677,1.677h7.187a1.679,1.679,0,0,0,1.677-1.677V17.677A1.679,1.679,0,0,0,21.864,16Z" transform="translate(2.457 -0.666)" fill="#ffd1b4"/>
    <path id="Path_17701" data-name="Path 17701" d="M21.864,0H14.677A1.679,1.679,0,0,0,13,1.677V11.739a1.679,1.679,0,0,0,1.677,1.677h7.187a1.679,1.679,0,0,0,1.677-1.677V1.677A1.679,1.679,0,0,0,21.864,0Z" transform="translate(2.457)" fill="#f47320"/>
  </g>
</svg>
