<svg id="Group_44614" data-name="Group 44614" xmlns="http://www.w3.org/2000/svg" width="21.29" height="21.29" viewBox="0 0 21.29 21.29">
  <path id="Path_39999" data-name="Path 39999" d="M20.4,3.548H15.081V2.661A2.661,2.661,0,0,0,12.419,0H8.871A2.661,2.661,0,0,0,6.21,2.661v.887H.887a.887.887,0,1,0,0,1.774H2.661V18.629A2.661,2.661,0,0,0,5.323,21.29H15.968a2.661,2.661,0,0,0,2.661-2.661V5.323H20.4a.887.887,0,1,0,0-1.774ZM7.984,2.661a.887.887,0,0,1,.887-.887h3.548a.887.887,0,0,1,.887.887v.887H7.984Zm8.871,15.968a.887.887,0,0,1-.887.887H5.323a.887.887,0,0,1-.887-.887V5.323H16.855Z" fill="#e12d20"/>
  <path id="Path_40000" data-name="Path 40000" d="M11.307,10a.861.861,0,0,0-.861.861v6.03a.861.861,0,0,0,1.723,0v-6.03A.861.861,0,0,0,11.307,10Zm2.584.861v6.03a.861.861,0,0,0,1.723,0v-6.03a.861.861,0,1,0-1.723,0ZM7.861,10A.861.861,0,0,0,7,10.861v6.03a.861.861,0,0,0,1.723,0v-6.03A.861.861,0,0,0,7.861,10Z" transform="translate(-0.662 -0.709)" fill="#e12d20"/>
</svg>
