<svg id="Group_45107" data-name="Group 45107" xmlns="http://www.w3.org/2000/svg" width="40" height="40" viewBox="0 0 40 40">
  <path id="Path_40365" data-name="Path 40365" d="M32.5,40H7.5A7.5,7.5,0,0,1,0,32.5V7.5A7.5,7.5,0,0,1,7.5,0h25A7.5,7.5,0,0,1,40,7.5v25A7.5,7.5,0,0,1,32.5,40Z" fill="#ffd1b4"/>
  <path id="Path_40367" data-name="Path 40367" d="M22.171,11.177,21.817,21.9a3.531,3.531,0,0,1-3.542,3.415h-6.73A3.531,3.531,0,0,1,8,21.9L7.649,11.177a.886.886,0,0,1,1.771-.058l.354,10.724a1.771,1.771,0,0,0,1.771,1.7h6.73a1.771,1.771,0,0,0,1.771-1.706l.354-10.72a.886.886,0,0,1,1.771.058ZM23.343,7.61a.886.886,0,0,1-.886.886H7.364a.886.886,0,1,1,0-1.771h2.745a1.13,1.13,0,0,0,1.127-1.017,2.649,2.649,0,0,1,2.642-2.386h2.063a2.649,2.649,0,0,1,2.642,2.386,1.13,1.13,0,0,0,1.127,1.017h2.745a.886.886,0,0,1,.886.886ZM12.773,6.724h4.275a2.922,2.922,0,0,1-.226-.836.886.886,0,0,0-.88-.8H13.879a.886.886,0,0,0-.88.8,2.922,2.922,0,0,1-.227.836Zm.892,13.416V12.6a.886.886,0,1,0-1.771,0v7.544a.886.886,0,0,0,1.771,0Zm4.263,0V12.6a.886.886,0,0,0-1.771,0v7.544a.886.886,0,0,0,1.771,0Z" transform="translate(5.091 5.682)" fill="#f47320"/>
</svg>
