<svg xmlns="http://www.w3.org/2000/svg" xmlns:xlink="http://www.w3.org/1999/xlink" width="24.637" height="24.637" viewBox="0 0 24.637 24.637">
  <defs>
    <linearGradient id="linear-gradient" x1="0.5" x2="0.5" y2="1" gradientUnits="objectBoundingBox">
      <stop offset="0" stop-color="#2f75b5"/>
      <stop offset="1" stop-color="#00376a"/>
    </linearGradient>
  </defs>
  <path id="Path_40685" data-name="Path 40685" d="M5.786,5.5a25.5,25.5,0,0,1,3.186-.139,3.906,3.906,0,0,1,3.9-3.607h2.4a3.906,3.906,0,0,1,3.894,3.605,25.793,25.793,0,0,1,3.187.141,4.467,4.467,0,0,1,2.716,1.179,4.475,4.475,0,0,1,1.18,2.716,33.122,33.122,0,0,1,.139,4.01v4.939a33.122,33.122,0,0,1-.139,4.01,4.475,4.475,0,0,1-1.18,2.716,4.475,4.475,0,0,1-2.716,1.18,33.122,33.122,0,0,1-4.01.139H9.8a33.122,33.122,0,0,1-4.01-.139,4.475,4.475,0,0,1-2.716-1.18,4.467,4.467,0,0,1-1.179-2.716,32.84,32.84,0,0,1-.141-4.01V13.4a32.84,32.84,0,0,1,.141-4.01A4.467,4.467,0,0,1,3.07,6.675,4.467,4.467,0,0,1,5.786,5.5Zm11.566-.141H10.785a2.1,2.1,0,0,1,2.082-1.8h2.4a2.1,2.1,0,0,1,2.082,1.8ZM6.026,24.461a2.717,2.717,0,0,1-1.681-.668,2.711,2.711,0,0,1-.668-1.683,32.42,32.42,0,0,1-.124-3.835v-4.05c4.432,1.86,7.021,2.877,9.747,3,.512.024,1.026.024,1.538,0,2.726-.127,5.314-1.144,9.747-3v4.05a32.453,32.453,0,0,1-.124,3.836,2.717,2.717,0,0,1-.668,1.681,2.711,2.711,0,0,1-1.683.668,32.419,32.419,0,0,1-3.835.124H9.862A32.442,32.442,0,0,1,6.026,24.461ZM24.582,12.269c-4.957,2.085-7.342,3.043-9.828,3.158q-.685.032-1.37,0c-2.488-.115-4.871-1.073-9.828-3.158a21.859,21.859,0,0,1,.121-2.638A2.717,2.717,0,0,1,4.345,7.95a2.711,2.711,0,0,1,1.683-.668,32.409,32.409,0,0,1,3.835-.124h8.413a32.453,32.453,0,0,1,3.836.124,2.717,2.717,0,0,1,1.681.668,2.711,2.711,0,0,1,.668,1.683,21.81,21.81,0,0,1,.121,2.637Z" transform="translate(-1.75 -1.75)" fill-rule="evenodd" fill="url(#linear-gradient)"/>
</svg>
