<svg xmlns="http://www.w3.org/2000/svg" width="58" height="58" viewBox="0 0 58 58">
  <g id="Group_43517" data-name="Group 43517" transform="translate(-825 -823)">
    <circle id="Ellipse_1635" data-name="Ellipse 1635" cx="29" cy="29" r="29" transform="translate(825 823)" fill="#2e79be" opacity="0.5"/>
    <g id="f2c90417ae2743e1636c0bc67fbc2a2a" transform="translate(843.534 838.918)">
      <path id="Path_39412" data-name="Path 39412" d="M22.158,11.158H15.616A2.616,2.616,0,0,1,13,8.541V2Z" transform="translate(-1.226 -2)" fill="#436187"/>
      <path id="Path_39413" data-name="Path 39413" d="M18.391,11.158a2.616,2.616,0,0,1-2.616-2.616V2H7.925A3.919,3.919,0,0,0,4,5.925V24.24a3.919,3.919,0,0,0,3.925,3.925H21.007a3.919,3.919,0,0,0,3.925-3.925V11.158Z" transform="translate(-4 -2)" fill="#fff"/>
    </g>
  </g>
</svg>
