<svg xmlns="http://www.w3.org/2000/svg" width="36.435" height="36.435" viewBox="0 0 36.435 36.435">
  <g id="Component_299_4" data-name="Component 299 – 4" transform="translate(0.5 0.5)">
    <g id="Group_44909" data-name="Group 44909" transform="translate(2892.5 -5795.5)">
      <path id="Path_40074" data-name="Path 40074" d="M17.718,1028.36a17.718,17.718,0,1,0,17.718,17.718A17.72,17.72,0,0,0,17.718,1028.36Z" transform="translate(-2892.5 4767.14)" fill="#fff" stroke="#1d5a7f" stroke-width="1"/>
      <path id="Path_40077" data-name="Path 40077" d="M14,19a2,2,0,1,1-2-2A2,2,0,0,1,14,19Zm0-7a2,2,0,1,1-2-2A2,2,0,0,1,14,12Zm0-7a2,2,0,1,1-2-2A2,2,0,0,1,14,5Z" transform="translate(-2887 5801)" fill="#00376a" fill-rule="evenodd"/>
    </g>
  </g>
</svg>
