<svg xmlns="http://www.w3.org/2000/svg" width="25.999" height="25.999" viewBox="0 0 25.999 25.999">
  <path id="Path_38282" data-name="Path 38282" d="M79.975,6.563a3.4,3.4,0,0,0-3.411,3.411V29.151a3.4,3.4,0,0,0,3.411,3.411H99.152a3.4,3.4,0,0,0,3.411-3.411V9.973a3.4,3.4,0,0,0-3.411-3.411Zm15.476,4.55a.566.566,0,0,1,.406.166l1.99,1.99a.574.574,0,0,1-.006.814l-.64.64-1.441,1.441-2.8-2.8L94.4,11.924l.64-.64a.581.581,0,0,1,.408-.172Zm-3.2,2.959,2.8,2.8-9.514,9.514-.373-.373L83.114,23.96l-.373-.373.754-.754ZM82.072,24.256l.106.106,2.692,2.692h0l-.5.139-2.245.625-.627.174c-.278.077-.44-.084-.363-.363L81.308,27h0l.625-2.245.139-.5Z" transform="translate(-76.564 -6.563)" fill="#1d5a7f"/>
</svg>
