<svg xmlns="http://www.w3.org/2000/svg" width="19.927" height="19.927" viewBox="0 0 19.927 19.927">
  <path id="Path_40001" data-name="Path 40001" d="M10.058,21.851,19.786,9.271a2.658,2.658,0,0,0,.54-2.261,3.388,3.388,0,0,0-1.269-1.94l-1.633-1.3a2.861,2.861,0,0,0-4.195.286L12.139,5.476a.418.418,0,0,0,.07.582l2.82,2.261a1.173,1.173,0,0,1,.365.7,1.046,1.046,0,0,1-.906,1.154.937.937,0,0,1-.716-.2l-2.9-2.309a.347.347,0,0,0-.47.06L3.5,16.65a2.361,2.361,0,0,0-.446,1.987l.881,3.82a.443.443,0,0,0,.434.345l3.877-.048a2.329,2.329,0,0,0,1.809-.9Zm5.429-1.19h6.321a1.133,1.133,0,0,1,0,2.266H15.487a1.133,1.133,0,0,1,0-2.266Z" transform="translate(-3 -3)" fill="#1d5a7f" fill-rule="evenodd"/>
</svg>
