<svg id="Group_44608" data-name="Group 44608" xmlns="http://www.w3.org/2000/svg" width="24.38" height="24.357" viewBox="0 0 24.38 24.357">
  <path id="Path_39905" data-name="Path 39905" d="M21.5,27H6.5A3.5,3.5,0,0,1,3,23.5V8.5A3.5,3.5,0,0,1,6.5,5H13a1,1,0,0,1,0,2H6.5A1.5,1.5,0,0,0,5,8.5v15A1.5,1.5,0,0,0,6.5,25h15A1.5,1.5,0,0,0,23,23.5V17a1,1,0,0,1,2,0v6.5A3.5,3.5,0,0,1,21.5,27Zm3.92-17,1.23-1.23a2.51,2.51,0,0,0,0-3.54L24.77,3.35a2.57,2.57,0,0,0-3.54,0L20,4.58Z" transform="translate(-3 -2.643)" fill="#00376a"/>
  <path id="Path_39906" data-name="Path 39906" d="M18.58,6l-6.29,6.29a1,1,0,0,0-.27.51l-1,5A.993.993,0,0,0,12,19h.2l5-1a1,1,0,0,0,.51-.27L24,11.42Z" transform="translate(-3 -2.643)" fill="#00376a"/>
</svg>
