<svg id="Group_45108" data-name="Group 45108" xmlns="http://www.w3.org/2000/svg" width="40" height="40" viewBox="0 0 40 40">
  <path id="Path_40365" data-name="Path 40365" d="M32.5,40H7.5A7.5,7.5,0,0,1,0,32.5V7.5A7.5,7.5,0,0,1,7.5,0h25A7.5,7.5,0,0,1,40,7.5v25A7.5,7.5,0,0,1,32.5,40Z" fill="#c7def3"/>
  <g id="Group_45131" data-name="Group 45131" transform="translate(6.749 6.75)">
    <path id="Path_40373" data-name="Path 40373" d="M13.7,19.9h7.112" transform="translate(1.09 1.805)" fill="none" stroke="#00366a" stroke-linecap="round" stroke-linejoin="round" stroke-width="1.5"/>
    <path id="Path_40374" data-name="Path 40374" d="M13.847,5.037a2.171,2.171,0,0,1,3.2-.171L18.6,6.082a2.169,2.169,0,0,1,.6,3.145l-9.246,11.8a1.651,1.651,0,0,1-1.283.634L5.1,21.7,4.293,18.23a1.658,1.658,0,0,1,.309-1.4L13.847,5.039Z" fill="none" stroke="#00366a" stroke-linecap="round" stroke-linejoin="round" stroke-width="1.5"/>
    <path id="Path_40375" data-name="Path 40375" d="M11.3,6.936l5.347,4.191" transform="translate(0.813 0.31)" fill="none" stroke="#00366a" stroke-linecap="round" stroke-linejoin="round" stroke-width="1.5"/>
  </g>
</svg>
