<svg xmlns="http://www.w3.org/2000/svg" width="25.755" height="25.755" viewBox="0 0 25.755 25.755">
  <g id="_29bb3ca684199578c9d92e51ad63a255" data-name="29bb3ca684199578c9d92e51ad63a255" transform="translate(-54 -138)">
    <circle id="Ellipse_626" data-name="Ellipse 626" cx="2.146" cy="2.146" r="2.146" transform="translate(55.533 157.93)" fill="#e6e6e6"/>
    <circle id="Ellipse_627" data-name="Ellipse 627" cx="2.146" cy="2.146" r="2.146" transform="translate(64.732 157.93)" fill="#e6e6e6"/>
    <circle id="Ellipse_628" data-name="Ellipse 628" cx="2.146" cy="2.146" r="2.146" transform="translate(73.93 157.93)" fill="#e6e6e6"/>
    <circle id="Ellipse_629" data-name="Ellipse 629" cx="7.108" cy="7.108" r="7.108" transform="translate(59.77 138.502)" fill="#ffd1b4"/>
    <path id="Path_23200" data-name="Path 23200" d="M64.043,153.106l-6.6,3.3a3.677,3.677,0,1,0,2.524.795l5.986-2.993v2.307a3.677,3.677,0,1,0,1.84,0v-2.307l5.986,2.993a3.679,3.679,0,1,0,2.524-.795l-6.6-3.3a7.819,7.819,0,1,0-5.67,0Zm12.033,5.13a1.84,1.84,0,1,1-1.841,1.84A1.84,1.84,0,0,1,76.076,158.236Zm-18.4,0a1.84,1.84,0,1,1-1.841,1.84A1.84,1.84,0,0,1,57.679,158.236Zm9.2,0a1.84,1.84,0,1,1-1.841,1.84A1.84,1.84,0,0,1,66.878,158.236Zm3.186-7.359a3.678,3.678,0,0,0-6.373,0,5.946,5.946,0,0,0,3.175.92h.022A5.948,5.948,0,0,0,70.064,150.878Zm1.4-1.227a5.979,5.979,0,1,0-9.176,0,5.516,5.516,0,0,1,9.176,0Zm-4.588-8.891a2.76,2.76,0,1,0,2.689,2.76A2.76,2.76,0,0,0,66.878,140.759Zm0,1.84a.92.92,0,1,1-.92.92A.92.92,0,0,1,66.878,142.6Z" transform="translate(0)" fill="#f47320" fill-rule="evenodd"/>
  </g>
</svg>
