<svg xmlns="http://www.w3.org/2000/svg" xmlns:xlink="http://www.w3.org/1999/xlink" width="24.637" height="35.854" viewBox="0 0 24.637 35.854">
  <defs>
    <linearGradient id="linear-gradient" x1="0.5" x2="0.5" y2="1" gradientUnits="objectBoundingBox">
      <stop offset="0" stop-color="#76a3c6"/>
      <stop offset="1" stop-color="#fff"/>
    </linearGradient>
    <linearGradient id="linear-gradient-2" x1="0.5" x2="0.5" y2="1" gradientUnits="objectBoundingBox">
      <stop offset="0" stop-color="#2f75b5"/>
      <stop offset="1" stop-color="#00376a"/>
    </linearGradient>
    <linearGradient id="linear-gradient-3" x2="1.108" xlink:href="#linear-gradient"/>
  </defs>
  <g id="Group_45854" data-name="Group 45854" transform="translate(1316.21 -571.922)">
    <g id="Group_45853" data-name="Group 45853" transform="translate(-1316.21 571.922)">
      <path id="Path_40675" data-name="Path 40675" d="M-1306.065-448.441a.725.725,0,0,0-.725.725v4.348h-6.522a2.908,2.908,0,0,0-2.9,2.9v24.985a2.908,2.908,0,0,0,2.9,2.9h18.84a2.908,2.908,0,0,0,2.9-2.9V-440.47a2.908,2.908,0,0,0-2.9-2.9h-6.522v-4.348a.725.725,0,0,0-.725-.725Z" transform="translate(1316.21 448.441)" fill="#00376a"/>
      <path id="Path_40676" data-name="Path 40676" d="M-1308.71-447.441h2.9v5.8a.714.714,0,0,1-.725.725h-1.449a.714.714,0,0,1-.725-.725Z" transform="translate(1319.579 448.89)" fill="url(#linear-gradient)"/>
      <path id="Path_40677" data-name="Path 40677" d="M-1313.761-443.941h6.522v.725a2.185,2.185,0,0,0,2.174,2.174h1.449a2.185,2.185,0,0,0,2.174-2.174v-.725h6.522a1.431,1.431,0,0,1,1.449,1.449v24.985a1.431,1.431,0,0,1-1.449,1.449h-18.84a1.43,1.43,0,0,1-1.449-1.449v-24.985A1.431,1.431,0,0,1-1313.761-443.941Z" transform="translate(1316.659 450.463)" fill="#fff"/>
      <path id="Path_40678" data-name="Path 40678" d="M-245.5,1071.86h1.449v1.449H-245.5Z" transform="translate(257.098 -1069.689)" fill="#586597"/>
      <path id="Path_40679" data-name="Path 40679" d="M-250.337,1088.86a.726.726,0,0,0-.688.761.726.726,0,0,0,.761.688h15.942a.725.725,0,0,0,.725-.725.725.725,0,0,0-.725-.725h-15.942A.673.673,0,0,0-250.337,1088.86Zm0,3.623a.726.726,0,0,0-.688.761.726.726,0,0,0,.761.688h10.96a.725.725,0,0,0,.725-.724.725.725,0,0,0-.725-.725h-10.96c-.025,0-.049,0-.074,0Zm13.949,0a.726.726,0,0,0-.688.761.726.726,0,0,0,.761.688h1.993a.725.725,0,0,0,.725-.724.725.725,0,0,0-.725-.725h-1.993c-.025,0-.049,0-.074,0Z" transform="translate(254.616 -1062.052)" fill-rule="evenodd" fill="url(#linear-gradient-2)"/>
      <path id="Path_40680" data-name="Path 40680" d="M-244.1,1078.36a2.911,2.911,0,0,0-2.9,2.9,2.909,2.909,0,0,0,2.9,2.9,2.909,2.909,0,0,0,2.9-2.9A2.911,2.911,0,0,0-244.1,1078.36Z" transform="translate(256.424 -1066.769)" fill="url(#linear-gradient-3)"/>
      <path id="Path_40681" data-name="Path 40681" d="M-244.551,1079.36a1.439,1.439,0,0,1,1.449,1.449,1.437,1.437,0,0,1-1.449,1.446,1.437,1.437,0,0,1-1.449-1.446A1.439,1.439,0,0,1-244.551,1079.36Z" transform="translate(256.874 -1066.32)" fill="#1d5a7f"/>
      <path id="Path_40682" data-name="Path 40682" d="M-249,1082.86v3.623a2.185,2.185,0,0,0,2.174,2.174h7.246a2.185,2.185,0,0,0,2.174-2.174v-3.623h-1.449v3.623a.714.714,0,0,1-.725.725h-7.246a.714.714,0,0,1-.725-.725v-3.623Z" transform="translate(255.526 -1065.747)" fill-rule="evenodd" fill="url(#linear-gradient-3)"/>
    </g>
  </g>
</svg>
