<svg xmlns="http://www.w3.org/2000/svg" width="21.321" height="11.845" viewBox="0 0 21.321 11.845">
  <g id="_x37_7_Essential_Icons" transform="translate(-5 -25)">
    <path id="View" d="M15.66,27.132a3.79,3.79,0,1,0,3.79,3.79A3.8,3.8,0,0,0,15.66,27.132Zm0,6.633A2.843,2.843,0,1,1,18.5,30.922,2.851,2.851,0,0,1,15.66,33.765Zm10.518-3.174L24.141,28.53a11.953,11.953,0,0,0-16.962,0L5.142,30.591a.458.458,0,0,0,0,.663l2.037,2.061a11.953,11.953,0,0,0,16.962,0l2.037-2.061A.458.458,0,0,0,26.178,30.591Zm-2.7,2.061a11.038,11.038,0,0,1-15.635,0L6.137,30.922l1.706-1.729a11.038,11.038,0,0,1,15.635,0l1.706,1.729Z" transform="translate(0)"/>
  </g>
</svg>
