<svg xmlns="http://www.w3.org/2000/svg" width="23" height="23" viewBox="0 0 23 23">
  <g id="Group_27566" data-name="Group 27566" transform="translate(0)">
    <path id="Path_17735" data-name="Path 17735" d="M22.486,9.078H20.52a9.155,9.155,0,0,0-.931-2.246L20.98,5.441a.511.511,0,0,0,.151-.363.505.505,0,0,0-.151-.363l-2.7-2.7a.525.525,0,0,0-.726,0l-1.386,1.4a9.273,9.273,0,0,0-2.25-.934V.514A.514.514,0,0,0,13.4,0H9.6a.514.514,0,0,0-.514.514V2.476a9.332,9.332,0,0,0-2.25.934L5.445,2.02a.517.517,0,0,0-.73,0L2.023,4.72a.505.505,0,0,0-.151.363.511.511,0,0,0,.151.363L3.414,6.832A9.307,9.307,0,0,0,2.48,9.078H.517A.518.518,0,0,0,0,9.6v3.8a.515.515,0,0,0,.517.517H2.48a9.248,9.248,0,0,0,.934,2.246L2.023,17.555a.511.511,0,0,0-.151.363.52.52,0,0,0,.151.367l2.692,2.692a.516.516,0,0,0,.73,0l1.387-1.391a9.332,9.332,0,0,0,2.25.934v1.962A.517.517,0,0,0,9.6,23h3.8a.517.517,0,0,0,.514-.518V20.52a9.273,9.273,0,0,0,2.25-.934l1.391,1.391a.512.512,0,0,0,.726,0l2.7-2.692a.52.52,0,0,0,.151-.367.511.511,0,0,0-.151-.363l-1.391-1.39a9.1,9.1,0,0,0,.931-2.246h1.966A.515.515,0,0,0,23,13.4V9.6a.517.517,0,0,0-.514-.518Zm-.514,3.809H20.118a.515.515,0,0,0-.5.406,8.2,8.2,0,0,1-1.11,2.674.511.511,0,0,0,.072.64l1.312,1.312-1.966,1.966L16.61,18.572a.511.511,0,0,0-.64-.068,8.252,8.252,0,0,1-2.677,1.107.519.519,0,0,0-.4.5v1.854h-2.78V20.114a.518.518,0,0,0-.406-.5A8.266,8.266,0,0,1,7.033,18.5a.516.516,0,0,0-.643.068L5.082,19.884,3.116,17.918l1.312-1.312a.516.516,0,0,0,.068-.64,8.266,8.266,0,0,1-1.107-2.674.518.518,0,0,0-.5-.406H1.031V10.109H2.886a.519.519,0,0,0,.5-.4A8.252,8.252,0,0,1,4.5,7.029a.516.516,0,0,0-.068-.64L3.116,5.078,5.082,3.112,6.39,4.424a.517.517,0,0,0,.643.072,8.2,8.2,0,0,1,2.674-1.11.518.518,0,0,0,.406-.5V1.028h2.778V2.882a.519.519,0,0,0,.4.5A8.182,8.182,0,0,1,15.971,4.5a.512.512,0,0,0,.64-.072l1.312-1.312,1.966,1.966L18.576,6.39a.512.512,0,0,0-.072.64,8.182,8.182,0,0,1,1.11,2.677.516.516,0,0,0,.5.4h1.854Z" fill="#f47320"/>
    <path id="Path_17736" data-name="Path 17736" d="M21.956,11.941a.516.516,0,0,1-.5-.4,8.182,8.182,0,0,0-1.11-2.677.512.512,0,0,1,.072-.64L21.726,6.91,19.761,4.944,18.449,6.256a.512.512,0,0,1-.64.072,8.182,8.182,0,0,0-2.677-1.11.519.519,0,0,1-.4-.5V2.86H11.951V4.714a.518.518,0,0,1-.406.5,8.2,8.2,0,0,0-2.674,1.11.517.517,0,0,1-.643-.072L6.92,4.944,4.954,6.91,6.266,8.222a.516.516,0,0,1,.068.64,8.252,8.252,0,0,0-1.107,2.677.519.519,0,0,1-.5.4H2.87v2.778H4.724a.518.518,0,0,1,.5.406A8.266,8.266,0,0,0,6.334,17.8a.516.516,0,0,1-.068.64L4.954,19.751,6.92,21.716,8.228,20.4a.516.516,0,0,1,.643-.068,8.266,8.266,0,0,0,2.674,1.107.518.518,0,0,1,.406.5V23.8h2.778V21.946a.519.519,0,0,1,.4-.5,8.252,8.252,0,0,0,2.677-1.107.511.511,0,0,1,.64.068l1.312,1.312,1.966-1.966-1.312-1.312a.511.511,0,0,1-.072-.64,8.2,8.2,0,0,0,1.11-2.674.515.515,0,0,1,.5-.406H23.8v-2.78Zm-8.618,8.514a7.125,7.125,0,1,1,7.126-7.125,7.125,7.125,0,0,1-7.126,7.125Z" transform="translate(-1.839 -1.832)" fill="#f47320" stroke="#f47320" stroke-width="1"/>
    <path id="Path_17737" data-name="Path 17737" d="M27.535,20.26a2.507,2.507,0,1,0,2.508,2.508,2.507,2.507,0,0,0-2.508-2.508Zm0,3.982a1.475,1.475,0,1,1,1.477-1.473,1.475,1.475,0,0,1-1.477,1.473Z" transform="translate(-16.035 -12.979)" fill="#fbc5a2"/>
    <path id="Path_17738" data-name="Path 17738" d="M19.3,12.17a7.125,7.125,0,1,0,7.129,7.13A7.125,7.125,0,0,0,19.3,12.17Zm0,13.221a6.07,6.07,0,0,1-4.463-1.962c.1-.1.2-.208.32-.323a5.8,5.8,0,0,1,2.1-1.333l1.689,1.671a.514.514,0,0,0,.722,0l1.693-1.671a5.88,5.88,0,0,1,2.1,1.337c.115.111.219.216.316.32A6.072,6.072,0,0,1,19.3,25.391Zm4.877-3.015a6.934,6.934,0,0,0-2.807-1.685.523.523,0,0,0-.514.126L19.3,22.355l-1.552-1.538a.506.506,0,0,0-.51-.126,6.807,6.807,0,0,0-2.81,1.685c-.086.083-.158.158-.234.237a6.093,6.093,0,1,1,10.21,0c-.074-.079-.146-.158-.228-.237Z" transform="translate(-7.803 -7.796)" fill="#fbc5a2"/>
    <path id="Path_17739" data-name="Path 17739" d="M30.849,24.607a1.476,1.476,0,1,1-.432-1.045A1.476,1.476,0,0,1,30.849,24.607Z" transform="translate(-17.872 -14.818)" fill="#fbc5a2"/>
    <path id="Path_17740" data-name="Path 17740" d="M28.51,40.547a6.062,6.062,0,0,1-8.93,0c.1-.1.2-.208.32-.323A5.8,5.8,0,0,1,22,38.891l1.689,1.671a.514.514,0,0,0,.722,0L26.1,38.89a5.88,5.88,0,0,1,2.1,1.337C28.309,40.338,28.413,40.442,28.51,40.547Z" transform="translate(-12.543 -24.914)" fill="#fbc5a2"/>
  </g>
</svg>
