<svg xmlns="http://www.w3.org/2000/svg" width="25.051" height="22.546" viewBox="0 0 25.051 22.546">
  <g id="Group_44187" data-name="Group 44187" transform="translate(-2 -3)">
    <path id="Path_39680" data-name="Path 39680" d="M21.01,11H17.253A1.253,1.253,0,0,0,16,12.253v7.515a3.758,3.758,0,1,0,7.515,0V13.505A2.505,2.505,0,0,0,21.01,11Z" transform="translate(3.536 2.02)" fill="#f47320"/>
    <path id="Path_39681" data-name="Path 39681" d="M23.807,25.433a1.253,1.253,0,0,1-.514.113H5.758A3.758,3.758,0,0,1,2,21.788V5.505A2.505,2.505,0,0,1,4.505,3h15.03a2.505,2.505,0,0,1,2.505,2.505V23.041A2.505,2.505,0,0,0,23.807,25.433Z" transform="translate(0 0)" fill="#ffd1b4"/>
    <path id="Path_39682" data-name="Path 39682" d="M16.273,19.525H6.253a1.253,1.253,0,1,1,0-2.505h10.02a1.253,1.253,0,0,1,0,2.505Zm-1.253-5.01H7.505A2.505,2.505,0,0,1,5,12.01V9.505A2.505,2.505,0,0,1,7.505,7H15.02a2.505,2.505,0,0,1,2.505,2.505V12.01A2.505,2.505,0,0,1,15.02,14.515ZM7.505,9.505V12.01H15.02V9.505Z" transform="translate(0.758 1.01)" fill="#fff"/>
  </g>
</svg>
