<svg xmlns="http://www.w3.org/2000/svg" xmlns:xlink="http://www.w3.org/1999/xlink" width="31.992" height="34.382" viewBox="0 0 31.992 34.382">
  <defs>
    <linearGradient id="linear-gradient" x1="0.5" x2="0.5" y2="1" gradientUnits="objectBoundingBox">
      <stop offset="0" stop-color="#2f75b5"/>
      <stop offset="1" stop-color="#00376a"/>
    </linearGradient>
  </defs>
  <g id="Group_44311" data-name="Group 44311" transform="translate(-3.108 -2)">
    <path id="Path_39822" data-name="Path 39822" d="M35.085,19.208l-.224-2.96a16.348,16.348,0,0,0-4.9-10.05A15.488,15.488,0,0,0,19.459,2a1.721,1.721,0,1,0,0,3.442,12.045,12.045,0,0,1,8.155,3.182,12.717,12.717,0,0,1,3.822,7.883l.207,2.7a43.606,43.606,0,0,1-.637,8.6A1.721,1.721,0,0,0,32.4,29.792a.809.809,0,0,0,.293,0,1.721,1.721,0,0,0,1.721-1.411,46.857,46.857,0,0,0,.671-9.172ZM7.5,18.365A12.046,12.046,0,0,1,14.142,6.681,1.721,1.721,0,1,0,12.611,3.6a15.488,15.488,0,0,0-8.6,15.023v.757a27.637,27.637,0,0,1-.843,9.258,1.721,1.721,0,0,0,1.239,2.1,1.841,1.841,0,0,0,.43,0,1.721,1.721,0,0,0,1.721-1.291A31.113,31.113,0,0,0,7.5,19.122Z" transform="translate(0)" fill="url(#linear-gradient)"/>
    <path id="Path_39823" data-name="Path 39823" d="M25.3,13.491a8.966,8.966,0,0,0-2.788-5.335A8.6,8.6,0,0,0,8.3,15.487v.533A27.809,27.809,0,0,1,6.456,29.409a1.753,1.753,0,0,0,3.287,1.222,31.25,31.25,0,0,0,2.031-15.006v-.533a5.163,5.163,0,0,1,1.2-3.958,5.249,5.249,0,0,1,7.245-.4,5.576,5.576,0,0,1,1.721,3.27l.241,2.031a28.617,28.617,0,0,1,.1,3.7,1.721,1.721,0,0,0,1.721,1.721,1.807,1.807,0,0,0,1.721-1.721,30.166,30.166,0,0,0-.189-4.13Z" transform="translate(2.368 2.912)" fill="#00376a"/>
    <path id="Path_39824" data-name="Path 39824" d="M20.753,20.665a1.721,1.721,0,0,0-1.945,1.48,17.828,17.828,0,0,1-.964,4.423l-.379.929A1.7,1.7,0,1,0,20.6,28.8l.4-.946a22.044,22.044,0,0,0,1.187-5.266A1.721,1.721,0,0,0,20.753,20.665ZM13.44,10.013a1.721,1.721,0,0,0-1.359,2.031,27.533,27.533,0,0,1-1.446,15.763l-.172.465a1.714,1.714,0,1,0,3.184,1.273l.189-.447a31.1,31.1,0,0,0,1.618-17.742A1.721,1.721,0,0,0,13.44,10.013Z" transform="translate(5.211 5.753)" fill="url(#linear-gradient)"/>
  </g>
</svg>
