<svg xmlns="http://www.w3.org/2000/svg" xmlns:xlink="http://www.w3.org/1999/xlink" width="41.134" height="35.25" viewBox="0 0 41.134 35.25">
  <defs>
    <linearGradient id="linear-gradient" x1="0.5" x2="0.5" y2="1" gradientUnits="objectBoundingBox">
      <stop offset="0" stop-color="#2f75b5"/>
      <stop offset="1" stop-color="#00376a"/>
    </linearGradient>
  </defs>
  <path id="Path_39155" data-name="Path 39155" d="M71.01,71.022l-7.573-.367L63,65.717a1.9,1.9,0,0,0-2.1-1.68L33.722,66.267a1.873,1.873,0,0,0-1.781,1.992l1.946,21.646a1.9,1.9,0,0,0,2.1,1.68l1.377-.11-.22,4.2A2.085,2.085,0,0,0,39.2,97.837l30.312,1.441a2.106,2.106,0,0,0,2.277-1.946l1.276-24.17A2.075,2.075,0,0,0,71.01,71.022Zm-32.588.487L37.77,83.883l-1.6,2.267L34.7,69.811v-.092a.944.944,0,0,1,.872-.863l23.959-1.964a.886.886,0,0,1,.964.725c0,.018.028.018.028.037s.028.018.028.037l.248,2.827-20.1-.964A2.126,2.126,0,0,0,38.422,71.509Zm30.67,21.747L64.8,88.18l-2.524-3a1.389,1.389,0,0,0-.973-.5,1.542,1.542,0,0,0-1.019.376l-1.505,1.092a1.521,1.521,0,0,1-.909.3,1.307,1.307,0,0,1-.835-.349c-.073-.073-.211-.2-.321-.312l-3.929-4.489a1.736,1.736,0,0,0-1.267-.615,1.856,1.856,0,0,0-1.359.514l-9.281,9.988-.624.679.028-.624L40.909,79.4l.3-5.774v-.092a1.077,1.077,0,0,1,1.092-.826l18.745.9,2.635.129L69.036,74a.975.975,0,0,1,.955.936c0,.018.028.028.028.046s.028.028.028.046l-.955,18.231Z" transform="translate(-31.935 -64.03)" fill="url(#linear-gradient)"/>
</svg>
