<svg id="Group_40425" data-name="Group 40425" xmlns="http://www.w3.org/2000/svg" width="41" height="41" viewBox="0 0 41 41">
  <path id="Path_38712" data-name="Path 38712" d="M20.5,0A20.5,20.5,0,1,1,0,20.5,20.5,20.5,0,0,1,20.5,0Z" fill="#e4e9eb"/>
  <path id="Path_38714" data-name="Path 38714" d="M17.874,2H4.8A2.8,2.8,0,0,0,2,4.8V17.874a2.8,2.8,0,0,0,2.8,2.8H17.874a2.776,2.776,0,0,0,.5-.051c.062-.011.121-.028.181-.044a2.773,2.773,0,0,0,.292-.091c.07-.026.137-.053.2-.085s.153-.08.228-.124.141-.08.207-.127l.017-.01.02-.017a.455.455,0,0,0,.04-.027c.006-.006.008-.015.014-.021a2.789,2.789,0,0,0,1.094-2.2V4.8A2.8,2.8,0,0,0,17.874,2Zm.537,17.653a1.821,1.821,0,0,1-.537.088H4.8a1.87,1.87,0,0,1-1.867-1.867V13.462L6.447,9.949a1.637,1.637,0,0,1,2.311,0l3.179,3.179,0,.006,6.507,6.507Zm1.331-1.779a1.857,1.857,0,0,1-.489,1.248L12.932,12.8l.986-.986a1.669,1.669,0,0,1,2.309,0l3.514,3.514Zm0-3.863-2.854-2.854a2.568,2.568,0,0,0-3.629,0l-.986.986L9.418,9.288a2.57,2.57,0,0,0-3.631,0L2.934,12.142V4.8A1.87,1.87,0,0,1,4.8,2.934H17.874A1.87,1.87,0,0,1,19.741,4.8Zm-7-8.276a1.4,1.4,0,1,0,1.4,1.4A1.4,1.4,0,0,0,12.738,5.735Zm0,1.867a.467.467,0,1,1,.467-.467A.467.467,0,0,1,12.738,7.6Z" transform="translate(9.714 9.714)" fill="#707070" stroke="#707070" stroke-width="0.5"/>
</svg>
