<svg xmlns="http://www.w3.org/2000/svg" width="50.07" height="50.07" viewBox="0 0 50.07 50.07">
  <g id="Group_46067" data-name="Group 46067" transform="translate(-105.424 -157.425)">
    <path id="Path_40734" data-name="Path 40734" d="M25.035,0A25.035,25.035,0,1,1,0,25.035,25.035,25.035,0,0,1,25.035,0Z" transform="translate(105.424 157.425)" fill="#44c4a1"/>
    <path id="Path_40736" data-name="Path 40736" d="M25.065,155.947a1.11,1.11,0,1,1,1.569-1.569l4.6,4.6,12.643-12.643a1.094,1.094,0,0,1,1.569,0,1.135,1.135,0,0,1,0,1.569L32.006,161.318a1.094,1.094,0,0,1-1.569,0Z" transform="translate(95.674 28.635)" fill="#fff"/>
  </g>
</svg>
