<svg id="Group_43540" data-name="Group 43540" xmlns="http://www.w3.org/2000/svg" width="72" height="72" viewBox="0 0 72 72">
  <circle id="Ellipse_1640" data-name="Ellipse 1640" cx="36" cy="36" r="36" fill="#cfcfcf"/>
  <g id="Group_User" data-name="Group User" transform="translate(13.731 23)">
    <circle id="Ellipse_1641" data-name="Ellipse 1641" cx="6.5" cy="6.5" r="6.5" transform="translate(15.75 0)" fill="#fff"/>
    <path id="Path_39423" data-name="Path 39423" d="M27.992,15.656A22.286,22.286,0,0,0,18,13a22.286,22.286,0,0,0-9.973,2.656A5.572,5.572,0,0,0,5,20.615v.854a2.656,2.656,0,0,0,2.656,2.674H28.345A2.656,2.656,0,0,0,31,21.469v-.854A5.572,5.572,0,0,0,27.992,15.656Z" transform="translate(4.25 1.858)" fill="#fff"/>
    <circle id="Ellipse_1642" data-name="Ellipse 1642" cx="4.643" cy="4.643" r="4.643" transform="translate(3.678 0)" fill="#fff"/>
    <circle id="Ellipse_1643" data-name="Ellipse 1643" cx="4.643" cy="4.643" r="4.643" transform="translate(31.536 0)" fill="#fff"/>
    <path id="Path_39424" data-name="Path 39424" d="M42.55,12.387A12.889,12.889,0,0,0,36.2,10.53a12.889,12.889,0,0,0-6.352,1.857,3.807,3.807,0,0,0-.78.631.929.929,0,0,0,.353,1.523,28.025,28.025,0,0,1,3.714,1.579,7.429,7.429,0,0,1,2.637,2.321.929.929,0,0,0,.761.39h6.073a2.08,2.08,0,0,0,1.95-2.154v-.594a4.272,4.272,0,0,0-2.006-3.7ZM11.442,16.12a27.858,27.858,0,0,1,3.714-1.579.929.929,0,0,0,.353-1.523,3.826,3.826,0,0,0-.78-.631A12.889,12.889,0,0,0,8.378,10.53a12.889,12.889,0,0,0-6.352,1.857A4.272,4.272,0,0,0,.02,16.1V16.7a2.08,2.08,0,0,0,1.95,2.136H8.044a.929.929,0,0,0,.761-.39,7.429,7.429,0,0,1,2.637-2.321Z" transform="translate(-0.019 -0.26)" fill="#fff"/>
  </g>
</svg>
