<svg xmlns="http://www.w3.org/2000/svg" width="42.734" height="27.435" viewBox="0 0 42.734 27.435">
  <g id="Group_45673" data-name="Group 45673" transform="translate(0 -5.435)">
    <circle id="Ellipse_1716" data-name="Ellipse 1716" cx="6.5" cy="6.5" r="6.5" transform="translate(14.867 5.435)" fill="#fff"/>
    <circle id="Ellipse_1717" data-name="Ellipse 1717" cx="4.5" cy="4.5" r="4.5" transform="translate(29.867 12.435)" fill="#fff"/>
    <circle id="Ellipse_1718" data-name="Ellipse 1718" cx="4.645" cy="4.645" r="4.645" transform="translate(3.848 12.432)" fill="#fff"/>
    <path id="Path_40659" data-name="Path 40659" d="M21.367,13A12.092,12.092,0,0,0,9.29,25.077a.929.929,0,0,0,.929.929h22.3a.929.929,0,0,0,.929-.929A12.091,12.091,0,0,0,21.367,13ZM10.095,16.917a8.337,8.337,0,0,0-1.734-.2A8.37,8.37,0,0,0,0,25.077a.929.929,0,0,0,.929.929H7.6a2.755,2.755,0,0,1-.171-.929A13.848,13.848,0,0,1,10.095,16.917Zm24.279-.2a8.336,8.336,0,0,0-1.734.2,13.848,13.848,0,0,1,2.663,8.16,2.756,2.756,0,0,1-.171.929h6.674a.929.929,0,0,0,.929-.929A8.371,8.371,0,0,0,34.373,16.716Z" transform="translate(0 6.864)" fill="#fff"/>
  </g>
</svg>
