<svg xmlns="http://www.w3.org/2000/svg" width="48.643" height="38.146" viewBox="0 0 48.643 38.146">
  <g id="Group_44342" data-name="Group 44342" transform="translate(-5.678 -10.927)">
    <path id="Path_39869" data-name="Path 39869" d="M41.168,30.462v5.565A.963.963,0,0,1,40.2,37H38.6A8.6,8.6,0,0,0,21.41,37h-1.6a.963.963,0,0,1-.973-.973V30.462a7.359,7.359,0,0,1,7.345-7.355.99.99,0,0,1,.681.272L30,26.4l3.142-3.016a.984.984,0,0,1,.671-.272A7.361,7.361,0,0,1,41.168,30.462ZM35.9,16.813A5.891,5.891,0,1,1,30,10.927,5.9,5.9,0,0,1,35.9,16.813Z" fill="#f47320"/>
    <path id="Path_39870" data-name="Path 39870" d="M54.322,31.386v4.641a.963.963,0,0,1-.973.973H42.939a2.7,2.7,0,0,0,.175-.973V30.462a9.173,9.173,0,0,0-1.7-5.351,2.547,2.547,0,0,1,.272-.01.99.99,0,0,1,.681.272l2.491,2.4,2.51-2.4a.984.984,0,0,1,.671-.272A6.288,6.288,0,0,1,54.322,31.386ZM16.9,36.027a2.7,2.7,0,0,0,.175.973H6.651a.97.97,0,0,1-.973-.973V31.386A6.3,6.3,0,0,1,11.973,25.1a.984.984,0,0,1,.671.272l2.51,2.4,2.491-2.4a.99.99,0,0,1,.681-.272,2.547,2.547,0,0,1,.272.01,9.173,9.173,0,0,0-1.7,5.351v5.565Zm-6.81-15.994a5.064,5.064,0,1,1,5.059,5.059A5.063,5.063,0,0,1,10.085,20.033Zm29.711,0a5.064,5.064,0,1,1,5.069,5.059A5.072,5.072,0,0,1,39.8,20.033Z" fill="#ffd1b4"/>
    <g id="Group_44341" data-name="Group 44341">
      <path id="Path_39871" data-name="Path 39871" d="M41.627,47.412l-6.292-6.292A6.673,6.673,0,1,0,33.96,42.5l6.292,6.292a.973.973,0,1,0,1.376-1.376ZM25.3,37.166a4.7,4.7,0,1,1,4.7,4.7A4.707,4.707,0,0,1,25.3,37.166Z" fill="#f47320"/>
    </g>
  </g>
</svg>
