<svg xmlns="http://www.w3.org/2000/svg" xmlns:xlink="http://www.w3.org/1999/xlink" width="32" height="32" viewBox="0 0 32 32">
  <defs>
    <linearGradient id="linear-gradient" x1="0.5" x2="0.5" y2="1" gradientUnits="objectBoundingBox">
      <stop offset="0" stop-color="#2f75b5"/>
      <stop offset="1" stop-color="#00376a"/>
    </linearGradient>
  </defs>
  <g id="Component_13_55" data-name="Component 13 – 55" transform="translate(0.418)">
    <rect id="Rectangle_4301" data-name="Rectangle 4301" width="32" height="32" rx="6" transform="translate(-0.418)" fill="url(#linear-gradient)"/>
    <g id="_224f2e30fc448f833d5e35aa299cb7b8" data-name="224f2e30fc448f833d5e35aa299cb7b8" transform="translate(5.779 7)">
      <path id="Path_39799" data-name="Path 39799" d="M24.815,12.238A6.232,6.232,0,0,0,18.577,6a6.169,6.169,0,0,0-4.035,1.5v-.77a.734.734,0,1,0-1.468,0V9.3a.736.736,0,0,0,.737.734h2.565a.734.734,0,1,0,0-1.468h-.846a4.768,4.768,0,1,1-1.72,3.67.736.736,0,0,0-.734-.734H6.468v-.477a.987.987,0,0,1,.991-.991h3.412a.734.734,0,0,0,0-1.468H7.458A2.458,2.458,0,0,0,5,11.027V22.255a2.458,2.458,0,0,0,2.458,2.458H18.687a2.458,2.458,0,0,0,2.458-2.458V17.925a6.249,6.249,0,0,0,3.67-5.687ZM19.678,22.255a.987.987,0,0,1-.991.991H7.458a.987.987,0,0,1-.991-.991V12.971h5.907a6.2,6.2,0,0,0,2.165,4.036H14.5a.736.736,0,0,0-.734.734v.367a.734.734,0,1,0,1.468,0v-.367a.624.624,0,0,0-.037-.257,5.85,5.85,0,0,0,1.541.7.719.719,0,0,0,.734.624.731.731,0,0,0,.66-.4c.147,0,.294.037.44.037a5.6,5.6,0,0,0,1.1-.11Z" transform="translate(-5 -5.999)" fill="#fff"/>
      <path id="Path_39800" data-name="Path 39800" d="M13.734,17.871a.736.736,0,0,0-.734.734v.367a.734.734,0,1,0,1.468,0v-.367a.736.736,0,0,0-.734-.734Zm2.935,0a.736.736,0,0,0-.734.734v.367a.734.734,0,1,0,1.468,0V18.6a.736.736,0,0,0-.734-.734ZM13.734,20.81A.736.736,0,0,0,13,21.54v.367a.734.734,0,1,0,1.468,0V21.54a.736.736,0,0,0-.734-.731Zm2.935,0a.736.736,0,0,0-.734.734v.367a.734.734,0,1,0,1.468,0v-.367a.736.736,0,0,0-.734-.734Zm-2.935,2.932a.736.736,0,0,0-.734.733v.367a.734.734,0,1,0,1.468,0v-.367A.736.736,0,0,0,13.734,23.741Zm2.935,0a.736.736,0,0,0-.734.733v.367a.734.734,0,1,0,1.468,0v-.367a.736.736,0,0,0-.734-.733Zm2.935,0a.736.736,0,0,0-.734.733v.367a.734.734,0,1,0,1.468,0v-.367a.736.736,0,0,0-.734-.733Zm2.935,0a.736.736,0,0,0-.73.733v.367a.734.734,0,1,0,1.468,0v-.367a.736.736,0,0,0-.737-.733ZM23.642,12a.736.736,0,0,0-.734.734v3.3a.736.736,0,0,0,.734.734h2.2a.734.734,0,0,0,0-1.468H24.375V12.734A.736.736,0,0,0,23.642,12Z" transform="translate(-10.065 -9.798)" fill="#fff"/>
    </g>
  </g>
</svg>
