<svg xmlns="http://www.w3.org/2000/svg" width="22.999" height="21.414" viewBox="0 0 22.999 21.414">
  <g id="Group_27375" data-name="Group 27375" transform="translate(-2.247 -2.936)">
    <path id="Path_17633" data-name="Path 17633" d="M11.486,17.367a.888.888,0,0,1-.833-.589L8.3,10.108a.888.888,0,1,1,1.668-.591l2.358,6.67a.888.888,0,0,1-.833,1.18Z" transform="translate(1.079 1.084)" fill="#f47320"/>
    <path id="Path_17634" data-name="Path 17634" d="M24.593,19.164c-1.551-2.734-5.928-4.571-10.895-4.571S4.355,16.43,2.8,19.164a2.071,2.071,0,0,0,1.8,3.095H22.8a2.071,2.071,0,0,0,1.8-3.095Z" transform="translate(0.049 2.09)" fill="#ffd1b4"/>
    <path id="Path_17635" data-name="Path 17635" d="M17.715,8.244A7.961,7.961,0,1,0,2.7,13.555a.888.888,0,0,0,.834.589.906.906,0,0,0,.295-.051L17.175,9.376a.888.888,0,0,0,.539-1.129Z" transform="translate(0 0)" fill="#f47320"/>
    <path id="Path_17636" data-name="Path 17636" d="M4.834,7.117a14.247,14.247,0,0,0,.875,5.953.831.831,0,0,0,.069.128L7.4,12.626a.845.845,0,0,0-.02-.144A12.452,12.452,0,0,1,6.595,7.3c.122-1.227.533-2.08,1.1-2.279s1.42.2,2.288,1.08a12.462,12.462,0,0,1,2.652,4.527.832.832,0,0,0,.075.125l1.614-.571a.845.845,0,0,0-.02-.144,14.251,14.251,0,0,0-3.061-5.181C9.841,3.432,8.375,2.9,7.106,3.344s-2.072,1.79-2.27,3.774Z" transform="translate(0.452 0.046)" fill="#ffd1b4"/>
    <circle id="Ellipse_328" data-name="Ellipse 328" cx="3.833" cy="3.833" r="3.833" transform="translate(17.581 8.427)" fill="#ffd1b4"/>
  </g>
</svg>
