<svg xmlns="http://www.w3.org/2000/svg" width="40" height="40" viewBox="0 0 40 40">
  <g id="Group_45107" data-name="Group 45107" transform="translate(27 -23)">
    <path id="Path_40365" data-name="Path 40365" d="M32.5,40H7.5A7.5,7.5,0,0,1,0,32.5V7.5A7.5,7.5,0,0,1,7.5,0h25A7.5,7.5,0,0,1,40,7.5v25A7.5,7.5,0,0,1,32.5,40Z" transform="translate(-27 23)" fill="#ffd1b4"/>
    <g id="_72_Info" data-name="72 Info" transform="translate(-22.996 25.99)">
      <path id="Path_40641" data-name="Path 40641" d="M16,23.5A1.5,1.5,0,0,1,14.5,22V10a1.5,1.5,0,0,1,3,0V22A1.5,1.5,0,0,1,16,23.5Zm0-18a1.52,1.52,0,0,1-1.39-.93A1.56,1.56,0,0,1,14.5,4a1.36,1.36,0,0,1,0-.29,1.31,1.31,0,0,1,.09-.28,1.26,1.26,0,0,1,.13-.26,2.11,2.11,0,0,1,.19-.23,1.55,1.55,0,0,1,2.12,0,2.11,2.11,0,0,1,.19.23,2.149,2.149,0,0,1,.14.26,2.29,2.29,0,0,1,.08.28,1.36,1.36,0,0,1,0,.29,1.56,1.56,0,0,1-.11.57A1.52,1.52,0,0,1,16,5.5Z" transform="translate(0 4)" fill="#f47320"/>
    </g>
  </g>
</svg>
