<svg xmlns="http://www.w3.org/2000/svg" width="19.696" height="19.696" viewBox="0 0 19.696 19.696">
  <g id="Group_45929" data-name="Group 45929" transform="translate(0 0)">
    <path id="Path_40701" data-name="Path 40701" d="M52.852,38.8c-.417-.032-.337-.433-.257-.738l.706-2.646a1.19,1.19,0,0,0-1.139-1.492,1.166,1.166,0,0,0-1.139.882c-.1.385-.914,3.753-.93,3.769a2.582,2.582,0,0,0-.048,1.556c.321.722,1.283.513,1.877.337a5.232,5.232,0,0,0,1.155-.5,11.151,11.151,0,0,0,1.171-.93l-.08-.786A2.283,2.283,0,0,1,52.852,38.8Zm.289-9.206a1.77,1.77,0,0,0-1.78,1.636,1.358,1.358,0,0,0,.192.754,1.641,1.641,0,0,0,2.47.08A1.456,1.456,0,0,0,53.141,29.589Z" transform="translate(-42.346 -25.258)" fill="#1d5a7f"/>
    <path id="Path_40702" data-name="Path 40702" d="M12.448,2.6A9.848,9.848,0,1,0,22.3,12.448,9.85,9.85,0,0,0,12.448,2.6Zm0,17.579a7.731,7.731,0,1,1,7.731-7.731A7.735,7.735,0,0,1,12.448,20.179Z" transform="translate(-2.6 -2.6)" fill="#1d5a7f"/>
  </g>
</svg>
