<svg xmlns="http://www.w3.org/2000/svg" width="22.208" height="22.207" viewBox="0 0 22.208 22.207">
  <g id="Group_27376" data-name="Group 27376" transform="translate(-2 -2)">
    <circle id="Ellipse_329" data-name="Ellipse 329" cx="2.5" cy="2.5" r="2.5" transform="translate(2.104 5.104)" fill="#ffd2b5"/>
    <path id="Path_17637" data-name="Path 17637" d="M6.759,19.345V15.379a2.379,2.379,0,0,0-4.759,0v5.552A2.382,2.382,0,0,0,4.379,23.31v.79a2.38,2.38,0,1,0,4.76,0V21.724a2.382,2.382,0,0,0-2.379-2.379ZM21.828,13a2.382,2.382,0,0,0-2.379,2.379v3.966a2.382,2.382,0,0,0-2.379,2.379V24.1a2.379,2.379,0,1,0,4.759,0v-.79a2.382,2.382,0,0,0,2.379-2.379V15.379A2.382,2.382,0,0,0,21.828,13Z" transform="translate(0 -2.276)" fill="#f47320"/>
    <circle id="Ellipse_330" data-name="Ellipse 330" cx="2.5" cy="2.5" r="2.5" transform="translate(19.104 5.104)" fill="#ffd2b5"/>
    <path id="Path_17638" data-name="Path 17638" d="M11.793,6.759h.113a3.116,3.116,0,0,0,.337.808l-.082.081A.793.793,0,1,0,13.283,8.77l.082-.081a3.132,3.132,0,0,0,.808.337v.113a.793.793,0,0,0,1.586,0V9.025a3.138,3.138,0,0,0,.809-.337l.081.081A.793.793,0,1,0,17.77,7.648l-.082-.081a3.144,3.144,0,0,0,.337-.808h.113a.793.793,0,0,0,0-1.586h-.113a3.138,3.138,0,0,0-.337-.808l.082-.081a.793.793,0,0,0-1.122-1.122l-.082.081a3.138,3.138,0,0,0-.808-.337V2.793a.793.793,0,1,0-1.586,0v.113a3.138,3.138,0,0,0-.809.337l-.081-.081A.793.793,0,1,0,12.16,4.284l.082.081a3.144,3.144,0,0,0-.337.808h-.113a.793.793,0,0,0,0,1.586ZM14.965,4.38a1.586,1.586,0,1,1-1.586,1.586A1.586,1.586,0,0,1,14.965,4.38Z" transform="translate(-1.862)" fill="#f47320"/>
    <g id="Group_27377" data-name="Group 27377" transform="translate(-2.102 -3.886)">
      <path id="Path_17639" data-name="Path 17639" d="M18.57,18H11.841a.841.841,0,1,0,0,1.682h.841v7.57a.841.841,0,0,0,.841.841h3.364a.841.841,0,0,0,.841-.841v-7.57h.841a.841.841,0,0,0,0-1.682Z" fill="#ffd2b5"/>
    </g>
  </g>
</svg>
