<svg xmlns="http://www.w3.org/2000/svg" xmlns:xlink="http://www.w3.org/1999/xlink" viewBox="0 0 315.06 459.86"><defs><style>.cls-1{fill:url(#radial-gradient);}.cls-2{fill:#f8fafc;}.cls-3{fill:#adc4ff;}.cls-4{fill:url(#linear-gradient);}.cls-5{fill:#1b3790;}.cls-6{fill:#7197e3;}.cls-7{fill:#b052bd;}.cls-8{fill:url(#linear-gradient-2);}.cls-9{fill:#ce67bd;}.cls-10{fill:#99399e;}.cls-11{fill:url(#linear-gradient-3);}.cls-12{fill:url(#linear-gradient-4);}.cls-13{fill:#6e6ccf;}.cls-14{fill:url(#linear-gradient-5);}.cls-15{fill:#699bff;}.cls-16{fill:url(#linear-gradient-6);}.cls-17{fill:url(#linear-gradient-7);}.cls-18{fill:url(#linear-gradient-8);}.cls-19{fill:url(#linear-gradient-9);}.cls-20{fill:#fff;}</style><radialGradient id="radial-gradient" cx="263.12" cy="338.74" r="177.55" gradientUnits="userSpaceOnUse"><stop offset="0" stop-color="#facafc"/><stop offset="1" stop-color="#e3e8fc"/></radialGradient><linearGradient id="linear-gradient" x1="118.13" y1="194.94" x2="111.82" y2="166.45" gradientUnits="userSpaceOnUse"><stop offset="0" stop-color="#abbfff"/><stop offset="1" stop-color="#7a84e6"/></linearGradient><linearGradient id="linear-gradient-2" x1="233.67" y1="1056.94" x2="365.29" y2="866.01" gradientTransform="matrix(0.99, -0.23, 0, 1, -20.79, -535.27)" gradientUnits="userSpaceOnUse"><stop offset="0" stop-color="#bc5fbd"/><stop offset="0.31" stop-color="#db75bd"/><stop offset="1" stop-color="#ef8cbd"/></linearGradient><linearGradient id="linear-gradient-3" x1="287.85" y1="309.23" x2="260.12" y2="286.3" gradientUnits="userSpaceOnUse"><stop offset="0" stop-color="#fff2fa"/><stop offset="1" stop-color="#ffe3ee"/></linearGradient><linearGradient id="linear-gradient-4" x1="1116.81" y1="1418.86" x2="1250.58" y2="1309.65" gradientTransform="matrix(0.99, -0.17, 0.17, 0.99, -1231.02, -1090.9)" gradientUnits="userSpaceOnUse"><stop offset="0" stop-color="#e5d0f5" stop-opacity="0"/><stop offset="1" stop-color="#fbfbff"/></linearGradient><linearGradient id="linear-gradient-5" x1="64.94" y1="312.18" x2="130.96" y2="131.07" gradientUnits="userSpaceOnUse"><stop offset="0" stop-color="#99b4ff" stop-opacity="0"/><stop offset="1" stop-color="#85b4ff"/></linearGradient><linearGradient id="linear-gradient-6" x1="214.49" y1="211.75" x2="359.54" y2="304.35" xlink:href="#linear-gradient-5"/><linearGradient id="linear-gradient-7" x1="212.53" y1="258.6" x2="325.85" y2="258.6" gradientUnits="userSpaceOnUse"><stop offset="0" stop-color="#7aabff"/><stop offset="0.31" stop-color="#99c1ff"/><stop offset="1" stop-color="#add8ff"/></linearGradient><linearGradient id="linear-gradient-8" x1="94.25" y1="204.24" x2="361.33" y2="276.76" xlink:href="#linear-gradient-5"/><linearGradient id="linear-gradient-9" x1="150.13" y1="230.14" x2="225.88" y2="258.41" gradientUnits="userSpaceOnUse"><stop offset="0" stop-color="#fff" stop-opacity="0"/><stop offset="1" stop-color="#f2fdff"/></linearGradient></defs><title>Invesment and proof 1</title><g id="Layer_2" data-name="Layer 2"><g id="Layer_13" data-name="Layer 13"><path class="cls-1" d="M56.83,443.61c-1.32-34.57-4.46-76-5.78-110.58-.35-9.12-1.24-19.5-7.5-24.94-7.37-6.41-18.18-2.46-26.62-6.73C5.3,295.48,3.12,277.59,2.63,262.75L.14,187.5c-.45-13.67-.3-29.19,8.23-38.54,7-7.64,17.35-8.63,26.88-9.17q93.87-5.39,187.89-5.91c7.6,0,16,.31,21.49,6.52,10.42,11.88,1.92,34.73,10.64,48.37,10.93,17.08,37,4.5,50.71,18.53,8,8.22,8.69,22.34,8.75,34.84l.33,81.07c0,24.56,0,46.32,0,71.91,0,11.14-.62,22.89-5.78,32.25-8,14.52-24.27,18.73-38.91,20.72C214.12,455.72,99,459.64,95.75,459.64,81.2,459.64,56.31,463,56.83,443.61Z"/><path class="cls-2" d="M248.17,249.46c-5.55,8.45-28.75-1.56-45.12-10.25,2.75,25.85,2.75,56.9-3.85,86.51-12,6.06-27.64,5.81-38.18-2.44-9.81-7.69-12.21-10.68-12.21-10.68-9.59,12.18-21.73,23.67-33.2,28.92a55.16,55.16,0,0,1-19.34,4.86h0a59.2,59.2,0,0,1-17.57-1.47,118.74,118.74,0,0,0,.88-19.61c-.69-18.79-14.87-68.83-31.47-96.63-19.55-32.74-10.4-50.41,11.67-60.54,13.44-6.18,31.68-9.55,51.14-11.83a184.22,184.22,0,0,1,25.89-1.39c19.6.5,31,5.21,38.85,11.34.45.36.91.74,1.39,1.15,3.08,2.55,6.7,5.64,10.65,9.09,22.51,19.67,55.8,51.41,60.64,66.74C249.16,245.82,249.17,248,248.17,249.46Z"/><path class="cls-3" d="M199.2,325.72c-3.16,15.1-9.07,29.21-19,40.63-57.78,66.47-138.35,37.09-138.35,37.09,18.06-6.28,33-28.89,36.83-58.53a57.4,57.4,0,0,0,36.93-3.39c11.46-5.25,23.61-16.74,33.2-28.92,0,0,2.39,3,12.2,10.68C171.56,331.53,187.24,331.79,199.2,325.72Z"/><path class="cls-4" d="M130.08,155.49c8.13,19.88-2.75,31.69-5,31.83-7.07.42-29.55-13.87-35.49-25Z"/><path class="cls-5" d="M148.89,297.88c-.24-.12-.25-.18-.36-.84-1.37-8.84-6.73-39.77-18.23-66.84C117.2,198.66,92,170.87,91.82,170.67l.33-.36v0l.13-.48c.67.19,26,28.75,39,60,11.54,27.17,16.93,58.21,18.3,67.07,0,.25.06.4.07.44l-.49.11Z"/><path class="cls-5" d="M162.6,298.15c-.16-.17-.16-.17,0-1.32,1.51-13.67,3.43-40.72-.6-68.32-4.73-31.65-11-50.64-12.17-54.13-.09-.24-.14-.39,0-.6l.84.55-.42-.28.48-.14,0,.15c1.21,3.5,7.47,22.57,12.22,54.3,4.05,27.72,2.12,54.87.61,68.58-.06.5-.09.79-.1.87l-.47,0Z"/><polygon class="cls-6" points="168.33 296.81 141.85 296.87 143.78 336.41 169.17 335.75 168.33 296.81"/><polygon class="cls-7" points="239 455.61 146.55 444.61 146.55 290.99 239 290.99 239 455.61"/><polygon class="cls-8" points="305.06 436.95 239 455.61 239 290.99 305.06 283.33 305.06 436.95"/><polygon class="cls-9" points="239 290.99 305.06 283.33 219.48 283.33 146.55 290.99 239 290.99"/><polygon class="cls-10" points="252.58 284.09 237.87 284.27 195.69 290.02 210.92 290.02 252.58 284.09"/><path class="cls-11" d="M267.08,287.71v16.84a4.68,4.68,0,0,0,6.37,4.43,6.56,6.56,0,0,0,3.21-2.3A6.21,6.21,0,0,0,278,303l.15-16.62Zm6.63,16.84a1,1,0,0,1-.78,1,.76.76,0,0,1-.78-.82v-5.44a.94.94,0,0,1,.78-1H273a.76.76,0,0,1,.72.82Z"/><path class="cls-3" d="M169.44,160.86c-5.94,4.19-15.62,6.12-28.4,8-42.39,6.26-64.21,2.64-83.6-10.64-21.92-15-29.8-36.85-31.49-41.88-2.19-6.51-10.78-32.1,1.76-57.35,18.08-36.38,63.94-39.68,71.1-40.2a95.71,95.71,0,0,1,30.45,3.08,80.75,80.75,0,0,1,16.26,6.85c51.76,28.74,32.95,82.65,31.54,90.1C175.92,124.88,187.83,147.87,169.44,160.86Z"/><path class="cls-3" d="M45.08,137.29s-9.58-15.08-22.59-6.94,6.3,46,34.06,27.12C60.59,154.72,45.08,137.29,45.08,137.29Z"/><path class="cls-12" d="M169.44,160.86c1-4.51,2.71-9.09,3.52-13.62a32.81,32.81,0,0,0-3.42-21.18c-2.66-4.9-6.6-9.18-8.19-14.53-1.85-6.19-.27-12.8.26-19.24,2-24-12.33-48.48-34.21-58.5-9-4.14-18.9-5.93-28.66-7.68l.07-7.31a81.5,81.5,0,0,1,46.71,9.93c51.76,28.74,32.95,82.65,31.54,90.1C175.92,124.88,187.69,148.83,169.44,160.86Z"/><path class="cls-13" d="M103.53,33.76c5.39-6.54.87-21.43-8-28.52C82.82-5,61.61,1.35,49.58,10.47A46.36,46.36,0,0,0,37.37,24.53c11.38-1.7,19.57,0,24.89,1.87,11.67,4,16.43,11,27.93,11.27C93.53,37.74,100.12,37.89,103.53,33.76Z"/><path class="cls-5" d="M146.71,148.56A23,23,0,0,1,136.27,146l.83-1.6a21,21,0,0,0,10.43,2.33,21.38,21.38,0,0,0,11.47-4l1.05,1.46a23.15,23.15,0,0,1-12.45,4.32Z"/><path class="cls-14" d="M118,333.34a64.91,64.91,0,0,1-21.74,13h0a59.2,59.2,0,0,1-17.57-1.47,118.74,118.74,0,0,0,.88-19.61c-.69-18.79-14.87-68.83-31.47-96.63-4.67-7.83-9.51-18.36-10.22-25.29-1.31-12.94,34.82-3.76,33.69,15.82-.42,7.31,1.82,18.86,9.56,24.79,4.59,3.52,18.88,11,24.91,13a4.92,4.92,0,0,1,3.08,2.28c.66,1.41,0,3.06-.58,4.51-2.94,7.07-4.8,15.1-2.32,22.35,3.5,10.22,14.21,15.72,22.07,23.14a7.5,7.5,0,0,1,2.15,2.81C133.21,319.06,122.08,329.52,118,333.34Z"/><path class="cls-15" d="M208,241.91c-.15,6.34-.07,12.68-.28,19l-19.79.16a1.07,1.07,0,0,1-.44-.06.77.77,0,0,1-.31-.7c-.16-4.46.17-8.93.21-13.39.08-7.08.87-19.84,11.66-19.75h.36C205.33,227.39,208.14,236.67,208,241.91Z"/><path class="cls-3" d="M190.61,260c-3.46,4.2-9.93,4.55-13.65,4.5-7-.07-13.89-.15-20.67-.29a36.2,36.2,0,0,1,.8-12.7,45.14,45.14,0,0,1,5.31-12.73,58.88,58.88,0,0,1,5.5-7.61c.42-.49.84-1,1.28-1.44,3.18,1.87,6.24,3.69,9.12,5.46a53.31,53.31,0,0,1,8.78,6.29,21.24,21.24,0,0,1,3.23,3.78C193.24,249.6,194,255.88,190.61,260Z"/><path class="cls-16" d="M248.33,243.23a9.6,9.6,0,0,1-4.87,2.36c-4.29.66-8.51-2-11.16-5.45s-4.15-7.59-6.07-11.49-4.49-7.76-8.4-9.64c-2.16-1-4.62-1.41-6.71-2.6-3.58-2-5.48-6.09-6.66-10s-1.92-8.11-4.11-11.6c-2.43-3.86-6.38-6.49-9.31-10a13.6,13.6,0,0,1-3.35-8.31C210.2,196.15,243.49,227.89,248.33,243.23Z"/><path class="cls-2" d="M169.18,229.68c-.44.47-.86.95-1.28,1.44a49.63,49.63,0,0,0-10.81,20.34,36.2,36.2,0,0,0-.8,12.7c-48.56-1.05-90.78-5.67-110.31-39.83a71.58,71.58,0,0,1-8.49-24.77l34.32-21.51,17.41,8.84C114.82,199.94,145.62,215.89,169.18,229.68Z"/><path class="cls-17" d="M246.42,263.41c-.17,6.79-.55,13.87-.74,20.85l-15.83,2.2L207.06,290q.24-9.43.45-18.88.28-12.86.5-25.73c.13-7.08-3.77-18.12-9.17-18.23,11.77.25,26.83.65,34.55.81,6,.13,8.75,5,11.06,12.21S246.61,255.56,246.42,263.41Z"/><path class="cls-18" d="M169.18,229.68c-.44.47-.86.95-1.28,1.44a58.88,58.88,0,0,0-5.5,7.61,11.58,11.58,0,0,0-4.26-3.66c-3.6-1.52-8,.32-11.51-1.28a13.56,13.56,0,0,1-4-3.25c-3.81-4-8.22-8-13.68-8.88-8.73-1.44-10.6,2.26-17.92-.49-6-2.24-4.32-5.79-14.32-14.66-6.62-5.9-11-7.55-11.28-11.84-.24-3.19,1.86-5.95,3.57-7.71l.18-.07C114.82,199.94,145.62,215.89,169.18,229.68Z"/><path class="cls-19" d="M187.08,241.43a15.33,15.33,0,0,1-22.29.14c-.85-.87-1.6-1.88-2.39-2.84a58.88,58.88,0,0,1,5.5-7.61c.42-.49.84-1,1.28-1.44,3.18,1.87,6.24,3.69,9.12,5.46A53.31,53.31,0,0,1,187.08,241.43Z"/><path class="cls-20" d="M239.9,277.62a1.14,1.14,0,0,0-.66-.26,3.93,3.93,0,0,0-.84,0l-.6.07c-.55.05-1.39.18-2.53.37a.51.51,0,0,1-.22,0,.15.15,0,0,1-.11-.12.63.63,0,0,1,0-.14l-.11-.62c0-.14-.09-.3-.15-.5a3.52,3.52,0,0,0-.27-.7,8.51,8.51,0,0,0-1.28-2.11l1.17-.14c.53-.08,1.06-.17,1.59-.3a3.67,3.67,0,0,0,1.48-.73,2.67,2.67,0,0,0,1.1-1.46,2,2,0,0,0,0-.48c0-.44-.37-.75-1-.93a3.26,3.26,0,0,0-1,0,10.63,10.63,0,0,0-1.24.18l-2.4.25-4.87.67-4.87.66-1.05.14c-.51.07-1,.17-1.57.29a5.68,5.68,0,0,0-1.49.57,4.55,4.55,0,0,0-1.2.94,1.57,1.57,0,0,0-.61,1.23.83.83,0,0,0,.45.57,2.53,2.53,0,0,0,1.38.17l.67-.07,2.34-.24.73-.08.53.1a3.73,3.73,0,0,0,1-.15l.52-.11a3.65,3.65,0,0,1,1.73.29,5.22,5.22,0,0,1,2,1.44,7.21,7.21,0,0,1,1.33,2.22c-2.67.41-4.68.75-6,1l-3,.46-1.12.17a6.31,6.31,0,0,0-1.62.49,3.2,3.2,0,0,0-1.72,1.63,1.64,1.64,0,0,0-.12.74,1,1,0,0,0,.34.64,1.34,1.34,0,0,0,.79.34,4.62,4.62,0,0,0,.92,0c.31,0,.62-.08.93-.14a7.06,7.06,0,0,1,.92-.15l3-.47q4.59-.69,6.87-1.09a10.49,10.49,0,0,1-2,4.54l5.12-.74a16.08,16.08,0,0,0,1.29-2.79l.31-1.18a1.05,1.05,0,0,0,.06-.3l.07-.29a.42.42,0,0,1,.33-.11h.29l1-.16a7.46,7.46,0,0,0,1.36-.35,4.32,4.32,0,0,0,2-1.3,2.05,2.05,0,0,0,.37-.61,1.48,1.48,0,0,0,.12-.69A1,1,0,0,0,239.9,277.62Z"/></g></g></svg>