<svg xmlns="http://www.w3.org/2000/svg" width="16.001" height="19.525" viewBox="0 0 16.001 19.525">
  <g id="Group_27560" data-name="Group 27560" transform="translate(-8705 -7810)">
    <path id="Book" d="M31.478,5.81V20.454A2.377,2.377,0,0,1,29.1,22.831H18.84V3.43H29.1a2.377,2.377,0,0,1,2.377,2.38Zm-2.23,13.3a.676.676,0,0,0-.676-.676H21.754a.679.679,0,1,0,0,1.358h6.819a.676.676,0,0,0,.676-.683Zm0-2.659a.676.676,0,0,0-.676-.676H21.754a.679.679,0,1,0,0,1.358h6.819a.676.676,0,0,0,.676-.682Zm.17-9a.676.676,0,0,0-.676-.676H21.58a.676.676,0,0,0-.676.676v4.492a.676.676,0,0,0,.676.676h7.162a.676.676,0,0,0,.676-.676Z" transform="translate(8689.522 7806.57)" fill="#f47320"/>
    <rect id="Rectangle_4682" data-name="Rectangle 4682" width="6.008" height="3.004" transform="translate(8711.758 7814.506)" fill="#fbbf98"/>
    <path id="Rectangle_4683" data-name="Rectangle 4683" d="M1.5,0h.751V19.524H1.5a1.5,1.5,0,0,1-1.5-1.5V1.5A1.5,1.5,0,0,1,1.5,0Z" transform="translate(8705 7810)" fill="#fbbf98"/>
  </g>
</svg>
