<svg id="Group_44647" data-name="Group 44647" xmlns="http://www.w3.org/2000/svg" width="66" height="66" viewBox="0 0 66 66">
  <rect id="Rectangle_19773" data-name="Rectangle 19773" width="66" height="66" rx="33" fill="#d8e8f7" opacity="0.8"/>
  <g id="Group_44835" data-name="Group 44835" transform="translate(7.107 -12.794)">
    <path id="Path_40050" data-name="Path 40050" d="M26.129,42.074a1.611,1.611,0,0,1,2.148-2.162l2.658-2.67a.523.523,0,0,1,.742.738l-2.659,2.67a1.611,1.611,0,0,1-2.153,2.158.523.523,0,0,1-.737-.734Zm-3.5-5.658a6.995,6.995,0,1,0,4.945-2.048,6.973,6.973,0,0,0-4.945,2.048Zm2.847-6a.526.526,0,0,1-.524-.524V28.144a.526.526,0,0,1,.524-.524h4.2a.525.525,0,0,1,.524.524v1.748a.526.526,0,0,1-.524.524H28.448v.84A10.072,10.072,0,0,1,33.012,32.8l1.2-1.366a.526.526,0,0,1,.74-.047l1.575,1.386a.525.525,0,0,1,.047.74l-1.2,1.366a10.141,10.141,0,1,1-15.6,0l-1.2-1.365a.526.526,0,0,1,.047-.74l1.575-1.386a.526.526,0,0,1,.74.047l1.2,1.365A10.082,10.082,0,0,1,26.7,31.258v-.84Z" transform="translate(-10.52)" fill="#5a95cc" fill-rule="evenodd"/>
    <path id="Path_40051" data-name="Path 40051" d="M7.981,138.416l.432-1.014a4.2,4.2,0,0,1-.867-1.13l-1.131.166L6,134.893l1.062-.422a4.2,4.2,0,0,1,.186-1.412l-.881-.661.8-1.385,1.014.432a4.2,4.2,0,0,1,1.13-.867l-.155-1.09,1.544-.414.411,1.022a4.2,4.2,0,0,1,1.412.186l.663-.882,1.385.8-.432,1.014a4.2,4.2,0,0,1,.867,1.13l1.125-.169.414,1.544-1.057.425a4.194,4.194,0,0,1-.186,1.412l.881.662-.8,1.385-1.014-.432a4.2,4.2,0,0,1-1.13.867l.183,1.161-1.544.414-.439-1.093a4.2,4.2,0,0,1-1.412-.186l-.662.881-1.385-.8Zm1.932-4.9a1.572,1.572,0,1,0,.955-.733,1.569,1.569,0,0,0-.955.733Zm21.318,6.734a13.031,13.031,0,0,1-4.131-.589l-.853,1.419-2.083-.884.432-1.614a13.229,13.229,0,0,1-3.257-2.571l-1.481.82L18.5,135.027,19.7,133.82a13,13,0,0,1-1.337-3.115,11.5,11.5,0,0,0,3.2-.843,9.821,9.821,0,1,0,6.916-12.215,11.484,11.484,0,0,0-.921-3.177c.152-.041.306-.08.46-.115l.033-1.848,2.246-.276.479,1.785a13.012,13.012,0,0,1,3.984.553l.949-1.577,2.083.884-.474,1.771a13.221,13.221,0,0,1,3.195,2.471l1.585-.878,1.361,1.807L42.2,120.312a13.028,13.028,0,0,1,1.554,3.769l1.758.031.276,2.246-1.677.45a13.015,13.015,0,0,1-.545,4.081l1.463.879-.884,2.083-1.635-.438a13.238,13.238,0,0,1-2.538,3.283l.809,1.461-1.807,1.362L37.8,138.351a13.019,13.019,0,0,1-3.866,1.571l-.029,1.646-2.246.276-.428-1.591Z" transform="translate(0 -77.877)" fill="#00376a" fill-rule="evenodd"/>
  </g>
</svg>
