<svg xmlns="http://www.w3.org/2000/svg" width="25.728" height="21.05" viewBox="0 0 25.728 21.05">
  <g id="Group_44188" data-name="Group 44188" transform="translate(-1 -3)">
    <path id="Path_39684" data-name="Path 39684" d="M24.984,18.024l-3.5,5.245a1.751,1.751,0,0,1-1.459.781h-6.35A4.682,4.682,0,0,1,9,19.372v-5.42a6.409,6.409,0,0,1,1.731-4.389L16.854,3h.193a1.31,1.31,0,0,1,1.169,1.892L16.339,8.648a1.754,1.754,0,0,0,1.569,2.539h5.124A1.171,1.171,0,0,1,24.2,12.357v1.754a.585.585,0,0,0,.1.324l.683,1.024a2.314,2.314,0,0,1,0,2.566Z" transform="translate(1.355)" fill="#ffd1b4"/>
    <path id="Path_39686" data-name="Path 39686" d="M6.847,21.694a1.171,1.171,0,0,1-1.169,1.169H2.169A1.171,1.171,0,0,1,1,21.694V11.169A1.171,1.171,0,0,1,2.169,10H5.678a1.171,1.171,0,0,1,1.169,1.169Z" transform="translate(2.339 1.186)" fill="#f47320"/>
    <path id="Path_39687" data-name="Path 39687" d="M5.678,20.139H2.169A1.081,1.081,0,0,1,1,19.182v.957a1.171,1.171,0,0,0,1.169,1.169H5.678a1.171,1.171,0,0,0,1.169-1.169v-.957A1.082,1.082,0,0,1,5.678,20.139Z" transform="translate(0 2.742)" opacity="0.1"/>
    <path id="Path_39688" data-name="Path 39688" d="M5.678,10H2.169A1.171,1.171,0,0,0,1,11.169v.957a1.082,1.082,0,0,1,1.169-.957H5.678a1.081,1.081,0,0,1,1.169.957v-.957A1.171,1.171,0,0,0,5.678,10Z" transform="translate(0 1.186)" fill="#fff" opacity="0.2"/>
    <path id="Path_39689" data-name="Path 39689" d="M24.984,15.491l-3.5,5.245a1.751,1.751,0,0,1-1.459.781h-6.35A4.682,4.682,0,0,1,9,16.839v.585A4.682,4.682,0,0,0,13.678,22.1h6.35a1.753,1.753,0,0,0,1.459-.781l3.5-5.245a2.307,2.307,0,0,0,.388-1.283,2.23,2.23,0,0,0-.043-.292A2.294,2.294,0,0,1,24.984,15.491Z" transform="translate(1.355 1.948)" opacity="0.1"/>
  </g>
</svg>
