<svg xmlns="http://www.w3.org/2000/svg" width="22" height="22" viewBox="0 0 22 22">
  <g id="Group_44597" data-name="Group 44597" transform="translate(-1452 -896)">
    <circle id="Ellipse_1667" data-name="Ellipse 1667" cx="11" cy="11" r="11" transform="translate(1452 896)" fill="#1d5a7f"/>
    <path id="calendar" d="M14.141,6.431a.429.429,0,0,0-.026-.129V5.144a1.287,1.287,0,0,0-1.287-1.287H11.114V3.429a.429.429,0,0,0-.858,0v.429H6.825V3.429a.429.429,0,1,0-.858,0v.429H4.252A1.287,1.287,0,0,0,2.966,5.144V6.3a.334.334,0,0,0,0,.257v5.446a1.287,1.287,0,0,0,1.287,1.287h8.577a1.287,1.287,0,0,0,1.287-1.287V6.559A.429.429,0,0,0,14.141,6.431ZM4.252,4.715H5.968v.429a.429.429,0,1,0,.858,0V4.715h3.431v.429a.429.429,0,1,0,.858,0V4.715h1.715a.429.429,0,0,1,.429.429V6H3.823V5.144A.429.429,0,0,1,4.252,4.715Zm8.577,7.719H4.252a.429.429,0,0,1-.429-.429V6.86h9.434v5.146A.429.429,0,0,1,12.829,12.434Z" transform="translate(1454.459 898.854)" fill="#fff"/>
  </g>
</svg>
