<svg xmlns="http://www.w3.org/2000/svg" width="22.559" height="22.772" viewBox="0 0 22.559 22.772">
  <g id="Group_27557" data-name="Group 27557" transform="translate(-0.8 -0.5)">
    <path id="Path_17705" data-name="Path 17705" d="M11.594,2.657H1.665A.867.867,0,0,0,.8,3.523v9.24a.867.867,0,0,0,.867.866h9.927a.867.867,0,0,0,.866-.866V3.524A.867.867,0,0,0,11.594,2.657Z" transform="translate(0 -1.389)" fill="#ffd1b4"/>
    <path id="Path_17706" data-name="Path 17706" d="M11.594,2.657H1.665A.867.867,0,0,0,.8,3.523V4.9a.169.169,0,0,0,.169.169H12.29A.169.169,0,0,0,12.46,4.9V3.524a.867.867,0,0,0-.866-.867Z" transform="translate(0 -1.389)" fill="#f47320"/>
    <g id="Group_27557-2" data-name="Group 27557" transform="translate(2.391 5.169)">
      <path id="Path_17707" data-name="Path 17707" d="M10.344,13.622H8.493a.112.112,0,0,0-.112.112v1.854a.112.112,0,0,0,.223,0V13.846h1.743a.112.112,0,1,0,0-.223ZM11.592,15.7a.112.112,0,0,0,.112-.112V13.845h1.743a.112.112,0,0,0,0-.223H11.591a.112.112,0,0,0-.112.112v1.854a.112.112,0,0,0,.112.112ZM7.245,16.792H5.388a.112.112,0,0,0-.112.112v1.85a.112.112,0,1,0,.223,0V17.015H7.245a.112.112,0,1,0,0-.223Zm3.1,0H8.493a.112.112,0,0,0-.112.112v1.85a.112.112,0,1,0,.223,0V17.015h1.743a.112.112,0,1,0,0-.223Zm3.1,0H11.591a.112.112,0,0,0-.112.112v1.85a.112.112,0,1,0,.223,0V17.015h1.743a.112.112,0,1,0,0-.223Z" transform="translate(-5.276 -13.622)" fill="#f47320"/>
    </g>
    <g id="Group_27558" data-name="Group 27558" transform="translate(2.79 0.5)">
      <path id="Path_17708" data-name="Path 17708" d="M6.684.5A.282.282,0,0,0,6.4.782v1.31a.282.282,0,0,0,.563,0V.782A.282.282,0,0,0,6.684.5ZM9.052.5a.282.282,0,0,0-.282.282v1.31a.282.282,0,0,0,.563,0V.782A.282.282,0,0,0,9.052.5Zm2.372,0a.282.282,0,0,0-.282.282v1.31a.282.282,0,0,0,.563,0V.782A.282.282,0,0,0,11.424.5Zm2.37,0a.282.282,0,0,0-.282.282v1.31a.282.282,0,1,0,.563,0V.782A.282.282,0,0,0,13.793.5Z" transform="translate(-6.4 -0.5)" fill="#ffd1b4"/>
    </g>
    <g id="Group_27559" data-name="Group 27559" transform="translate(5.742 19.207)">
      <path id="Path_17709" data-name="Path 17709" d="M17.85,53.124a.165.165,0,0,0-.234,0l-2.689,2.69a.553.553,0,1,0,.78.78L18.4,53.905a.165.165,0,0,0,0-.234Zm13.559,2.689-2.69-2.69a.17.17,0,0,0-.234,0l-.546.546a.165.165,0,0,0,0,.234L30.622,56.6a.553.553,0,0,0,.78-.78Z" transform="translate(-14.735 -53.076)" fill="#f47320"/>
    </g>
    <path id="Path_17710" data-name="Path 17710" d="M37.075,29.481c-.166,0-.3.078-.3.172V41.768c0,.1.135.172.3.172s.3-.078.3-.172V29.651c0-.1-.135-.172-.3-.172Z" transform="translate(-23.203 -18.669)" fill="#f47320"/>
    <path id="Path_17711" data-name="Path 17711" d="M24.849,44.238H9.669a.366.366,0,0,1-.261-.108L5.644,40.366a.765.765,0,0,0-1.057,0,.765.765,0,0,0-.1,1.15l4,3.995a.752.752,0,0,0,.529.219H24.849a.748.748,0,0,0,0-1.5Z" transform="translate(-2.238 -25.545)" fill="#ffd1b4"/>
    <path id="Path_17712" data-name="Path 17712" d="M25.049,21.543a6.724,6.724,0,0,0-6.743,6.522.172.172,0,0,0,.172.179H31.62a.172.172,0,0,0,.172-.179A6.724,6.724,0,0,0,25.049,21.543Z" transform="translate(-11.277 -13.555)" fill="#f47320"/>
    <path id="Path_17713" data-name="Path 17713" d="M31.859,21.706c-1.62,0-2.93,2.841-2.984,6.468a.114.114,0,0,0,.114.115H34.73a.115.115,0,0,0,.111-.113C34.786,24.547,33.476,21.706,31.859,21.706Z" transform="translate(-18.085 -13.661)" fill="#ffd1b4"/>
  </g>
</svg>
