<svg id="Group_45571" data-name="Group 45571" xmlns="http://www.w3.org/2000/svg" width="40" height="40" viewBox="0 0 40 40">
  <path id="Path_40365" data-name="Path 40365" d="M32.5,40H7.5A7.5,7.5,0,0,1,0,32.5V7.5A7.5,7.5,0,0,1,7.5,0h25A7.5,7.5,0,0,1,40,7.5v25A7.5,7.5,0,0,1,32.5,40Z" fill="#ffd1b4"/>
  <g id="Group_45897" data-name="Group 45897" transform="translate(11.604 11.592)">
    <path id="Path_40696" data-name="Path 40696" d="M6.178,8.951a2.409,2.409,0,0,1,3.334,0,1.026,1.026,0,1,0,1.45-1.45,4.409,4.409,0,0,0-6.235,0L1.792,10.446a4.419,4.419,0,0,0,0,6.235,4.387,4.387,0,0,0,6.226-.009l1.256-1.256a1.026,1.026,0,0,0-1.45-1.45L6.567,15.221a2.409,2.409,0,0,1-3.334,0,2.359,2.359,0,0,1,0-3.334Z" transform="translate(-0.505 -1.156)" fill="#f47320"/>
    <path id="Path_40697" data-name="Path 40697" d="M13.867,10.952,16.8,8.016a4.408,4.408,0,0,0-6.235-6.235L9.321,3.037a1.026,1.026,0,0,0,1.45,1.45l1.256-1.256a2.357,2.357,0,0,1,3.334,3.334L12.425,9.5a2.409,2.409,0,0,1-3.334,0,1.026,1.026,0,0,0-1.45,1.45,4.4,4.4,0,0,0,6.226,0Z" transform="translate(-1.296 -0.495)" fill="#f47320"/>
  </g>
</svg>
