<svg xmlns="http://www.w3.org/2000/svg" width="43.992" height="43.992" viewBox="0 0 43.992 43.992">
  <g id="Group_44967" data-name="Group 44967" transform="translate(0 0)">
    <path id="Path_40127" data-name="Path 40127" d="M35.744,43.992H8.249A8.249,8.249,0,0,1,0,35.743V8.248A8.249,8.249,0,0,1,8.249,0h27.5a8.249,8.249,0,0,1,8.249,8.248V35.743A8.249,8.249,0,0,1,35.744,43.992Z" transform="translate(0 0)" fill="#00376a" opacity="0.1"/>
    <path id="Path_40128" data-name="Path 40128" d="M20.33,10.84h6.281l.616-.492A1.318,1.318,0,0,0,26.406,8H20.535a1.318,1.318,0,0,0-.821,2.348ZM8.451,19A.461.461,0,0,0,8,19.459v8.247a.458.458,0,0,0,.458.458H10.4a.459.459,0,0,0,.441-.333l2.028-7.147a.916.916,0,0,0-.568-1.111A10.692,10.692,0,0,0,8.451,19Z" transform="translate(2.998 2.998)" fill="#00376a" opacity="0.2"/>
    <path id="Path_40129" data-name="Path 40129" d="M16.2,19.541l.315.181.1.014c1.426.2,4.226.6,4.814,2.582h1.127a8.941,8.941,0,0,1,3.107-.814c.076,0,.146.014.22.018A4.6,4.6,0,0,0,27.5,17.843a10.7,10.7,0,0,0-3-6.751H17.523a11.024,11.024,0,0,0-2.857,6.751,5.717,5.717,0,0,0,.081.946A12.522,12.522,0,0,1,16.2,19.541Z" transform="translate(5.496 4.157)" fill="#00376a"/>
    <path id="Path_40130" data-name="Path 40130" d="M26.977,20.586c-1.833,0-5.5,2.321-7.332,2.321a8.442,8.442,0,0,1-3.9-1.4,28.578,28.578,0,0,0,3.895.458c1.426,0,1.833-.487,1.833-1.145,0-1.6-2.725-1.853-4.1-2.062a8.427,8.427,0,0,0-4.3-1.538,2.427,2.427,0,0,1-.07.39l-1.841,6.489c2.085.947,5.676,2.45,7.561,2.45,2.749,0,10.081-3.666,10.081-4.582S27.892,20.586,26.977,20.586Z" transform="translate(4.185 6.451)" fill="#00376a"/>
  </g>
</svg>
