<svg xmlns="http://www.w3.org/2000/svg" width="21.842" height="24.856" viewBox="0 0 21.842 24.856">
  <g id="Group_40512" data-name="Group 40512" transform="translate(-8.91 -6)">
    <path id="Path_13" data-name="Path 13" d="M30.752,23.464A10.921,10.921,0,1,1,15.7,13.356a.526.526,0,0,1,.487.052.517.517,0,0,1,.228.43V16.67a.505.505,0,0,1-.259.445,7.34,7.34,0,1,0,7.348,0,.52.52,0,0,1-.259-.451V13.837a.52.52,0,0,1,.715-.482A10.884,10.884,0,0,1,30.752,23.464Z" transform="translate(0 -3.529)" fill="#f47320" opacity="0.6"/>
    <path id="Path_14" data-name="Path 14" d="M25.4,16.409V8.382a2.379,2.379,0,1,1,4.759,0v8.026a2.379,2.379,0,1,1-4.759,0Z" transform="translate(-7.951)" fill="#f47320"/>
  </g>
</svg>
