<svg xmlns="http://www.w3.org/2000/svg" width="32.4" height="45" viewBox="0 0 32.4 45">
  <g id="Group_44892" data-name="Group 44892" transform="translate(1.5 1.5)">
    <path id="Path_40069" data-name="Path 40069" d="M28.1,44H11.3A6.306,6.306,0,0,1,5,37.7V8.3A6.306,6.306,0,0,1,11.3,2H28.1a6.306,6.306,0,0,1,6.3,6.3V37.7A6.306,6.306,0,0,1,28.1,44Z" transform="translate(-5 -2)" fill="#c7def3" stroke="#00376a" stroke-width="3"/>
    <path id="Path_40070" data-name="Path 40070" d="M13.1,20.2a2.079,2.079,0,0,1-1.932-2.9,2.413,2.413,0,0,1,.441-.693,2.121,2.121,0,0,1,1.911-.567,1.371,1.371,0,0,1,.378.126,1.552,1.552,0,0,1,.378.189l.315.252a2.178,2.178,0,0,1,.441.693,2.079,2.079,0,0,1-.441,2.289,3.047,3.047,0,0,1-.693.462A2.079,2.079,0,0,1,13.1,20.2Z" transform="translate(1.6 13.4)" fill="#00376a"/>
  </g>
</svg>
