<svg xmlns="http://www.w3.org/2000/svg" width="23.2" height="23.196" viewBox="0 0 23.2 23.196">
  <g id="Layer_2" data-name="Layer 2" transform="translate(-2 -2)">
    <path id="Path_17731" data-name="Path 17731" d="M22.142,23H18.828a.828.828,0,1,0,0,1.657h3.314a.828.828,0,0,0,0-1.657Z" transform="translate(-2.745 -3.603)" fill="#fabe97"/>
    <path id="Path_17732" data-name="Path 17732" d="M25.2,6.971V4.485A2.485,2.485,0,0,0,22.711,2H4.485A2.485,2.485,0,0,0,2,4.485V6.971ZM8.628,3.657h.828a.828.828,0,0,1,0,1.657H8.628a.829.829,0,0,1,0-1.657Zm-3.314,0h.828a.828.828,0,0,1,0,1.657H5.314a.829.829,0,0,1,0-1.657Z" fill="#fabe97"/>
    <path id="Path_17733" data-name="Path 17733" d="M8,15H21.256v1.657H8Z" transform="translate(-1.029 -2.23)" fill="#fabe97"/>
    <path id="Path_17734" data-name="Path 17734" d="M2,10V24.083a2.485,2.485,0,0,0,2.485,2.485H22.711A2.485,2.485,0,0,0,25.2,24.083V10ZM19.4,24.083H16.083a2.486,2.486,0,0,1,0-4.971H19.4a2.485,2.485,0,1,1,0,4.971ZM21.883,15.8a1.657,1.657,0,0,1-1.657,1.657H6.971A1.657,1.657,0,0,1,5.314,15.8V14.142a1.657,1.657,0,0,1,1.657-1.657H20.226a1.657,1.657,0,0,1,1.657,1.657Z" transform="translate(0 -1.372)" fill="#f47320"/>
  </g>
</svg>
