<svg xmlns="http://www.w3.org/2000/svg" width="24.994" height="24.995" viewBox="0 0 24.994 24.995">
  <g id="Group_27556" data-name="Group 27556" transform="translate(-1 -1)">
    <path id="Path_17703" data-name="Path 17703" d="M11.953,4.408a1.136,1.136,0,0,1,1.136-1.136h9.089a1.136,1.136,0,0,1,1.136,1.136V22.587a1.136,1.136,0,0,1-1.136,1.136H18.77a1.136,1.136,0,0,0,0,2.272h3.408a3.408,3.408,0,0,0,3.408-3.408V4.408A3.408,3.408,0,0,0,22.178,1H13.089A3.408,3.408,0,0,0,9.681,4.408a1.136,1.136,0,0,0,2.272,0ZM9.681,19.178a1.136,1.136,0,0,1,1.136,1.136v3.408h3.408a1.136,1.136,0,1,1,0,2.272H5.136a1.136,1.136,0,1,1,0-2.272H8.545V20.314a1.136,1.136,0,0,1,1.136-1.136Z" transform="translate(0.408)" fill="#ffc098" fill-rule="evenodd"/>
    <path id="Path_17704" data-name="Path 17704" d="M14.634,10.408ZM1,10.408A3.408,3.408,0,0,1,4.408,7H15.77a3.408,3.408,0,0,1,3.408,3.408v6.817a3.408,3.408,0,0,1-3.408,3.408H4.408A3.408,3.408,0,0,1,1,17.225Z" transform="translate(0 0.817)" fill="#f47320" fill-rule="evenodd"/>
  </g>
</svg>
