<svg xmlns="http://www.w3.org/2000/svg" width="16" height="20" viewBox="0 0 16 20">
  <g id="Layer_2" data-name="Layer 2" transform="translate(-4 -2)">
    <path id="Path_21763" data-name="Path 21763" d="M13,16a1,1,0,0,1,1-1h6V5a3,3,0,0,0-3-3H7A3,3,0,0,0,4,5V19a3,3,0,0,0,3,3h6ZM9,6h6a1,1,0,0,1,0,2H9A1,1,0,0,1,9,6ZM8,11a1,1,0,0,1,1-1h6a1,1,0,0,1,0,2H9A1,1,0,0,1,8,11Z" fill="#f47320"/>
    <path id="Path_21764" data-name="Path 21764" d="M15,22a5,5,0,0,0,5-5H15Z" fill="#fabe98"/>
  </g>
</svg>
