<svg xmlns="http://www.w3.org/2000/svg" width="29.392" height="18.543" viewBox="0 0 29.392 18.543">
  <g id="Group_45532" data-name="Group 45532" transform="translate(-0.591 -9.2)">
    <path id="Path_40621" data-name="Path 40621" d="M21.945,9.2A3.435,3.435,0,0,0,18.5,12.645c0,1.879,1.5,4.448,3.445,4.448s3.445-2.568,3.445-4.448A3.435,3.435,0,0,0,21.945,9.2Z" transform="translate(-6.69)" fill="#f47320"/>
    <path id="Path_40622" data-name="Path 40622" d="M6.485,12.8a2.781,2.781,0,0,0-2.756,2.756c0,1.5,1.253,3.633,2.756,3.633s2.756-2.067,2.756-3.633A2.781,2.781,0,0,0,6.485,12.8Zm17.54,0a2.781,2.781,0,0,0-2.756,2.756c0,1.5,1.253,3.633,2.756,3.633s2.756-2.067,2.756-3.633A2.74,2.74,0,0,0,24.026,12.8ZM6.673,23.825a6.6,6.6,0,0,1,.689-3.32l-.877.689L4.042,19.44a4.257,4.257,0,0,0-1.19.188,3.276,3.276,0,0,0-1.065.752A4.244,4.244,0,0,0,.6,23.575l.125,2.506a1.839,1.839,0,0,0,1.817,1.691h4.51a2.252,2.252,0,0,1-.125-.689l-.251-3.258Zm22.114-3.508a4.115,4.115,0,0,0-1.065-.752,4.257,4.257,0,0,0-1.19-.188l-2.506,1.817-.877-.626a6.6,6.6,0,0,1,.689,3.32l-.251,3.258a2.664,2.664,0,0,1-.125.689h4.51a1.839,1.839,0,0,0,1.817-1.691l.188-2.631a4.155,4.155,0,0,0-1.19-3.195Z" transform="translate(0 -1.345)" fill="#fbc7a5"/>
    <path id="Path_40623" data-name="Path 40623" d="M26.956,27.274a4.848,4.848,0,0,0-1.5-3.947,4.462,4.462,0,0,0-1.378-.94,6.578,6.578,0,0,0-1.5-.188l-2.944,2.193L16.62,22.2a6.578,6.578,0,0,0-1.5.188,5.017,5.017,0,0,0-1.316.94,5.285,5.285,0,0,0-1.5,3.947l.251,3.258A2.21,2.21,0,0,0,14.8,32.6h9.71a2.3,2.3,0,0,0,2.255-2.067Z" transform="translate(-4.371 -4.856)" fill="#f47320"/>
  </g>
</svg>
