<svg xmlns="http://www.w3.org/2000/svg" width="41" height="41" viewBox="0 0 41 41">
  <g id="Group_44206" data-name="Group 44206" transform="translate(-3533 3139)">
    <path id="Path_24066" data-name="Path 24066" d="M20.5,0A20.5,20.5,0,1,1,0,20.5,20.5,20.5,0,0,1,20.5,0Z" transform="translate(3533 -3139)" fill="#fef1e8"/>
    <path id="Path_39684" data-name="Path 39684" d="M9.742,19.461a1.337,1.337,0,0,1-.952-.394L3.427,13.7A1.319,1.319,0,0,1,3,12.73a1.344,1.344,0,0,1,.455-1L8.789,6.394a1.346,1.346,0,0,1,1.9,1.9L7.607,11.384H19.154a1.346,1.346,0,1,1,0,2.692H7.607l3.087,3.087a1.347,1.347,0,0,1-.952,2.3Z" transform="translate(3541.75 -3131.23)" fill="#f47320"/>
  </g>
</svg>
