<svg id="Group_40068" data-name="Group 40068" xmlns="http://www.w3.org/2000/svg" width="27.07" height="15.011" viewBox="0 0 27.07 15.011">
  <path id="Path_23240" data-name="Path 23240" d="M30.814,13H8.256C7.01,13,6,12.552,6,12s1.01-1,2.256-1H30.814c1.246,0,2.256.448,2.256,1S32.06,13,30.814,13Z" transform="translate(-6 -4.494)" fill="#00376a"/>
  <path id="Path_23241" data-name="Path 23241" d="M12,21.011a1.025,1.025,0,0,1-.924-.772,1.488,1.488,0,0,1,.217-1.363l4.293-5.37-4.293-5.37a1.482,1.482,0,0,1,0-1.769.866.866,0,0,1,1.414,0l5,6.255a1.482,1.482,0,0,1,0,1.769l-5,6.255a.908.908,0,0,1-.707.367Z" transform="translate(9.07 -6)" fill="#00376a"/>
</svg>
