<svg id="Group_40364" data-name="Group 40364" xmlns="http://www.w3.org/2000/svg" width="41" height="41" viewBox="0 0 41 41">
  <rect id="Rectangle_4620" data-name="Rectangle 4620" width="41" height="41" rx="7" fill="#1d5a7f"/>
  <g id="Group_40365" data-name="Group 40365" transform="translate(10.552 8.538)">
    <path id="Path_33" data-name="Path 33" d="M168.845,145.028a6.746,6.746,0,0,1-2.4-5.161v-2.806a7.053,7.053,0,0,0-6.041-6.967v-1.087a1.007,1.007,0,0,0-2.015,0v1.087a7.052,7.052,0,0,0-6.041,6.967v2.808a6.754,6.754,0,0,1-2.4,5.169,1.762,1.762,0,0,0,1.146,3.1h16.613a1.763,1.763,0,0,0,1.137-3.11Zm0,0" transform="translate(-149.332 -127.999)" fill="#fff" opacity="0.56"/>
    <path id="Path_34" data-name="Path 34" d="M220.5,355.021A3.781,3.781,0,0,0,224.2,352h-7.4A3.784,3.784,0,0,0,220.5,355.021Zm0,0" transform="translate(-210.432 -330.856)" fill="#fff"/>
  </g>
</svg>
