<svg xmlns="http://www.w3.org/2000/svg" width="49" height="49" viewBox="0 0 49 49">
  <g id="Group_27351" data-name="Group 27351" transform="translate(-0.49)">
    <rect id="Rectangle_4620" data-name="Rectangle 4620" width="49" height="49" rx="10" transform="translate(0.49)" fill="#00376a" opacity="0.1"/>
    <g id="Group_27372" data-name="Group 27372" transform="translate(15.017 11.245)">
      <path id="Path_17632" data-name="Path 17632" d="M20.225,28.51a4.742,4.742,0,0,0,4.742-4.742v-1.9a10.292,10.292,0,0,0-2.492-6.64,11.1,11.1,0,0,0,2.492-6.593v-1.9A4.741,4.741,0,0,0,20.225,2H10.742A4.742,4.742,0,0,0,6,6.742v1.9a11.27,11.27,0,0,0,2.483,6.6A10.3,10.3,0,0,0,6,21.871v1.9a4.742,4.742,0,0,0,4.742,4.742ZM9.793,21.915a4.742,4.742,0,0,1,4.742-4.742h1.9a4.742,4.742,0,0,1,4.742,4.742v.948a1.9,1.9,0,0,1-1.9,1.9H11.69a1.9,1.9,0,0,1-1.9-1.9Z" transform="translate(-6 -2)" fill="#00376a" fill-rule="evenodd" opacity="0.4"/>
      <path id="Rectangle_4631" data-name="Rectangle 4631" d="M5,0H6.38a5,5,0,0,1,5,5v.587a2,2,0,0,1-2,2H2a2,2,0,0,1-2-2V5A5,5,0,0,1,5,0Z" transform="translate(3.794 15.173)" fill="#00376a"/>
    </g>
  </g>
</svg>
