<svg xmlns="http://www.w3.org/2000/svg" xmlns:xlink="http://www.w3.org/1999/xlink" width="169" height="93" viewBox="0 0 169 93">
  <defs>
    <clipPath id="clip-path">
      <rect id="Rectangle_20362" data-name="Rectangle 20362" width="169" height="93" fill="#fff"/>
    </clipPath>
  </defs>
  <g id="Mask_Group_397" data-name="Mask Group 397" clip-path="url(#clip-path)">
    <g id="Path_40048" data-name="Path 40048" transform="translate(13.564 -167.602) rotate(6)" fill="none" stroke-linecap="round" stroke-dasharray="90 680">
      <path d="M87.957,212.453c54.728-6.546,104.4-59.263,110.947-117.745S166.392-5.876,111.664.671,7.263,59.933.716,118.416,33.229,219,87.957,212.453Z" stroke="none"/>
      <path d="M 76.88483428955078 213.1243286132812 C 76.8677978515625 213.1243286132812 76.84648132324219 213.1242980957031 76.82944488525391 213.1243133544922 C 76.81442260742188 213.1242828369141 76.79926300048828 213.1242370605469 76.78424835205078 213.124267578125 C 76.77019500732422 213.1242523193359 76.75469207763672 213.1242218017578 76.74063873291016 213.1242065429688 C 76.74063873291016 213.1242065429688 76.73836517333984 213.1241912841797 76.73836517333984 213.1241912841797 C 76.72132110595703 213.1241760253906 76.70169830322266 213.1240692138672 76.68471527099609 213.1240844726562 C 76.66969299316406 213.1240692138672 76.65562438964844 213.1239776611328 76.64063262939453 213.1239776611328 C 76.62361145019531 213.1239166259766 76.60897827148438 213.1237945556641 76.59196472167969 213.1238250732422 C 76.57695770263672 213.123779296875 76.5560302734375 213.1237640380859 76.54100799560547 213.1236267089844 C 76.52303314208984 213.1235809326172 76.51409912109375 213.1235504150391 76.49610900878906 213.1234436035156 C 76.47910308837891 213.1233825683594 76.46387481689453 213.1233062744141 76.44686889648438 213.1231994628906 C 76.42890167236328 213.1231079101562 76.41454315185547 213.1230163574219 76.39655303955078 213.1229400634766 C 76.38156127929688 213.1228485107422 76.3680419921875 213.1227569580078 76.35301208496094 213.1226806640625 C 76.33400726318359 213.1225738525391 76.31934356689453 213.1224517822266 76.30038452148438 213.1223449707031 C 76.28242492675781 213.1222534179688 76.27080535888672 213.1221771240234 76.25283813476562 213.1220092773438 C 76.23785400390625 213.1219177246094 76.22403717041016 213.1218414306641 76.20905303955078 213.1216888427734 C 76.19007873535156 213.1215515136719 76.17467498779297 213.1214141845703 76.15567016601562 213.1212615966797 C 76.13772583007812 213.12109375 76.12660217285156 213.1210327148438 76.10865020751953 213.120849609375 C 76.09367370605469 213.1207275390625 76.08033752441406 213.1205749511719 76.06537628173828 213.1204681396484 C 76.04840087890625 213.1203002929688 76.02842712402344 213.1201171875 76.01146697998047 213.1199340820312 C 75.99649810791016 213.1197967529297 75.98101043701172 213.11962890625 75.96604919433594 213.1194763183594 C 75.95108032226562 213.1193237304688 75.93695068359375 213.119140625 75.92198944091797 213.1190032958984 C 75.90504455566406 213.1188201904297 75.88545989990234 213.11865234375 75.86844635009766 213.1183929443359 C 75.85348510742188 213.1182250976562 75.83795928955078 213.1180267333984 75.82298278808594 213.1178588867188 C 75.79203033447266 213.1174926757812 75.75584411621094 213.1169128417969 75.72490692138672 213.1166229248047 C 75.7099609375 213.1164093017578 75.69472503662109 213.1162414550781 75.67977905273438 213.1160125732422 C 75.66579437255859 213.1158142089844 75.64971923828125 213.1156005859375 75.6357421875 213.1154022216797 C 75.6357421875 213.1154022216797 75.63275146484375 213.1153564453125 75.63275146484375 213.1153564453125 C 75.61581420898438 213.1151275634766 75.59763336181641 213.1148986816406 75.58069610595703 213.1145935058594 C 75.56575775146484 213.1143798828125 75.55069732666016 213.1141815185547 75.53574371337891 213.1139068603516 C 75.51881408691406 213.1136474609375 75.50477600097656 213.1134643554688 75.48787689208984 213.1131591796875 C 75.47294616699219 213.1129302978516 75.45216369628906 213.1125335693359 75.43724822998047 213.1123504638672 C 75.42527770996094 213.1121520996094 75.41338348388672 213.1119537353516 75.40141296386719 213.1117401123047 C 75.40141296386719 213.1117401123047 75.39348602294922 213.1116180419922 75.39348602294922 213.1116180419922 C 75.37457275390625 213.1112976074219 75.35975646972656 213.1110687255859 75.34082794189453 213.1107025146484 C 75.32294464111328 213.1103668212891 75.31201171875 213.1101837158203 75.29412841796875 213.10986328125 C 75.27921295166016 213.1095886230469 75.26493072509766 213.1093139648438 75.24998474121094 213.1090545654297 C 75.23403930664062 213.1087646484375 75.22191619873047 213.1085357666016 75.20596313476562 213.1082305908203 C 75.20596313476562 213.1082305908203 75.19960021972656 213.1080932617188 75.19960021972656 213.1080932617188 C 75.18173980712891 213.1077575683594 75.16893005371094 213.1075592041016 75.15105438232422 213.1071472167969 C 75.13414764404297 213.1067962646484 75.12484741210938 213.1066436767578 75.10794830322266 213.1062927246094 C 75.09201049804688 213.1059722900391 75.07880401611328 213.1056976318359 75.0628662109375 213.1053619384766 C 75.0628662109375 213.1053619384766 75.05601501464844 213.105224609375 75.05601501464844 213.105224609375 C 75.04109954833984 213.1049041748047 75.02360534667969 213.1045532226562 75.00871276855469 213.1042175292969 C 74.9918212890625 213.1038665771484 74.98148345947266 213.1035614013672 74.964599609375 213.103271484375 C 74.94570922851562 213.1028594970703 74.93229675292969 213.1025390625 74.91339111328125 213.1021270751953 C 74.89849853515625 213.101806640625 74.88121032714844 213.1014251708984 74.86630249023438 213.1010589599609 C 74.83350372314453 213.1003112792969 74.80242919921875 213.0994873046875 74.76956939697266 213.0987854003906 C 74.75468444824219 213.0984191894531 74.73902893066406 213.0980072021484 74.72418212890625 213.0976715087891 C 74.68939971923828 213.0968170166016 74.66291046142578 213.0960540771484 74.62815856933594 213.0952606201172 C 74.61128997802734 213.0948181152344 74.59786987304688 213.0944519042969 74.58100891113281 213.0940246582031 C 74.54625701904297 213.0931091308594 74.51921844482422 213.0925140380859 74.48447418212891 213.0914306640625 C 74.47056579589844 213.0910491943359 74.45584869384766 213.0906524658203 74.44194793701172 213.0902557373047 C 74.44194793701172 213.0902557373047 74.43922424316406 213.0901794433594 74.43922424316406 213.0901794433594 C 74.40448760986328 213.0892028808594 74.37648773193359 213.0884399414062 74.34175109863281 213.08740234375 C 74.32785034179688 213.0870056152344 74.31261444091797 213.0865478515625 74.29871368408203 213.0861511230469 C 74.29871368408203 213.0861511230469 74.29644775390625 213.0860748291016 74.29644775390625 213.0860748291016 C 74.26667022705078 213.0851898193359 74.23537445068359 213.0842590332031 74.20560455322266 213.0833435058594 C 74.20560455322266 213.0833435058594 74.19813537597656 213.0831146240234 74.19813537597656 213.0831146240234 C 74.18424224853516 213.0826873779297 74.16840362548828 213.0821990966797 74.15451812744141 213.0817565917969 C 74.15451812744141 213.0817565917969 74.15412902832031 213.0817565917969 74.15412902832031 213.0817565917969 C 74.13825988769531 213.0812530517578 74.12257385253906 213.0807647705078 74.10670471191406 213.0802612304688 C 74.10670471191406 213.0802612304688 74.10638427734375 213.0802459716797 74.10638427734375 213.0802459716797 C 74.09051513671875 213.0797424316406 74.07764434814453 213.0793304443359 74.06178283691406 213.0788116455078 C 74.06178283691406 213.0788116455078 74.05657958984375 213.0786437988281 74.05657958984375 213.0786437988281 C 74.03777313232422 213.0780487060547 74.03003692626953 213.0777587890625 74.01128387451172 213.0771789550781 C 73.99542236328125 213.07666015625 73.98101043701172 213.076171875 73.96515655517578 213.0756530761719 C 73.96515655517578 213.0756530761719 73.96045684814453 213.0754852294922 73.96045684814453 213.0754852294922 C 73.94562530517578 213.0749969482422 73.92704772949219 213.0743713378906 73.91220092773438 213.0738677978516 C 73.88247680664062 213.0728454589844 73.85370635986328 213.0718536376953 73.82399749755859 213.0708160400391 C 73.80913543701172 213.0703125 73.79290008544922 213.0697326660156 73.778076171875 213.0691986083984 C 73.77513885498047 213.069091796875 73.77365112304688 213.0690460205078 73.77071380615234 213.0689392089844 C 73.73902130126953 213.0678100585938 73.71216583251953 213.0668334960938 73.68048858642578 213.065673828125 C 73.66565704345703 213.0651092529297 73.64948272705078 213.0645294189453 73.63466644287109 213.0639801025391 C 73.63172912597656 213.0638732910156 73.63199615478516 213.0638732910156 73.62905883789062 213.0637664794922 C 73.59738922119141 213.0625915527344 73.56983947753906 213.0615386962891 73.53818511962891 213.0603332519531 C 73.52136993408203 213.0597229003906 73.50674438476562 213.0591125488281 73.48996734619141 213.0584716796875 C 73.48996734619141 213.0584716796875 73.48796081542969 213.0583953857422 73.48796081542969 213.0583953857422 C 73.45631408691406 213.0571594238281 73.4273681640625 213.0560150146484 73.39573669433594 213.0547485351562 C 73.37696838378906 213.0540466308594 73.36614990234375 213.0535736083984 73.34739685058594 213.0528106689453 C 73.34739685058594 213.0528106689453 73.34577941894531 213.052734375 73.34577941894531 213.052734375 C 73.31415557861328 213.0514526367188 73.28565216064453 213.05029296875 73.25403594970703 213.0489654541016 C 73.25110626220703 213.0488433837891 73.25123596191406 213.0488586425781 73.24830627441406 213.0487365722656 C 73.20286560058594 213.0468292236328 73.15756988525391 213.0449066162109 73.11215972900391 213.0429382324219 C 73.11215972900391 213.0429382324219 73.10606384277344 213.0426788330078 73.10606384277344 213.0426788330078 C 73.09223937988281 213.0420837402344 73.07605743408203 213.0413818359375 73.06224060058594 213.040771484375 C 73.06224060058594 213.040771484375 73.06167602539062 213.0407409667969 73.06167602539062 213.0407409667969 C 73.04588317871094 213.0400543212891 73.03041839599609 213.0393676757812 73.01463317871094 213.0386657714844 C 73.01463317871094 213.0386657714844 73.01393127441406 213.0386352539062 73.01393127441406 213.0386352539062 C 72.99814605712891 213.0379333496094 72.98580169677734 213.0373840332031 72.97001647949219 213.0366668701172 C 72.97001647949219 213.0366668701172 72.96446990966797 213.0364227294922 72.96446990966797 213.0364227294922 C 72.93289947509766 213.0350036621094 72.90453338623047 213.0337066650391 72.87297821044922 213.0322570800781 C 72.87297821044922 213.0322570800781 72.87100219726562 213.0321655273438 72.87100219726562 213.0321655273438 C 72.85228729248047 213.0312957763672 72.84194183349609 213.0308227539062 72.82321166992188 213.0299530029297 C 72.79166412353516 213.0284729003906 72.76229858398438 213.0270843505859 72.73076629638672 213.0255889892578 C 72.73076629638672 213.0255889892578 72.72971343994141 213.0255279541016 72.72971343994141 213.0255279541016 C 72.71299743652344 213.0247344970703 72.69731140136719 213.02392578125 72.68059539794922 213.0231781005859 C 72.64906311035156 213.0216522216797 72.62111663818359 213.0202789306641 72.58960723876953 213.0187225341797 C 72.58960723876953 213.0187225341797 72.58671569824219 213.0185852050781 72.58671569824219 213.0185852050781 C 72.56804656982422 213.0176696777344 72.558349609375 213.0171203613281 72.53964996337891 213.0162506103516 C 72.50814819335938 213.0146636962891 72.47857666015625 213.0131683349609 72.44708251953125 213.0115661621094 C 72.44708251953125 213.0115661621094 72.44637298583984 213.0115356445312 72.44637298583984 213.0115356445312 C 72.43062591552734 213.0107269287109 72.41569519042969 213.0099639892578 72.39994812011719 213.0091400146484 C 72.39994812011719 213.0091400146484 72.39933013916016 213.0091094970703 72.39933013916016 213.0091094970703 C 72.36784362792969 213.0074920654297 72.33845520019531 213.0059509277344 72.30698394775391 213.0043029785156 C 72.28831481933594 213.0033416748047 72.27728271484375 213.0027465820312 72.25862884521484 213.0017395019531 C 72.25862884521484 213.0017395019531 72.257568359375 213.0016784667969 72.257568359375 213.0016784667969 C 72.22610473632812 213 72.19649505615234 212.9984130859375 72.1650390625 212.9966888427734 C 72.1650390625 212.9966888427734 72.16181945800781 212.9965209960938 72.16181945800781 212.9965209960938 C 72.11463928222656 212.9939575195312 72.07070159912109 212.9915313720703 72.0235595703125 212.9888916015625 C 72.0235595703125 212.9888916015625 72.02048492431641 212.9887084960938 72.02048492431641 212.9887084960938 C 71.97333526611328 212.9860687255859 71.92817687988281 212.9835052490234 71.88106536865234 212.9807739257812 C 71.88106536865234 212.9807739257812 71.88027954101562 212.9807281494141 71.88027954101562 212.9807281494141 C 71.83316040039062 212.9780120849609 71.78829193115234 212.9753875732422 71.7412109375 212.9725952148438 C 71.7412109375 212.9725952148438 71.73786926269531 212.9723968505859 71.73786926269531 212.9723968505859 C 71.70647430419922 212.9705352783203 71.67758178710938 212.9687957763672 71.64620971679688 212.9669036865234 C 71.64620971679688 212.9669036865234 71.64305114746094 212.9667053222656 71.64305114746094 212.9667053222656 C 71.62641906738281 212.9657135009766 71.61278533935547 212.9649200439453 71.59610748291016 212.9638519287109 C 71.56474304199219 212.9619293212891 71.53646087646484 212.9601898193359 71.50510406494141 212.9582366943359 C 71.50510406494141 212.9582366943359 71.50213623046875 212.9580535888672 71.50213623046875 212.9580535888672 C 71.48355102539062 212.9568939208984 71.47474670410156 212.9564208984375 71.45615386962891 212.9551849365234 C 71.4248046875 212.9532165527344 71.39459991455078 212.9513092041016 71.36326599121094 212.9493103027344 C 71.36326599121094 212.9493103027344 71.36260223388672 212.9492645263672 71.36260223388672 212.9492645263672 C 71.26860046386719 212.9432678222656 71.17531585693359 212.9371490478516 71.08144378662109 212.9308471679688 C 71.08144378662109 212.9308471679688 71.08090972900391 212.9308013916016 71.08090972900391 212.9308013916016 C 70.98703765869141 212.9244995117188 70.89531707763672 212.9181823730469 70.80157470703125 212.9115753173828 C 70.80157470703125 212.9115753173828 70.79811096191406 212.9113311767578 70.79811096191406 212.9113311767578 C 47.79940414428711 211.2889251708984 28.64699935913086 200.4798126220703 16.0859432220459 183.4441070556641 C 16.0859432220459 183.4441070556641 16.08559036254883 183.4436340332031 16.08559036254883 183.4436340332031 C 15.84665679931641 183.1195831298828 15.61096000671387 182.7944641113281 15.37681674957275 182.4659423828125 C 15.37681674957275 182.4659423828125 15.37528038024902 182.4637756347656 15.37528038024902 182.4637756347656 C 15.35019397735596 182.4285736083984 15.32668781280518 182.3955383300781 15.30165672302246 182.3602905273438 C 15.30165672302246 182.3602905273438 15.30016422271729 182.3581848144531 15.30016422271729 182.3581848144531 C 15.27513313293457 182.3229370117188 15.25197696685791 182.2902679443359 15.22700023651123 182.2549591064453 C 15.22700023651123 182.2549591064453 15.22499847412109 182.2521362304688 15.22499847412109 182.2521362304688 C 15.20834827423096 182.2285919189453 15.19287395477295 182.2066955566406 15.17624759674072 182.1831359863281 C 15.17624759674072 182.1831359863281 15.17544460296631 182.1820068359375 15.17544460296631 182.1820068359375 C 15.14219188690186 182.1348876953125 15.11063957214355 182.0900726318359 15.07748603820801 182.0428619384766 C 15.07594871520996 182.0406799316406 15.07719421386719 182.0424499511719 15.07565689086914 182.0402679443359 C 15.05908012390137 182.0166625976562 15.04359436035156 181.9945831298828 15.02704238891602 181.9709625244141 C 15.02704238891602 181.9709625244141 15.02612209320068 181.9696502685547 15.02612209320068 181.9696502685547 C 15.00129413604736 181.9342041015625 14.97751712799072 181.9002075195312 14.95274353027344 181.8647155761719 C 14.95121192932129 181.8625183105469 14.95316696166992 181.8653259277344 14.95163631439209 181.8631286621094 C 14.94337844848633 181.8513031005859 14.93613052368164 181.8409118652344 14.92787837982178 181.8290710449219 C 14.92787837982178 181.8290710449219 14.92733097076416 181.8282928466797 14.92733097076416 181.8282928466797 C 14.9118595123291 181.8060913085938 14.89505767822266 181.7819671630859 14.87960815429688 181.7597503662109 C 14.87807941436768 181.7575531005859 14.87764358520508 181.7569274902344 14.87611484527588 181.7547302246094 C 14.85242938995361 181.7206726074219 14.82846641540527 181.6861572265625 14.80483150482178 181.6520385742188 C 14.80483150482178 181.6520385742188 14.80303764343262 181.6494598388672 14.80303764343262 181.6494598388672 C 14.7948169708252 181.6375885009766 14.78769207000732 181.6273040771484 14.77947807312012 181.6154327392578 C 14.77947807312012 181.6154327392578 14.77925968170166 181.6151275634766 14.77925968170166 181.6151275634766 C 14.76283073425293 181.5913848876953 14.74753665924072 181.5692596435547 14.73113250732422 181.5454864501953 C 14.73113250732422 181.5454864501953 14.72907257080078 181.5425109863281 14.72907257080078 181.5425109863281 C 14.70446586608887 181.5068664550781 14.68170547485352 181.4738311767578 14.65715503692627 181.4381408691406 C 14.65715503692627 181.4381408691406 14.65567111968994 181.4359893798828 14.65567111968994 181.4359893798828 C 14.6311206817627 181.4002990722656 14.60812759399414 181.3668060302734 14.58363246917725 181.3310699462891 C 14.58211803436279 181.328857421875 14.58363628387451 181.3310699462891 14.58212280273438 181.328857421875 C 14.55762767791748 181.2931213378906 14.53446292877197 181.2592468261719 14.51002311706543 181.2234497070312 C 14.50851249694824 181.2212371826172 14.51043224334717 181.2240600585938 14.50892162322998 181.2218475341797 C 14.49262809753418 181.1979827880859 14.4775857925415 181.1759185791016 14.46131801605225 181.1520385742188 C 14.45980930328369 181.1498260498047 14.46074295043945 181.1511993408203 14.45923519134521 181.1489715576172 C 14.45110034942627 181.1370391845703 14.44505977630615 181.1281585693359 14.43693161010742 181.1162109375 C 14.43693161010742 181.1162109375 14.43570518493652 181.1144104003906 14.43570518493652 181.1144104003906 C 14.41944885253906 181.0905151367188 14.4044885635376 181.0684967041016 14.38825702667236 181.0445709228516 C 14.38675212860107 181.0423583984375 14.38765716552734 181.0436859130859 14.38615226745605 181.0414733886719 C 14.37803649902344 181.0295104980469 14.37151527404785 181.0198974609375 14.36340618133545 181.0079345703125 C 14.36340618133545 181.0079345703125 14.36289691925049 181.0071716308594 14.36289691925049 181.0071716308594 C 14.34667873382568 180.9832458496094 14.33165645599365 180.9610595703125 14.31546211242676 180.9371032714844 C 14.31546211242676 180.9371032714844 14.31309509277344 180.93359375 14.31309509277344 180.93359375 C 14.30601024627686 180.9231262207031 14.29876232147217 180.9123840332031 14.29168224334717 180.9019012451172 C 14.29168224334717 180.9019012451172 14.28953170776367 180.8987274169922 14.28953170776367 180.8987274169922 C 14.27334976196289 180.874755859375 14.25837802886963 180.8525543212891 14.24222183227539 180.8285675048828 C 14.24222183227539 180.8285675048828 14.24100208282471 180.8267669677734 14.24100208282471 180.8267669677734 C 14.22484493255615 180.8027801513672 14.20958709716797 180.7800903320312 14.19345569610596 180.7560882568359 C 14.19345569610596 180.7560882568359 14.19259548187256 180.7548065185547 14.19259548187256 180.7548065185547 C 14.18453025817871 180.7427978515625 14.17811393737793 180.7332458496094 14.17005443572998 180.7212371826172 C 14.17005443572998 180.7212371826172 14.16805171966553 180.7182464599609 14.16805171966553 180.7182464599609 C 14.15193271636963 180.6942291259766 14.13704586029053 180.6720123291016 14.12095069885254 180.6479797363281 C 14.12095069885254 180.6479797363281 14.12013339996338 180.6467590332031 14.12013339996338 180.6467590332031 C 14.11309146881104 180.63623046875 14.10548877716064 180.6248626708984 14.09845161437988 180.6143493652344 C 14.09696102142334 180.6121063232422 14.09644412994385 180.6113433837891 14.0949535369873 180.6091156005859 C 14.07987785339355 180.5865631103516 14.06394100189209 180.5626983642578 14.04888820648193 180.5401153564453 C 14.04888820648193 180.5401153564453 14.0473747253418 180.5378570556641 14.0473747253418 180.5378570556641 C 14.03934574127197 180.5258178710938 14.03301239013672 180.5163116455078 14.02499008178711 180.5042724609375 C 14.02350234985352 180.5020294189453 14.02527904510498 180.5046997070312 14.02379131317139 180.5024719238281 C 13.99972438812256 180.4663391113281 13.9765453338623 180.4314727783203 13.95253467559814 180.3952941894531 C 13.95253467559814 180.3952941894531 13.95193767547607 180.3943939208984 13.95193767547607 180.3943939208984 C 13.9359302520752 180.3702697753906 13.92113399505615 180.3479461669922 13.90515232086182 180.3238067626953 C 13.90367031097412 180.3215637207031 13.90417289733887 180.3223266601562 13.90269184112549 180.3200836181641 C 13.8956995010376 180.3095245361328 13.8884744644165 180.2985992431641 13.88148784637451 180.2880401611328 C 13.88148784637451 180.2880401611328 13.87950325012207 180.2850341796875 13.87950325012207 180.2850341796875 C 13.86353302001953 180.2608795166016 13.84934329986572 180.2393951416016 13.83339881896973 180.2152099609375 C 13.83191967010498 180.2129669189453 13.8324556350708 180.2137908935547 13.83097743988037 180.2115478515625 C 13.82400131225586 180.2009582519531 13.81708717346191 180.1904754638672 13.8101167678833 180.1798858642578 C 13.8101167678833 180.1798858642578 13.80758476257324 180.1760559082031 13.80758476257324 180.1760559082031 C 13.79264831542969 180.1533660888672 13.77748107910156 180.1303100585938 13.76256656646729 180.1076202392578 C 13.7610912322998 180.1053771972656 13.75999641418457 180.1037139892578 13.75852108001709 180.1014556884766 C 13.75255680084229 180.0923767089844 13.74456214904785 180.0802001953125 13.738600730896 180.0711212158203 C 13.738600730896 180.0711212158203 13.73607349395752 180.0672760009766 13.73607349395752 180.0672760009766 C 13.72812652587891 180.0551605224609 13.72141933441162 180.0449371337891 13.71347808837891 180.0328216552734 C 13.71200561523438 180.0305786132812 13.7129955291748 180.0320892333984 13.71152305603027 180.0298309326172 C 13.70358180999756 180.0177154541016 13.69861316680908 180.0101318359375 13.69067764282227 179.9980163574219 C 13.69067764282227 179.9980163574219 13.68773651123047 179.9935150146484 13.68773651123047 179.9935150146484 C 13.67980098724365 179.9813995361328 13.67368030548096 179.9720458984375 13.66575241088867 179.9599151611328 C 13.66575241088867 179.9599151611328 13.66526794433594 179.9591674804688 13.66526794433594 179.9591674804688 C 13.65733909606934 179.9470520019531 13.6496000289917 179.9351959228516 13.641676902771 179.9230651855469 C 13.641676902771 179.9230651855469 13.64145374298096 179.9227294921875 13.64145374298096 179.9227294921875 C 13.634521484375 179.912109375 13.62656116485596 179.89990234375 13.61963367462158 179.8892822265625 C 13.61963367462158 179.8892822265625 13.61627101898193 179.8841247558594 13.61627101898193 179.8841247558594 C 13.6014289855957 179.8613739013672 13.58556652069092 179.8370208740234 13.57074737548828 179.8142395019531 C 13.57074737548828 179.8142395019531 13.56955909729004 179.8124084472656 13.56955909729004 179.8124084472656 C 13.56165599822998 179.8002624511719 13.55595111846924 179.7914886474609 13.54805374145508 179.7793273925781 C 13.54658985137939 179.7770690917969 13.5471248626709 179.7778930664062 13.5456600189209 179.7756500244141 C 13.52986526489258 179.7513275146484 13.51542568206787 179.7290802001953 13.49965572357178 179.7047424316406 C 13.49965572357178 179.7047424316406 13.49874687194824 179.7033386230469 13.49874687194824 179.7033386230469 C 13.4908618927002 179.6911773681641 13.48450469970703 179.6813659667969 13.4766263961792 179.669189453125 C 13.47516536712646 179.6669311523438 13.47653865814209 179.6690521240234 13.47507762908936 179.6667938232422 C 13.45932102203369 179.6424560546875 13.44480895996094 179.6200103759766 13.4290771484375 179.5956420898438 C 13.4290771484375 179.5956420898438 13.42738246917725 179.593017578125 13.42738246917725 179.593017578125 C 13.41951656341553 179.5808410644531 13.41325664520264 179.5711364746094 13.40539646148682 179.5589447021484 C 13.40539646148682 179.5589447021484 13.40460205078125 179.5577087402344 13.40460205078125 179.5577087402344 C 13.38888263702393 179.5333404541016 13.37436676025391 179.5108032226562 13.35867214202881 179.4864044189453 C 13.35721683502197 179.484130859375 13.35765838623047 179.4848175048828 13.35620307922363 179.4825592041016 C 13.35031890869141 179.4734039306641 13.34210395812988 179.4606323242188 13.33622264862061 179.4514770507812 C 13.33476829528809 179.44921875 13.33466911315918 179.4490661621094 13.33321571350098 179.4467926025391 C 13.31753349304199 179.4223785400391 13.30401229858398 179.4013061523438 13.28835582733154 179.3768768310547 C 13.28690338134766 179.3746185302734 13.28708553314209 179.3748931884766 13.28563404083252 179.3726348876953 C 13.27878475189209 179.3619384765625 13.27152347564697 179.3506011962891 13.26467895507812 179.3399047851562 C 13.26467895507812 179.3399047851562 13.26333522796631 179.3378143310547 13.26333522796631 179.3378143310547 C 13.24866962432861 179.3148956298828 13.23300838470459 179.2903900146484 13.21836376190186 179.2674560546875 C 13.21691513061523 179.2651824951172 13.21643543243408 179.2644348144531 13.21498680114746 179.2621612548828 C 13.20815467834473 179.25146484375 13.20160675048828 179.2411956787109 13.19477844238281 179.2304992675781 C 13.19477844238281 179.2304992675781 13.19291687011719 179.2275695800781 13.19291687011719 179.2275695800781 C 13.18511390686035 179.21533203125 13.17806529998779 179.2042694091797 13.17026901245117 179.1920318603516 C 13.16882228851318 179.1897583007812 13.17069149017334 179.1926879882812 13.16924571990967 179.1904296875 C 13.1624231338501 179.1797027587891 13.15589809417725 179.1694488525391 13.14908027648926 179.1587371826172 C 13.14619064331055 179.1541900634766 13.14698123931885 179.1554412841797 13.14409255981445 179.1508941650391 C 13.13727569580078 179.1401824951172 13.13027095794678 179.129150390625 13.123459815979 179.1184387207031 C 13.123459815979 179.1184387207031 13.12324619293213 179.1180877685547 13.12324619293213 179.1180877685547 C 13.1154613494873 179.1058349609375 13.10837078094482 179.0946655273438 13.10059261322021 179.0824127197266 C 13.10059261322021 179.0824127197266 13.09807586669922 179.0784454345703 13.09807586669922 179.0784454345703 C 13.09224224090576 179.0692443847656 13.08501815795898 179.0578460693359 13.07918930053711 179.0486450195312 C 13.0777473449707 179.0463714599609 13.07558536529541 179.04296875 13.07414436340332 179.0406951904297 C 13.06831550598145 179.031494140625 13.06105995178223 179.0200347900391 13.05523586273193 179.0108337402344 C 13.05379581451416 179.008544921875 13.0542459487915 179.0092620849609 13.05280590057373 179.0069885253906 C 13.04504013061523 178.9947204589844 13.03878593444824 178.9848327636719 13.03102684020996 178.9725494384766 C 13.03102684020996 178.9725494384766 13.02774333953857 178.9673614501953 13.02774333953857 178.9673614501953 C 13.02192497253418 178.9581451416016 13.01516056060791 178.9474334716797 13.00934505462646 178.938232421875 C 13.00790786743164 178.9359436035156 13.00606346130371 178.9330291748047 13.00462627410889 178.9307556152344 C 12.99106025695801 178.9092559814453 12.97576999664307 178.8849945068359 12.96222305297852 178.8634948730469 C 12.96078777313232 178.8612060546875 12.95771789550781 178.8563232421875 12.95628261566162 178.8540496826172 C 12.95047760009766 178.8448333740234 12.94634628295898 178.8382568359375 12.9405460357666 178.8290405273438 C 12.93911075592041 178.8267517089844 12.93614673614502 178.8220520019531 12.93471336364746 178.8197631835938 C 12.92021369934082 178.7967071533203 12.90649318695068 178.7748565673828 12.89201545715332 178.7517700195312 C 12.89058303833008 178.7494964599609 12.88984107971191 178.7483062744141 12.88840961456299 178.7460327148438 C 12.88261890411377 178.7368011474609 12.87594890594482 178.7261505126953 12.87016201019287 178.7169189453125 C 12.86873054504395 178.7146301269531 12.86736297607422 178.7124481201172 12.86593246459961 178.7101593017578 C 12.85243225097656 178.6886138916016 12.83655643463135 178.6632385253906 12.82307624816895 178.6416625976562 C 12.82164669036865 178.6393737792969 12.81996154785156 178.6366882324219 12.8185338973999 178.6343994140625 C 12.81275749206543 178.6251525878906 12.806640625 178.6153564453125 12.80086803436279 178.6061096191406 C 12.79944038391113 178.6038208007812 12.79820537567139 178.6018371582031 12.79677772521973 178.5995483398438 C 12.78908157348633 178.5872192382812 12.78292274475098 178.5773468017578 12.77523326873779 178.5650024414062 C 12.77523326873779 178.5650024414062 12.77458381652832 178.56396484375 12.77458381652832 178.56396484375 C 12.76785564422607 178.5531768798828 12.76094818115234 178.5420837402344 12.75422382354736 178.5312805175781 C 12.75279903411865 178.5289916992188 12.7505350112915 178.5253601074219 12.74911022186279 178.5230712890625 C 12.74334812164307 178.5138092041016 12.73802947998047 178.5052642822266 12.73227119445801 178.4960021972656 C 12.73084735870361 178.4937133789062 12.72892379760742 178.4906158447266 12.72749996185303 178.4883270263672 C 12.72078323364258 178.4775238037109 12.71285915374756 178.4647674560547 12.70614719390869 178.4539489746094 C 12.70472526550293 178.45166015625 12.70680332183838 178.4550170898438 12.7053804397583 178.4527130126953 C 12.69866847991943 178.4419097900391 12.69217395782471 178.4314422607422 12.68546676635742 178.4206237792969 C 12.68404483795166 178.4183349609375 12.68156147003174 178.4143371582031 12.68013954162598 178.4120330810547 C 12.674391746521 178.4027709960938 12.66813182830811 178.3926696777344 12.66238784790039 178.3833923339844 C 12.66238784790039 178.3833923339844 12.65908050537109 178.3780517578125 12.65908050537109 178.3780517578125 C 12.65142250061035 178.3656921386719 12.6451587677002 178.3555755615234 12.63750743865967 178.3432006835938 C 12.63608741760254 178.3409118652344 12.63684177398682 178.3421173095703 12.635422706604 178.3398284912109 C 12.62968444824219 178.3305511474609 12.62243747711182 178.3188323974609 12.61670303344727 178.3095397949219 C 12.61386585235596 178.3049468994141 12.61425590515137 178.3055877685547 12.61142063140869 178.3009948730469 C 12.60568714141846 178.2917175292969 12.6000452041626 178.2825775146484 12.59431457519531 178.2732849121094 C 12.59289836883545 178.27099609375 12.59149360656738 178.2687225341797 12.59007740020752 178.2664184570312 C 12.58243846893311 178.2540435791016 12.57645130157471 178.2443237304688 12.56881809234619 178.2319488525391 C 12.56881809234619 178.2319488525391 12.56668090820312 178.2284698486328 12.56668090820312 178.2284698486328 C 12.56095695495605 178.2191772460938 12.55371570587158 178.2074279785156 12.54799556732178 178.1981353759766 C 12.54658031463623 178.1958312988281 12.5443696975708 178.1922302246094 12.54295539855957 178.18994140625 C 12.53723621368408 178.1806488037109 12.5298376083374 178.1686096191406 12.52412223815918 178.1593170166016 C 12.52270889282227 178.1570129394531 12.52347087860107 178.1582641601562 12.52205753326416 178.1559600830078 C 12.51443767547607 178.1435546875 12.50858592987061 178.134033203125 12.50097179412842 178.1216278076172 C 12.49956035614014 178.1193237304688 12.49780750274658 178.1164703369141 12.4963960647583 178.1141815185547 C 12.49068641662598 178.1048736572266 12.48552227020264 178.0964508056641 12.47981643676758 178.0871429443359 C 12.4784049987793 178.0848388671875 12.47599506378174 178.0809173583984 12.47458457946777 178.07861328125 C 12.46792888641357 178.0677490234375 12.46161460876465 178.0574493408203 12.45496368408203 178.0465850830078 C 12.45355319976807 178.0442810058594 12.45520496368408 178.0469818115234 12.45379543304443 178.044677734375 C 12.44619464874268 178.0322723388672 12.43996334075928 178.0220794677734 12.43236827850342 178.0096588134766 C 12.43095970153809 178.0073547363281 12.43009090423584 178.0059356689453 12.42868232727051 178.0036315917969 C 12.42298698425293 177.9943237304688 12.4173526763916 177.985107421875 12.41166114807129 177.9757843017578 C 12.41025352478027 177.9734802246094 12.40762805938721 177.9691772460938 12.40622138977051 177.9668731689453 C 12.39958190917969 177.9560089111328 12.39286136627197 177.9449920654297 12.38622760772705 177.9341125488281 C 12.38622760772705 177.9341125488281 12.38559246063232 177.9330749511719 12.38559246063232 177.9330749511719 C 12.37895774841309 177.9221954345703 12.37104988098145 177.9092254638672 12.36442089080811 177.8983459472656 C 12.36301517486572 177.8960418701172 12.36179542541504 177.8940277099609 12.36039066314697 177.8917236328125 C 12.35470962524414 177.8824005126953 12.34828186035156 177.8718414306641 12.342604637146 177.8625183105469 C 12.34120082855225 177.8601989746094 12.34022426605225 177.8585968017578 12.3388204574585 177.8562927246094 C 12.32557487487793 177.8345184326172 12.30984497070312 177.8086242675781 12.2966194152832 177.7868347167969 C 12.29521751403809 177.7845306396484 12.29331207275391 177.7813873291016 12.29191017150879 177.7790832519531 C 12.2862434387207 177.7697448730469 12.28139400482178 177.7617340087891 12.27573108673096 177.7523956298828 C 12.27433013916016 177.7500915527344 12.27171230316162 177.7457733154297 12.27031135559082 177.7434539794922 C 12.26370620727539 177.7325592041016 12.25649738311768 177.7206573486328 12.24989604949951 177.7097473144531 C 12.24849700927734 177.7074432373047 12.24915313720703 177.7085266113281 12.24775409698486 177.7062072753906 C 12.24209690093994 177.6968688964844 12.23575115203857 177.6863708496094 12.23009777069092 177.6770172119141 C 12.2273006439209 177.6723937988281 12.22530937194824 177.6690979003906 12.22251415252686 177.6644744873047 C 12.21874618530273 177.6582336425781 12.2124547958374 177.6478271484375 12.2086877822876 177.6415863037109 C 12.20729160308838 177.6392822265625 12.20388603210449 177.6336364746094 12.20248889923096 177.6313171386719 C 12.19589996337891 177.6204071044922 12.18915176391602 177.6092224121094 12.18256759643555 177.5982971191406 C 12.18117141723633 177.5959930419922 12.18014907836914 177.5942993164062 12.17875385284424 177.5919799804688 C 12.17311096191406 177.5826110839844 12.16760635375977 177.573486328125 12.16196727752686 177.5641174316406 C 12.15917778015137 177.5594940185547 12.15847587585449 177.5583190917969 12.15568828582764 177.5536956787109 C 12.1509895324707 177.5458831787109 12.14560699462891 177.5369415283203 12.14091110229492 177.5291290283203 C 12.13812446594238 177.5245056152344 12.13776397705078 177.5239105224609 12.13497734069824 177.5192718505859 C 12.12840557098389 177.5083465576172 12.12175178527832 177.4972686767578 12.11518383026123 177.4863433837891 C 12.11379241943359 177.4840240478516 12.11210918426514 177.4812164306641 12.1107177734375 177.4788970947266 C 12.10508918762207 177.4695281982422 12.10047340393066 177.4618377685547 12.09484767913818 177.4524688720703 C 12.09206581115723 177.4478302001953 12.09087562561035 177.4458465576172 12.08809471130371 177.4412078857422 C 12.08247089385986 177.4318237304688 12.07809829711914 177.4245300292969 12.07247734069824 177.4151611328125 C 12.07108783721924 177.412841796875 12.0694751739502 177.4101409912109 12.06808567047119 177.4078216552734 C 12.06153011322021 177.3968811035156 12.05465030670166 177.3853912353516 12.04809856414795 177.3744506835938 C 12.04532146453857 177.3697967529297 12.04574966430664 177.3705139160156 12.04297351837158 177.3658752441406 C 12.0373592376709 177.3564910888672 12.03261947631836 177.3485565185547 12.02700805664062 177.3391723632812 C 12.02423286437988 177.3345336914062 12.0242977142334 177.3346405029297 12.02152347564697 177.3300018310547 C 12.01591396331787 177.3206024169922 12.01061916351318 177.3117370605469 12.00501251220703 177.3023529052734 C 12.00362682342529 177.3000335693359 12.00222969055176 177.2976837158203 12.00084400177002 177.2953643798828 C 11.99430465698242 177.2844085693359 11.98766613006592 177.2732696533203 11.9811315536499 177.2623138427734 C 11.97836112976074 177.2576599121094 11.9778881072998 177.2568664550781 11.97511863708496 177.2522277832031 C 11.97138595581055 177.2459564208984 11.96492481231689 177.235107421875 11.96119403839111 177.2288513183594 C 11.95842552185059 177.2241973876953 11.95607662200928 177.2202453613281 11.95330905914307 177.2156066894531 C 11.94864654541016 177.207763671875 11.94427490234375 177.2004241943359 11.93961524963379 177.1925811767578 C 11.93684864044189 177.1879272460938 11.93626689910889 177.1869506835938 11.93350219726562 177.1822967529297 C 11.92697906494141 177.1713256835938 11.92129039764404 177.1617584228516 11.91477203369141 177.1507720947266 C 11.91200923919678 177.1461181640625 11.91007328033447 177.1428527832031 11.90731048583984 177.1382141113281 C 11.90358734130859 177.1319274902344 11.8981351852417 177.1227416992188 11.89441299438477 177.1164703369141 C 11.89165210723877 177.11181640625 11.88932514190674 177.1078948974609 11.88656520843506 177.1032409667969 C 11.88191413879395 177.0953979492188 11.87736225128174 177.0877075195312 11.87271404266357 177.0798645019531 C 11.86995506286621 177.0752105712891 11.86683082580566 177.0699310302734 11.86407279968262 177.0652770996094 C 11.85849761962891 177.0558471679688 11.85356140136719 177.0475158691406 11.84798908233643 177.0381011962891 C 11.84661102294922 177.0357666015625 11.84219741821289 177.0283050537109 11.84081935882568 177.0259704589844 C 11.8371057510376 177.0196838378906 11.83108901977539 177.0095062255859 11.82737636566162 177.0032196044922 C 11.82600021362305 177.0009002685547 11.82167720794678 176.9935760498047 11.8203010559082 176.9912414550781 C 11.81473445892334 176.9818267822266 11.80799198150635 176.9703979492188 11.80242919921875 176.9609680175781 C 11.80105400085449 176.9586334228516 11.79958724975586 176.9561614990234 11.7982120513916 176.9538269042969 C 11.79265022277832 176.9443969726562 11.78683471679688 176.9345245361328 11.78127670288086 176.9250946044922 C 11.77990245819092 176.9227600097656 11.77602386474609 176.9161834716797 11.77464962005615 176.9138488769531 C 11.76909255981445 176.9044036865234 11.76555633544922 176.8984069824219 11.76000308990479 176.8889617919922 C 11.75862979888916 176.8866271972656 11.7555627822876 176.8814239501953 11.75418949127197 176.8790893554688 C 11.74771213531494 176.8680725097656 11.74124240875244 176.8570709228516 11.73476982116699 176.8460693359375 C 11.73339748382568 176.8437347412109 11.73198795318604 176.8413238525391 11.73061561584473 176.8389892578125 C 11.72506904602051 176.8295440673828 11.72061252593994 176.8219604492188 11.71506881713867 176.8125152587891 C 11.712327003479 176.8078460693359 11.7104024887085 176.8045654296875 11.70766162872314 176.7998962402344 C 11.70396709442139 176.7935943603516 11.69866371154785 176.7845458984375 11.69497108459473 176.7782592773438 C 11.69223117828369 176.7735748291016 11.68999767303467 176.769775390625 11.68725872039795 176.7650909423828 C 11.6807975769043 176.7540740966797 11.67491245269775 176.7440338134766 11.66845703125 176.7330017089844 C 11.66708850860596 176.7306671142578 11.66539573669434 176.7277679443359 11.66402721405029 176.7254333496094 C 11.65849494934082 176.7159729003906 11.65440654754639 176.708984375 11.64887809753418 176.6995239257812 C 11.64614295959473 176.6948547363281 11.64440059661865 176.6918640136719 11.64166641235352 176.6871948242188 C 11.63706016540527 176.6793060302734 11.63242530822754 176.6713714599609 11.62782192230225 176.6634979248047 C 11.62508869171143 176.6588134765625 11.62423896789551 176.6573638916016 11.62150764465332 176.6526794433594 C 11.6159839630127 176.6432189941406 11.60853385925293 176.6304473876953 11.60301399230957 176.6209869384766 C 11.60028457641602 176.6163024902344 11.59841823577881 176.6130981445312 11.59568977355957 176.6084136962891 C 11.59109115600586 176.6005249023438 11.58771324157715 176.5947265625 11.58311748504639 176.5868377685547 C 11.58038997650146 176.5821533203125 11.57803821563721 176.578125 11.5753116607666 176.5734405517578 C 11.57071685791016 176.5655517578125 11.56765174865723 176.5602722167969 11.56305980682373 176.5523834228516 C 11.56033420562744 176.5476989746094 11.55773544311523 176.5432281494141 11.55501079559326 176.5385437011719 C 11.5495023727417 176.5290679931641 11.54270648956299 176.5173797607422 11.53720092773438 176.5079040527344 C 11.53447818756104 176.5032196044922 11.53187561035156 176.4987335205078 11.52915382385254 176.4940490722656 C 11.52548503875732 176.4877319335938 11.52175140380859 176.4812927246094 11.51808452606201 176.4749755859375 C 11.5153636932373 176.4702758789062 11.51168155670166 176.4639282226562 11.50896167755127 176.4592437744141 C 11.505295753479 176.4529266357422 11.49967098236084 176.4432220458984 11.49600696563721 176.4368896484375 C 11.49328804016113 176.4322052001953 11.49258518218994 176.4309997558594 11.48986721038818 176.4263000488281 C 11.4834566116333 176.4152374267578 11.47786808013916 176.4055786132812 11.47146129608154 176.3945007324219 C 11.46874618530273 176.3898162841797 11.46673774719238 176.3863372802734 11.46402263641357 176.3816528320312 C 11.45944881439209 176.3737335205078 11.45578289031982 176.3674011230469 11.45121097564697 176.3594818115234 C 11.4484977722168 176.3547973632812 11.44683837890625 176.3519134521484 11.44412612915039 176.3472290039062 C 11.43955516815186 176.3393096923828 11.43507099151611 176.33154296875 11.43050289154053 176.3236389160156 C 11.42779159545898 176.3189392089844 11.42570877075195 176.3153228759766 11.42299842834473 176.3106231689453 C 11.41751861572266 176.3011322021484 11.4110279083252 176.2898712158203 11.40555191040039 176.2803802490234 C 11.40419769287109 176.2780303955078 11.40007019042969 176.2708587646484 11.39871597290039 176.2685089111328 C 11.3950662612915 176.2621765136719 11.38962554931641 176.2527313232422 11.38597774505615 176.2463836669922 C 11.38327121734619 176.2416839599609 11.38134670257568 176.2383422851562 11.37864112854004 176.233642578125 C 11.37317085266113 176.2241363525391 11.36879920959473 176.2165374755859 11.36333274841309 176.20703125 C 11.36062908172607 176.2023315429688 11.35952091217041 176.2003936767578 11.3568172454834 176.1956939697266 C 11.35135173797607 176.1861877441406 11.34611225128174 176.1770629882812 11.34065055847168 176.1675415039062 C 11.33929920196533 176.1651916503906 11.33419418334961 176.1562957763672 11.33284378051758 176.1539459228516 C 11.32920360565186 176.1475982666016 11.32373428344727 176.1380615234375 11.32009601593018 176.1317291259766 C 11.31874656677246 176.1293640136719 11.31494808197021 176.1227416992188 11.3135986328125 176.1203918457031 C 11.3072338104248 176.1092834472656 11.30133438110352 176.0989990234375 11.2949743270874 176.0878753662109 C 11.293625831604 176.0855255126953 11.29343414306641 176.0851898193359 11.29208660125732 176.0828399658203 C 11.28663539886475 176.0733184814453 11.28029823303223 176.0622406005859 11.27485084533691 176.0527191162109 C 11.27350330352783 176.0503540039062 11.269775390625 176.0438385009766 11.26842880249023 176.0414733886719 C 11.26298236846924 176.0319519042969 11.2598876953125 176.0265350341797 11.25444507598877 176.0170135498047 C 11.253098487854 176.0146484375 11.24998950958252 176.0092010498047 11.24864387512207 176.0068511962891 C 11.24229526519775 175.9957275390625 11.23532867431641 175.9835205078125 11.22898483276367 175.9723968505859 C 11.22898483276367 175.9723968505859 11.22771167755127 175.9701690673828 11.22771167755127 175.9701690673828 C 11.22136783599854 175.9590454101562 11.21604537963867 175.94970703125 11.20970726013184 175.9385681152344 C 11.2070198059082 175.9338531494141 11.20598125457764 175.9320373535156 11.20329570770264 175.9273071289062 C 11.19876861572266 175.9193725585938 11.19400787353516 175.9109954833984 11.18948459625244 175.9030456542969 C 11.18814182281494 175.9006958007812 11.18476963043213 175.8947601318359 11.18342685699463 175.8923950195312 C 11.17800045013428 175.8828582763672 11.17044925689697 175.8695678710938 11.16502571105957 175.8600311279297 C 11.16234397888184 175.8553009033203 11.16098213195801 175.8529052734375 11.15830135345459 175.8481903076172 C 11.15378379821777 175.8402252197266 11.14996337890625 175.83349609375 11.14544773101807 175.8255462646484 C 11.14276790618896 175.8208160400391 11.14056968688965 175.8169403076172 11.13788986206055 175.8122253417969 C 11.133376121521 175.8042602539062 11.12930107116699 175.7970733642578 11.12478923797607 175.7891082763672 C 11.12211132049561 175.7843933105469 11.12135887145996 175.7830657958984 11.11868190765381 175.7783355712891 C 11.11236763000488 175.7671813964844 11.10621547698975 175.7563171386719 11.0999059677124 175.7451782226562 C 11.09723091125488 175.7404479980469 11.09688854217529 175.7398376464844 11.09421443939209 175.735107421875 C 11.09061050415039 175.7287292480469 11.08469009399414 175.71826171875 11.08108711242676 175.7118988037109 C 11.07841396331787 175.7071685791016 11.07542133331299 175.7018737792969 11.07274913787842 175.6971435546875 C 11.06914806365967 175.6907653808594 11.06331157684326 175.680419921875 11.05971145629883 175.6740417480469 C 11.05704116821289 175.6693115234375 11.05690002441406 175.6690673828125 11.05423069000244 175.6643371582031 C 11.04793262481689 175.6531829833984 11.04187393188477 175.6424407958984 11.0355806350708 175.6312713623047 C 11.03291320800781 175.6265411376953 11.03169727325439 175.6243743896484 11.02902984619141 175.6196441650391 C 11.0245361328125 175.6116638183594 11.02069664001465 175.6048431396484 11.01620483398438 175.5968780517578 C 11.01353931427002 175.5921325683594 11.01118946075439 175.5879669189453 11.00852394104004 175.5832214355469 C 11.0040340423584 175.5752410888672 11.00016021728516 175.568359375 10.99567317962646 175.5603790283203 C 10.99300956726074 175.5556335449219 10.99218273162842 175.5541687011719 10.98952007293701 175.5494384765625 C 10.98323917388916 175.5382537841797 10.9772367477417 175.5275726318359 10.97096061706543 175.5163879394531 C 10.96829986572266 175.5116577148438 10.96752643585205 175.5102691650391 10.96486663818359 175.5055389404297 C 10.96128082275391 175.4991455078125 10.9556999206543 175.4891967773438 10.95211601257324 175.4828033447266 C 10.9494571685791 175.4780731201172 10.94673347473145 175.4732055664062 10.94407558441162 175.4684600830078 C 10.93870162963867 175.4588775634766 10.93538284301758 175.4529571533203 10.93001270294189 175.443359375 C 10.92868518829346 175.4409942626953 10.92677307128906 175.4375762939453 10.92544460296631 175.4352111816406 C 10.91918087005615 175.4240264892578 10.91368770599365 175.4141998291016 10.90742778778076 175.4029998779297 C 10.90477466583252 175.3982696533203 10.90191268920898 175.3931427001953 10.89925956726074 175.3883972167969 C 10.89568424224854 175.3820037841797 10.89176940917969 175.3749847412109 10.8881950378418 175.3685913085938 C 10.88554382324219 175.3638458251953 10.88253498077393 175.3584594726562 10.87988471984863 175.3537139892578 C 10.8754186630249 175.3457183837891 10.87086582183838 175.3375549316406 10.8664026260376 175.3295593261719 C 10.86375427246094 175.3247985839844 10.86111736297607 175.3200836181641 10.85846996307373 175.3153228759766 C 10.85311603546143 175.3057250976562 10.8490047454834 175.2983551025391 10.84365463256836 175.2887420654297 C 10.83968448638916 175.2816162109375 10.83876132965088 175.2799530029297 10.83479309082031 175.2728271484375 C 10.83122730255127 175.2664184570312 10.82857036590576 175.2616577148438 10.82500648498535 175.2552490234375 C 10.82104015350342 175.2481231689453 10.81938457489014 175.2451477050781 10.81542015075684 175.2380065917969 C 10.8109655380249 175.2299957275391 10.80736446380615 175.2235260009766 10.80291271209717 175.2155151367188 C 10.7989501953125 175.2083740234375 10.7953987121582 175.2019805908203 10.79143810272217 175.1948547363281 C 10.78698825836182 175.1868438720703 10.78473663330078 175.1827850341797 10.78028964996338 175.1747589111328 C 10.77632999420166 175.1676330566406 10.77475929260254 175.164794921875 10.77080154418945 175.1576538085938 C 10.76724529266357 175.1512451171875 10.76403141021729 175.1454467773438 10.76047611236572 175.1390380859375 C 10.75652027130127 175.1318969726562 10.75622463226318 175.1313629150391 10.75227165222168 175.1242218017578 C 10.74605274200439 175.1129913330078 10.74060153961182 175.1031494140625 10.73438835144043 175.0919189453125 C 10.73307132720947 175.0895385742188 10.73138427734375 175.0864868164062 10.73006725311279 175.0841064453125 C 10.72474193572998 175.0744781494141 10.72084712982178 175.0674285888672 10.71552562713623 175.0578002929688 C 10.71289348602295 175.0530395507812 10.71090888977051 175.0494537353516 10.70827770233154 175.0446929931641 C 10.70473098754883 175.0382690429688 10.69965839385986 175.0290832519531 10.69611358642578 175.0226593017578 C 10.69348335266113 175.0178833007812 10.69137573242188 175.0140686035156 10.68874740600586 175.0093078613281 C 10.68254566192627 174.9980621337891 10.67696952819824 174.9879608154297 10.67077350616455 174.9767150878906 C 10.66814613342285 174.9719390869141 10.66815853118896 174.9719696044922 10.66553211212158 174.9671936035156 C 10.66199207305908 174.9607696533203 10.65624904632568 174.9503479003906 10.65271091461182 174.9439086914062 C 10.65008640289307 174.9391479492188 10.64658451080322 174.9327850341797 10.64396095275879 174.9280090332031 C 10.64042472839355 174.9215850830078 10.6362886428833 174.9140625 10.63275337219238 174.9076385498047 C 10.63013076782227 174.9028625488281 10.62810516357422 174.8991851806641 10.62548351287842 174.8944091796875 C 10.62018299102783 174.884765625 10.61287498474121 174.8714599609375 10.60757827758789 174.8618011474609 C 10.60495853424072 174.8570404052734 10.60390663146973 174.8551177978516 10.60128784179688 174.850341796875 C 10.59775733947754 174.8439025878906 10.59261322021484 174.8345336914062 10.58908462524414 174.8280944824219 C 10.58646678924561 174.8233184814453 10.5836238861084 174.8181304931641 10.58100700378418 174.8133544921875 C 10.57748031616211 174.8069152832031 10.57342910766602 174.7995300292969 10.56990432739258 174.7930908203125 C 10.56728839874268 174.7883148193359 10.56437492370605 174.7829895019531 10.56176090240479 174.7782135009766 C 10.55647468566895 174.7685546875 10.54993724822998 174.7566070556641 10.54465484619141 174.7469482421875 C 10.54204177856445 174.7421569824219 10.54006290435791 174.7385406494141 10.53745174407959 174.7337646484375 C 10.53393077850342 174.7273254394531 10.52949047088623 174.7191925048828 10.52597236633301 174.7127532958984 C 10.52336120605469 174.7079620361328 10.52040767669678 174.7025604248047 10.51779842376709 174.6977844238281 C 10.51340103149414 174.6897277832031 10.5103874206543 174.6842041015625 10.5059928894043 174.6761322021484 C 10.50338554382324 174.6713562011719 10.50162792205811 174.6681365966797 10.49902057647705 174.6633605957031 C 10.49374961853027 174.6536865234375 10.48707008361816 174.6414337158203 10.48180198669434 174.6317596435547 C 10.47919654846191 174.6269683837891 10.47622585296631 174.6215057373047 10.47362041473389 174.6167297363281 C 10.4701099395752 174.6102752685547 10.46682167053223 174.6042327880859 10.46331214904785 174.5977783203125 C 10.46070957183838 174.5929870605469 10.45723247528076 174.5865936279297 10.45463085174561 174.5818176269531 C 10.45112228393555 174.5753631591797 10.44746112823486 174.5686187744141 10.44395446777344 174.5621643066406 C 10.44005298614502 174.5549774169922 10.4363842010498 174.5482330322266 10.43248462677002 174.5410461425781 C 10.42810440063477 174.5329742431641 10.42314910888672 174.5238494873047 10.41877174377441 174.5157775878906 C 10.41487407684326 174.5085906982422 10.41481781005859 174.5084838867188 10.41092205047607 174.5012969970703 C 10.40742111206055 174.4948425292969 10.40424060821533 174.4889678955078 10.40074062347412 174.4825134277344 C 10.39814472198486 174.4777221679688 10.39434337615967 174.470703125 10.39174842834473 174.4658966064453 C 10.38737487792969 174.4578247070312 10.38397979736328 174.4515533447266 10.37961006164551 174.4434814453125 C 10.37701606750488 174.4386749267578 10.3733081817627 174.4318237304688 10.3707160949707 174.4270324707031 C 10.36547374725342 174.4173431396484 10.36126613616943 174.4095611572266 10.35602760314941 174.3998565673828 C 10.35343742370605 174.3950653076172 10.35118389129639 174.3908843994141 10.34859371185303 174.3860931396484 C 10.34510326385498 174.3796234130859 10.34079933166504 174.3716583251953 10.33730983734131 174.3651885986328 C 10.33472061157227 174.3603820800781 10.33212280273438 174.3555755615234 10.32953548431396 174.3507690429688 C 10.32517433166504 174.3426818847656 10.32183170318604 174.3364868164062 10.31747436523438 174.3283996582031 C 10.31359481811523 174.3211975097656 10.30911731719971 174.3128814697266 10.3052396774292 174.3056793212891 C 10.30088424682617 174.2975921630859 10.29822254180908 174.2926483154297 10.29386901855469 174.2845611572266 C 10.29128551483154 174.2797546386719 10.28806781768799 174.2737731933594 10.28548526763916 174.2689819335938 C 10.28200435638428 174.2624969482422 10.27880954742432 174.2565612792969 10.27532958984375 174.2500915527344 C 10.27145671844482 174.2428741455078 10.27089786529541 174.2418365478516 10.26702785491943 174.2346343994141 C 10.26180934906006 174.2249145507812 10.25728893280029 174.2164916992188 10.2520751953125 174.206787109375 C 10.24820613861084 174.1995697021484 10.24759101867676 174.1984252929688 10.24372482299805 174.1912078857422 C 10.23938083648682 174.1831207275391 10.23574161529541 174.1763305664062 10.23140048980713 174.1682281494141 C 10.2288236618042 174.1634216308594 10.22576808929443 174.15771484375 10.22319221496582 174.1529083251953 C 10.2197208404541 174.1464233398438 10.21621990203857 174.139892578125 10.21274948120117 174.1334075927734 C 10.21017551422119 174.1285858154297 10.20743656158447 174.1234741210938 10.20486354827881 174.1186676025391 C 10.20052719116211 174.1105651855469 10.19470024108887 174.0996704101562 10.19036674499512 174.091552734375 C 10.18650913238525 174.0843353271484 10.18347835540771 174.0786590576172 10.17962265014648 174.0714416503906 C 10.17702484130859 174.0665740966797 10.17245864868164 174.0580291748047 10.16986083984375 174.0531616210938 C 10.16729164123535 174.0483551025391 10.16271781921387 174.0397796630859 10.16014957427979 174.0349578857422 C 10.15755271911621 174.0300903320312 10.15515041351318 174.0255889892578 10.15255546569824 174.0207214355469 C 10.14870357513428 174.0135040283203 10.14590835571289 174.0082550048828 10.14205932617188 174.0010375976562 C 10.13687038421631 173.9912872314453 10.13158893585205 173.9813690185547 10.12640380859375 173.9716339111328 C 10.12384033203125 173.9668121337891 10.12028026580811 173.9601287841797 10.11771678924561 173.9553070068359 C 10.11426162719727 173.9488067626953 10.1110954284668 173.9428558349609 10.10764122009277 173.9363555908203 C 10.10507965087891 173.9315338134766 10.10137462615967 173.9245758056641 10.0988130569458 173.9197540283203 C 10.09536170959473 173.9132537841797 10.09248161315918 173.9078369140625 10.08903121948242 173.9013366699219 C 10.08647155761719 173.8965148925781 10.08329772949219 173.8905334472656 10.08073902130127 173.8857116699219 C 10.07556533813477 173.8759613037109 10.06976413726807 173.8650207519531 10.06459331512451 173.8552703857422 C 10.06203651428223 173.8504486083984 10.05829811096191 173.8433837890625 10.05574226379395 173.8385620117188 C 10.05229663848877 173.8320617675781 10.04923152923584 173.8262786865234 10.04578685760498 173.8197784423828 C 10.04323196411133 173.81494140625 10.0396203994751 173.8081207275391 10.03706645965576 173.8032989501953 C 10.03448486328125 173.7984161376953 10.02997398376465 173.7898864746094 10.02739334106445 173.7850036621094 C 10.02484035491943 173.7801818847656 10.02097415924072 173.7728729248047 10.01842308044434 173.7680511474609 C 10.01326370239258 173.7582855224609 10.00783348083496 173.7480010986328 10.00267791748047 173.7382354736328 C 10.00012874603271 173.7334136962891 9.997002601623535 173.7274780273438 9.994453430175781 173.72265625 C 9.991018295288086 173.7161407470703 9.987773895263672 173.7099914550781 9.984339714050293 173.7034759521484 C 9.981792449951172 173.6986541748047 9.977693557739258 173.6908721923828 9.975147247314453 173.6860504150391 C 9.972572326660156 173.68115234375 9.968718528747559 173.6738433837891 9.966144561767578 173.6689605712891 C 9.962327003479004 173.6617126464844 9.956445693969727 173.6505432128906 9.952630043029785 173.6432800292969 C 9.948343276977539 173.6351470947266 9.945768356323242 173.6302490234375 9.941484451293945 173.6221008300781 C 9.937670707702637 173.6148529052734 9.936226844787598 173.6120910644531 9.932414054870605 173.6048431396484 C 9.928988456726074 173.5983276367188 9.926302909851074 173.5932159423828 9.922878265380859 173.5867004394531 C 9.9190673828125 173.5794372558594 9.91779613494873 173.5770111083984 9.91398811340332 173.5697631835938 C 9.910564422607422 173.5632476806641 9.907928466796875 173.5582122802734 9.904507637023926 173.5516967773438 C 9.899431228637695 173.5420074462891 9.895299911499023 173.5341339111328 9.890227317810059 173.5244598388672 C 9.886808395385742 173.5179290771484 9.88335132598877 173.5113372802734 9.879934310913086 173.5048065185547 C 9.876131057739258 173.4975433349609 9.875357627868652 173.4960632324219 9.871556282043457 173.4888000488281 C 9.86814022064209 173.4822845458984 9.86488151550293 173.4760589599609 9.861467361450195 173.4695281982422 C 9.857666969299316 173.4622650146484 9.856457710266113 173.4599456787109 9.852660179138184 173.4526824951172 C 9.849246978759766 173.4461517333984 9.846225738525391 173.4403686523438 9.842813491821289 173.433837890625 C 9.837751388549805 173.4241485595703 9.833016395568848 173.4150848388672 9.827958106994629 173.4053955078125 C 9.825401306152344 173.4004974365234 9.821866989135742 173.3937225341797 9.819311141967773 173.3888244628906 C 9.815518379211426 173.3815460205078 9.813478469848633 173.3776397705078 9.809688568115234 173.370361328125 C 9.806282043457031 173.3638305664062 9.804104804992676 173.3596496582031 9.800700187683105 173.3531188964844 C 9.796911239624023 173.3458404541016 9.795455932617188 173.3430480957031 9.791668891906738 173.3357849121094 C 9.788266181945801 173.3292388916016 9.784632682800293 173.3222503662109 9.781230926513672 173.3157196044922 C 9.77618408203125 173.3060150146484 9.772037506103516 173.2980499267578 9.766993522644043 173.2883453369141 C 9.764444351196289 173.2834320068359 9.760595321655273 173.2760314941406 9.75804615020752 173.2711181640625 C 9.755525588989258 173.2662658691406 9.751883506774902 173.2592620849609 9.749363899230957 173.2544097900391 C 9.745966911315918 173.2478637695312 9.742744445800781 173.2416534423828 9.739350318908691 173.235107421875 C 9.736831665039062 173.2302551269531 9.733322143554688 173.2234954833984 9.730805397033691 173.2186431884766 C 9.725714683532715 173.2088165283203 9.719874382019043 173.1975555419922 9.714787483215332 173.1877288818359 C 9.712272644042969 173.1828765869141 9.709759712219238 173.1780242919922 9.707244873046875 173.1731567382812 C 9.703855514526367 173.1666107177734 9.700406074523926 173.1599426269531 9.697017669677734 173.1533966064453 C 9.694503784179688 173.1485443115234 9.69117546081543 173.1421051025391 9.688662528991699 173.1372528076172 C 9.685276031494141 173.1306915283203 9.681497573852539 173.1233825683594 9.678112030029297 173.1168365478516 C 9.675601005554199 173.1119689941406 9.672826766967773 173.1065979003906 9.670316696166992 173.1017456054688 C 9.665241241455078 173.0919189453125 9.659469604492188 173.0807342529297 9.654397964477539 173.0709075927734 C 9.651888847351074 173.0660400390625 9.647910118103027 173.0583190917969 9.645402908325195 173.0534515380859 C 9.642868041992188 173.0485382080078 9.639212608337402 173.0414428710938 9.636678695678711 173.0365295410156 C 9.634172439575195 173.0316619873047 9.630419731140137 173.0243835449219 9.627915382385254 173.0195159912109 C 9.624538421630859 173.0129547119141 9.621243476867676 173.0065612792969 9.617868423461914 173 C 9.615365028381348 172.9951324462891 9.612164497375488 172.9889221191406 9.609662055969238 172.9840545654297 C 9.60460090637207 172.9742126464844 9.598943710327148 172.9631958007812 9.593886375427246 172.9533538818359 C 9.590134620666504 172.9460601806641 9.588582038879395 172.9430236816406 9.584832191467285 172.9357299804688 C 9.582304954528809 172.9308013916016 9.579116821289062 172.9245910644531 9.576590538024902 172.919677734375 C 9.574091911315918 172.914794921875 9.569540977478027 172.9059295654297 9.567043304443359 172.9010620117188 C 9.564517974853516 172.8961334228516 9.560748100280762 172.8887786865234 9.558223724365234 172.8838500976562 C 9.554478645324707 172.8765411376953 9.547732353210449 172.8633728027344 9.543989181518555 172.8560638427734 C 9.540626525878906 172.8495025634766 9.537135124206543 172.8426818847656 9.533774375915527 172.8361206054688 C 9.530033111572266 172.8287963867188 9.528256416320801 172.8253326416016 9.524518013000488 172.8180084228516 C 9.521997451782227 172.8130798339844 9.518580436706543 172.806396484375 9.516060829162598 172.8014678955078 C 9.513568878173828 172.7966003417969 9.509540557861328 172.7887115478516 9.507050514221191 172.7838287353516 C 9.503692626953125 172.7772674560547 9.501726150512695 172.7734069824219 9.498370170593262 172.7668304443359 C 9.493391036987305 172.757080078125 9.486706733703613 172.7439727783203 9.481731414794922 172.7342224121094 C 9.479216575622559 172.7292785644531 9.476156234741211 172.7232818603516 9.473642349243164 172.7183532714844 C 9.469912528991699 172.7110290527344 9.468253135681152 172.707763671875 9.46452522277832 172.7004547119141 C 9.461174964904785 172.6938629150391 9.459348678588867 172.6902770996094 9.456000328063965 172.6837005615234 C 9.45351505279541 172.6788177490234 9.449402809143066 172.6707305908203 9.446919441223145 172.6658630371094 C 9.443571090698242 172.6592712402344 9.441082000732422 172.6543731689453 9.437736511230469 172.6477966308594 C 9.432771682739258 172.6380310058594 9.427306175231934 172.6272735595703 9.422345161437988 172.6174926757812 C 9.419001579284668 172.6109161376953 9.41721248626709 172.6073913574219 9.413870811462402 172.6007995605469 C 9.410151481628418 172.5934753417969 9.408056259155273 172.5893402099609 9.404338836669922 172.5820159912109 C 9.400999069213867 172.5754241943359 9.399283409118652 172.5720520019531 9.395943641662598 172.5654602050781 C 9.392228126525879 172.5581207275391 9.391033172607422 172.5557708740234 9.387319564819336 172.5484313964844 C 9.383981704711914 172.5418548583984 9.379852294921875 172.53369140625 9.376516342163086 172.527099609375 C 9.371565818786621 172.5173187255859 9.368410110473633 172.5110778808594 9.36346435546875 172.5012969970703 C 9.360130310058594 172.4947052001953 9.357118606567383 172.4887542724609 9.353786468505859 172.4821624755859 C 9.351314544677734 172.4772644042969 9.347141265869141 172.4690093994141 9.344670295715332 172.464111328125 C 9.342172622680664 172.4591674804688 9.339061737060547 172.4530029296875 9.336564064025879 172.4480590820312 C 9.332859992980957 172.4407196044922 9.331161499023438 172.4373626708984 9.327458381652832 172.4300231933594 C 9.323298454284668 172.4217681884766 9.319297790527344 172.4138336181641 9.315140724182129 172.4055786132812 C 9.311439514160156 172.3982391357422 9.308277130126953 172.3919677734375 9.30457878112793 172.3846282958984 C 9.300423622131348 172.3763732910156 9.297882080078125 172.3713226318359 9.293729782104492 172.3630676269531 C 9.291265487670898 172.3581695556641 9.288596153259277 172.3528747558594 9.2861328125 172.3479766845703 C 9.282812118530273 172.3413696289062 9.278585433959961 172.3329620361328 9.275265693664551 172.3263549804688 C 9.272804260253906 172.3214569091797 9.270939826965332 172.3177642822266 9.268478393554688 172.3128509521484 C 9.264330863952637 172.3045959472656 9.258609771728516 172.293212890625 9.254465103149414 172.2849426269531 C 9.250775337219238 172.2776031494141 9.247673988342285 172.2714080810547 9.243986129760742 172.2640533447266 C 9.241500854492188 172.2591094970703 9.237210273742676 172.2505493164062 9.234725952148438 172.2455902099609 C 9.232268333435059 172.2406921386719 9.228449821472168 172.2330627441406 9.225994110107422 172.2281646728516 C 9.222682952880859 172.2215576171875 9.22026252746582 172.2167205810547 9.216953277587891 172.2101135253906 C 9.214498519897461 172.2052001953125 9.211185455322266 172.1985931396484 9.208730697631836 172.1936798095703 C 9.203768730163574 172.1837615966797 9.197957992553711 172.1721343994141 9.192999839782715 172.1622161865234 C 9.190547943115234 172.1573181152344 9.187060356140137 172.1503295898438 9.184609413146973 172.1454162597656 C 9.182131767272949 172.1404571533203 9.178345680236816 172.1328735351562 9.175868034362793 172.1279144287109 C 9.173418045043945 172.1230010986328 9.168787002563477 172.1137237548828 9.166337966918945 172.1088104248047 C 9.163862228393555 172.1038513183594 9.160682678222656 172.0974731445312 9.158207893371582 172.0925140380859 C 9.155759811401367 172.0876007080078 9.151921272277832 172.0798950195312 9.149474143981934 172.0749969482422 C 9.144527435302734 172.0650634765625 9.139072418212891 172.0541076660156 9.134128570556641 172.0441741943359 C 9.130461692810059 172.0368041992188 9.128668785095215 172.033203125 9.125003814697266 172.0258331298828 C 9.122532844543457 172.0208587646484 9.119291305541992 172.0143432617188 9.116822242736816 172.0093688964844 C 9.1143798828125 172.0044555664062 9.109811782836914 171.9952697753906 9.107370376586914 171.9903564453125 C 9.104901313781738 171.9853820800781 9.102210998535156 171.9799652099609 9.099743843078613 171.9749908447266 C 9.09364128112793 171.9627075195312 9.09005069732666 171.9554595947266 9.083953857421875 171.9431762695312 C 9.080666542053223 171.9365386962891 9.078605651855469 171.9323883056641 9.075320243835449 171.9257507324219 C 9.071663856506348 171.9183807373047 9.06967830657959 171.9143676757812 9.066023826599121 171.9069976806641 C 9.063560485839844 171.9020233154297 9.060465812683105 171.8957672119141 9.058003425598145 171.8907928466797 C 9.054350852966309 171.8834075927734 9.052094459533691 171.8788604736328 9.048443794250488 171.8714752197266 C 9.045982360839844 171.8665008544922 9.043501853942871 171.8614807128906 9.041042327880859 171.8565063476562 C 9.033742904663086 171.8417358398438 9.025341033935547 171.8247375488281 9.018050193786621 171.8099670410156 C 9.018050193786621 171.8099670410156 9.017505645751953 171.8088684082031 9.017505645751953 171.8088684082031 C 9.013859748840332 171.8014831542969 9.009120941162109 171.7918701171875 9.005477905273438 171.7844848632812 C 9.003840446472168 171.7811584472656 9.002389907836914 171.7782135009766 9.000752449035645 171.77490234375 C 8.997110366821289 171.7675170898438 8.992568969726562 171.75830078125 8.98892879486084 171.7509002685547 C 8.98811149597168 171.7492523193359 8.986580848693848 171.7461395263672 8.985762596130371 171.7444763183594 C 8.978484153747559 171.7296905517578 8.969243049621582 171.7109069824219 8.961972236633301 171.6961212158203 C 8.961154937744141 171.6944580078125 8.959663391113281 171.6914367675781 8.958846092224121 171.6897735595703 C 8.955211639404297 171.682373046875 8.950852394104004 171.6734924316406 8.947219848632812 171.6661071777344 C 8.945587158203125 171.6627807617188 8.943950653076172 171.6594390869141 8.942318916320801 171.6561279296875 C 8.938688278198242 171.6487274169922 8.934186935424805 171.6395568847656 8.930557250976562 171.6321563720703 C 8.929742813110352 171.6304931640625 8.928586959838867 171.6281433105469 8.92777156829834 171.6264801025391 C 8.920515060424805 171.6116790771484 8.911576271057129 171.5934295654297 8.904328346252441 171.5786285400391 C 8.90269947052002 171.5753021240234 8.902212142944336 171.5743103027344 8.90058422088623 171.5709838867188 C 8.896960258483887 171.5635833740234 8.892507553100586 171.5544738769531 8.888885498046875 171.5470733642578 C 8.887258529663086 171.5437469482422 8.885747909545898 171.5406494140625 8.884120941162109 171.5373229980469 C 8.872054100036621 171.5126495361328 8.858477592468262 171.4848327636719 8.846432685852051 171.4601287841797 C 8.844808578491211 171.4568023681641 8.843878746032715 171.4548950195312 8.842255592346191 171.4515686035156 C 8.838643074035645 171.4441528320312 8.834806442260742 171.436279296875 8.831195831298828 171.4288635253906 C 8.828762054443359 171.4238739013672 8.827858924865723 171.4220123291016 8.825427055358887 171.4170074462891 C 8.821817398071289 171.4096069335938 8.818177223205566 171.4021301269531 8.814570426940918 171.3947143554688 C 8.812949180603027 171.3913726806641 8.812577247619629 171.3906097412109 8.810956001281738 171.3872680664062 C 8.803743362426758 171.3724365234375 8.797271728515625 171.359130859375 8.790066719055176 171.3442840576172 C 8.787638664245605 171.3392791748047 8.786444664001465 171.3368225097656 8.784017562866211 171.3318328857422 C 8.780415534973145 171.3244018554688 8.776931762695312 171.3172149658203 8.773331642150879 171.3097991943359 C 8.770905494689941 171.3047943115234 8.769730567932129 171.3023681640625 8.767305374145508 171.2973785400391 C 8.755311012268066 171.2726287841797 8.743680953979492 171.2486114501953 8.731709480285645 171.2238464355469 C 8.729288101196289 171.2188415527344 8.728798866271973 171.2178344726562 8.72637939453125 171.2128143310547 C 8.721591949462891 171.2029113769531 8.72002124786377 171.1996612548828 8.715236663818359 171.1897583007812 C 8.713624000549316 171.1864166259766 8.712338447570801 171.1837463378906 8.710726737976074 171.180419921875 C 8.702356338500977 171.1630706787109 8.694014549255371 171.1457824707031 8.68565559387207 171.1284332275391 C 8.68565559387207 171.1284332275391 8.684996604919434 171.1270751953125 8.684996604919434 171.1270751953125 C 8.681413650512695 171.11962890625 8.677874565124512 171.1122894287109 8.674294471740723 171.1048431396484 C 8.671881675720215 171.0998382568359 8.671032905578613 171.0980682373047 8.668620109558105 171.0930633544922 C 8.665040969848633 171.0856170654297 8.661442756652832 171.0781402587891 8.657865524291992 171.0707092285156 C 8.656258583068848 171.0673675537109 8.654224395751953 171.0631256103516 8.652617454528809 171.0597839355469 C 8.644272804260254 171.0424346923828 8.636604309082031 171.0264587402344 8.628270149230957 171.0090942382812 C 8.627468109130859 171.0074310302734 8.628576278686523 171.0097351074219 8.627774238586426 171.008056640625 C 8.624202728271484 171.0006256103516 8.619710922241211 170.9912567138672 8.616141319274902 170.9838104248047 C 8.614538192749023 170.98046875 8.613194465637207 170.9776611328125 8.611591339111328 170.9743194580078 C 8.608022689819336 170.9668731689453 8.603901863098145 170.9582672119141 8.600336074829102 170.9508209228516 C 8.598733901977539 170.9474792480469 8.597426414489746 170.9447479248047 8.5958251953125 170.9413909912109 C 8.588693618774414 170.9264984130859 8.581366539001465 170.9111785888672 8.574243545532227 170.8962860107422 C 8.573443412780762 170.8946075439453 8.570986747741699 170.8894653320312 8.570186614990234 170.8877868652344 C 8.56662654876709 170.8803405761719 8.562572479248047 170.8718414306641 8.559014320373535 170.8643951416016 C 8.557415008544922 170.8610382080078 8.55613899230957 170.8583679199219 8.554540634155273 170.8550262451172 C 8.550983428955078 170.8475646972656 8.546245574951172 170.837646484375 8.542690277099609 170.8301849365234 C 8.541892051696777 170.8285064697266 8.541184425354004 170.8270263671875 8.540385246276855 170.8253479003906 C 8.533276557922363 170.8104400634766 8.524731636047363 170.7924957275391 8.517631530761719 170.7775726318359 C 8.516036033630371 170.7742309570312 8.514649391174316 170.7713165283203 8.513054847717285 170.7679595947266 C 8.509505271911621 170.760498046875 8.50588321685791 170.7528839111328 8.502335548400879 170.7454223632812 C 8.500741958618164 170.7420654296875 8.498566627502441 170.7374877929688 8.496973037719727 170.734130859375 C 8.493427276611328 170.7266693115234 8.489524841308594 170.7184600830078 8.485980987548828 170.7109985351562 C 8.485184669494629 170.7093200683594 8.483441352844238 170.7056427001953 8.482645034790039 170.7039642333984 C 8.475558280944824 170.6890411376953 8.468772888183594 170.6747283935547 8.46169376373291 170.6597900390625 C 8.460103988647461 170.6564483642578 8.457432746887207 170.6508026123047 8.455842971801758 170.6474456787109 C 8.452304840087891 170.6399841308594 8.449009895324707 170.6330261230469 8.445473670959473 170.6255493164062 C 8.44388484954834 170.6221923828125 8.441753387451172 170.6176910400391 8.440165519714355 170.6143341064453 C 8.436630249023438 170.6068572998047 8.432622909545898 170.598388671875 8.429089546203613 170.5909271240234 C 8.429089546203613 170.5909271240234 8.426981925964355 170.5864562988281 8.426981925964355 170.5864562988281 C 8.419917106628418 170.5715179443359 8.411357879638672 170.5533905029297 8.404301643371582 170.5384368896484 C 8.402715682983398 170.5350799560547 8.401031494140625 170.5315093994141 8.399446487426758 170.5281524658203 C 8.395918846130371 170.5206756591797 8.391873359680176 170.5120849609375 8.388347625732422 170.5046081542969 C 8.386764526367188 170.5012512207031 8.385292053222656 170.4981231689453 8.383708000183105 170.4947662353516 C 8.37196159362793 170.4698333740234 8.360727310180664 170.4459686279297 8.349002838134766 170.4210052490234 C 8.34663200378418 170.4159698486328 8.344534873962402 170.4114990234375 8.342164993286133 170.4064636230469 C 8.339820861816406 170.4014739990234 8.334532737731934 170.3901977539062 8.332189559936523 170.3852081298828 C 8.329821586608887 170.3801727294922 8.329388618469238 170.3792419433594 8.327020645141602 170.3741912841797 C 8.315310478210449 170.3492279052734 8.303918838500977 170.3249206542969 8.292231559753418 170.2999420166016 C 8.289868354797363 170.2948913574219 8.288395881652832 170.291748046875 8.286033630371094 170.2866973876953 C 8.282528877258301 170.2792053222656 8.279131889343262 170.2719421386719 8.275629043579102 170.2644348144531 C 8.274055480957031 170.2610778808594 8.272369384765625 170.2574615478516 8.270795822143555 170.2540893554688 C 8.259122848510742 170.2291107177734 8.246372222900391 170.2017669677734 8.234722137451172 170.1767730712891 C 8.233936309814453 170.1750793457031 8.231142997741699 170.1690826416016 8.230358123779297 170.1674041748047 C 8.226863861083984 170.1598968505859 8.222576141357422 170.1506805419922 8.219084739685059 170.1431884765625 C 8.21751594543457 170.1398162841797 8.217249870300293 170.1392364501953 8.215681076049805 170.1358642578125 C 8.204045295715332 170.11083984375 8.190515518188477 170.0817260742188 8.178901672363281 170.0566864013672 C 8.177336692810059 170.0533142089844 8.17594051361084 170.0503082275391 8.174375534057617 170.0469207763672 C 8.170892715454102 170.0394134521484 8.166378021240234 170.0296783447266 8.162897109985352 170.0221710205078 C 8.162115097045898 170.0204772949219 8.161091804504395 170.0182647705078 8.160309791564941 170.0165863037109 C 8.153349876403809 170.0015563964844 8.143550872802734 169.9803771972656 8.136599540710449 169.9653472900391 C 8.135818481445312 169.9636535644531 8.135032653808594 169.9619598388672 8.134252548217773 169.9602661132812 C 8.130777359008789 169.9527587890625 8.127287864685059 169.9451904296875 8.123814582824707 169.9376831054688 C 8.122254371643066 169.9342956542969 8.119379043579102 169.9280700683594 8.117818832397461 169.9246978759766 C 8.114347457885742 169.9171752929688 8.110801696777344 169.9095001220703 8.107332229614258 169.9019775390625 C 8.106552124023438 169.9002838134766 8.10527229309082 169.8975067138672 8.1044921875 169.8958129882812 C 8.09639835357666 169.8782653808594 8.088607788085938 169.8613586425781 8.080525398254395 169.8437957763672 C 8.079747200012207 169.8421173095703 8.079483985900879 169.8415374755859 8.078705787658691 169.83984375 C 8.075241088867188 169.8323211669922 8.071148872375488 169.8234252929688 8.067687034606934 169.8159027099609 C 8.066131591796875 169.8125152587891 8.064105987548828 169.80810546875 8.062551498413086 169.8047332763672 C 8.059090614318848 169.7971954345703 8.054999351501465 169.7882995605469 8.051540374755859 169.78076171875 C 8.051540374755859 169.78076171875 8.04991626739502 169.7772369384766 8.04991626739502 169.7772369384766 C 8.04184627532959 169.7596588134766 8.034279823303223 169.7431640625 8.02622127532959 169.7255859375 C 8.025444984436035 169.7238922119141 8.023835182189941 169.7203826904297 8.023059844970703 169.7186889648438 C 8.019606590270996 169.7111511230469 8.015734672546387 169.7026977539062 8.012284278869629 169.6951751708984 C 8.010733604431152 169.6917877197266 8.008373260498047 169.6866302490234 8.006823539733887 169.6832427978516 C 7.995325088500977 169.6581115722656 7.982443809509277 169.6299285888672 7.970968723297119 169.6047973632812 C 7.969421863555908 169.6014099121094 7.969241142272949 169.6010131835938 7.967694759368896 169.5976257324219 C 7.96310567855835 169.5875701904297 7.961028099060059 169.5830078125 7.956442832946777 169.5729522705078 C 7.95566987991333 169.5712585449219 7.953187465667725 169.5658111572266 7.952414989471436 169.5641174316406 C 7.940953731536865 169.5389709472656 7.927451610565186 169.5092926025391 7.916013240814209 169.484130859375 C 7.914471626281738 169.4807434082031 7.914116382598877 169.4799499511719 7.912575244903564 169.4765625 C 7.908000946044922 169.4664916992188 7.90608024597168 169.4622650146484 7.901509761810303 169.4521942138672 C 7.899969100952148 169.4488067626953 7.898311614990234 169.4451446533203 7.896771430969238 169.4417572021484 C 7.885347366333008 169.4165802001953 7.871933937072754 169.3869781494141 7.860532760620117 169.3617706298828 C 7.859764575958252 169.3600769042969 7.85857629776001 169.3574523925781 7.857808113098145 169.3557586669922 C 7.853248596191406 169.3456726074219 7.850692272186279 169.3400268554688 7.846136569976807 169.3299407958984 C 7.844600677490234 169.3265380859375 7.844455242156982 169.3262176513672 7.842920303344727 169.3228302001953 C 7.831532955169678 169.2976226806641 7.817241668701172 169.2659454345703 7.805877685546875 169.24072265625 C 7.805111885070801 169.239013671875 7.803804397583008 169.2361145019531 7.803038597106934 169.2344207763672 C 7.7984938621521 169.2243194580078 7.79581880569458 169.2183837890625 7.791277408599854 169.2082824707031 C 7.78974723815918 169.2048950195312 7.789860725402832 169.2051391601562 7.788330554962158 169.2017364501953 C 7.776980400085449 169.1764984130859 7.762794017791748 169.1449127197266 7.751466751098633 169.1196746826172 C 7.750703811645508 169.1179656982422 7.749043941497803 169.1142730712891 7.74828052520752 169.1125640869141 C 7.74375057220459 169.1024627685547 7.74121618270874 169.0968017578125 7.736690044403076 169.0867004394531 C 7.735927104949951 169.0850067138672 7.735039234161377 169.0830230712891 7.73427677154541 169.0813140869141 C 7.726357460021973 169.0636291503906 7.716903686523438 169.0425109863281 7.708996295928955 169.0248260498047 C 7.708996295928955 169.0248260498047 7.708950042724609 169.0247192382812 7.708950042724609 169.0247192382812 C 7.70556116104126 169.0171356201172 7.700540065765381 169.0058898925781 7.697153091430664 168.9983062744141 C 7.695631504058838 168.9949035644531 7.695429801940918 168.9944458007812 7.693908214569092 168.9910430908203 C 7.689393520355225 168.9809265136719 7.686716556549072 168.9749298095703 7.682205200195312 168.9648132324219 C 7.681445121765137 168.9631195068359 7.681123733520508 168.9623870849609 7.680363655090332 168.960693359375 C 7.666829586029053 168.9303436279297 7.655823707580566 168.9056243896484 7.64232349395752 168.8752593994141 C 7.641564846038818 168.8735504150391 7.640902996063232 168.8720550537109 7.640144824981689 168.870361328125 C 7.627768993377686 168.8425140380859 7.615631103515625 168.8151550292969 7.603283882141113 168.7873077392578 C 7.602527141571045 168.7855987548828 7.600883483886719 168.7818908691406 7.600127220153809 168.7801818847656 C 7.596760272979736 168.7725830078125 7.592638492584229 168.7632751464844 7.589273452758789 168.7556762695312 C 7.587761878967285 168.7522583007812 7.586596965789795 168.7496185302734 7.585085391998291 168.7462005615234 C 7.581722259521484 168.7386016845703 7.577374935150146 168.7287750244141 7.574013710021973 168.7211761474609 C 7.574013710021973 168.7211761474609 7.573396682739258 168.7197875976562 7.573396682739258 168.7197875976562 C 7.565553665161133 168.7020416259766 7.557563781738281 168.6839447021484 7.549732685089111 168.6661987304688 C 7.548224449157715 168.6627807617188 7.547674179077148 168.6615295410156 7.546166896820068 168.6581115722656 C 7.541692733764648 168.6479797363281 7.539638996124268 168.643310546875 7.535168647766113 168.6331787109375 C 7.534415245056152 168.6314544677734 7.532042026519775 168.6260681152344 7.531288623809814 168.6243591308594 C 7.518997669219971 168.5964660644531 7.506972789764404 168.5691375732422 7.494709968566895 168.5412139892578 C 7.494709968566895 168.5412139892578 7.492889404296875 168.5370635986328 7.492889404296875 168.5370635986328 C 7.488430023193359 168.5269165039062 7.485724449157715 168.520751953125 7.481268882751465 168.5105895996094 C 7.480518341064453 168.5088806152344 7.478578567504883 168.5044555664062 7.477828025817871 168.5027465820312 C 7.466691493988037 168.4773559570312 7.453074932098389 168.4462585449219 7.441961765289307 168.4208526611328 C 7.44121265411377 168.4191436767578 7.439879894256592 168.4160919189453 7.439130783081055 168.4143829345703 C 7.434686660766602 168.4042205810547 7.431836605072021 168.3976898193359 7.427396297454834 168.3875274658203 C 7.426648139953613 168.3858184814453 7.425763130187988 168.3837890625 7.425015449523926 168.382080078125 C 7.412806034088135 168.3541107177734 7.40013313293457 168.3250579833984 7.387952327728271 168.2970733642578 C 7.387205600738525 168.2953643798828 7.386819362640381 168.2944641113281 7.386073112487793 168.2927551269531 C 7.381643295288086 168.2825775146484 7.378085613250732 168.2743988037109 7.373659610748291 168.2642211914062 C 7.373659610748291 168.2642211914062 7.373210906982422 168.2631988525391 7.373210906982422 168.2631988525391 C 7.359933853149414 168.2326507568359 7.347963809967041 168.205078125 7.334720134735107 168.1745300292969 C 7.333976268768311 168.1728057861328 7.333786964416504 168.17236328125 7.333043575286865 168.170654296875 C 7.315384864807129 168.1299133300781 7.299308776855469 168.0927276611328 7.281710147857666 168.0519409179688 C 7.28096866607666 168.0502166748047 7.280800819396973 168.0498352050781 7.280059337615967 168.0481109619141 C 7.262460708618164 168.00732421875 7.246289730072021 167.9697570800781 7.228750705718994 167.9289245605469 C 7.228750705718994 167.9289245605469 7.227566719055176 167.9261627197266 7.227566719055176 167.9261627197266 C 7.210027694702148 167.8853302001953 7.193647861480713 167.8471069335938 7.176168918609619 167.8062286376953 C 7.175432682037354 167.8045043945312 7.17566442489624 167.8050537109375 7.174928188323975 167.8033294677734 C 7.157448768615723 167.762451171875 7.14078426361084 167.7233734130859 7.123364925384521 167.6824645996094 C 7.123364925384521 167.6824645996094 7.123180389404297 167.6820220947266 7.123180389404297 167.6820220947266 C 7.092696666717529 167.6104125976562 7.06298828125 167.5403442382812 7.032688140869141 167.4685974121094 C 7.032688140869141 167.4685974121094 7.031818389892578 167.4665374755859 7.031818389892578 167.4665374755859 C 7.027490139007568 167.4562835693359 7.023464679718018 167.4467468261719 7.019139766693115 167.4364929199219 C 7.019139766693115 167.4364929199219 7.019120693206787 167.4364471435547 7.019120693206787 167.4364471435547 C 7.006146430969238 167.4057006835938 6.993336200714111 167.3752746582031 6.980395317077637 167.3444976806641 C 6.980395317077637 167.3444976806641 6.980183124542236 167.343994140625 6.980183124542236 167.343994140625 C 6.880970478057861 167.1079864501953 6.782934188842773 166.8717193603516 6.685708999633789 166.63427734375 C 6.685708999633789 166.63427734375 6.685553550720215 166.6338958740234 6.685553550720215 166.6338958740234 C 6.668644905090332 166.5926055908203 6.652737140655518 166.5536804199219 6.635888576507568 166.5123443603516 C 6.635179042816162 166.5106048583984 6.635165214538574 166.5105590820312 6.63445520401001 166.5088195800781 C 6.630243301391602 166.4984893798828 6.626633644104004 166.4896240234375 6.622425079345703 166.4792938232422 C 6.622425079345703 166.4792938232422 6.622127532958984 166.4785614013672 6.622127532958984 166.4785614013672 C 6.589512825012207 166.3984527587891 6.556681156158447 166.3174285888672 6.524293422698975 166.2371520996094 C 4.771614551544189 161.8851318359375 6.87664794921875 156.9354858398438 11.22815132141113 155.1795196533203 C 15.581467628479 153.4228210449219 20.5346508026123 155.5277862548828 22.29137802124023 159.881103515625 C 31.44837951660156 182.5730590820312 51.85774230957031 196.1219635009766 76.88646697998047 196.1243286132812 C 81.58087921142578 196.1247863769531 85.3861083984375 199.9306945800781 85.38565063476562 204.6251525878906 C 85.38520050048828 209.3195648193359 81.57923889160156 213.1247863769531 76.88483428955078 213.1243286132812 Z" stroke="none" fill="#2b7b8a"/>
    </g>
  </g>
</svg>
