<svg xmlns="http://www.w3.org/2000/svg" width="49" height="49" viewBox="0 0 49 49">
  <g id="Group_27350" data-name="Group 27350" transform="translate(-0.49)">
    <rect id="Rectangle_4620" data-name="Rectangle 4620" width="49" height="49" rx="10" transform="translate(0.49)" fill="#00376a" opacity="0.1"/>
    <g id="Group_27352" data-name="Group 27352" transform="translate(13.57 13.57)">
      <path id="Path_17615" data-name="Path 17615" d="M506.363,408.252a3.5,3.5,0,0,1,2.623,3.388V425.63a3.5,3.5,0,0,1-3.5,3.5H491.5a3.5,3.5,0,0,1-3.5-3.5v-.11a3.512,3.512,0,0,0,.874.11h13.991a3.5,3.5,0,0,0,3.5-3.5Z" transform="translate(-487.126 -407.267)" fill="#00376a" fill-rule="evenodd" opacity="0.3"/>
      <path id="Path_17616" data-name="Path 17616" d="M187.749,27.437a.437.437,0,0,0-.437-.437h-.874a.437.437,0,0,0-.437.437v.874a.437.437,0,0,0,.437.437h.874a.437.437,0,0,0,.437-.437Z" transform="translate(-175.507 -12.572)" fill="#00376a" fill-rule="evenodd"/>
      <path id="Path_17617" data-name="Path 17617" d="M187.749,181.437a.438.438,0,0,0-.437-.438h-.874a.438.438,0,0,0-.437.438v5.684a.438.438,0,0,0,.437.438h.874a.438.438,0,0,0,.437-.438Z" transform="translate(-175.507 -174.441)" fill="#00376a" fill-rule="evenodd"/>
      <path id="Path_17618" data-name="Path 17618" d="M17.489,1.749h.874a2.625,2.625,0,0,1,2.623,2.623V18.363a2.625,2.625,0,0,1-2.623,2.623H4.372a2.625,2.625,0,0,1-2.623-2.623V4.372A2.625,2.625,0,0,1,4.372,1.749h9.619a.874.874,0,0,0,0-1.749H4.372A4.374,4.374,0,0,0,0,4.372V18.363a4.374,4.374,0,0,0,4.372,4.372H18.363a4.374,4.374,0,0,0,4.372-4.372V4.372A4.374,4.374,0,0,0,18.363,0h-.874a.874.874,0,0,0,0,1.749Z" transform="translate(22.735) rotate(90)" fill="#00376a" fill-rule="evenodd"/>
    </g>
  </g>
</svg>
