<svg id="Group_44595" data-name="Group 44595" xmlns="http://www.w3.org/2000/svg" width="54.509" height="54.509" viewBox="0 0 54.509 54.509">
  <g id="Rectangle_19773" data-name="Rectangle 19773" fill="#fff" stroke="#c7def3" stroke-width="1" opacity="0.8">
    <rect width="54.509" height="54.509" rx="27.255" stroke="none"/>
    <rect x="0.5" y="0.5" width="53.509" height="53.509" rx="26.755" fill="none"/>
  </g>
  <g id="Group_44982" data-name="Group 44982" transform="translate(13.321 13.973)">
    <path id="Path_40152" data-name="Path 40152" d="M25.394,10.018H2V6.509A3.509,3.509,0,0,1,5.509,3H21.885a3.509,3.509,0,0,1,3.509,3.509Z" transform="translate(0 0.339)" fill="#00376a"/>
    <path id="Path_40153" data-name="Path 40153" d="M2,20.7a3.513,3.513,0,0,0,3.509,3.509H21.885A3.513,3.513,0,0,0,25.394,20.7V9H2Z" transform="translate(0 1.358)" fill="#c7def3"/>
    <path id="Path_40154" data-name="Path 40154" d="M7.17,8.018A1.17,1.17,0,0,1,6,6.848V2.17a1.17,1.17,0,1,1,2.339,0V6.848A1.17,1.17,0,0,1,7.17,8.018Zm11.7,0a1.17,1.17,0,0,1-1.17-1.17V2.17a1.17,1.17,0,1,1,2.339,0V6.848A1.17,1.17,0,0,1,18.867,8.018Z" transform="translate(0.679)" fill="#c7def3"/>
    <circle id="Ellipse_1677" data-name="Ellipse 1677" cx="1" cy="1" r="1" transform="translate(6.697 13.782)" fill="#00376a"/>
    <circle id="Ellipse_1678" data-name="Ellipse 1678" cx="1" cy="1" r="1" transform="translate(18.697 13.782)" fill="#00376a"/>
    <circle id="Ellipse_1679" data-name="Ellipse 1679" cx="1" cy="1" r="1" transform="translate(12.697 13.782)" fill="#00376a"/>
    <circle id="Ellipse_1680" data-name="Ellipse 1680" cx="1" cy="1" r="1" transform="translate(12.697 18.782)" fill="#00376a"/>
    <circle id="Ellipse_1681" data-name="Ellipse 1681" cx="1" cy="1" r="1" transform="translate(6.697 18.782)" fill="#00376a"/>
    <circle id="Ellipse_1682" data-name="Ellipse 1682" cx="1" cy="1" r="1" transform="translate(18.697 18.782)" fill="#00376a"/>
  </g>
</svg>
