<svg xmlns="http://www.w3.org/2000/svg" width="33.769" height="33.652" viewBox="0 0 33.769 33.652">
  <g id="Group_44941" data-name="Group 44941" transform="translate(-0.02 0.174)">
    <g id="Group_44939" data-name="Group 44939" transform="translate(0 0)">
      <g id="Group_44938" data-name="Group 44938" transform="translate(0 0)">
        <g id="Group_44937" data-name="Group 44937">
          <path id="Path_40104" data-name="Path 40104" d="M.726,10.016c1.142-5.507,4.657-8.575,10.14-9.5A35.49,35.49,0,0,1,23.019.534c5.645.994,9.039,4.241,10.12,9.831a33.539,33.539,0,0,1-.013,13A11.817,11.817,0,0,1,22.9,33.137a35.493,35.493,0,0,1-12.153-.019C5.1,32.124,1.7,28.715.614,23.125A32.464,32.464,0,0,1,.726,10.016Z" transform="translate(0.02 -0.174)" fill="#1d5a7f"/>
        </g>
        <path id="Path_40106" data-name="Path 40106" d="M15.747,389.451a9.3,9.3,0,0,0-3.605-3.34,4.136,4.136,0,0,1,.577,2.129,4.083,4.083,0,0,1-1.244,3,4.083,4.083,0,0,1-3,1.244,4.083,4.083,0,0,1-3-1.244,4.083,4.083,0,0,1-1.244-3,4.136,4.136,0,0,1,.577-2.129,9.3,9.3,0,0,0-3.605,3.34,9.767,9.767,0,0,0,3.156,3.09,7.927,7.927,0,0,0,8.223,0A9.767,9.767,0,0,0,15.747,389.451Zm-6.813-3.634a.452.452,0,0,0-.454-.454A2.892,2.892,0,0,0,5.6,388.239a.454.454,0,1,0,.908,0,1.971,1.971,0,0,1,1.968-1.968.452.452,0,0,0,.454-.454Zm8.025,3.634a1.31,1.31,0,0,1-.189.653,10.039,10.039,0,0,1-3.563,3.487,9.165,9.165,0,0,1-9.454,0A10.1,10.1,0,0,1,.189,390.1a1.221,1.221,0,0,1,0-1.306,10.1,10.1,0,0,1,3.563-3.482,9.151,9.151,0,0,1,9.454,0,10.1,10.1,0,0,1,3.563,3.482A1.309,1.309,0,0,1,16.958,389.451Z" transform="translate(8.425 -372.799)" fill="#fff"/>
      </g>
    </g>
  </g>
</svg>
