<svg xmlns="http://www.w3.org/2000/svg" width="33.769" height="33.652" viewBox="0 0 33.769 33.652">
  <g id="Group_44940" data-name="Group 44940" transform="translate(-0.02 0.174)">
    <g id="Group_44939" data-name="Group 44939" transform="translate(0 0)">
      <g id="Group_44938" data-name="Group 44938" transform="translate(0 0)">
        <g id="Group_44937" data-name="Group 44937">
          <path id="Path_40104" data-name="Path 40104" d="M.726,10.016c1.142-5.507,4.657-8.575,10.14-9.5A35.49,35.49,0,0,1,23.019.534c5.645.994,9.039,4.241,10.12,9.831a33.539,33.539,0,0,1-.013,13A11.817,11.817,0,0,1,22.9,33.137a35.493,35.493,0,0,1-12.153-.019C5.1,32.124,1.7,28.715.614,23.125A32.464,32.464,0,0,1,.726,10.016Z" transform="translate(0.02 -0.174)" fill="#1d5a7f"/>
        </g>
        <path id="Path_40105" data-name="Path 40105" d="M100.387,91a9.044,9.044,0,1,0,2.755.225V90.223A10.039,10.039,0,1,1,101.03,90q.227,0,.452.01v.981h-.015v12.016l4.193-3.541.764.764-4.966,4.314c-.413.413-.91.439-1.073.276Zm-.764,11.408v1.376L95.6,100.331l.68-.84,3.342,2.92Z" transform="translate(-83.98 -83.174)" fill="#fff" fill-rule="evenodd"/>
      </g>
    </g>
  </g>
</svg>
