<svg id="_5" data-name="5" xmlns="http://www.w3.org/2000/svg" width="16.578" height="16.578" viewBox="0 0 16.578 16.578">
  <path id="Path_40698" data-name="Path 40698" d="M10.289,2a8.289,8.289,0,1,0,8.289,8.289A8.289,8.289,0,0,0,10.289,2Zm0,14.92a6.631,6.631,0,1,1,6.631-6.631A6.631,6.631,0,0,1,10.289,16.92Z" transform="translate(-2 -2)" fill="#1d5a7f"/>
  <path id="Path_40699" data-name="Path 40699" d="M11.305,6a.829.829,0,0,0-.829.829v3.8L8.23,12.872A.829.829,0,1,0,9.4,14.04l2.487-2.487a.829.829,0,0,0,.249-.58V6.829A.829.829,0,0,0,11.305,6Z" transform="translate(-3.016 -2.684)" fill="#1d5a7f"/>
</svg>
