<svg xmlns="http://www.w3.org/2000/svg" width="22" height="21.999" viewBox="0 0 22 21.999">
  <g id="Group_40516" data-name="Group 40516" transform="translate(-1 -1)">
    <path id="Path_21829" data-name="Path 21829" d="M6,1A3,3,0,0,0,3,4V6A3,3,0,0,0,6,9H19.52l1.7,2.125A1,1,0,0,0,23,10.5V4a3,3,0,0,0-3-3Z" fill="#f47320" fill-rule="evenodd"/>
    <path id="Path_21830" data-name="Path 21830" d="M18,12.5a3,3,0,0,1,3,3v2a3,3,0,0,1-3,3H4.48l-1.7,2.125A1,1,0,0,1,1,22V15.5a3,3,0,0,1,3-3Z" fill="#fabe98" fill-rule="evenodd"/>
  </g>
</svg>
