<svg id="Group_45885" data-name="Group 45885" xmlns="http://www.w3.org/2000/svg" width="34" height="34" viewBox="0 0 34 34">
  <path id="Path_40693" data-name="Path 40693" d="M17,0A17,17,0,1,1,0,17,17,17,0,0,1,17,0Zm0,31.167A14.167,14.167,0,1,0,2.833,17,14.167,14.167,0,0,0,17,31.167Z"/>
  <path id="Path_40694" data-name="Path 40694" d="M18.009,6.329A1.417,1.417,0,0,1,19.825,8.5l-7.194,6,7.194,6a1.417,1.417,0,1,1-1.816,2.176l-8.5-7.083a1.417,1.417,0,0,1,0-2.176Z" transform="translate(0.916 2.5)"/>
</svg>
