<svg xmlns="http://www.w3.org/2000/svg" width="18.487" height="23.898" viewBox="0 0 18.487 23.898">
  <g id="Group_27588" data-name="Group 27588" transform="translate(-390.407 -723.013)">
    <g id="Group_27581" data-name="Group 27581" transform="translate(390.418 733.205)">
      <path id="Path_17814" data-name="Path 17814" d="M50.083,308.965v-1.012a8.867,8.867,0,0,1,6.083-8.868.278.278,0,0,1,.3.107,3.7,3.7,0,0,0,2.855,1.411,3.625,3.625,0,0,0,2.874-1.411.269.269,0,0,1,.3-.107c3.788,1.252,6.064,4.58,6.064,8.868v1.012Zm7.725-.852H53.031c-.187,0-.336-.213-.336-.479v-1.758c0-.266.149-.479.336-.479h4.777c.187,0,.336.213.336.479v1.758C58.125,307.9,57.994,308.113,57.808,308.113Zm-4.46-.932h4.124v-.826H53.348Z" transform="translate(-50.083 -299.075)" fill="#f47320" fill-rule="evenodd"/>
    </g>
    <g id="Group_27582" data-name="Group 27582" transform="translate(394.559 723.013)">
      <path id="Path_17783" data-name="Path 17783" d="M40.435,34.276a.32.32,0,0,1,.32-.32h.507a5.107,5.107,0,0,0-4.776-4.776v.5a.32.32,0,1,1-.639,0v-.5a5.107,5.107,0,0,0-4.776,4.776h.507a.32.32,0,1,1,0,.639H31.07a5.112,5.112,0,0,0,4.776,4.776v-.507a.32.32,0,0,1,.639,0v.507A5.112,5.112,0,0,0,41.262,34.6h-.507a.322.322,0,0,1-.32-.324ZM39,31.894l-1.967,1.97a.955.955,0,1,1-1.762.731H33.7a.32.32,0,1,1,0-.639h1.565a.948.948,0,0,1,1.311-.544l1.967-1.97a.319.319,0,1,1,.451.451Z" transform="translate(-31.07 -29.18)" fill="#fdceb0"/>
      <path id="Path_17784" data-name="Path 17784" d="M40.435,34.276a.32.32,0,0,1,.32-.32h.507a5.107,5.107,0,0,0-4.776-4.776v.5a.32.32,0,1,1-.639,0v-.5a5.107,5.107,0,0,0-4.776,4.776h.507a.32.32,0,1,1,0,.639H31.07a5.112,5.112,0,0,0,4.776,4.776v-.507a.32.32,0,0,1,.639,0v.507A5.112,5.112,0,0,0,41.262,34.6h-.507a.322.322,0,0,1-.32-.324Zm-4.269,3.953a3.953,3.953,0,1,1,2.665-6.875.327.327,0,0,1,.254.254,3.954,3.954,0,0,1-2.918,6.621Z" transform="translate(-31.07 -29.18)" fill="#f47320"/>
      <path id="Path_17785" data-name="Path 17785" d="M43.7,35.859a.318.318,0,0,0-.451,0l-1.967,1.97a.948.948,0,0,0-1.311.544H38.41a.32.32,0,1,0,0,.639h1.565a.956.956,0,1,0,1.762-.731L43.7,36.31a.318.318,0,0,0,0-.451Zm-2.83,3.152a.321.321,0,0,1-.32-.316h0a.32.32,0,1,1,.32.323Z" transform="translate(-35.778 -33.596)" fill="#f47320"/>
      <path id="Path_17786" data-name="Path 17786" d="M46.209,44a.32.32,0,0,1-.639,0h0a.32.32,0,0,1,.64,0Z" transform="translate(-40.794 -38.904)" fill="#fbbf98"/>
    </g>
    <path id="Rectangle_4693" data-name="Rectangle 4693" d="M0,0H18.473V1.739a1,1,0,0,1-1,1H1a1,1,0,0,1-1-1Z" transform="translate(390.418 744.172)" fill="#fbbf98"/>
  </g>
</svg>
