<svg xmlns="http://www.w3.org/2000/svg" width="21.5" height="21.604" viewBox="0 0 21.5 21.604">
  <g id="Group_45536" data-name="Group 45536" transform="translate(-1.25 -1.259)">
    <path id="Path_40636" data-name="Path 40636" d="M20,4.25H4A2.752,2.752,0,0,0,1.25,7V17A2.753,2.753,0,0,0,4,19.75H7.867a1.256,1.256,0,0,1,1.072.607l.7,1.17a2.749,2.749,0,0,0,4.716,0l.7-1.169a1.258,1.258,0,0,1,1.073-.608H20A2.753,2.753,0,0,0,22.75,17V7A2.752,2.752,0,0,0,20,4.25Z" fill="#fbc7a5"/>
    <path id="Path_40637" data-name="Path 40637" d="M17.2,7.2a1.752,1.752,0,0,0,.426-1.93,1.782,1.782,0,0,0-1.667-1.122h-1.14a.292.292,0,0,1-.26-.15l-.975-1.8a1.8,1.8,0,0,0-3.162,0L9.447,4a.292.292,0,0,1-.26.15H8.044A1.782,1.782,0,0,0,6.377,5.265,1.752,1.752,0,0,0,6.8,7.2L8.02,8.361A.259.259,0,0,1,8.1,8.62l-.52,1.894A1.739,1.739,0,0,0,8.2,12.37a1.8,1.8,0,0,0,2,.137l1.639-.942a.3.3,0,0,1,.3,0l1.639.942a1.8,1.8,0,0,0,2-.137,1.739,1.739,0,0,0,.626-1.861l-.521-1.9a.261.261,0,0,1,.076-.258Z" fill="#f47320"/>
  </g>
</svg>
