<svg xmlns="http://www.w3.org/2000/svg" xmlns:xlink="http://www.w3.org/1999/xlink" width="392" height="392" viewBox="0 0 392 392">
  <defs>
    <clipPath id="clip-path">
      <rect id="Rectangle_20304" data-name="Rectangle 20304" width="392" height="392"/>
    </clipPath>
  </defs>
  <g id="download_68.33333333333333" clip-path="url(#clip-path)">
    <g id="Group_44569" data-name="Group 44569" transform="translate(58.735 49.075)">
      <g id="Group_44568" data-name="Group 44568" transform="translate(0 0)">
        <path id="Path_39970" data-name="Path 39970" d="M-45.875-196.027C-45.875-114.883-107.33-49.1-183.14-49.1S-320.4-114.883-320.4-196.027s61.456-146.925,137.265-146.925S-45.875-277.172-45.875-196.027Z" transform="translate(320.405 342.952)" fill="#ffcf36"/>
      </g>
    </g>
    <g id="Group_44571" data-name="Group 44571" transform="translate(161.647 200.728)">
      <g id="Group_44570" data-name="Group 44570" transform="translate(0 0)">
        <path id="Path_39971" data-name="Path 39971" d="M-20.222-3.9a8.184,8.184,0,0,1-2.672-.453,70.105,70.105,0,0,0-46.476,0,8.517,8.517,0,0,1-11-5.706,9.429,9.429,0,0,1,5.33-11.779c.112-.042.226-.081.34-.118a86.205,86.205,0,0,1,57.145,0A9.419,9.419,0,0,1-12-10.3,8.742,8.742,0,0,1-20.222-3.9Z" transform="translate(80.855 26.833)" fill="#65471b"/>
      </g>
    </g>
    <g id="Group_44578" data-name="Group 44578" transform="translate(91.756 73.944)">
      <g id="Group_44572" data-name="Group 44572" transform="translate(115.176 36.904)">
        <path id="Path_39972" data-name="Path 39972" d="M-27.231-79.542C-34.01-57.764-53.4-42.134-75.986-42.134a49.3,49.3,0,0,1-32.921-12.678c.27,3.927.571,7.91,1.021,12.218C-106.745-31.582-101.25-22.9-92-17.5c6.156,3.6,13.514,5.458,21.119,5.966,13.018.865,26.8-2.221,36.585-7.212A33.523,33.523,0,0,0-15.857-44.808C-14.483-56.034-18.514-68.007-27.231-79.542Z" transform="translate(108.908 79.542)" fill="#fff"/>
      </g>
      <g id="Group_44573" data-name="Group 44573" transform="translate(114.56 0)">
        <path id="Path_39973" data-name="Path 39973" d="M-70.336-71.52c-9.738,4.364-14.617,18.256-14.843,41.962l.293.539A39.531,39.531,0,0,0-51.634-10.429c19.775,0,36.4-15.368,39.438-35.893-.863-.833-1.659-1.682-2.575-2.507C-42.662-73.98-63.324-74.669-70.336-71.52Z" transform="translate(85.178 72.84)" fill="#65471b"/>
      </g>
      <g id="Group_44574" data-name="Group 44574" transform="translate(114.545 26.518)">
        <path id="Path_39974" data-name="Path 39974" d="M-62.509-7.986c22.591,0,41.976-15.63,48.756-37.408A89.9,89.9,0,0,0-23.071-55.78C-26.1-35.255-42.734-19.887-62.509-19.887A39.531,39.531,0,0,1-95.761-38.476l-.293-.539q-.079,8.343.623,18.351A49.3,49.3,0,0,0-62.509-7.986Z" transform="translate(96.062 55.78)" fill="#f4900c"/>
      </g>
      <g id="Group_44575" data-name="Group 44575" transform="translate(0 36.904)">
        <path id="Path_39975" data-name="Path 39975" d="M-48.514-42.125c-22.591,0-41.976-15.63-48.755-37.408C-105.986-68-110.01-56.025-108.644-44.807A33.526,33.526,0,0,0-90.2-18.744c9.783,4.99,23.559,8.077,36.585,7.212,7.605-.508,14.963-2.356,21.12-5.966,9.242-5.4,14.738-14.083,15.886-25.095.45-4.3.751-8.267,1.021-12.186A49.394,49.394,0,0,1-48.514-42.125Z" transform="translate(108.905 79.534)" fill="#fff"/>
      </g>
      <g id="Group_44576" data-name="Group 44576" transform="translate(20.953 0)">
        <path id="Path_39976" data-name="Path 39976" d="M-45.74-10.429A39.53,39.53,0,0,0-12.488-29.018l.293-.54c-.233-23.707-5.1-37.6-14.843-41.962C-34.05-74.67-54.719-73.979-82.6-48.837c-.916.825-1.7,1.674-2.575,2.507C-82.145-25.8-65.515-10.429-45.74-10.429Z" transform="translate(85.178 72.84)" fill="#65471b"/>
      </g>
      <g id="Group_44577" data-name="Group 44577" transform="translate(11.628 26.518)">
        <path id="Path_39977" data-name="Path 39977" d="M-13.764-39.016l-.293.539A39.531,39.531,0,0,1-47.308-19.887c-19.775,0-36.4-15.368-39.438-35.893a89.892,89.892,0,0,0-9.317,10.385C-89.284-23.616-69.9-7.986-47.308-7.986A49.393,49.393,0,0,0-14.387-20.633Q-13.689-30.642-13.764-39.016Z" transform="translate(96.064 55.78)" fill="#f4900c"/>
      </g>
    </g>
    <g id="Group_44580" data-name="Group 44580" transform="translate(130.493 95.157)">
      <g id="Group_44579" data-name="Group 44579" transform="translate(0 0)">
        <path id="Path_39978" data-name="Path 39978" d="M-2.449-10.463A7.6,7.6,0,0,1-9.775-2.621,7.6,7.6,0,0,1-17.1-10.463,7.6,7.6,0,0,1-9.775-18.3,7.6,7.6,0,0,1-2.449-10.463Z" transform="translate(17.101 18.304)" fill="#fff"/>
      </g>
    </g>
    <g id="Group_44582" data-name="Group 44582" transform="translate(213.293 92.658)">
      <g id="Group_44581" data-name="Group 44581" transform="translate(0 0)">
        <path id="Path_39979" data-name="Path 39979" d="M-3.1-13.225c0,5.475-4.146,9.913-9.261,9.913s-9.261-4.438-9.261-9.913,4.146-9.913,9.261-9.913S-3.1-18.7-3.1-13.225Z" transform="translate(21.617 23.138)" fill="#fff"/>
      </g>
    </g>
  </g>
</svg>
