<svg xmlns="http://www.w3.org/2000/svg" width="22.751" height="21.957" viewBox="0 0 22.751 21.957">
  <g id="Group_40513" data-name="Group 40513" transform="translate(-59.124 -670.021)">
    <path id="Path_18132" data-name="Path 18132" d="M27.455,23.951c-1.08.115-3.391-1.449-4.347-1.872a1.56,1.56,0,0,0-1.45,0l-2.862,1.5a3.2,3.2,0,0,1-4.621-3.354l.547-3.183a1.554,1.554,0,0,0-.448-1.377l-2.316-2.255a3.181,3.181,0,0,1,1.765-5.427l3.2-.464A1.557,1.557,0,0,0,18.1,6.67l1.432-2.9a3.186,3.186,0,0,1,5.711,0l1.431,2.9a1.557,1.557,0,0,0,1.173.851l3.2.464a3.2,3.2,0,0,1,1.765,5.427l-2.316,2.255a1.553,1.553,0,0,0-.448,1.376l.547,3.184a3.206,3.206,0,0,1-3.137,3.723Zm-5.072-3.677c1.1-.11,3.377,1.441,4.344,1.869a1.565,1.565,0,0,0,2.26-1.64c-.937-5.211-1.124-4.6,2.685-8.255a1.562,1.562,0,0,0-.864-2.653c-5.24-.718-4.728-.353-7.029-5.1h0a1.566,1.566,0,0,0-2.794,0l-1.431,2.9a3.185,3.185,0,0,1-2.4,1.74l-3.2.464a1.562,1.562,0,0,0-.864,2.653c3.821,3.662,3.617,3.059,2.685,8.255a1.565,1.565,0,0,0,2.261,1.64c.984-.436,3.232-1.972,4.344-1.869Z" transform="translate(48.128 668.021)" fill="#f47320" opacity="0.4"/>
    <path id="Path_18133" data-name="Path 18133" d="M30.442,12.511a.814.814,0,0,0-.657-.554l-1.428-.207a4.811,4.811,0,0,1-3.622-2.63L24.1,7.826a.847.847,0,0,0-1.459,0L22,9.12a4.81,4.81,0,0,1-3.623,2.63l-1.427.207a.819.819,0,0,0-.45,1.387l1.031,1A4.8,4.8,0,0,1,18.912,18.6l-.244,1.42a.819.819,0,0,0,1.18.857l1.279-.672a4.891,4.891,0,0,1,4.478,0l1.279.672a.819.819,0,0,0,1.181-.857l-.244-1.419A4.8,4.8,0,0,1,29.2,14.349C29.7,13.778,30.709,13.226,30.442,12.511Z" transform="translate(47.145 667.01)" fill="#f47320"/>
  </g>
</svg>
