<svg xmlns="http://www.w3.org/2000/svg" xmlns:xlink="http://www.w3.org/1999/xlink" width="124.467" height="98.015" viewBox="0 0 124.467 98.015">
  <defs>
    <clipPath id="clip-path">
      <rect id="Rectangle_20363" data-name="Rectangle 20363" width="98.015" height="124.467" rx="4" transform="translate(-16.027 226.053) rotate(-90)" fill="#fff"/>
    </clipPath>
  </defs>
  <g id="Mask_Group_403" data-name="Mask Group 403" transform="translate(16.027 -128.038)" clip-path="url(#clip-path)">
    <g id="Group_45653" data-name="Group 45653" transform="matrix(-0.259, -0.966, 0.966, -0.259, -15.29, 275.317)">
      <g id="Group_44694" data-name="Group 44694" transform="translate(-92.61 171.274) rotate(-90)" opacity="0.7">
        <g id="Path_40037" data-name="Path 40037" transform="translate(125.927 0) rotate(42)">
          <path id="Path_40604" data-name="Path 40604" d="M94.1,188.194A94.1,94.1,0,1,0,0,94.1a94.1,94.1,0,0,0,94.1,94.1Z" transform="translate(0 0)" fill="none"/>
          <path id="Path_40605" data-name="Path 40605" d="M89.992,78.1H88.641l-.122,0h-.727l-.065,0h-.184l-.054,0h-.127l-.06,0h-.063l-.121,0-.062,0H87l-.064,0-.121,0h-.063l-.056,0-.064,0-.06,0h-.06l-.063,0-.055,0-.065,0-.059,0-.06,0-.064,0-.054,0-.065,0-.06,0-.058,0-.064,0-.053,0h0l-.065,0-.054,0h-.008L85.6,78l-.064,0-.054,0h0l-.063,0-.062,0-.056,0-.065,0-.055,0h0l-.064,0-.062,0-.056,0-.065,0-.059,0-.06,0-.064,0-.054,0h0l-.066,0-.058,0c-.021,0-.039,0-.06,0l-.064,0-.052,0h0l-.065,0-.061,0-.058,0-.065,0-.052,0h0l-.064,0-.061,0-.057,0-.064,0-.058,0-.061,0-.063,0-.054,0-.065,0-.053,0h0l-.05,0-.063,0-.06,0h-.006l-.052,0h-.012l-.051,0-.056,0-.063,0h-.012l-.052,0h0l-.053,0h-.013l-.052,0-.057,0h-.008l-.053,0h-.009l-.054,0h0l-.051,0h-.012l-.052,0-.058,0h-.008l-.052,0h-.013l-.052,0h0l-.048,0h-.014l-.05,0h-.012l-.044,0h-.012l-.05,0h-.013l-.051,0h-.008l-.046,0H82.05l-.051,0h-.012l-.047,0h-.007l-.052,0h-.013l-.052,0h-.008l-.046,0H81.75l-.052,0h-.01l-.052,0h0l-.054,0h-.01l-.052,0h-.009l-.047,0h-.009l-.052,0h-.013l-.052,0h0l-.052,0H81.27l-.05,0h-.012l-.044,0h-.011l-.051,0H81.09l-.052,0h-.006l-.049,0h-.01l-.052,0H80.91l-.046,0h-.009l-.05-.006H80.79l-.05,0h-.009l-.046,0h-.011l-.051-.006h-.013l-.046,0h-.008l-.052-.006h-.012l-.052,0h-.006l-.049-.006h-.009l-.052-.006h-.012l-.049,0h0l-.052,0H80.2l-.052-.006h-.008l-.048-.006h-.01l-.051-.006h-.012l-.051-.006h0l-.052-.006H79.9l-.051,0h-.01l-.048-.006h-.007l-.052-.006h-.013l-.052-.006h0l-.049-.006H79.6l-.05-.006h-.011l-.046,0h-.008l-.05,0-.014,0-.05-.006h-.01l-.044-.006H79.3l-.05-.006h-.012l-.049-.006h0l-.052-.006h-.013l-.051-.006h-.008l-.046,0-.013,0-.05-.006h-.013l-.047,0h-.007l-.05-.006-.014,0-.05,0-.011,0-.043,0h-.012l-.049-.006-.015,0-.048-.006h0l-.049-.006-.016,0-.048-.006h-.014l-.04,0-.014,0-.048-.006h-.016l-.049-.006H78.3l-.046-.006h-.014l-.049-.007h-.012l-.047-.006h-.007l-.051-.007h-.012L78,77.348h0l-.05-.007H77.94l-.05-.006-.011,0-.045,0h-.01l-.05-.007h-.013l-.051-.007H77.7l-.045-.006h-.012L77.6,77.3h-.015l-.043-.006h-.009l-.049-.007h-.016l-.049-.007h-.009l-.043-.006h-.013l-.048-.007-.015,0-.045-.006h-.01l-.048-.006-.013,0-.05-.007h-.009l-.046-.006h-.009l-.05-.007-.015,0-.05-.006h0l-.048-.007h-.013l-.05-.007h-.01l-.044-.007h-.011l-.049-.007H76.7l-.049-.007h-.009l-.044-.007h-.013l-.048-.007-.014,0-.043-.006h-.009l-.049-.007-.014,0-.049-.007h-.01l-.043-.006-.014,0-.049-.007-.012,0-.045-.006h-.008l-.05-.008H76.11l-.048-.007-.014,0-.039-.006-.015,0-.048-.007-.015,0-.043-.006-.011,0-.046-.007h-.015l-.048-.008h-.013l-.042-.007H75.7l-.049-.008h-.013l-.045-.007-.015,0L75.538,77l-.015,0c-.015,0-.032-.006-.047-.007l-.016,0-.038-.006h-.014l-.047-.008-.016,0-.047-.007-.012,0-.04-.006-.016,0-.046-.007-.016,0-.038-.007h-.014l-.047-.008-.016,0L75,76.918l-.012,0-.04-.006-.015,0-.046-.008-.017,0-.039-.006-.012,0-.047-.008-.015,0-.047-.007-.014,0-.037-.006-.017,0-.045-.007-.018,0-.039-.007-.015,0-.044-.007-.015,0-.047-.008-.015,0-.038-.006a.058.058,0,0,0-.014,0l-.047-.008-.016,0-.044-.008h-.013l-.042-.007-.017,0-.046-.007-.015,0-.04-.006-.012,0-.048-.008-.015,0-.049-.008h-.008l-.044-.008-.014,0-.048-.008-.014,0-.042-.007h-.01l-.048-.008-.016,0-.048-.008H73.65l-.043-.008-.013,0-.048-.008-.013,0-.043-.007-.009,0-.049-.008-.013,0-.05-.008-.008,0-.046-.008H73.3l-.049-.009-.014,0L73.2,76.61H73.19l-.05-.009-.014,0-.049-.009h-.011l-.043-.008-.012,0-.048-.008-.014,0-.047-.009H72.9l-.047-.008-.014,0-.048-.008-.013,0-.042-.007-.01,0-.049-.008-.014,0-.049-.008H72.6l-.043-.008-.016,0-.047-.008-.012,0-.043-.008-.01,0-.048-.008-.014,0-.048-.008-.011,0-.042-.008-.013,0-.048-.009-.012,0-.046-.008h-.006l-.049-.009-.014,0-.049-.009-.009,0-.043-.008-.013,0-.048-.009-.013,0-.042-.008-.013,0-.045-.009-.014,0-.048-.009-.012,0-.041-.008-.012,0-.048-.009-.014,0-.047-.009h-.006l-.047-.009-.015,0-.048-.009-.011,0-.042-.008-.012,0-.048-.011-.013,0-.049-.009h-.008l-.045-.009-.013,0-.048-.011-.013,0-.043-.008-.009,0-.049-.009-.012,0-.05-.011h-.006l-.044-.009-.015,0-.046-.009-.014,0-.04-.008-.012,0-.047-.009-.015,0-.048-.009-.011,0-.041-.008-.014,0-.047-.009-.015,0-.041-.008-.011,0-.046-.009-.015,0-.047-.009-.012,0-.04-.009-.013,0-.047-.009-.015,0-.043-.009-.012,0-.045-.009-.013,0L70.128,76l-.012,0-.041-.009-.012,0-.047-.011-.016,0-.047-.011h-.007l-.046-.011-.012,0-.049-.011-.011,0-.042-.009-.011,0-.048-.011-.014,0-.048-.011-.009,0-.042-.009-.013,0-.046-.011-.016,0-.039-.008-.012,0-.047-.011-.015,0-.047-.011-.011,0-.04-.009-.013,0-.047-.011-.014,0-.041-.009-.011,0-.046-.009-.015,0-.045-.011-.016,0-.036-.008-.015,0-.046-.011a.072.072,0,0,1-.015,0l-.042-.009-.011,0-.044-.009-.015,0-.046-.011-.013,0-.041-.009-.011,0-.048-.011-.014,0-.043-.009-.015,0-.041-.009-.014,0-.046-.011-.015,0-.04-.009-.011,0-.046-.011-.017,0-.044-.009-.013,0-.038-.009-.017,0-.044-.011-.017,0-.036-.008-.014,0-.045-.011-.017,0-.046-.011-.013,0-.038-.009-.016,0-.044-.011-.017,0L67.9,75.5l-.012,0-.044-.011-.018,0-.044-.011-.015,0-.035-.008-.018,0-.043-.009-.017,0-.04-.009-.014,0-.041-.009-.018,0L67.5,75.4l-.019,0-.032-.007-.019,0-.042-.011-.02,0-.036-.009-.022,0-.033-.008-.021-.006-.042-.009-.018,0-.033-.008-.017,0L67.1,75.3l-.019,0-.04-.009-.017,0-.036-.009-.017,0-.044-.012-.017,0-.036-.009-.014,0-.044-.011-.019,0-.044-.012-.012,0-.037-.009-.016,0-.045-.011-.016,0-.037-.009-.016,0-.043-.012-.015,0-.046-.012-.012,0-.038-.009-.015,0-.044-.012-.018,0-.037-.009-.017,0-.039-.011-.018,0-.044-.012-.015,0-.035-.009-.017,0-.043-.012-.018,0-.037-.009-.02-.006-.036-.009-.018,0L65.909,75l-.018,0-.032-.008-.017,0-.043-.012-.019,0-.037-.009-.022-.006-.032-.009-.02,0-.042-.012-.018,0-.031-.008-.022-.006-.038-.009-.02-.006-.033-.008-.028-.008-.029-.007-.02-.006-.043-.012-.017,0-.034-.009-.018,0-.039-.011-.02,0-.04-.011-.02-.006-.031-.008-.02-.006-.042-.011-.019-.006-.031-.008-.026-.007-.032-.009-.021,0-.041-.012-.02-.006-.03-.008-.019,0-.041-.012-.02-.006-.031-.008-.028-.007-.029-.008-.022-.006-.04-.012-.021-.006-.027-.007-.024-.007-.037-.011-.021-.006-.032-.009-.026-.007-.03-.008-.021-.006-.041-.012a.137.137,0,0,1-.02-.006l-.029-.008-.022-.006-.039-.011-.02-.006-.035-.009-.025-.007-.028-.008-.021-.006-.04-.012-.021-.006L64,74.47l-.027-.007-.033-.011-.021-.006-.033-.009-.028-.008-.027-.007-.02-.006-.04-.012-.023-.006-.027-.008-.03-.008-.029-.009-.023-.006-.036-.011-.024-.007-.026-.008-.022-.006-.04-.012-.021-.006-.029-.008-.03-.009-.03-.008-.02-.006-.04-.012-.02-.006-.028-.008-.02-.006-.04-.012-.022-.007-.032-.009-.024-.007-.033-.009-.018-.006-.042-.012-.018-.006L63,74.175l-.02-.006-.039-.012-.021-.006-.034-.009-.025-.008-.03-.008-.02-.007-.039-.012-.023-.006-.027-.008-.025-.008-.035-.009-.022-.007-.037-.011-.021-.007-.03-.009-.02-.006-.04-.012-.02-.006-.03-.009L62.414,74l-.032-.009-.022-.007-.036-.011-.024-.007-.029-.009-.019-.006-.041-.012-.02-.006-.034-.011-.021-.007c-.011,0-.022-.006-.034-.011l-.02-.006-.041-.013-.017,0-.033-.011-.017,0-.041-.013-.021-.006-.03-.009-.029-.009-.028-.008-.021-.007-.04-.013-.02-.006-.03-.009-.023-.007-.035-.011-.022-.007-.033-.011-.024-.008-.028-.008-.021-.007-.04-.013-.02-.006-.029-.009-.028-.008-.031-.009-.022-.007-.032-.011L61.3,73.65l-.026-.007-.022-.007-.038-.013-.023-.007-.027-.008-.03-.009-.029-.009-.022-.007-.04-.013-.02-.007L61,73.554l-.023-.008-.038-.012-.021-.007-.03-.009-.028-.009L60.83,73.5l-.022-.007-.039-.013-.022-.007-.025-.008-.022-.007-.037-.012-.022-.007-.029-.009-.031-.011-.024-.008-.025-.008-.036-.012-.024-.007-.022-.008-.031-.009-.029-.011-.024-.007-.027-.009-.034-.011-.023-.008-.024-.008-.037-.012-.025-.008-.02-.006-.039-.014-.022-.007-.025-.008-.023-.008-.037-.012-.022-.007-.024-.008-.037-.013-.023-.007L59.9,73.19l-.032-.011-.028-.009-.021-.007-.034-.012-.027-.009-.026-.008-.021-.007-.038-.013-.023-.008-.025-.008-.031-.011-.028-.009-.021-.007-.039-.014-.022-.007-.024-.008-.028-.009-.033-.012-.022-.007L59.348,73l-.031-.011-.027-.009-.021-.007-.037-.013-.024-.008-.022-.008-.031-.011-.029-.009-.024-.008-.024-.008-.035-.013-.023-.007L59,72.881l-.038-.013-.022-.008-.024-.008-.03-.011-.03-.011-.022-.008-.028-.009L58.77,72.8l-.025-.009-.021-.007-.038-.013-.023-.008-.025-.009-.032-.011-.027-.009-.023-.008-.029-.011L58.5,72.7l-.022-.008-.024-.008-.037-.013-.025-.008-.019-.007-.04-.014-.021-.008-.024-.008-.03-.011-.029-.011L58.2,72.6l-.021-.008-.038-.013-.023-.008-.026-.009-.03-.012-.027-.009-.022-.008-.038-.013-.022-.008-.024-.008-.027-.009-.033-.012-.023-.008-.028-.011-.03-.011-.027-.009-.02-.008-.039-.014-.021-.007-.028-.011-.021-.007-.036-.013-.022-.008-.028-.011-.031-.012-.023-.008-.025-.008-.035-.013-.024-.009-.022-.008-.035-.013-.024-.008-.024-.009-.024-.008-.036-.014-.022-.008-.023-.008-.037-.013-.023-.009-.025-.008-.032-.013-.024-.008-.025-.009-.025-.009-.034-.013-.022-.008-.025-.009-.034-.013-.023-.008-.024-.009-.035-.013-.024-.008-.023-.009-.036-.013-.024-.009-.022-.008-.035-.013-.024-.009-.025-.009L56.575,72l-.033-.013-.024-.009-.024-.008-.036-.014-.023-.008-.023-.009-.035-.013-.024-.009-.024-.008-.025-.011-.035-.013-.021-.008-.025-.009-.035-.013-.024-.009-.022-.008-.034-.013-.024-.009-.024-.009-.032-.013L56,71.779l-.023-.009-.024-.008-.036-.014-.023-.009-.024-.009-.033-.012-.025-.011-.023-.008-.03-.012-.029-.012-.022-.008-.026-.011-.033-.013-.023-.008-.026-.011-.031-.012-.026-.011-.022-.008-.038-.015-.02-.007-.025-.011-.027-.011-.031-.012-.023-.009-.023-.009L55.3,71.5,55.28,71.5l-.024-.009-.036-.014-.023-.009-.022-.008-.036-.014-.022-.009-.025-.009-.023-.009-.036-.014-.021-.008-.024-.009-.036-.014-.024-.011-.018-.007-.042-.017-.018-.007-.025-.011L54.8,71.3l-.036-.014-.02-.008-.024-.009-.036-.014-.023-.009-.022-.009-.034-.014-.024-.009-.023-.009-.03-.012-.028-.012-.022-.009-.026-.011-.034-.013L54.4,71.14l-.024-.009-.033-.014-.024-.009-.023-.009-.026-.011-.034-.014-.021-.008-.031-.013a.294.294,0,0,1-.029-.012l-.024-.009-.021-.008-.037-.015L54.051,71l-.024-.011-.035-.014-.023-.009-.022-.009-.03-.013-.029-.012-.022-.009a.232.232,0,0,1-.026-.011l-.033-.013-.022-.009-.023-.009-.036-.015-.023-.009-.022-.009-.034-.014-.024-.009-.024-.011-.024-.009-.034-.014-.02-.009-.024-.009-.035-.015-.024-.009-.02-.009-.035-.014-.024-.011-.023-.009-.026-.011-.034-.015-.017-.007-.044-.019L53.2,70.64l-.027-.012-.015-.006-.042-.019L53.1,70.6l-.026-.012-.016-.007-.043-.018-.015-.007-.049-.021-.01,0-.027-.012-.016-.007-.042-.018-.019-.008-.025-.011-.015-.007-.045-.019-.015-.007-.046-.02-.013,0-.028-.012-.015-.007-.043-.019-.018-.007-.026-.012-.011,0c-.016-.007-.032-.013-.048-.021l-.016-.006-.045-.02-.014-.006-.027-.012-.015-.007-.043-.019-.017-.007-.047-.021-.012,0-.027-.012-.015-.007-.045-.019-.014-.006-.028-.013-.016-.007-.042-.018-.018-.008-.047-.021a.039.039,0,0,1-.011,0l-.028-.012-.012-.006-.048-.02-.014-.007-.027-.012-.012,0L51.8,70.03l-.016-.007L51.731,70l-.009,0-.029-.013-.011,0-.049-.021-.012-.006-.028-.013h0l-.055-.025-.013-.006-.053-.024-.006,0-.029-.013-.011,0-.049-.022-.013,0-.028-.013-.007,0-.051-.024-.018-.008-.042-.019-.015-.007-.028-.012-.013-.006-.046-.021-.014-.006-.051-.024-.009,0-.025-.012-.018-.008-.04-.019-.019-.008-.026-.012-.015-.006-.044-.021-.015-.006-.041-.019-.017-.008-.026-.012-.018-.008-.042-.02-.015-.006-.028-.013-.008,0-.05-.024-.015-.007-.044-.02-.016-.007-.025-.012-.017-.007-.044-.021-.014-.006-.087-.04-.012-.006-.052-.025-.007,0-.028-.013-.014-.007-.046-.021-.013-.006-.087-.041-.012,0-.053-.026-.005,0-.029-.013-.011-.006-.05-.024-.011,0-.09-.043-.007,0-.055-.026-.007,0-.028-.014-.011,0-.049-.024-.011,0-.058-.028h0L49.554,69l-.011,0-.051-.025-.009,0-.029-.014-.007,0-.052-.025-.012-.006-.048-.022-.012-.006-.027-.013-.012-.006-.048-.022-.012-.006-.027-.013-.011-.006-.049-.024-.011-.006-.051-.024-.009,0-.029-.014-.007,0-.054-.026-.008,0-.029-.014h0l-.058-.027-.011-.006-.052-.025-.007,0-.03-.015,0,0-.054-.026-.01,0-.089-.044-.009,0-.054-.027-.007,0-.03-.014h0l-.059-.028-.007,0-.091-.045-.007,0L48.3,68.39l-.008,0-.09-.044-.006,0-.09-.045-.008,0-.052-.026-.008,0-.088-.044-.011-.006-.055-.027,0,0-.03-.014-.007,0-.054-.027-.007,0-.09-.045-.007,0-.057-.03h0l-.03-.015,0,0-.058-.028-.006,0-.091-.046-.006,0-.15-.077-.009,0-.088-.045-.01,0-.05-.025-.01-.006-.028-.014,0,0-.055-.028-.009,0-.09-.046h0l-.06-.031h0l-.092-.047,0,0-.093-.048h0l-.062-.032h0l-.093-.048h0l-.154-.08,0,0-.09-.047-.008,0-.057-.031h0l-.091-.047-.006,0-.089-.047-.007,0-.056-.03h0l-.091-.048-.006,0-.09-.048-.005,0-.058-.031h0L45.613,67,45.6,67l-.087-.047-.007,0-.054-.028-.006,0-.088-.047-.008,0-.089-.047,0,0-.053-.03-.009,0-.087-.047-.008,0-.057-.032s0,0,0,0l-.031-.017h0l-.059-.032,0,0-.091-.05,0,0-.06-.033h0l-.091-.05,0,0-.09-.05h0l-.061-.034h0l-.091-.05,0,0-.09-.05h0l-.059-.033h0l-.09-.05-.005,0-.151-.084h0l-.092-.052s0,0,0,0c-.268-.151-.534-.3-.8-.455h0l-.245-.142h0l-.244-.142h0l-.245-.143h0l-.243-.144h0c-.244-.144-.487-.29-.73-.436h0l-.241-.145,0,0A94.359,94.359,0,0,1,.49,13.139,10.046,10.046,0,0,1,19.6,6.939a73.826,73.826,0,0,0,70.39,51.073,10.046,10.046,0,1,1,0,20.093Z" transform="translate(4.107 110.089)" fill="#fec717"/>
        </g>
        <g id="Path_40036" data-name="Path 40036" transform="translate(38.794 38.796)">
          <path id="Path_40606" data-name="Path 40606" d="M94.1,188.195A94.1,94.1,0,1,0,0,94.1a94.1,94.1,0,0,0,94.1,94.1Z" fill="none"/>
          <path id="Path_40607" data-name="Path 40607" d="M89.992,78.1H88.641l-.122,0h-.727l-.065,0h-.184l-.054,0h-.127l-.06,0h-.063l-.121,0-.062,0H87l-.064,0-.121,0h-.063l-.056,0-.064,0-.06,0h-.06l-.063,0-.055,0-.065,0-.059,0-.06,0-.064,0-.054,0-.065,0-.06,0-.058,0-.064,0-.053,0h0l-.065,0-.054,0h-.008l-.058,0-.064,0-.054,0h0l-.063,0-.062,0-.056,0-.065,0-.055,0h0l-.064,0-.062,0-.056,0-.065,0-.059,0-.06,0-.064,0-.054,0h0l-.066,0-.058,0c-.021,0-.039,0-.06,0l-.064,0-.052,0h0l-.065,0-.061,0-.058,0-.065,0-.052,0h0l-.064,0-.061,0-.057,0-.064,0-.058,0-.061,0-.063,0-.054,0-.065,0-.053,0h0l-.05,0-.063,0-.06,0h-.006l-.052,0h-.012l-.051,0-.056,0-.063,0h-.012l-.052,0h0l-.053,0h-.013l-.052,0-.057,0h-.008l-.053,0h-.009l-.054,0h0l-.051,0h-.012l-.052,0-.058,0h-.008l-.052,0h-.013l-.052,0h0l-.048,0h-.014l-.05,0h-.012l-.044,0h-.012l-.05,0h-.013l-.051,0h-.008l-.046,0H82.05l-.051,0h-.012l-.047,0h-.007l-.052,0h-.013l-.052,0h-.008l-.046,0h-.012l-.052,0h-.01l-.052,0h0l-.054,0h-.01l-.052,0h-.009l-.047,0h-.009l-.052,0h-.013l-.052,0h0l-.052,0H81.27l-.05,0h-.012l-.044,0h-.011l-.051,0H81.09l-.052,0h-.006l-.049,0h-.01l-.052,0H80.91l-.046,0h-.009l-.05-.006H80.79l-.05,0h-.008l-.046,0h-.011l-.051-.006h-.013l-.046,0h-.008l-.052-.006h-.012l-.052,0h-.006l-.049-.006h-.009l-.052-.006h-.012l-.049,0h0l-.052,0H80.2l-.052-.006h-.008l-.048-.006h-.01l-.051-.006h-.012l-.051-.006h0l-.052-.006H79.9l-.051,0h-.01l-.048-.006h-.007l-.052-.006h-.013l-.052-.006h0l-.049-.006H79.6l-.05-.006h-.011l-.046,0h-.008l-.05,0-.014,0-.05-.006h-.01l-.044-.006H79.3l-.05-.006h-.012l-.049-.006h0l-.052-.006h-.013l-.051-.006h-.008l-.045,0-.013,0-.05-.006h-.013l-.047,0h-.007l-.05-.006-.014,0-.05,0-.011,0-.043,0h-.012l-.049-.006-.015,0-.048-.006h0l-.049-.006-.016,0-.048-.006h-.014l-.04,0-.014,0-.048-.006h-.016l-.049-.006H78.3l-.046-.006h-.014l-.049-.007h-.012l-.047-.006h-.007l-.051-.007h-.012L78,77.349h0l-.05-.007H77.94l-.05-.006-.011,0-.045,0h-.01l-.05-.007h-.013l-.051-.007H77.7l-.045-.006h-.012L77.6,77.3h-.015l-.043-.006h-.009l-.049-.007h-.016l-.049-.007h-.009l-.043-.006H77.35l-.048-.007-.015,0-.045-.006h-.01l-.048-.006-.013,0-.05-.007h-.009l-.046-.006h-.009l-.05-.007-.015,0-.05-.006h0l-.048-.007h-.013l-.05-.007h-.01l-.044-.007h-.011l-.049-.007H76.7l-.049-.007h-.009l-.044-.007h-.013l-.048-.007-.014,0-.043-.006h-.009l-.049-.007-.014,0-.049-.007h-.01l-.043-.006-.014,0-.049-.007-.012,0-.045-.006h-.008l-.05-.008H76.11l-.048-.007-.014,0-.039-.006-.015,0-.048-.007-.015,0-.043-.006-.011,0-.046-.007h-.015l-.048-.008h-.013l-.042-.007H75.7l-.049-.008h-.013l-.045-.007-.015,0L75.538,77l-.015,0c-.015,0-.032-.006-.047-.007l-.016,0-.038-.006h-.014l-.047-.008-.016,0-.047-.007-.012,0-.04-.006-.016,0-.046-.007-.016,0-.038-.007h-.014l-.047-.008-.016,0L75,76.918l-.012,0-.04-.006-.015,0-.046-.008-.017,0-.039-.006-.012,0-.047-.008-.015,0-.047-.007-.014,0-.037-.006-.017,0-.045-.007-.018,0-.039-.007-.015,0-.044-.007-.015,0-.047-.008-.015,0-.038-.006a.058.058,0,0,0-.014,0l-.047-.008-.016,0-.044-.008h-.013l-.042-.007-.017,0-.046-.007-.015,0-.04-.006-.012,0-.048-.008-.015,0-.049-.008h-.008l-.044-.008-.014,0-.048-.008-.014,0-.042-.007h-.01l-.048-.008-.016,0-.048-.008h-.009l-.043-.008-.013,0-.048-.008-.013,0-.043-.007-.009,0-.049-.008-.013,0-.05-.008-.008,0-.046-.008H73.3l-.049-.009-.014,0L73.2,76.61H73.19l-.05-.009-.014,0-.049-.009h-.011l-.043-.008-.012,0-.048-.008-.014,0-.047-.009H72.9l-.047-.008-.014,0-.048-.008-.013,0-.042-.007-.01,0-.049-.008-.014,0-.049-.008H72.6l-.043-.008-.016,0-.047-.008-.012,0-.043-.008-.01,0-.048-.008-.014,0-.048-.008-.011,0-.042-.008-.013,0-.048-.009-.012,0-.046-.008h-.006l-.049-.009-.014,0-.049-.009-.009,0-.043-.008-.013,0-.048-.009-.013,0-.042-.008-.013,0-.045-.009-.014,0-.048-.009-.012,0-.041-.008-.012,0-.048-.009-.014,0L71.57,76.3h-.006l-.047-.009-.015,0-.048-.009-.011,0-.042-.008-.012,0-.048-.011-.013,0-.049-.009h-.008l-.045-.009-.013,0-.048-.011-.013,0-.043-.008-.009,0-.049-.009-.012,0-.05-.011h-.006l-.044-.009-.015,0-.046-.009-.014,0-.04-.008-.012,0-.047-.009-.015,0-.048-.009-.011,0-.041-.008-.014,0-.047-.009-.015,0-.041-.008-.011,0-.046-.009-.015,0-.047-.009-.012,0-.04-.009-.013,0-.047-.009-.015,0-.043-.009-.012,0-.045-.009-.013,0L70.129,76l-.012,0-.041-.009-.012,0-.047-.011-.016,0-.047-.011h-.007l-.046-.011-.012,0-.049-.011-.011,0-.042-.009-.011,0-.048-.011-.014,0-.048-.011-.009,0-.042-.009-.013,0-.046-.011-.016,0-.039-.008-.012,0-.047-.011-.015,0-.047-.011-.011,0-.04-.009-.013,0-.047-.011-.014,0-.041-.009-.011,0-.046-.009-.015,0-.045-.011-.016,0-.036-.008-.015,0-.046-.011a.072.072,0,0,1-.015,0l-.042-.009-.011,0-.044-.009-.015,0-.046-.011-.013,0-.041-.009-.011,0-.048-.011-.014,0-.043-.009-.015,0-.041-.009-.014,0-.046-.011-.015,0-.04-.009-.011,0-.046-.011-.017,0-.044-.009-.013,0-.038-.009-.017,0-.044-.011-.017,0-.036-.008-.014,0-.045-.011-.017,0-.046-.011-.013,0-.038-.009-.016,0-.044-.011-.017,0L67.9,75.5l-.012,0-.044-.011-.018,0-.044-.011-.015,0-.035-.008-.018,0-.043-.009-.017,0-.04-.009-.014,0-.041-.009-.018,0L67.5,75.4l-.019,0-.032-.007-.019,0-.042-.011-.02,0-.036-.009-.022,0-.033-.008-.021-.006-.042-.009-.018,0-.033-.008-.017,0L67.1,75.3l-.019,0-.04-.009-.017,0-.036-.009-.017,0-.044-.012-.017,0-.036-.009-.014,0-.044-.011-.019,0-.044-.012-.012,0-.037-.009-.016,0-.045-.011-.016,0-.037-.009-.016,0-.043-.012-.015,0-.046-.012-.012,0-.038-.009-.015,0-.044-.012-.018,0-.037-.009-.017,0-.039-.011-.018,0-.044-.012-.015,0-.035-.009-.017,0-.043-.012-.018,0-.037-.009-.02-.006-.036-.009-.018,0L65.91,75l-.018,0-.032-.008-.017,0-.043-.012-.019,0-.037-.009-.022-.006-.032-.009-.02,0-.042-.012-.018,0-.031-.008-.022-.006-.038-.009-.02-.006-.033-.008-.028-.008-.029-.007-.02-.006-.043-.012-.017,0-.034-.009-.018,0-.039-.011-.02,0-.04-.011-.02-.006-.031-.008-.02-.006-.042-.011-.019-.006-.031-.008-.026-.007-.032-.009-.021,0-.041-.012-.02-.006-.03-.008-.019,0-.041-.012-.02-.006-.031-.008-.028-.007-.029-.008-.022-.006-.04-.012-.021-.006-.027-.007-.024-.007-.037-.011-.021-.006-.032-.009-.026-.007-.03-.008-.021-.006-.041-.012a.137.137,0,0,1-.02-.006l-.029-.008-.022-.006-.039-.011-.02-.006-.035-.009-.025-.007-.028-.008-.021-.006-.04-.012-.021-.006L64,74.471l-.027-.007-.033-.011-.021-.006-.033-.009-.028-.008-.027-.007-.02-.006-.04-.012-.023-.006-.027-.008-.03-.008-.029-.009-.023-.006-.036-.011-.024-.007-.026-.008-.022-.006-.04-.012-.021-.006-.029-.008-.03-.009-.03-.008-.02-.006-.04-.012-.02-.006-.028-.008-.02-.006-.04-.012-.022-.007-.032-.009-.024-.007-.033-.009-.018-.006-.042-.012-.018-.006L63,74.175l-.02-.006-.039-.012-.021-.006-.034-.009-.025-.008-.03-.008-.02-.007-.039-.012-.023-.006-.027-.008-.025-.008-.035-.009-.022-.007-.037-.011-.021-.007-.03-.009-.02-.006-.04-.012-.02-.006-.03-.009L62.414,74l-.032-.009-.022-.007-.036-.011-.024-.007-.029-.009-.02-.006-.041-.012-.02-.006-.034-.011-.021-.007c-.011,0-.022-.006-.034-.011l-.02-.006-.041-.013-.017,0-.033-.011-.017,0-.041-.013-.021-.006-.03-.009-.029-.009-.028-.008-.021-.007-.04-.013-.02-.006-.03-.009-.023-.007-.035-.011-.022-.007-.033-.011-.024-.008-.028-.008-.021-.007-.04-.013-.02-.006-.029-.009-.028-.008-.031-.009-.022-.007-.032-.011L61.3,73.65l-.026-.007-.022-.007-.038-.013-.023-.007-.027-.008-.03-.009-.029-.009-.022-.007-.04-.013-.02-.007L61,73.555l-.023-.008-.038-.012-.021-.007-.03-.009-.028-.009-.029-.009-.022-.007-.039-.013-.022-.007-.025-.008-.022-.007-.037-.012-.022-.007-.029-.009-.031-.011-.024-.008-.025-.008-.036-.012-.024-.007-.022-.008-.031-.009-.029-.011-.024-.007-.027-.009-.034-.011-.023-.008-.024-.008-.037-.012L60.2,73.29l-.02-.006-.039-.014-.022-.007-.025-.008-.023-.008-.037-.012-.022-.007-.024-.008-.037-.013-.023-.007L59.9,73.19l-.032-.011-.028-.009-.021-.007-.034-.012-.027-.009-.026-.008-.021-.007-.038-.013-.023-.008-.025-.008-.031-.011-.028-.009-.021-.007-.039-.014-.022-.007-.024-.008-.028-.009-.033-.012-.022-.007L59.349,73l-.031-.011-.027-.009-.021-.007-.037-.013-.024-.008-.022-.008-.031-.011-.029-.009-.024-.008-.024-.008-.035-.013-.023-.007L59,72.881l-.038-.013-.022-.008-.024-.008-.03-.011-.03-.011-.022-.008-.028-.009L58.77,72.8l-.025-.009-.021-.007-.038-.013-.023-.008-.025-.009-.032-.011-.027-.009-.023-.008-.029-.011L58.5,72.7l-.022-.008-.024-.008-.037-.013-.025-.008-.019-.007-.04-.014-.021-.008-.024-.008-.03-.011-.029-.011L58.2,72.6l-.021-.008-.038-.013-.023-.008-.026-.009-.03-.012-.027-.009-.022-.008-.038-.013-.022-.008-.024-.008-.027-.009-.033-.012-.023-.008-.028-.011-.03-.011-.027-.009-.02-.008-.039-.014-.021-.007-.028-.011-.021-.007-.036-.013-.022-.008-.028-.011-.031-.012-.023-.008-.025-.008-.035-.013-.024-.009-.022-.008-.035-.013-.024-.008-.024-.009-.024-.008-.036-.014-.022-.008-.023-.008-.037-.013-.023-.009-.025-.008-.032-.013-.024-.008-.025-.009-.025-.009-.034-.013-.022-.008-.025-.009-.034-.013-.023-.008-.024-.009-.035-.013-.024-.008-.023-.009-.036-.013-.024-.009-.022-.008-.035-.013-.024-.009-.025-.009L56.575,72l-.033-.013-.024-.009-.024-.008-.036-.014-.023-.008-.023-.009-.035-.013-.024-.009-.024-.008-.025-.011-.035-.013-.021-.008-.025-.009-.035-.013-.024-.009-.022-.008-.034-.013-.024-.009-.024-.009-.032-.013L56,71.779l-.023-.009-.024-.008-.036-.014-.023-.009-.024-.009-.033-.012-.025-.011-.023-.008-.03-.012-.029-.012-.022-.008-.026-.011-.033-.013-.023-.008-.026-.011-.031-.012-.026-.011-.022-.008-.038-.015-.02-.007-.025-.011-.027-.011-.031-.012-.023-.009-.023-.009L55.3,71.5,55.28,71.5l-.024-.009-.036-.014-.023-.009-.022-.008-.036-.014-.022-.009-.025-.009-.023-.009-.036-.014-.021-.008-.024-.009-.036-.014-.024-.011-.018-.007-.042-.017-.018-.007-.025-.011L54.8,71.3l-.036-.014-.02-.008-.024-.009-.036-.014-.023-.009-.022-.009-.034-.014-.024-.009-.023-.009-.03-.012-.028-.012-.022-.009-.026-.011-.034-.013L54.4,71.14l-.024-.009-.033-.014-.024-.009-.023-.009-.026-.011-.034-.014-.021-.008-.031-.013a.294.294,0,0,1-.029-.012l-.024-.009-.021-.008-.037-.015L54.052,71l-.024-.011-.035-.014-.023-.009-.022-.009-.03-.013-.029-.012-.022-.009a.232.232,0,0,1-.026-.011l-.033-.013-.022-.009-.023-.009-.036-.015-.023-.009-.022-.009-.034-.014-.024-.009-.024-.011-.024-.009-.034-.014-.02-.009-.024-.009-.035-.015-.024-.009-.02-.009-.035-.014-.024-.011-.023-.009-.026-.011-.034-.015-.017-.007-.044-.019L53.2,70.64l-.027-.012-.015-.006-.042-.019L53.1,70.6l-.026-.012-.016-.007-.043-.018-.015-.007-.049-.021-.01,0-.027-.012-.016-.007-.042-.018-.019-.008-.025-.011-.015-.007-.045-.019-.015-.007-.046-.02-.013,0-.028-.012-.015-.007-.043-.019-.018-.007-.026-.012-.011,0c-.016-.007-.032-.013-.048-.021l-.016-.006-.045-.02-.014-.006-.027-.012-.015-.007-.043-.019-.017-.007-.047-.021-.012,0-.027-.012L52.2,70.21l-.045-.019-.014-.006-.028-.013-.016-.007-.042-.018-.018-.008-.047-.021a.039.039,0,0,1-.011,0l-.028-.012-.012-.006-.048-.02-.014-.007-.027-.012-.012,0L51.8,70.03l-.016-.007L51.731,70l-.009,0-.029-.013-.011,0-.049-.021-.012-.006-.028-.013h0l-.055-.025-.013-.006-.053-.024-.006,0-.029-.013-.011,0-.049-.022-.013,0-.028-.013-.007,0-.051-.024-.018-.008-.042-.019-.015-.007-.028-.012-.013-.006-.046-.021-.014-.006-.051-.024-.009,0-.025-.012L51,69.67l-.04-.019-.019-.008-.026-.012-.015-.006-.044-.021-.015-.006-.041-.019-.017-.008-.026-.012-.018-.008-.042-.02-.015-.006-.028-.013-.008,0-.05-.024-.015-.007-.044-.02-.016-.007-.025-.012-.017-.007-.044-.021-.014-.006-.087-.04-.012-.006-.052-.025-.007,0-.028-.013-.014-.007-.046-.021-.013-.006-.087-.041-.012,0-.053-.026-.005,0-.029-.013-.011-.006-.05-.024-.011,0-.09-.043-.007,0-.055-.026-.007,0-.028-.014-.011,0-.049-.024-.011,0-.058-.028h0L49.554,69l-.011,0-.051-.025-.009,0-.029-.014-.007,0-.052-.025-.012-.006-.048-.022-.012-.006-.027-.013-.012-.006-.048-.022-.012-.006-.027-.013-.011-.006-.049-.024-.011-.006-.051-.024-.009,0-.029-.014-.007,0-.054-.026-.008,0-.029-.014h0l-.058-.027-.011-.006-.052-.025-.007,0-.03-.015,0,0-.054-.026-.01,0-.089-.044-.009,0-.054-.027-.007,0-.03-.014h0l-.059-.028-.007,0-.091-.045-.007,0-.054-.026-.008,0-.09-.044-.006,0-.09-.045-.008,0-.052-.026-.008,0-.088-.044-.011-.006-.055-.027,0,0-.03-.014-.007,0-.054-.027-.007,0-.09-.045-.007,0-.057-.03h0l-.03-.015,0,0-.058-.028-.006,0-.091-.046-.006,0-.15-.077-.009,0-.088-.045-.01,0-.05-.025-.01-.006-.028-.014,0,0-.055-.028-.009,0-.09-.046h0l-.06-.031h0l-.092-.047,0,0-.093-.048h0l-.062-.032h0l-.093-.048h0l-.154-.08,0,0-.09-.047-.008,0-.057-.031h0l-.091-.047-.006,0-.089-.047-.007,0-.056-.03h0l-.091-.048-.006,0-.09-.048-.005,0-.058-.031h0L45.613,67,45.6,67l-.087-.047-.007,0-.054-.028-.006,0-.088-.047-.008,0-.089-.047,0,0-.053-.03-.009,0-.087-.047-.008,0-.057-.032s0,0,0,0l-.031-.017h0l-.059-.032,0,0-.091-.05,0,0-.06-.033h0l-.091-.05,0,0-.09-.05h0l-.061-.034h0l-.091-.05,0,0-.09-.05h0l-.059-.033h0l-.09-.05-.005,0-.151-.084h0l-.092-.052s0,0,0,0c-.268-.151-.534-.3-.8-.455h0l-.245-.142h0l-.244-.142h0l-.245-.143h0l-.243-.144h0c-.244-.144-.487-.29-.73-.436h0l-.241-.145,0,0A94.359,94.359,0,0,1,.49,13.139,10.046,10.046,0,0,1,19.6,6.939a73.827,73.827,0,0,0,70.39,51.073,10.046,10.046,0,1,1,0,20.093Z" transform="translate(4.107 110.09)" fill="#f47320"/>
        </g>
        <g id="Path_40038" data-name="Path 40038" transform="matrix(0.766, -0.643, 0.643, 0.766, 0.322, 121.293)">
          <path id="Path_40608" data-name="Path 40608" d="M94.1,188.2A94.1,94.1,0,1,0,0,94.1a94.1,94.1,0,0,0,94.1,94.1Z" transform="translate(0 0)" fill="none"/>
          <path id="Path_40609" data-name="Path 40609" d="M89.992,78.1H88.641l-.122,0h-.727l-.065,0h-.184l-.053,0h-.127l-.06,0h-.063l-.121,0-.062,0H87l-.064,0-.121,0h-.063l-.056,0-.064,0-.06,0h-.061l-.063,0-.055,0-.065,0-.059,0-.06,0-.064,0-.054,0-.065,0-.06,0-.058,0-.064,0-.054,0h0l-.065,0-.054,0h-.008l-.058,0-.064,0-.054,0h0l-.063,0-.062,0-.056,0-.065,0-.055,0h0l-.064,0-.062,0-.056,0-.065,0-.059,0-.06,0-.064,0-.054,0h0l-.065,0-.058,0-.06,0-.064,0-.052,0h0l-.065,0-.061,0-.058,0-.065,0-.052,0h0l-.064,0-.061,0-.057,0-.064,0-.058,0-.061,0-.063,0-.054,0-.052,0-.065,0h0l-.05,0-.063,0-.06,0h-.006l-.052,0h-.012l-.051,0-.055,0-.063,0h-.012l-.052,0h0l-.053,0h-.013l-.052,0-.057,0h-.008l-.053,0h-.009l-.054,0h0l-.051,0h-.012l-.052,0-.057,0h-.008l-.052,0h-.013l-.052,0h0l-.048,0h-.014l-.05,0h-.012l-.044,0h-.012l-.05,0h-.013l-.051,0h-.008l-.046,0H82.05l-.051,0h-.012l-.047,0h-.007l-.052,0h-.013l-.052,0h-.008l-.046,0H81.75l-.051,0h-.01l-.052,0h0l-.054,0h-.01l-.052,0h-.009l-.047,0h-.009l-.052,0h-.013l-.052,0h0l-.052,0H81.27l-.05,0h-.012l-.044,0h-.011l-.051,0H81.09l-.052,0h-.006l-.049,0h-.011l-.052,0H80.91l-.046,0h-.009l-.05-.006H80.79l-.05,0h-.009l-.046,0h-.011l-.051-.006h-.013l-.046,0h-.008l-.052-.006h-.012l-.052,0h-.006l-.049-.006h-.009l-.052-.006h-.012l-.049,0h0l-.052,0H80.2l-.052-.006h-.008l-.048-.006h-.01l-.051-.006h-.012l-.051-.006h0l-.052-.006H79.9l-.051,0h-.01l-.048-.006h-.007l-.052-.006h-.013l-.052-.006h0l-.049-.006H79.6l-.05-.006h-.011l-.046,0h-.008l-.05,0-.014,0-.05-.006h-.01l-.044-.006H79.3l-.05-.006h-.012l-.049-.006h0l-.052-.006h-.013l-.051-.006h-.008l-.046,0-.013,0-.05-.006h-.013l-.047,0h-.007l-.05-.006-.014,0-.05,0-.011,0-.043,0h-.012l-.049-.006-.015,0-.048-.006h0l-.049-.006-.016,0-.048-.006h-.014l-.04,0-.014,0-.048-.006h-.016l-.049-.006H78.3l-.046-.006h-.014l-.049-.007h-.012l-.047-.006h-.007l-.051-.007h-.012L78,77.348h0l-.05-.006-.013,0-.05-.006h-.011l-.045-.006h-.01l-.05-.007h-.013l-.051-.007H77.7l-.045-.006h-.012L77.6,77.3h-.015l-.043-.006h-.009l-.049-.007h-.016l-.049-.007h-.009l-.043-.006H77.35l-.048-.007-.015,0-.045-.006h-.01l-.048-.006-.013,0-.051-.007h-.009l-.046-.006h-.009l-.05-.007-.015,0-.05-.006h0l-.048-.007h-.013l-.05-.007h-.01l-.044-.007h-.011l-.049-.007H76.7l-.049-.007h-.009l-.044-.007h-.013l-.048-.007-.014,0-.043-.006h-.009l-.049-.007-.014,0-.049-.007h-.01l-.043-.006-.014,0-.049-.007-.012,0-.045-.006h-.008l-.05-.008H76.11l-.048-.007-.014,0-.039-.006-.015,0-.048-.007-.015,0-.043-.006-.011,0-.046-.007h-.015l-.048-.008h-.013l-.042-.007H75.7l-.049-.008h-.013l-.045-.007-.015,0L75.538,77l-.015,0c-.015,0-.032-.006-.047-.007l-.016,0-.038-.006h-.014l-.047-.008-.016,0-.047-.007-.012,0-.04-.006-.016,0-.046-.007-.016,0-.038-.007h-.014l-.047-.008-.016,0L75,76.918l-.012,0-.04-.006-.015,0-.046-.008-.017,0-.039-.006-.012,0-.047-.008-.015,0-.047-.007-.014,0-.037-.006-.017,0-.045-.007-.018,0-.039-.007-.015,0-.044-.007-.015,0-.047-.008-.015,0-.038-.006a.058.058,0,0,0-.014,0l-.047-.008-.016,0-.043-.008h-.013l-.042-.007-.017,0-.046-.007-.015,0-.04-.006-.012,0-.048-.008-.015,0-.049-.008h-.008l-.044-.008-.014,0-.048-.008-.014,0-.042-.007h-.01l-.048-.008-.016,0-.048-.008h-.009l-.043-.008-.013,0-.048-.008-.013,0-.043-.007-.009,0-.049-.008-.013,0-.05-.008-.008,0-.046-.008H73.3l-.049-.009-.014,0L73.2,76.61H73.19l-.05-.009-.014,0-.049-.009h-.011l-.043-.008-.012,0-.048-.008-.014,0-.047-.009H72.9l-.047-.008-.014,0-.048-.008a.053.053,0,0,0-.013,0l-.042-.008-.01,0-.049-.008-.014,0-.049-.008H72.6l-.043-.008-.016,0-.047-.008-.012,0-.043-.008-.01,0-.048-.008-.014,0-.048-.008-.011,0-.042-.008-.013,0-.048-.009-.012,0-.046-.008h-.006l-.049-.009-.014,0-.049-.009-.009,0-.043-.008-.013,0-.048-.009-.013,0-.042-.008-.013,0-.045-.009-.014,0-.048-.009-.012,0-.041-.008-.012,0-.048-.009-.014,0L71.57,76.3h-.006l-.047-.009-.015,0-.048-.009-.011,0-.042-.008-.012,0-.048-.011-.013,0-.049-.009h-.008l-.045-.009-.012,0-.048-.011-.013,0-.043-.008-.009,0-.049-.009-.012,0-.05-.011h-.006l-.044-.009-.015,0-.046-.009-.014,0-.04-.008-.012,0-.047-.009-.015,0-.048-.009-.011,0-.041-.008-.014,0-.047-.009-.015,0-.041-.008-.011,0-.046-.009-.015,0-.047-.009-.012,0-.04-.009-.013,0-.047-.009-.015,0-.043-.009-.012,0-.045-.009-.013,0L70.128,76l-.012,0-.041-.009-.012,0-.047-.009a.074.074,0,0,0-.016,0l-.047-.011h-.007l-.046-.011-.012,0-.049-.011-.011,0-.042-.009-.011,0-.048-.011-.014,0-.048-.011-.009,0-.042-.009-.013,0-.046-.011-.016,0-.039-.008-.011,0-.047-.011-.015,0-.047-.011-.011,0-.04-.009-.013,0-.047-.011-.014,0-.041-.008-.011,0-.046-.009-.015,0-.045-.011-.016,0-.036-.008-.015,0-.046-.011a.072.072,0,0,1-.015,0l-.042-.009-.011,0-.044-.009-.015,0-.046-.011-.013,0-.041-.009-.011,0-.048-.011-.014,0-.043-.009-.015,0-.041-.009-.014,0-.046-.011-.015,0-.04-.009-.011,0-.046-.011-.016,0-.044-.009-.013,0-.038-.009-.017,0-.044-.011-.017,0-.036-.008-.014,0-.045-.011-.017,0-.046-.011-.013,0-.038-.009-.016,0-.044-.011-.017,0L67.9,75.5l-.012,0-.044-.011-.018,0-.044-.011-.015,0-.035-.008-.018,0-.043-.009-.017,0-.04-.009-.014,0-.041-.009-.018,0L67.5,75.4l-.019,0-.032-.007-.019,0-.042-.011-.02,0-.036-.009-.022,0-.033-.008-.021-.006-.042-.009-.018,0-.033-.008-.017,0L67.1,75.3l-.019,0-.04-.009-.017,0-.036-.009-.017,0-.044-.012-.017,0-.036-.009-.014,0-.044-.011-.019,0-.044-.012-.012,0-.037-.009-.016,0-.045-.011-.016,0-.037-.009-.016,0-.043-.012-.015,0-.046-.012-.012,0-.038-.009-.015,0-.044-.012-.018,0-.037-.009-.017,0-.039-.011-.018,0-.044-.012-.015,0-.035-.009-.017,0-.043-.012-.018,0-.037-.009-.02-.006-.036-.009-.018,0L65.91,75l-.018,0-.032-.008-.017,0-.043-.012-.019,0-.037-.009-.022-.006-.032-.008-.02-.006-.042-.012-.018,0-.031-.008-.022-.006-.038-.009-.02-.006-.033-.008-.028-.008-.029-.007-.02-.006-.043-.012-.017,0-.034-.009-.018,0-.039-.011-.02,0-.04-.011-.02-.006-.031-.008-.02-.006-.042-.011-.019-.006-.031-.008-.026-.007-.032-.009-.021,0-.041-.012-.02-.006-.03-.008-.019,0-.041-.012-.021-.006-.03-.008-.028-.007-.029-.008-.022-.006-.04-.012-.021-.006-.027-.007-.024-.007-.037-.011-.021-.006-.032-.009-.026-.007-.03-.008-.021-.006-.041-.012a.132.132,0,0,1-.02-.006l-.029-.008-.022-.006-.039-.011-.02-.006-.035-.009-.025-.007-.028-.008-.021-.006-.04-.012-.021-.006L64,74.47l-.027-.007-.033-.011-.021-.006-.033-.009-.028-.008-.027-.007-.02-.006-.039-.012-.023-.006-.027-.008-.03-.008-.029-.009-.023-.006-.036-.011-.024-.007-.026-.008-.022-.006-.04-.012-.021-.006-.029-.008-.03-.009-.03-.008-.02-.006-.04-.012-.02-.006-.028-.008-.02-.006-.04-.012-.022-.007-.032-.009-.024-.007-.033-.009-.018-.006-.042-.012-.018-.006L63,74.175l-.02-.006-.039-.012-.021-.006-.034-.009-.025-.008-.03-.008-.02-.007-.039-.012-.023-.006-.027-.008-.025-.008-.035-.009-.022-.007-.037-.011-.021-.007-.03-.009-.02-.006-.04-.012-.02-.006-.03-.009L62.414,74l-.032-.009-.022-.007-.036-.011-.024-.007-.029-.009-.02-.006-.041-.012-.02-.006-.034-.011-.021-.007c-.012,0-.022-.006-.034-.011l-.02-.006-.041-.013-.017,0-.033-.011-.017,0-.041-.013-.021-.006-.03-.009-.029-.009-.028-.008-.021-.007-.04-.013-.02-.006-.03-.009-.023-.007-.035-.011-.022-.007-.033-.011-.024-.008-.028-.008-.021-.007-.04-.013-.02-.006-.029-.009-.028-.008-.031-.009-.022-.007-.032-.011L61.3,73.65l-.026-.007-.022-.007-.038-.013-.023-.007-.027-.008-.029-.009-.029-.009-.022-.007-.04-.013-.02-.007L61,73.554l-.023-.008-.038-.012-.021-.007-.03-.009-.028-.009L60.83,73.5l-.022-.007-.039-.013-.022-.007-.025-.008-.022-.007-.037-.012-.022-.007-.029-.009-.031-.011-.024-.008-.025-.008-.036-.012-.024-.007-.022-.008-.031-.009-.029-.011-.023-.007-.027-.009-.034-.011-.023-.008-.024-.008-.037-.012L60.2,73.29l-.02-.006-.039-.014-.022-.007-.025-.008-.023-.008-.037-.012-.022-.007-.024-.008-.037-.013-.023-.007L59.9,73.19l-.032-.011-.028-.009-.021-.007-.034-.012-.027-.009-.026-.008-.021-.007-.039-.013-.023-.008-.026-.008-.031-.011-.028-.009-.021-.007-.039-.014-.022-.007-.024-.008-.028-.009-.033-.012-.022-.007L59.349,73l-.031-.011-.027-.009-.021-.007-.037-.013-.024-.008-.022-.008-.031-.011-.029-.009-.024-.008-.024-.008-.035-.013-.023-.007L59,72.881l-.038-.013-.022-.008-.024-.008-.03-.011-.03-.011-.022-.008-.028-.009L58.77,72.8l-.025-.009-.021-.007-.038-.013-.023-.008-.025-.008-.032-.012-.027-.009-.023-.008-.029-.011L58.5,72.7l-.022-.008-.024-.008-.037-.013-.025-.008-.019-.007-.04-.014-.021-.008-.024-.008-.03-.011-.029-.011L58.2,72.6l-.021-.008-.038-.013-.023-.008-.026-.009-.03-.012-.027-.009-.022-.007-.038-.014-.022-.008-.024-.008-.027-.009-.033-.012-.023-.008-.028-.011-.029-.011-.027-.009-.02-.008-.039-.014-.021-.007-.028-.011-.021-.007-.036-.013-.022-.008-.028-.011-.031-.012-.023-.008-.025-.008-.035-.013-.024-.009-.022-.008-.035-.013-.024-.008-.024-.009-.024-.008-.036-.014a.17.17,0,0,1-.022-.008l-.023-.008-.037-.013-.023-.009-.025-.008-.032-.013-.024-.008-.025-.009-.025-.009-.034-.013-.022-.008-.025-.009-.034-.013-.023-.008-.024-.009-.035-.013-.024-.008-.023-.009-.036-.013-.024-.009-.022-.008-.035-.013-.024-.009-.025-.009L56.575,72l-.033-.013-.024-.009-.024-.008-.036-.014-.023-.008-.023-.009-.035-.013-.024-.009-.024-.008-.025-.011-.035-.013-.021-.008-.025-.009-.035-.013-.024-.009-.022-.008-.034-.013-.024-.009-.024-.009-.032-.013L56,71.779l-.023-.009-.024-.008-.036-.014-.023-.009-.024-.009-.033-.012-.025-.011-.023-.008-.03-.012-.029-.012-.022-.008-.026-.011-.033-.013-.023-.008-.026-.011-.031-.012-.026-.011-.022-.008-.038-.015-.02-.007-.025-.011-.027-.011-.031-.012-.023-.009-.023-.009L55.3,71.5,55.28,71.5l-.024-.009-.036-.014-.023-.009-.022-.008-.036-.014-.022-.009-.025-.009-.023-.009-.036-.014-.021-.008-.025-.009-.036-.014-.024-.011-.018-.007-.042-.017-.018-.007-.025-.011L54.8,71.3l-.036-.014-.02-.008-.024-.009-.036-.014-.023-.009-.022-.009-.034-.014-.024-.009-.023-.009-.03-.012-.028-.012-.022-.009-.026-.011-.034-.013L54.4,71.14l-.025-.009-.032-.014-.024-.009-.023-.009-.026-.011-.034-.014-.021-.008-.031-.013a.293.293,0,0,1-.029-.012l-.024-.009-.021-.008-.037-.015L54.052,71l-.024-.011-.035-.014-.023-.009-.022-.009-.03-.013-.029-.012-.022-.009a.232.232,0,0,1-.026-.011l-.033-.013-.022-.009-.023-.009-.036-.015-.023-.009-.022-.009-.034-.014-.024-.009-.024-.011-.024-.009-.034-.014-.02-.009-.024-.009-.035-.015-.025-.009-.02-.009-.035-.014-.024-.011-.023-.009-.026-.011-.034-.015-.017-.007-.044-.019L53.2,70.64l-.027-.012-.015-.006-.042-.019L53.1,70.6l-.026-.012-.016-.007-.043-.018-.015-.007-.049-.021-.01,0-.027-.012-.016-.007-.042-.018-.019-.008-.025-.011-.015-.007-.045-.019-.015-.007-.046-.02-.013,0-.028-.012-.015-.007-.043-.019-.018-.007-.026-.012-.011,0c-.016-.007-.032-.013-.048-.021l-.016-.006-.045-.02-.014-.006-.027-.012-.015-.007-.043-.019-.017-.007-.047-.021-.012,0-.027-.012-.015-.006c-.016-.008-.029-.013-.045-.02l-.014-.006-.028-.013-.016-.007-.042-.018-.018-.008-.047-.021a.039.039,0,0,1-.011,0l-.028-.012-.012-.006-.048-.02-.014-.007-.027-.012-.012,0L51.8,70.03l-.016-.007L51.731,70l-.009,0-.029-.013-.011,0-.049-.021-.012-.006-.028-.013h0l-.055-.025-.013-.006-.053-.024-.006,0-.029-.013-.011,0-.049-.022-.013,0-.028-.013-.007,0-.051-.024-.018-.008-.042-.019-.015-.007-.028-.012-.013-.006-.046-.021-.014-.006-.051-.024-.009,0-.025-.012L51,69.669l-.04-.019-.019-.008-.026-.012-.015-.006-.044-.021-.015-.006-.041-.019-.017-.008-.026-.012-.018-.008-.042-.02-.015-.006-.028-.013-.008,0-.05-.024-.015-.007-.044-.02-.016-.007-.025-.012-.017-.007-.044-.021-.014-.006-.087-.04-.012-.006-.052-.025-.007,0-.028-.013-.014-.007-.046-.021-.013-.006-.087-.041-.012,0-.053-.026-.005,0-.029-.013-.011-.006-.05-.024-.011,0-.09-.043-.007,0-.055-.026-.007,0-.028-.014-.011,0-.049-.024-.011,0-.058-.028h0L49.554,69l-.011,0-.051-.025-.009,0-.029-.014-.007,0-.052-.025-.012-.006-.048-.022-.012-.006-.027-.013-.012-.006-.048-.022-.012-.006-.027-.013-.011-.006-.049-.024-.011-.006-.051-.024-.009,0-.029-.014-.007,0-.054-.026-.009,0-.029-.014h0l-.058-.027-.011-.006-.052-.025-.007,0-.03-.015,0,0-.054-.026-.01,0-.089-.044-.009,0-.054-.027-.007,0-.03-.014h0l-.059-.028-.007,0-.091-.045-.007,0-.054-.026-.008,0-.09-.044-.006,0-.09-.045-.008,0-.052-.027-.008,0-.088-.044-.011-.006-.055-.027,0,0-.03-.014-.007,0-.054-.027-.007,0-.09-.045-.007,0-.057-.03h0l-.031-.015,0,0-.057-.028-.006,0-.091-.046-.006,0-.15-.077-.008,0-.088-.045-.01,0-.05-.025-.01-.006-.028-.014,0,0-.055-.028-.009,0-.09-.046h0l-.06-.031h0l-.092-.047,0,0-.092-.048h0l-.062-.032h0l-.093-.048h0l-.154-.08,0,0-.09-.047-.008,0-.057-.031h0l-.091-.047-.006,0-.089-.047-.007,0-.056-.03h0l-.09-.048-.006,0-.09-.048-.005,0-.058-.031h0L45.613,67,45.6,67l-.087-.047-.007,0-.054-.028-.006,0-.088-.047-.008,0-.089-.047,0,0-.053-.03-.009,0-.087-.047-.008,0-.057-.032s0,0,0,0l-.031-.017s0,0,0,0l-.059-.032,0,0-.091-.05,0,0-.06-.033h0l-.091-.05,0,0-.09-.05h0l-.061-.034h0l-.091-.05,0,0-.09-.05h0l-.059-.033h0l-.09-.05-.005,0-.151-.084h0l-.092-.052s0,0,0,0c-.268-.151-.534-.3-.8-.455h0l-.245-.142h0l-.244-.142h0l-.245-.143h0l-.243-.144h0c-.244-.144-.487-.29-.73-.436h0l-.241-.145,0,0A94.359,94.359,0,0,1,.49,13.139,10.046,10.046,0,0,1,19.6,6.939a73.827,73.827,0,0,0,70.39,51.073,10.046,10.046,0,1,1,0,20.093Z" transform="translate(4.107 110.092)" fill="#2b7b8a"/>
        </g>
        <g id="Path_40041" data-name="Path 40041" transform="translate(132.849 40.804) rotate(45)">
          <path id="Path_40610" data-name="Path 40610" d="M65.006,130.012A65.006,65.006,0,1,0,0,65.006a65.006,65.006,0,0,0,65.006,65.006Z" transform="translate(0 0)" fill="none"/>
          <path id="Path_40611" data-name="Path 40611" d="M64.035,64.707H62.364l-.047,0h-.231l-.091,0h-.047l-.048,0h-.09l-.048,0h-.092l-.044,0H61.58l-.047,0h-.046l-.043,0H61.4l-.048,0H61.3l-.045,0h-.094l-.047,0-.046,0h-.043l-.048,0-.047,0-.045,0-.043,0-.048,0-.047,0-.046,0h-.042l-.042,0h-.006l-.047,0-.047,0-.043,0-.046,0-.048,0-.047,0-.044,0-.044,0-.048,0-.047,0-.046,0-.041,0h0l-.048,0-.047,0-.046,0-.044,0-.045,0-.048,0-.047,0-.045,0-.043,0-.048,0-.046,0-.046,0-.04,0h0l-.048,0-.047,0-.046,0-.042,0h0l-.047,0-.047,0-.046,0-.044,0-.045,0-.047,0-.048,0-.045,0-.043,0-.047,0-.048,0-.045,0-.039,0h0l-.045,0-.047,0-.046,0-.044,0-.044,0-.047,0-.046,0-.046,0-.043,0-.048,0-.046,0-.047,0-.037,0h0l-.039,0h-.008l-.038,0h-.008l-.039,0h-.007l-.04,0h0l-.039,0h-.005l-.04,0h-.007l-.039,0h-.007l-.04,0h0l-.041,0h0l-.041,0h-.007l-.039,0h-.007l-.041,0h0l-.042,0h0l-.041,0H57.47l-.039,0h-.008l-.039,0h0l-.085-.009h0l-.04,0-.046,0H57.2l-.039,0h-.005l-.037,0h-.006l-.039,0h-.009l-.038,0h-.007l-.04,0h0l-.04,0h0l-.04,0h-.008l-.038,0h-.009l-.038,0H56.79l-.038,0h0l-.037,0H56.7l-.037,0h-.01l-.038,0H56.61l-.04,0h0l-.041,0h-.006l-.04,0h-.007l-.039,0h-.008l-.039,0h0l-.038,0h0l-.04,0H56.3l-.039,0h-.008l-.039,0h0l-.041,0h0l-.041,0h-.006l-.039,0H56.07l-.038,0h-.007l-.039,0h0l-.037,0h-.007l-.038,0H55.89l-.038,0h-.008l-.039,0h0l-.04,0h0l-.04-.006h-.007l-.039-.006h-.007l-.038-.006h-.008l-.037,0h0l-.039,0h-.008l-.037,0h-.01l-.037,0h-.009l-.038-.006h0l-.038,0h-.007l-.038,0h-.009l-.036,0-.01,0-.037,0h-.006l-.036,0h-.007l-.038-.006h-.008l-.037,0h-.009l-.038-.006h0L55,64.084h0l-.04-.006H54.95l-.038,0H54.9l-.038-.006h-.007l-.038-.006h0l-.038,0h-.007l-.038-.006h-.009l-.037,0h-.008l-.038-.006h0l-.037-.006h-.006l-.038,0h-.008l-.038-.006H54.5l-.038-.006h-.006l-.036,0h-.005l-.038-.006h-.008l-.038-.006h-.007l-.039-.006h-.005l-.04-.006h0l-.04-.006H54.19l-.039-.006h-.006l-.039-.006H54.1l-.041-.006h0l-.039-.007h-.007l-.038-.006h-.008l-.038-.006h-.008l-.038-.007h-.006l-.035-.006h-.007l-.037-.006h-.008l-.037-.006h-.008l-.038-.006H53.7l-.037-.006h0l-.039-.006h-.008l-.037-.006h-.009l-.037-.006H53.52l-.036-.006h-.007l-.035-.006h-.008l-.037-.007h-.01l-.036-.006h-.009l-.038-.006H53.3l-.035-.006h-.008l-.037-.006-.009,0-.036-.006h-.01l-.037-.007H53.12l-.034,0H53.08l-.036-.007h-.01L53,63.775l-.01,0-.036-.006h-.009l-.035-.006H52.9l-.035-.006-.01,0-.036-.006-.01,0-.035-.006h-.011l-.036-.007h0l-.034-.007H52.68l-.036-.006-.01,0L52.6,63.7l-.01,0-.037-.006h-.006l-.035-.006H52.5l-.036-.007h-.01l-.035-.007h-.011l-.035-.007h-.009l-.035-.007h0l-.038-.007h-.008l-.037-.007h-.009l-.037-.007h-.007l-.039-.007h0l-.039-.007h-.006l-.037-.006-.009,0-.037-.007h-.008l-.038-.007h-.006l-.036-.007h0l-.038-.007-.008,0-.037-.007H51.84l-.038-.007H51.8l-.039-.007h0l-.039-.007h-.007l-.037-.007h-.009l-.037-.008H51.62l-.038-.007h0l-.038-.008h-.007L51.5,63.5h-.007l-.038-.007-.007,0-.039-.007s0,0,0,0l-.038-.007h-.007l-.039-.007h-.006l-.038-.008h-.006l-.039-.008h0l-.038-.008h0l-.04-.008h-.005l-.039-.007-.007,0-.038-.007H51.05l-.037-.008h0l-.039-.008h-.005l-.039-.008h-.006l-.038-.007-.007,0-.039-.007h0l-.037-.007h-.007l-.038-.008h-.007l-.037-.008H50.7l-.037-.008h-.006l-.036-.007h-.006l-.038-.008h-.008l-.037-.008h-.007l-.037-.008h-.007l-.036-.008h0l-.037-.008-.009,0-.036-.007-.009,0-.035-.007-.01,0-.033-.007-.008,0-.033-.007h-.009l-.036-.008-.009,0-.036-.007-.008,0-.038-.008h-.005l-.035-.007h-.007l-.036-.008-.01,0-.035-.007-.01,0-.036-.008h-.008l-.033-.008h-.008l-.035-.008-.01,0-.034-.007-.012,0-.035-.008h-.008l-.034-.008h-.009l-.033-.008-.01,0-.033-.007-.013,0-.033-.008-.01,0-.036-.008h-.006l-.033-.007-.008,0-.035-.008-.01,0-.035-.007-.009,0-.036-.008-.006,0-.034-.007h-.006l-.036-.008-.01,0-.035-.008-.01,0L49.181,63l-.009,0-.034-.008h-.005l-.036-.008-.009,0-.035-.008-.01,0-.035-.008H49l-.037-.009h0l-.034-.007-.01,0-.035-.008-.01,0-.035-.008-.01,0-.035-.009h-.007L48.75,62.9h-.008l-.035-.008-.01,0-.035-.009-.01,0-.035-.008-.009,0-.032-.007-.006,0-.036-.008-.008,0-.035-.008-.011,0-.034-.008-.01,0-.031-.007-.012,0-.031-.008-.01,0-.033-.008-.013,0-.033-.007-.011,0-.031-.007-.013,0-.029-.007-.009,0-.034-.008-.012,0L48.1,62.74l-.01,0-.035-.009a.027.027,0,0,1-.009,0l-.031-.007-.007,0-.035-.008-.01,0L47.93,62.7l-.011,0-.034-.008-.01,0-.032-.008h-.006l-.036-.009h-.007l-.036-.009-.009,0-.034-.009-.011,0-.032-.008-.01,0-.03-.008-.01,0-.034-.009-.011,0-.033-.008-.013,0-.033-.008a.028.028,0,0,0-.009,0l-.029-.008-.009,0-.035-.009-.01,0-.033-.008-.013,0-.033-.008-.011,0-.029-.007-.014,0-.028-.008-.013,0-.031-.008-.013,0-.032-.008-.012,0-.029-.007-.014,0-.027-.008-.012,0-.032-.009-.013,0-.032-.008-.013,0-.028-.007-.015,0-.025-.007-.015,0-.028-.008-.015,0-.031-.008-.013,0-.032-.009-.011,0-.028-.008-.012,0-.03-.008-.013,0-.032-.008-.012,0-.032-.008-.012,0-.027-.008-.015,0-.026-.007-.014,0-.031-.008-.013,0-.031-.009-.013,0-.029-.008-.013,0-.027-.007-.011,0-.032-.009-.012,0-.032-.009-.012,0-.033-.009-.01,0-.027-.008-.014,0-.029-.008-.012,0L46.09,62.2l-.013,0-.032-.009-.011,0-.028-.008-.013,0-.03-.008-.011,0-.032-.009-.013,0-.032-.008-.011,0-.029-.008-.014,0-.027-.007-.012,0-.032-.009-.013,0-.032-.009-.012,0-.032-.009-.01,0-.028-.008-.01,0-.032-.009-.012,0-.032-.009-.012,0-.031-.009-.013,0-.027-.008-.014,0L45.413,62,45.4,62l-.031-.009-.012,0-.031-.009-.013,0-.028-.008-.012,0-.028-.008-.011,0-.032-.009-.012,0-.031-.009-.014,0-.03-.009-.011,0-.029-.008-.01,0-.032-.009-.012,0-.031-.009-.013,0-.032-.009-.01,0-.029-.008-.009,0-.032-.009-.011,0-.032-.009-.012,0-.033-.011-.01,0-.03-.009-.01,0-.032-.011-.009,0-.033-.011-.012,0-.032-.009-.011,0-.031-.009-.011,0-.029-.009-.009,0-.032-.011-.014,0-.03-.011-.013,0-.03-.009-.013,0-.025-.007-.015,0-.028-.009-.013,0-.031-.011-.012,0-.031-.011-.013,0-.024-.008-.018,0-.024-.008-.014,0L44.1,61.6l-.014,0-.03-.009-.014,0-.026-.008-.015,0-.026-.008-.012,0-.032-.011-.012,0-.032-.011-.012,0-.032-.011-.011,0-.025-.008-.016,0-.028-.009-.013,0-.031-.011-.013,0-.031-.009-.013,0-.024-.007-.018-.006-.025-.008-.013,0-.031-.011-.013,0-.031-.011-.013,0a.205.205,0,0,1-.025-.008l-.017,0-.024-.008-.013,0-.031-.011-.013,0-.031-.011-.012,0-.028-.009-.015-.006-.026-.008-.011,0-.032-.011-.012,0-.032-.011-.012,0-.03-.011-.013,0-.024-.009-.015,0-.027-.008-.014,0-.03-.011-.012,0-.031-.011-.013,0-.024-.009-.017-.006-.024-.008-.014,0-.029-.009-.014,0-.03-.011-.014,0-.024-.008-.017-.006-.024-.008-.013,0-.029-.009-.015-.006-.028-.009-.015-.006-.026-.008-.017-.006-.022-.008-.019-.006-.025-.009-.014,0-.029-.009-.014-.006-.03-.011-.012,0L42.4,61.02l-.017-.007L42.354,61l-.013,0-.029-.011-.015,0-.029-.011-.013,0-.026-.008-.017-.007a.179.179,0,0,1-.023-.008l-.014,0-.029-.009-.015-.006-.028-.011-.014,0-.028-.009-.013,0-.025-.009-.013,0-.029-.011-.014,0-.03-.011-.013,0L41.9,60.84l-.013,0-.025-.009-.016,0-.025-.009-.014,0-.029-.011-.013-.006-.03-.011-.012,0-.029-.009-.011,0-.027-.009-.013,0-.03-.011-.013,0-.029-.012-.015,0-.024-.009-.017-.006-.022-.008-.022-.008-.021-.007-.016-.006-.028-.011-.015-.006-.026-.009-.015-.006-.023-.008-.016-.006-.027-.009-.013,0-.029-.012-.015,0-.028-.011-.015-.006-.021-.008-.02-.007-.023-.008-.013-.006-.029-.011-.014,0-.029-.012-.013,0-.024-.009-.018-.006-.023-.009-.012,0-.03-.011-.014-.006-.029-.011-.014-.006-.023-.008-.02-.008-.021-.007-.018-.007-.024-.009-.014-.006-.028-.011-.015-.006-.026-.009-.017-.007-.021-.008-.019-.007-.023-.008-.014-.006-.028-.011-.015-.006-.027-.011-.016-.006-.02-.008-.021-.008-.021-.008-.014-.006-.028-.011-.015-.006-.028-.011-.015-.006-.023-.009-.018-.007-.021-.008-.017-.007-.025-.009L40.2,60.2l-.028-.011-.015-.006-.026-.011-.015-.006-.023-.008a.108.108,0,0,0-.018-.007l-.023-.009-.015-.006-.028-.011L40,60.118l-.028-.011-.014-.006-.021-.008-.02-.008-.021-.008-.015-.006-.027-.011-.015-.006-.028-.012-.014-.006-.023-.008-.019-.008-.021-.008L39.713,60l-.025-.009-.015-.007-.028-.011-.014-.006-.024-.009-.018-.007-.022-.009-.016-.006-.024-.011-.016-.006-.028-.012-.013,0-.029-.012-.013-.006-.022-.009-.019-.007-.023-.009-.014-.006-.028-.012-.014-.006-.029-.012-.013,0-.023-.009-.019-.008L39.2,59.8l-.017-.007-.026-.011-.014-.006-.028-.012-.013-.006-.025-.009a.1.1,0,0,0-.017-.007l-.021-.009-.019-.007L39,59.711l-.015-.006-.027-.011-.015-.007-.026-.011L38.9,59.67l-.02-.008-.021-.008-.021-.009-.014-.006-.028-.012-.015-.006-.028-.012-.012,0-.026-.011-.015-.007-.024-.009-.013-.006-.029-.012-.014-.006-.028-.012-.013-.006-.025-.011-.016-.007-.023-.009L38.5,59.5l-.029-.012-.013-.006-.029-.012-.013-.006-.029-.013-.012,0-.025-.011-.013-.006-.026-.011-.014-.006-.028-.013L38.26,59.4l-.028-.012-.014-.006L38.2,59.37l-.015-.007-.024-.011-.013-.006-.029-.012-.013-.006-.028-.013-.014-.006-.024-.011-.015-.006L38,59.282l-.013-.006-.028-.012-.013-.006-.028-.013L37.9,59.24l-.024-.011-.017-.007-.022-.009-.016-.007-.024-.011-.015-.007-.027-.012-.015-.006-.028-.013-.013-.006-.021-.009-.019-.008-.022-.009-.014-.007-.026-.011-.017-.008-.026-.012-.015-.006-.02-.009-.02-.008-.021-.009-.013-.006-.028-.013-.015-.006-.027-.013-.014-.006L37.357,59l-.019-.008-.02-.008-.018-.008-.023-.011-.015-.007-.026-.012-.015-.007-.024-.011-.016-.008-.021-.009-.019-.008-.021-.009-.015-.007-.027-.012-.015-.007-.025-.011-.017-.008L37,58.838l-.023-.011-.016-.008-.022-.009-.02-.009-.017-.007-.025-.012-.017-.008-.018-.008-.024-.011-.015-.007-.026-.012-.017-.007-.017-.008-.025-.012L36.7,58.7l-.017-.007-.025-.012-.015-.007-.025-.012-.017-.007-.017-.008-.026-.012-.016-.007-.021-.011-.021-.009L36.49,58.6l-.025-.012-.016-.008a.155.155,0,0,1-.02-.009l-.021-.009-.017-.008-.023-.011-.018-.008-.015-.007-.028-.013-.014-.007-.026-.012-.016-.008-.017-.008-.025-.012-.016-.007-.017-.008-.025-.012-.015-.007-.024-.012-.017-.008-.016-.007-.026-.013-.016-.007-.02-.009-.022-.011-.017-.008-.022-.011-.019-.009-.015-.007-.026-.012-.015-.008-.026-.012-.015-.007-.018-.009L35.8,58.27l-.018-.008-.019-.009-.022-.011-.016-.008-.024-.012-.017-.008-.017-.008-.024-.011-.016-.008-.023-.012-.018-.008-.017-.008-.025-.012-.017-.008-.022-.011-.018-.008-.018-.009-.022-.011-.019-.009-.015-.007-.024-.012-.017-.009-.021-.009-.02-.009-.017-.009a.221.221,0,0,1-.024-.012l-.016-.007L35.251,58l-.021-.009-.017-.009-.024-.012-.016-.008-.017-.008-.024-.012-.016-.007-.025-.013-.015-.007-.018-.009-.023-.012-.017-.008L35,57.879l-.024-.012-.016-.008-.025-.013-.015-.007-.022-.012-.019-.009-.017-.008-.016-.008-.025-.013-.014-.007-.026-.013-.013-.007-.028-.014-.014-.006-.018-.009-.017-.008-.024-.013-.015-.007-.025-.013-.015-.007-.026-.013-.015-.008-.017-.008-.024-.013-.017-.008-.015-.008-.026-.013-.013-.007-.026-.013-.014-.007-.018-.009-.023-.012-.018-.009-.015-.007-.027-.014-.013-.007-.028-.014-.014-.007-.027-.013-.013-.007-.02-.011-.01,0-.031-.017-.011,0-.03-.015-.012-.007-.025-.013-.015-.008-.019-.009-.006,0-.035-.018L34,57.366l-.031-.015-.011-.006-.028-.014-.014-.008-.018-.009-.023-.012-.018-.009-.011-.006-.031-.017-.009,0-.029-.015-.013-.007-.017-.008-.024-.013-.018-.009-.015-.007-.027-.014-.013-.007-.028-.014-.013-.007-.026-.014-.015-.008-.018-.009-.013-.007-.028-.014L33.5,57.1l-.028-.014-.012-.007-.028-.014-.013-.007-.017-.009-.023-.013-.018-.009-.013-.007-.027-.014L33.3,57l-.027-.014-.014-.008-.021-.011-.019-.011-.018-.009-.013-.007-.027-.015-.013-.007-.026-.013-.015-.008-.018-.009-.022-.013-.017-.008-.021-.012-.02-.011L33,56.833l-.026-.014-.013-.007L32.93,56.8l-.012-.006L32.9,56.78l-.022-.012-.018-.011-.012-.006-.028-.015-.012-.007-.028-.015-.012-.006-.02-.012-.021-.011-.017-.011-.014-.007-.027-.015-.012-.007-.028-.015-.011-.006-.031-.018-.009,0-.019-.011-.013-.007-.027-.015-.012-.006-.03-.017-.01-.006-.032-.018-.008,0-.019-.011-.012-.006-.028-.015-.014-.008-.026-.015-.011-.006-.031-.018-.009,0-.06-.034-.009,0-.032-.018-.008,0-.033-.019-.008,0-.06-.033-.009-.006-.031-.017-.011-.007-.031-.017-.009-.006-.032-.018-.009,0-.019-.011-.009-.006-.031-.018-.011-.006-.03-.017-.009-.006-.031-.018-.009,0-.019-.012-.007,0-.033-.019-.01-.006-.03-.017-.012-.007-.029-.017-.01-.006-.03-.018-.01-.006-.019-.011-.008,0-.033-.019-.009,0-.032-.019-.009,0-.034-.02-.006,0-.02-.012h0l-.038-.022-.005,0-.034-.02-.009-.006-.033-.019-.006,0-.061-.035-.006,0-.034-.02-.008,0-.033-.019-.008,0-.06-.035-.006,0-.033-.02-.009,0-.029-.018L31,55.7l-.03-.018-.009,0-.02-.012-.006,0-.034-.02-.009,0-.031-.019-.008,0-.039-.024h0l-.061-.037-.008,0-.032-.019-.009,0-.03-.018-.01-.007-.059-.035-.007,0-.033-.02-.008,0-.033-.02-.007,0-.06-.037-.005,0-.034-.02-.009-.006-.031-.018-.009-.006-.029-.018-.011-.007-.018-.011-.01-.006-.03-.019-.009,0-.033-.02-.006,0-.037-.022,0,0-.06-.037-.006,0-.034-.021-.007,0-.033-.021-.007,0L30,55.1l-.007,0-.019-.012-.007,0-.034-.02-.005,0-.035-.022-.005,0-.06-.038,0,0-.036-.022,0,0-.035-.021-.006,0-.038-.024h0l-.061-.038,0,0-.036-.022,0,0-.039-.024h0l-.061-.038,0,0-.037-.024,0,0-.036-.022,0,0-.061-.038s0,0,0,0l-.039-.025-.005,0-.035-.021-.005,0-.037-.024,0,0-.059-.038-.007,0-.034-.021-.006,0-.035-.022,0,0-.06-.039h0l-.037-.024-.006,0-.036-.022,0,0-.06-.039h0l-.038-.024-.007,0-.034-.021-.006,0-.1-.064-.007,0-.032-.021-.007,0-.037-.024h0l-.059-.038-.007,0-.032-.021-.008,0-.034-.022,0,0-.06-.04h0l-.037-.024-.007,0-.033-.021-.006,0-.059-.039,0,0-.036-.024-.006,0-.033-.021-.006,0-.037-.024h0l-.06-.04,0,0-.035-.024,0,0L28,53.812l0,0-.059-.039,0,0-.036-.024,0,0-.036-.024,0,0-.059-.04s0,0,0,0l-.038-.025-.005,0-.033-.021-.008-.006-.03-.02-.008,0-.019-.013,0,0-.035-.024-.006,0-.034-.022-.005,0-.035-.024,0,0-.059-.04h0l-.037-.025,0,0-.037-.025h0l-.1-.069h0l-.038-.026h0l-.1-.069h0l-.038-.026,0,0-.038-.026h0l-.06-.043h0l-.038-.026,0,0-.037-.025h0l-.24-.168s0,0,0,0l-.039-.027h0l-.1-.07h0l-.037-.027,0,0-.038-.027h0l-.058-.041-.006,0-.033-.023-.006,0-.033-.024,0,0-.1-.07h0l-.137-.1,0,0-.037-.027h0l-.138-.1h0l-.136-.1,0,0-.036-.026h0l-.273-.2,0,0-.136-.1h0L25.28,51.9h0l-.1-.072,0,0-.034-.025-.006,0-.134-.1h0l-.135-.1h0l-.037-.028,0,0c-.182-.138-.362-.275-.542-.415h0l-.308-.24h0l-.268-.211h0l-.038-.03h0l-.4-.319h0l-.132-.107h0l-.3-.246h0l-.131-.108h0l-.168-.139h0q-.844-.7-1.664-1.43h0l-.29-.26h0l-.253-.228h0l-.287-.262h0l-.286-.264h0l-.284-.266h0q-.39-.368-.774-.741h0q-.384-.374-.762-.754h0L17.9,45.5h0l-.239-.243h0l-.034-.034h0l-.119-.122h0l-.119-.122h0l-.27-.28h0L17,44.571h0q-.58-.608-1.144-1.23l0,0-.228-.253h0l-.227-.254h0l-.257-.291h0l-.255-.293,0,0c-.17-.2-.338-.393-.506-.592h0q-.165-.2-.329-.392h0l-.108-.13,0,0-.029-.035v0L13.829,41h0l-.029-.036v0c-.119-.144-.236-.288-.353-.433h0q-.46-.569-.907-1.148h0l-.1-.135h0l-.132-.173,0,0-.206-.271h0l-.029-.039h0l-.175-.234h0l-.029-.038h0l-.029-.039h0l-.072-.1h0l-.029-.039h0l-.072-.1v0l-.028-.038h0l-.2-.276h0l-.2-.277h0l-.028-.039h0l-.1-.138h0l-.028-.039h0l-.042-.059,0,0L11,37.3l0,0-.025-.036,0,0-.07-.1h0l-.1-.139,0,0-.026-.037,0,0-.069-.1h0l-.027-.038,0,0-.026-.037v0l-.041-.059v0l-.025-.036,0-.007-.024-.034,0,0-.068-.1,0,0-.025-.036,0,0-.068-.1,0,0-.025-.036,0,0-.025-.036,0,0-.04-.059,0,0-.024-.036,0-.005-.023-.033,0-.006-.039-.058,0-.006-.022-.032-.005-.008-.02-.03-.007-.01-.02-.029-.006-.008-.013-.019,0,0-.025-.036,0-.006-.023-.034,0-.006-.023-.034,0,0-.039-.059,0,0-.024-.035,0,0-.022-.034,0-.007-.039-.059,0,0-.024-.037,0,0-.023-.035,0,0-.026-.039h0l-.039-.06,0,0-.023-.034,0-.006L9.7,35.4l0-.006-.039-.059,0,0L9.634,35.3l0-.006-.024-.036v0l-.065-.1,0,0-.023-.035,0,0-.025-.038h0l-.039-.06,0,0-.024-.037,0,0-.065-.1,0,0-.023-.036,0-.006L9.3,34.784l0,0-.038-.06,0-.005-.022-.034,0-.007-.022-.034,0,0-.038-.059,0-.007-.021-.033,0-.006L9.117,34.5l0-.007-.023-.037v0l-.038-.06,0,0-.023-.037,0,0L9,34.307H9l-.039-.061,0,0L8.932,34.2l0,0-.023-.037,0,0-.038-.06,0,0-.023-.036,0,0-.023-.037,0,0-.062-.1,0-.008-.021-.033,0-.006L8.7,33.833l0-.005-.037-.06,0-.007-.021-.033,0-.007-.02-.033,0-.007-.036-.059,0-.006-.02-.033-.005-.009-.02-.033,0-.006L8.5,33.5l0,0-.012-.019,0-.007-.02-.033-.006-.01L8.434,33.4l-.006-.01-.019-.031L8.4,33.347l-.012-.019,0,0-.022-.036,0-.007-.019-.032-.006-.009-.02-.033,0-.007-.037-.061,0,0L8.254,33.1l0-.007-.02-.034,0-.007-.037-.061h0l-.024-.04,0,0-.021-.035,0-.006-.06-.1,0,0-.02-.034-.005-.009-.019-.032,0-.008-.035-.06,0-.008-.02-.033,0-.007-.019-.033,0-.008-.035-.06,0-.006-.02-.035,0-.008-.018-.031-.006-.01-.019-.033,0-.007-.011-.019,0-.008-.018-.032-.006-.011-.017-.03-.005-.009-.019-.032-.005-.009-.011-.019,0-.007-.019-.033-.006-.01-.017-.03-.006-.01-.018-.03-.006-.01-.01-.017-.013-.023-.01-.018-.006-.011L7.6,31.98l-.006-.011-.018-.031-.005-.009L7.553,31.9l-.007-.012-.01-.018-.008-.014-.015-.025-.007-.012-.016-.029-.006-.011-.016-.028-.007-.012-.01-.018-.008-.013-.016-.028,0-.008L7.4,31.638l0-.008L7.38,31.6l0-.007-.018-.033,0-.009-.011-.019-.005-.009-.018-.031-.006-.01L7.3,31.449l-.006-.011-.012-.021-.011-.02-.01-.017-.008-.014-.015-.027-.006-.011L7.213,31.3l-.006-.011-.015-.027-.007-.013-.01-.018-.011-.02-.011-.02-.007-.013-.015-.027-.007-.013-.015-.027L7.1,31.1l-.01-.018-.007-.012-.015-.028-.007-.013L7.046,31l-.007-.012-.015-.027-.008-.014-.01-.018L6.994,30.9l-.01-.018-.008-.015-.013-.025-.007-.013-.015-.027-.007-.013-.011-.02-.011-.02L6.9,30.734l-.011-.021-.01-.018-.01-.019-.011-.021-.009-.017-.011-.02-.01-.019-.009-.017-.012-.023L6.8,30.541l-.008-.014L6.776,30.5l-.007-.013-.015-.029-.006-.011-.01-.019-.012-.022-.01-.018-.008-.015-.013-.025-.008-.015-.014-.026L6.665,30.3l-.011-.02-.011-.021-.009-.016-.01-.019L6.613,30.2,6.6,30.181l-.013-.024-.008-.015-.013-.024L6.562,30.1l-.009-.017L6.54,30.06l-.008-.016-.009-.018L6.511,30,6.5,29.988l-.011-.022-.01-.018-.009-.016-.013-.024-.008-.016-.01-.019-.011-.021-.008-.016-.012-.024L6.4,29.795l-.008-.016-.013-.024-.009-.016-.01-.019L6.35,29.7l-.008-.016-.012-.022-.01-.019-.008-.015L6.3,29.6l-.009-.016-.013-.024-.009-.017-.007-.014L6.249,29.5l-.008-.016-.008-.017-.012-.024-.008-.016L6.2,29.406l-.008-.016-.01-.019-.011-.022-.008-.016-.011-.021-.01-.02-.008-.015-.013-.025-.008-.016-.01-.02-.011-.021-.009-.017-.011-.021-.009-.019-.008-.015L6.041,29.1l-.008-.015-.012-.023-.009-.018L6,29.023,5.992,29l-.009-.018-.009-.018-.012-.023-.008-.015L5.942,28.9l-.008-.017-.009-.018-.011-.022-.009-.017-.01-.02-.011-.022-.007-.014-.013-.026-.008-.015-.011-.022-.009-.019-.009-.019-.011-.021-.009-.019L5.8,28.617l-.013-.026-.008-.015-.013-.026-.007-.014-.01-.02L5.74,28.5l-.01-.021-.007-.014-.013-.026L5.7,28.421l-.013-.027-.007-.014-.01-.021-.01-.019-.01-.02L5.645,28.3l-.012-.024-.007-.015-.013-.027-.007-.014L5.595,28.2l-.009-.018-.009-.019-.009-.019-.01-.022-.007-.015-.013-.026-.007-.014-.012-.025-.008-.016-.01-.02-.009-.019-.01-.021-.007-.015-.013-.026-.007-.014-.013-.027-.006-.013-.011-.022-.008-.017-.01-.022L5.4,27.8l-.013-.028-.007-.014-.013-.027-.006-.013-.012-.025-.008-.016-.01-.021-.009-.018-.011-.023L5.3,27.6l-.013-.028-.006-.013-.014-.029,0-.01-.011-.024-.007-.015-.012-.024-.006-.012-.013-.028L5.211,27.4,5.2,27.373l-.006-.013-.01-.022-.009-.018-.01-.022-.006-.013-.013-.028-.006-.014-.013-.028L5.118,27.2,5.1,27.176,5.1,27.164l-.012-.025,0-.011L5.069,27.1l-.006-.012-.013-.029-.006-.012-.013-.027L5.025,27l-.011-.024-.006-.013L5,26.942l-.006-.013L4.977,26.9l-.006-.012-.013-.029-.006-.012-.012-.026,0-.011-.013-.028-.005-.011L4.9,26.742,4.9,26.73,4.886,26.7l-.006-.013-.012-.026-.006-.013-.012-.027,0-.01-.014-.031,0-.01-.014-.03-.005-.011L4.794,26.5l0-.008-.013-.029,0-.007-.014-.032,0-.011-.014-.03,0-.011-.014-.031,0-.009L4.706,26.3l0-.009-.014-.031,0-.009-.014-.031,0-.011-.014-.032,0-.008-.014-.031,0-.009-.013-.029,0-.009-.013-.03-.006-.012-.013-.03,0-.01-.014-.031,0-.009-.012-.028,0-.008-.014-.032,0-.01-.014-.031,0-.01-.014-.031,0-.009-.013-.029,0-.007-.014-.032,0-.009L4.44,25.7l0-.009-.014-.032,0-.009L4.4,25.624l0-.008-.013-.03,0-.009-.014-.032,0-.009L4.353,25.5l0-.011-.013-.03,0-.009-.012-.027,0-.01L4.3,25.385l0-.009-.014-.032,0-.009L4.266,25.3l0-.008-.012-.029,0-.009-.014-.032,0-.009-.014-.033,0-.009L4.2,25.141l0-.009-.013-.03,0-.008-.013-.031,0-.008-.014-.034,0-.007-.015-.034,0-.007-.014-.034,0-.006L4.1,24.9l0-.006-.014-.034,0-.008-.014-.033,0-.009-.014-.033,0-.008-.012-.03,0-.007L4.011,24.7l0-.009-.014-.033,0-.008-.014-.034,0-.007-.014-.033,0,0-.014-.034,0-.008L3.927,24.5l0-.009-.014-.033,0-.008-.014-.033,0-.006-.014-.033,0-.006-.014-.034,0-.009-.014-.034,0-.007-.014-.035,0,0-.013-.033,0-.006-.014-.034,0-.008-.013-.032,0-.01-.013-.033,0-.006-.013-.032,0-.007-.014-.034,0-.008-.014-.034,0-.008L3.7,23.927l0-.005-.014-.036v0l-.014-.035,0-.007-.014-.034,0-.009-.013-.033,0-.007-.014-.036v0L3.6,23.685l0-.006-.014-.035,0-.007L3.566,23.6l0-.006-.014-.036v0l-.014-.035,0,0-.014-.035,0-.008L3.5,23.44l0-.007L3.485,23.4l0-.006-.014-.036h0l-.014-.037,0-.006-.014-.035,0-.007-.014-.035,0-.007-.014-.036v0l-.013-.034,0-.007-.013-.034,0-.009-.013-.034,0-.008-.014-.035v0l-.014-.035,0,0-.014-.036,0-.006L3.3,22.909l0-.008-.013-.035,0,0-.013-.034,0-.006-.013-.035,0-.007-.013-.035,0-.007L3.217,22.7l0-.006L3.2,22.66h0l-.014-.038v0l-.014-.037,0-.006-.014-.036,0-.005L3.14,22.5v0l-.014-.038h0l-.014-.038,0,0-.014-.038v0l-.014-.038v0l-.014-.038h0l-.014-.038,0,0-.014-.037,0-.005-.013-.036,0-.005-.028-.077v0l-.014-.039v0L2.957,22v0l-.029-.079v0l-.014-.038v0L2.9,21.839l0-.006-.014-.038h0l-.014-.039v0l-.014-.038v0l-.014-.038,0,0-.014-.038v0l-.028-.077,0-.005-.013-.036,0-.006-.013-.036,0-.005-.013-.038v0l-.014-.038v0l-.013-.038,0,0L2.7,21.3v0l-.014-.04h0l-.028-.08,0-.006-.013-.037,0,0-.013-.038v0L2.6,21.009v0l-.013-.038v0l-.013-.039v0l-.027-.079v0L2.532,20.8l0,0-.013-.038v0l-.027-.08v0l-.013-.039v0l-.013-.039v0l-.041-.122v0l-.013-.04v0L2.362,20.3v0l-.013-.039v0l-.013-.039v0l-.027-.081v0l-.013-.039v0l-.013-.039v0l-.04-.123v0l-.013-.041h0l-.054-.166v0l-.013-.041h0l-.04-.125h0L2.1,19.5v0l-.039-.124h0l-.013-.041h0L2,19.167H2c-.035-.112-.07-.224-.1-.336h0l-.013-.041h0l-.051-.168h0l-.038-.126h0q-.064-.212-.126-.423h0q-.106-.361-.208-.723h0q-.078-.277-.153-.555h0q-.651-2.4-1.121-4.863A10.046,10.046,0,1,1,19.918,8.171,44.917,44.917,0,0,0,64.035,44.615a10.046,10.046,0,1,1,0,20.092Z" transform="translate(0.968 65.299)" fill="#00376a"/>
        </g>
        <g id="Path_40040" data-name="Path 40040" transform="translate(67.846 67.728)">
          <path id="Path_40612" data-name="Path 40612" d="M65.006,130.011A65.006,65.006,0,1,0,0,65.006a65.006,65.006,0,0,0,65.006,65.006Z" transform="translate(0 0)" fill="none"/>
          <path id="Path_40613" data-name="Path 40613" d="M64.035,64.707h-.744l-.184,0h0l-.185,0h0a64.992,64.992,0,0,1-56.18-34.26h0l-.02-.038h0l-.143-.268h0l-.02-.037v0l-.02-.037h0l-.061-.115h0l-.02-.038h0l-.06-.114v0l-.019-.036,0,0-.019-.036v0l-.039-.075h0L6.3,29.594l0,0-.018-.036v0l-.039-.075h0l-.019-.036,0,0L6.2,29.4l0,0-.019-.036h0l-.019-.038h0l-.019-.037,0,0-.018-.035,0,0L6.1,29.206l0,0-.038-.074v0l-.018-.036,0,0-.018-.035,0,0-.037-.073v0l-.018-.036,0,0L5.94,28.9l0-.006-.017-.035v0L5.9,28.82l0,0-.018-.035,0,0-.017-.035,0-.006L5.842,28.7l0,0-.017-.034,0,0L5.8,28.626l0-.005-.017-.034,0-.007-.017-.033,0-.005-.017-.034v0l-.017-.035,0-.006-.016-.033,0-.008-.016-.032,0-.007-.016-.033,0-.006-.015-.031,0-.007-.016-.032,0-.009-.016-.032,0-.007-.016-.033,0-.006-.015-.031,0-.005-.016-.032,0-.009-.015-.032,0-.008-.016-.032,0-.009L5.5,28l0-.007-.015-.03,0-.01-.015-.031,0-.009-.015-.032,0-.007-.016-.033,0,0-.015-.03,0-.008-.015-.032,0-.009-.015-.032,0-.008-.016-.033,0-.007-.013-.027-.005-.011-.014-.029,0-.011-.014-.03,0-.01-.015-.031,0-.008-.013-.028-.005-.011-.014-.029,0-.01-.014-.03L5.211,27.4l-.014-.03-.005-.011-.012-.025-.007-.015L5.162,27.3l-.005-.011-.014-.03-.005-.012-.014-.029L5.118,27.2l-.014-.03,0-.008-.013-.027,0-.009-.014-.03-.006-.013-.013-.028-.006-.013-.013-.027-.006-.013-.011-.024-.006-.014L5,26.942l-.006-.013L4.977,26.9l-.006-.012-.013-.028-.006-.014-.011-.023-.007-.015-.011-.024-.006-.014L4.9,26.743,4.9,26.729,4.886,26.7l-.007-.016-.009-.02-.009-.019-.01-.022-.007-.015-.012-.026-.006-.014-.013-.028-.006-.014L4.8,26.5l-.007-.016-.01-.022-.007-.015-.011-.025-.007-.014-.012-.027-.007-.015-.011-.026-.007-.016-.009-.02-.009-.02-.01-.021-.007-.015-.012-.026-.007-.017-.012-.026-.007-.015-.008-.019-.01-.023-.008-.018-.008-.019-.01-.022-.008-.018-.011-.025-.007-.016-.009-.02-.01-.022-.008-.018-.009-.021-.009-.02-.007-.017-.011-.025L4.5,25.85,4.5,25.831l-.01-.023-.007-.017-.011-.024-.007-.017-.007-.017-.011-.026-.007-.017-.008-.019-.01-.024-.007-.016L4.4,25.606l-.006-.014-.012-.027-.007-.016-.008-.018-.007-.017-.011-.026-.006-.013-.013-.029-.005-.012-.013-.03L4.3,25.39,4.3,25.371l-.01-.024-.008-.019-.006-.014-.012-.029-.005-.013-.013-.03-.005-.013-.01-.024-.008-.019-.008-.019L4.2,25.155l-.013-.03,0-.01-.014-.033,0-.01-.012-.028-.007-.016-.008-.018-.008-.02-.01-.024-.006-.013-.012-.03L4.1,24.909l-.012-.029-.006-.013-.008-.02,0-.008L4.054,24.8l0-.007-.016-.038,0-.006-.015-.037,0-.007-.027-.064,0-.01L3.969,24.6l0-.009-.015-.036,0-.007L3.9,24.437l0,0-.016-.04,0-.005-.045-.111,0-.005-.017-.041v0l-.129-.32v0L3.6,23.7h0l-.064-.16v0A64.53,64.53,0,0,1,.175,11.908,10.046,10.046,0,0,1,19.917,8.171,44.917,44.917,0,0,0,64.035,44.615a10.046,10.046,0,1,1,0,20.092Z" transform="translate(0.968 65.299)" fill="#c7def3"/>
        </g>
        <g id="Path_40039" data-name="Path 40039" transform="translate(40.92 132.731) rotate(-45)">
          <path id="Path_40614" data-name="Path 40614" d="M65.006,130.012A65.006,65.006,0,1,0,0,65.006a65.006,65.006,0,0,0,65.006,65.006Z" transform="translate(0 0)" fill="none"/>
          <path id="Path_40615" data-name="Path 40615" d="M64.035,64.707H62.364l-.047,0h-.231l-.091,0h-.047l-.048,0h-.09l-.048,0h-.092l-.043,0H61.58l-.047,0h-.047l-.043,0H61.4l-.048,0H61.3l-.045,0h-.094l-.047,0-.046,0h-.043l-.048,0-.047,0-.045,0-.043,0-.048,0-.047,0-.046,0h-.042l-.042,0h-.006l-.047,0-.047,0-.043,0-.046,0-.048,0-.047,0-.044,0-.044,0-.048,0-.047,0-.046,0-.041,0h0l-.048,0-.047,0-.046,0-.041,0h0l-.046,0-.048,0-.046,0-.045,0-.043,0-.048,0-.046,0-.046,0-.04,0h0l-.048,0-.047,0-.046,0-.042,0h0l-.041,0h-.006l-.047,0-.046,0-.044,0-.045,0-.047,0-.048,0-.044,0-.043,0-.047,0-.048,0-.045,0-.04,0h0l-.046,0-.047,0-.046,0-.044,0-.044,0-.047,0-.046,0-.045,0-.043,0-.048,0-.046,0-.047,0-.037,0h0l-.039,0h-.008l-.039,0h-.008l-.039,0h-.007l-.04,0h0l-.04,0h0l-.04,0h-.006l-.04,0h-.006l-.041,0h0l-.042,0h0l-.041,0h-.007l-.04,0h-.006l-.041,0h0l-.042,0h0l-.041,0H57.47l-.039,0h-.008l-.04,0h0l-.085-.009h0l-.04,0-.046,0H57.2l-.04,0-.043,0h-.005l-.039,0h-.008l-.038,0h-.007l-.04,0h0l-.041,0h0l-.04,0h-.007l-.039,0h-.008l-.039,0H56.79l-.039,0h0l-.038,0H56.7l-.037,0h-.009l-.038,0H56.61l-.041,0h0l-.041,0h-.005l-.04,0h-.006l-.039,0H56.43l-.04,0h0l-.039,0h0l-.04,0H56.3l-.039,0H56.25l-.04,0h0l-.083-.011h-.006l-.039,0H56.07l-.039,0h-.007l-.04,0h0l-.038,0h-.006l-.038,0H55.89l-.038,0h-.007l-.04,0h0l-.041,0h0l-.041-.006h-.006l-.039-.006h-.007l-.039-.006h-.007l-.037,0h0l-.04,0h-.007l-.038,0h-.009l-.037,0H55.44l-.039-.006h0l-.039,0h-.007l-.038,0h-.009l-.037,0-.01,0-.038,0h0l-.037-.006h-.006l-.039-.006h-.007l-.038,0h-.009l-.039-.006h0L55,64.084h0l-.041-.006H54.95l-.039,0H54.9l-.038-.006h-.006l-.039-.006h0l-.039-.006h-.007l-.038-.006h-.009l-.038,0h-.008l-.039-.006h0l-.038-.006h-.006l-.039,0h-.008l-.038-.006H54.5l-.038-.006h-.006l-.037,0h0l-.039-.006h-.008l-.039-.006h-.006l-.04-.006h0l-.041-.006h0l-.04-.006H54.19l-.039-.006h-.006l-.04-.006H54.1l-.041-.006h0l-.04-.007h-.006l-.038-.006h-.007l-.038-.006h-.007l-.039-.007h-.005l-.036-.006h-.007l-.038-.006h-.008l-.038-.006h-.007l-.039-.006H53.7l-.038-.006h0l-.039-.006h-.007l-.038-.006h-.008l-.038-.006h-.007l-.037-.007h-.006l-.037-.006h-.007l-.037-.007h-.009l-.037-.006h-.008l-.038-.006H53.3l-.036-.006h-.007l-.038-.007h-.008l-.037-.006h-.009l-.037-.007h-.007l-.035-.006H53.08l-.037-.007h-.01L53,63.775l-.009,0-.036-.006h-.008l-.036-.006H52.9l-.036-.006-.009,0-.036-.006-.009,0-.036-.006h-.01l-.037-.007h0l-.036-.007H52.68l-.036-.006-.009,0L52.6,63.7h-.009l-.038-.007h-.005l-.036-.006H52.5l-.037-.007h-.009l-.036-.007h-.011l-.036-.007h-.008l-.037-.007h0l-.039-.007h-.008l-.037-.007h-.008l-.038-.007h-.006l-.04-.007h0l-.04-.008h-.005c-.013,0-.025,0-.038-.007h-.009l-.037-.007h-.007l-.039-.007h0l-.038-.007h0l-.039-.008h-.007l-.038-.007h-.007l-.039-.007h0l-.04-.007h0l-.04-.007H51.71l-.038-.007h-.008l-.037-.008H51.62l-.039-.007h0l-.039-.008h-.007L51.5,63.5h-.007l-.038-.007-.007,0-.04-.007h0l-.039-.008h-.006l-.039-.007h-.005l-.039-.008h-.006l-.04-.008h0l-.039-.008h0l-.04-.008h0L51.1,63.42h-.006l-.039-.007h0l-.038-.008h0l-.04-.008h0l-.039-.008h-.006l-.039-.007h-.006l-.039-.008h0l-.038-.007h-.006l-.038-.008h-.007l-.038-.008H50.7l-.038-.008h-.005l-.036-.007h0l-.038-.008h-.007l-.038-.008h-.006l-.038-.008H50.48l-.037-.008h0l-.038-.008-.008,0-.037-.007-.008,0-.036-.007-.01,0-.034-.007-.007,0-.035-.007h-.008l-.036-.008-.009,0-.037-.007-.007,0-.038-.008h0l-.037-.007h-.006l-.037-.008-.009,0c-.011,0-.025,0-.035-.008h-.009l-.036-.008h-.007l-.034-.008h-.007l-.037-.008h-.009l-.035-.008-.011,0-.036-.008h-.007l-.035-.008H49.7l-.034-.008h-.009l-.034-.008-.012,0-.034-.008-.009,0-.037-.008h0l-.035-.007-.007,0-.036-.008-.009,0-.036-.007-.008,0-.037-.008h-.005l-.036-.008h-.005l-.037-.009h-.009l-.036-.008-.009,0L49.181,63l-.007,0-.036-.008h0l-.038-.009-.008,0-.036-.008-.009,0-.035-.008H49l-.038-.009h0l-.035-.008-.009,0-.035-.008-.009,0-.035-.008-.01,0-.036-.009h-.006L48.75,62.9h-.007l-.036-.009H48.7l-.035-.009-.009,0-.035-.008H48.61l-.034-.009h0l-.037-.008-.007,0-.035-.008-.01,0-.035-.009h-.009l-.033-.008-.009,0-.033-.008-.009,0-.034-.008-.012,0-.034-.009-.01,0-.033-.008-.01,0-.031-.007-.008,0-.035-.008-.011,0L48.1,62.74l-.009,0-.035-.009h-.008l-.033-.008-.006,0-.036-.008-.009,0-.035-.009-.01,0-.035-.008-.01,0-.034-.008h0l-.037-.009h-.007l-.036-.009-.009,0-.035-.009-.01,0-.034-.008-.008,0-.032-.008-.009,0-.035-.009-.01,0-.034-.008-.011,0-.034-.008-.008,0-.031-.008-.008,0-.035-.009-.009,0-.034-.008-.012,0-.033-.009-.01,0-.03-.007-.012,0-.03-.008-.012,0-.033-.008-.012,0-.033-.008-.011,0-.031-.008-.011,0-.03-.008-.011,0-.033-.009-.011,0-.033-.009-.012,0-.031-.008-.012,0-.027-.007-.012,0-.031-.008-.013,0-.032-.008-.012,0-.033-.009-.01,0-.03-.008-.009,0-.033-.009-.011,0-.033-.009-.011,0-.033-.008-.011,0-.029-.008-.013,0-.028-.008-.012,0-.032-.008-.012,0-.033-.009-.011,0-.032-.009-.01,0-.029-.008-.01,0-.033-.009-.011,0-.033-.009-.011,0-.034-.009-.009,0-.029-.008-.012,0-.032-.009-.011,0L46.09,62.2l-.012,0-.033-.009-.009,0L46,62.174l-.01,0-.032-.009-.009,0-.033-.011-.012,0-.033-.009-.01,0-.031-.009-.012,0-.028-.008-.011,0-.032-.009-.012,0-.033-.009-.011,0-.034-.009-.009,0-.03-.008-.009,0-.033-.009-.011,0-.033-.009-.011,0-.033-.009-.011,0-.028-.008-.012,0L45.413,62,45.4,62l-.032-.009-.011,0-.032-.009-.012,0-.03-.009-.01,0-.03-.009-.01,0-.033-.009-.011,0-.032-.009-.012,0-.032-.009-.009,0-.031-.009-.009,0-.033-.009-.011,0-.032-.011-.012,0-.033-.009-.009,0-.031-.011H44.9l-.034-.011-.01,0-.033-.009-.011,0-.034-.011-.008,0-.033-.011-.007,0-.035-.011-.007,0-.034-.011-.01,0-.034-.009-.009,0-.034-.011-.008,0-.032-.009-.007,0-.033-.011-.012,0-.032-.011-.011,0-.033-.011-.01,0-.028-.009-.012,0-.031-.009-.011,0-.032-.011-.011,0-.033-.011-.011,0-.027-.008-.015,0-.027-.008-.013,0L44.1,61.6l-.012,0-.031-.011-.012,0-.029-.009-.012,0-.029-.009-.01,0-.033-.011-.011,0-.033-.011-.01,0-.033-.011-.009,0-.027-.008-.012,0-.031-.009-.012,0-.032-.011-.012,0-.032-.011-.011,0-.027-.009-.015,0-.028-.009-.012,0-.032-.011-.011,0-.032-.011-.011,0-.027-.009-.014,0-.027-.009-.011,0-.032-.011-.011,0-.032-.011-.011,0-.03-.011-.012,0-.028-.009-.009,0-.033-.011-.011,0-.033-.012-.011,0-.032-.011-.011,0-.027-.009-.011,0-.03-.011-.012,0-.032-.011-.011,0-.032-.011-.011,0-.027-.009-.014,0-.027-.009-.013,0-.03-.009-.013,0-.031-.011-.013,0-.027-.009-.014,0-.026-.008-.011,0-.03-.011-.014,0-.029-.009-.014-.006L42.6,61.09l-.014,0-.024-.008-.017-.006-.027-.009-.013,0a.305.305,0,0,1-.03-.011l-.013,0-.031-.011-.011,0-.026-.009-.015,0L42.354,61l-.012,0-.03-.011-.014,0-.03-.011-.012,0-.028-.009-.015,0-.025-.009-.012,0a.286.286,0,0,1-.03-.011l-.014,0-.029-.011-.013,0-.031-.011-.01,0-.027-.009-.011,0-.03-.012-.013,0-.031-.011-.012,0-.031-.011-.011,0-.027-.009-.013,0-.027-.009-.013,0-.03-.012-.012,0-.031-.012-.01,0-.031-.012-.007,0-.029-.011-.012,0-.031-.012-.011,0-.031-.012-.013,0-.028-.011a.053.053,0,0,1-.013,0l-.025-.008-.017-.007-.025-.009-.014,0-.029-.011-.014,0-.03-.012-.011,0-.026-.009-.012,0-.029-.012-.012,0-.03-.012-.014,0-.029-.011-.013-.006-.023-.008-.017-.007-.025-.009-.012,0-.03-.012-.013,0-.03-.012-.012,0-.026-.009-.016-.006-.025-.009-.011,0-.03-.011-.013-.006-.03-.011-.013-.006-.025-.009-.017-.006-.022-.009-.016-.006-.026-.009-.013-.006L40.7,60.4l-.014-.006-.028-.011-.015-.006-.022-.008-.017-.006-.025-.009-.013-.006-.029-.011-.014-.006-.028-.011-.015-.006-.022-.008-.019-.008-.022-.008-.013,0-.029-.012-.014-.006-.028-.011-.015-.006-.025-.009-.016-.006-.023-.009-.015-.006-.027-.011L40.2,60.2l-.029-.011-.015-.006-.028-.011-.013-.006-.024-.009-.017-.006-.024-.009-.014-.006-.028-.012-.015,0-.028-.012-.014-.006-.022-.008-.019-.008-.022-.008-.014-.006-.028-.011-.015-.006-.029-.012-.013-.006-.024-.009-.018-.007-.022-.008-.015-.006a.241.241,0,0,0-.027-.011l-.014-.006-.029-.012-.013-.006-.025-.011-.017-.006-.023-.009-.015-.006-.026-.011-.015-.006-.028-.012-.013,0-.03-.013-.012,0-.024-.009-.017-.007-.024-.009-.013-.006-.029-.012-.013,0-.029-.013-.012,0-.025-.011-.017-.006L39.2,59.8l-.015-.006-.028-.012-.013-.006-.029-.012-.012,0-.027-.012-.015-.006-.022-.009-.017-.007L39,59.711l-.014-.006-.028-.012-.015-.006-.028-.012-.013,0-.022-.009-.018-.008-.023-.009-.013-.006-.029-.012-.014-.006-.029-.012-.012,0-.027-.012-.013-.006-.025-.011-.012,0-.029-.012-.013-.006-.029-.012-.013-.006-.026-.011-.015-.007-.023-.009L38.5,59.5l-.029-.012-.013-.006-.029-.012-.012-.006-.03-.013-.011,0-.026-.011-.012,0a.273.273,0,0,0-.027-.012l-.013-.006-.029-.013-.013,0-.028-.013-.013-.006-.024-.011-.014-.006-.026-.011-.012-.006-.029-.012-.012-.006-.029-.013-.013-.006-.025-.011-.014-.006L38,59.282l-.012-.006-.029-.012-.013-.006-.028-.013L37.9,59.24l-.025-.011-.015-.007-.023-.009-.015-.007-.026-.011-.014-.007-.027-.012-.015-.006-.028-.013-.013-.006-.022-.009-.018-.008-.023-.009-.014-.006a.252.252,0,0,0-.027-.012L37.58,59.1a.262.262,0,0,1-.026-.012l-.014-.006-.021-.009-.019-.008-.022-.009-.012-.006-.028-.013-.015-.006-.028-.013-.013-.006L37.357,59l-.018-.008-.02-.009-.017-.007-.024-.011-.015-.007-.027-.012-.015-.007-.025-.012-.015-.007-.021-.009-.018-.008-.022-.009-.014-.007-.027-.012-.015-.007-.026-.012-.016-.007L37,58.838l-.022-.011-.017-.008-.021-.009L36.92,58.8l-.016-.007-.025-.012-.017-.008-.019-.008-.023-.011-.016-.007-.025-.012-.017-.007-.016-.008-.025-.012L36.7,58.7l-.017-.008-.024-.012-.016-.007-.024-.012-.017-.007-.016-.008-.026-.012-.016-.007-.022-.011-.02-.009-.016-.007-.024-.012-.017-.008-.019-.008-.023-.011-.017-.008-.025-.012-.017-.007-.015-.008-.027-.012-.014-.007-.025-.012-.017-.008-.017-.008-.026-.012-.016-.007-.017-.008-.024-.012-.016-.007-.023-.012-.018-.008-.016-.007-.026-.013-.015-.007-.021-.009-.021-.011-.017-.008-.021-.011-.02-.009-.015-.007-.026-.012-.015-.007-.027-.013-.015-.007-.019-.009L35.8,58.27l-.018-.008-.017-.008-.024-.012-.016-.008-.024-.012-.017-.008-.018-.008-.023-.011-.017-.008-.022-.011-.019-.009-.016-.008-.025-.012-.016-.008-.023-.011-.017-.008-.019-.009-.02-.009-.02-.011-.015-.007-.025-.012-.017-.008-.023-.012-.017-.008-.018-.009-.022-.011-.018-.009L35.254,58l-.023-.012-.016-.008-.025-.012-.015-.008-.019-.008-.022-.012-.017-.008-.023-.011-.017-.008-.017-.009-.024-.012-.017-.008L35,57.878l-.023-.011-.017-.008-.023-.012-.016-.008L34.9,57.83l-.022-.012-.016-.008-.018-.009-.023-.012-.015-.007-.025-.013-.014-.007-.026-.013-.015-.007-.018-.009-.018-.009-.023-.012-.015-.007-.025-.013-.015-.007-.026-.013-.015-.008-.017-.008-.024-.013-.017-.008-.015-.008-.026-.013-.013-.007-.026-.013-.014-.007-.018-.009-.023-.012-.018-.009-.015-.007-.027-.014-.013-.007-.028-.014-.014-.007-.027-.013-.013-.007-.02-.011-.01,0-.031-.017-.011,0-.03-.015-.012-.007-.025-.013-.015-.008-.019-.009-.006,0-.035-.018L34,57.366l-.031-.015-.011-.006-.028-.014-.014-.008-.018-.009-.023-.012-.018-.009-.011-.006-.031-.017-.009,0-.029-.015-.013-.007-.017-.008-.024-.013-.018-.009-.015-.007-.027-.014-.013-.007-.028-.014-.013-.007-.026-.014-.015-.008-.018-.009-.013-.007-.028-.014L33.5,57.1l-.028-.014-.012-.007-.028-.014-.013-.007-.017-.009-.023-.013-.018-.009-.013-.007-.027-.014L33.3,57l-.027-.014-.014-.008-.021-.011-.019-.011-.018-.009-.013-.007-.027-.015-.013-.007-.026-.013-.015-.008-.018-.009-.022-.013-.017-.008-.021-.012-.02-.011L33,56.833l-.025-.014-.014-.007-.028-.015-.012-.006L32.9,56.78l-.022-.012-.018-.011-.012-.006-.028-.015-.012-.007-.028-.015-.012-.006-.02-.012-.021-.011-.017-.011-.014-.007-.027-.015-.012-.007-.028-.015-.011-.006-.031-.018-.009,0-.019-.011-.013-.007-.027-.015-.012-.006-.03-.017-.01-.006-.032-.018-.008,0-.019-.011-.012-.006-.028-.015-.014-.008-.026-.015-.011-.006-.031-.018-.009,0-.06-.034-.009,0-.032-.018-.008,0-.033-.019-.008,0-.06-.033-.008,0-.032-.018-.011-.007c-.011-.006-.021-.011-.031-.018l-.008,0-.033-.019-.008,0-.02-.012-.007,0-.033-.019-.01-.006-.031-.018-.009,0-.032-.018-.008,0-.02-.012h0l-.038-.021-.009-.006-.03-.018-.011-.006-.03-.018-.009,0-.033-.019-.008,0-.019-.011-.007,0-.034-.019-.008,0-.033-.019-.008,0-.036-.02,0,0-.02-.012h0l-.039-.022,0,0-.034-.02-.009,0-.035-.021,0,0-.062-.035,0,0-.036-.021-.007,0-.035-.02-.006,0-.061-.035,0,0-.035-.021-.008,0-.031-.018L31,55.7l-.035-.021,0,0-.021-.012h0l-.037-.022-.008,0-.033-.02-.007,0-.1-.06-.006,0-.034-.02-.007,0L30.67,55.5l-.008,0-.06-.037-.005,0-.035-.021-.006,0-.035-.021,0,0-.061-.037,0,0-.037-.021-.007,0-.033-.02-.008,0-.032-.019-.008-.006-.019-.011-.006,0-.034-.02-.007,0-.035-.02,0,0-.039-.024h0l-.061-.037,0,0-.036-.022-.006,0-.035-.021,0,0L30,55.093h0l-.02-.012-.005,0-.036-.022,0,0-.037-.022,0,0-.061-.038h0l-.039-.024,0,0-.037-.022,0,0-.1-.063,0,0-.038-.024h0l-.1-.064h0l-.039-.025,0,0-.038-.024h0l-.1-.065h0l-.037-.024,0,0-.1-.064,0,0-.037-.024,0,0-.039-.025h0l-.1-.065h0l-.039-.025h0l-.1-.065,0,0-.039-.025s0,0,0,0l-.1-.066h0l-.038-.025,0,0-.1-.065h0l-.038-.025,0,0-.14-.092h0l-.039-.026h0l-.1-.066h0l-.039-.026h0l-.142-.093h0l-.183-.123h0l-.1-.069s0,0,0,0l-.038-.026,0,0-.1-.067h0l-.039-.027h0l-.141-.1h0l-.322-.221h0l-.14-.1h0q-.3-.209-.6-.421h0q-.617-.439-1.223-.892h0A65.242,65.242,0,0,1,4.693,26.276h0c-.094-.21-.187-.42-.279-.632v0l-.137-.316h0l-.019-.044v0l-.019-.044h0l-.1-.227h0l-.018-.043,0,0L4.1,24.919l0-.006-.017-.04v0l-.047-.113h0l-.047-.113v0L3.969,24.6l0,0-.017-.041v0L3.9,24.436v0l-.018-.043v0l-.046-.112,0,0-.017-.041v0L3.8,24.184h0l-.046-.113v0l-.018-.044h0l-.045-.112,0-.006-.016-.041v0l-.045-.113v0L3.606,23.7l0-.005-.017-.042v0l-.027-.067,0-.006-.015-.038,0-.008-.016-.04v0l-.044-.113,0,0-.016-.04,0,0-.044-.113v0L3.4,23.172l0,0-.044-.114h0l-.016-.043,0,0-.016-.042v0l-.026-.068v0l-.016-.043,0,0-.015-.04,0-.006-.042-.112,0-.006-.015-.04,0-.006-.016-.042v0l-.025-.067,0-.007-.014-.037,0-.008-.013-.035,0-.01-.024-.065,0-.008-.014-.037,0-.008-.014-.038,0-.006-.017-.045h0L3.028,22.2v0l-.015-.041,0-.009L3,22.108l0-.011-.011-.03-.005-.015-.007-.019-.005-.014-.011-.03,0-.012-.011-.031,0-.013L2.92,21.9l0-.011-.007-.02,0-.013-.012-.033,0-.01-.012-.033,0-.013-.012-.032,0-.012L2.847,21.7l-.007-.02-.007-.02,0-.013-.011-.032,0-.011L2.8,21.571l0-.011-.013-.036,0-.009-.007-.021,0-.011-.012-.034,0-.01-.012-.034,0-.012-.011-.03,0-.014-.007-.02-.009-.025L2.7,21.287l-.006-.017-.01-.027-.006-.016L2.67,21.2l0-.014-.007-.02-.008-.024-.007-.019-.005-.016-.01-.029,0-.013-.01-.03-.005-.015L2.6,20.993l-.006-.018-.007-.02-.007-.019-.009-.025L2.565,20.9l-.01-.03,0-.012-.011-.031,0-.013-.007-.02-.007-.021-.008-.022-.006-.018L2.5,20.7l-.006-.016-.009-.027-.006-.017-.006-.018L2.463,20.6l-.006-.018-.008-.022-.007-.021-.006-.018-.009-.027-.006-.017-.006-.018-.009-.026L2.4,20.415l-.008-.023-.007-.021-.006-.018-.009-.026-.006-.017-.008-.023-.007-.021-.006-.018-.009-.026L2.33,20.2l-.006-.017-.009-.027-.005-.016L2.3,20.118,2.3,20.1l-.006-.019-.009-.026-.006-.018-.006-.018-.009-.026-.006-.017-.008-.025-.006-.019-.006-.018-.009-.027-.005-.017-.008-.023-.007-.021-.006-.02-.007-.021-.007-.022-.005-.016-.009-.028L2.167,19.7l-.009-.028-.005-.016-.007-.022-.007-.02L2.132,19.6l0-.015-.009-.029,0-.015L2.1,19.509,2.1,19.493l-.007-.022-.006-.02-.007-.022-.005-.016-.008-.026L2.06,19.37l-.009-.028,0-.016L2.037,19.3l0-.015-.007-.023-.006-.017-.008-.027,0-.013L2,19.173l0-.015-.009-.029,0-.013-.008-.024-.006-.018-.008-.025,0-.012-.01-.031,0-.014-.009-.03,0-.013-.008-.026L1.914,18.9l-.007-.023,0-.016-.009-.028,0-.015-.009-.029,0-.015-.008-.026-.005-.017-.007-.023,0-.016-.008-.028,0-.013-.009-.031,0-.014-.009-.03,0-.014L1.8,18.542,1.8,18.525,1.79,18.5l0-.014-.009-.03,0-.013-.009-.031,0-.014-.008-.028,0-.014L1.74,18.33l0-.013-.009-.031,0-.012-.009-.032,0-.013L1.7,18.2l0-.015-.007-.024-.005-.018-.008-.027,0-.013-.009-.031,0-.013-.009-.031,0-.012-.008-.027,0-.013-.008-.029,0-.012L1.614,17.9l0-.012L1.6,17.859l0-.011-.008-.028,0-.015-.008-.027,0-.012-.009-.032,0-.012-.009-.032,0-.012-.008-.029,0-.014-.008-.028,0-.01-.009-.033,0-.012L1.5,17.519l0-.011-.009-.033,0-.012-.007-.026,0-.015-.008-.028,0-.013-.009-.031,0-.013-.009-.031,0-.012-.008-.028,0-.012-.008-.03,0-.011-.009-.032,0-.012L1.4,17.135l0-.012-.009-.032,0-.01-.008-.03,0-.01-.009-.034,0-.011-.009-.033,0-.011-.009-.034,0-.008-.008-.03,0-.009-.009-.034,0-.01L1.3,16.794l0-.012-.009-.034,0-.008-.009-.033,0-.007-.009-.034,0-.009-.009-.034,0-.01-.009-.034,0-.009-.01-.036v0l-.009-.034,0-.008-.009-.035,0-.01L1.2,16.407l0-.009-.01-.036,0-.006-.009-.035,0-.006-.009-.036,0-.01-.009-.035,0-.009-.009-.035,0-.007-.009-.035v0l-.009-.036,0-.01-.009-.035,0-.009L1.1,16.019l0-.007-.01-.038h0l-.01-.039v-.005l-.01-.038,0-.006-.01-.038v-.006L1.04,15.8h0l-.01-.04v0l-.01-.038v-.006l-.01-.038v-.006L1,15.63v0l-.01-.038v0l-.01-.04v0L.965,15.5l0-.007-.01-.038v0l-.01-.04h0l-.01-.041v0l-.01-.039v-.006l-.01-.039v0L.9,15.241h0L.89,15.2h0l-.01-.041v0l-.01-.04v0l-.01-.04v0l-.01-.042h0l-.01-.041v0l-.01-.04v0l-.01-.04v0L.8,14.811v0l-.009-.04v0l-.009-.039v-.005l-.019-.081v0l-.009-.04v0l-.01-.041v0L.7,14.419h0l-.01-.043h0L.654,14.2h0l-.039-.173v0l-.039-.173h0c-.029-.131-.057-.261-.086-.392h0Q.325,12.7.179,11.926A10.046,10.046,0,1,1,19.918,8.171,44.917,44.917,0,0,0,64.035,44.615a10.046,10.046,0,1,1,0,20.092Z" transform="translate(0.968 65.299)" fill="#00376a"/>
        </g>
      </g>
    </g>
  </g>
</svg>
