<svg xmlns="http://www.w3.org/2000/svg" width="31.835" height="31.835" viewBox="0 0 31.835 31.835">
  <g id="Group_44282" data-name="Group 44282" transform="translate(-2.5 -2.5)">
    <path id="Path_39702" data-name="Path 39702" d="M42.5,2.5V34.335A15.917,15.917,0,0,0,42.5,2.5Z" transform="translate(-24.083)" fill="#e12d20"/>
    <path id="Path_39703" data-name="Path 39703" d="M2.5,18.417A15.913,15.913,0,0,0,18.417,34.335V2.5A15.913,15.913,0,0,0,2.5,18.417Z" fill="#f0786f"/>
    <path id="Path_39707" data-name="Path 39707" d="M30.679,27.315,27.86,30.034a.478.478,0,0,1-.658,0l-4.3-4.152L18.513,30.12a.478.478,0,0,1-.659,0l-2.819-2.726a.438.438,0,0,1,0-.635l4.387-4.232-4.3-4.143a.438.438,0,0,1,0-.635l2.826-2.726a.478.478,0,0,1,.659,0l4.3,4.151,4.214-4.065a.478.478,0,0,1,.658,0l2.818,2.719a.438.438,0,0,1,0,.635l-4.214,4.063,4.3,4.152a.438.438,0,0,1,0,.636Z" transform="translate(-4.439 -3.436)" fill="#ffb9b4"/>
    <path id="Path_39706" data-name="Path 39706" d="M30.679,27.771,27.86,30.59a.465.465,0,0,1-.658,0l-4.3-4.3-4.385,4.393a.465.465,0,0,1-.659,0l-2.819-2.826a.465.465,0,0,1,0-.658l4.387-4.388-4.3-4.295a.465.465,0,0,1,0-.658l2.826-2.826a.465.465,0,0,1,.659,0l4.3,4.3,4.214-4.214a.465.465,0,0,1,.658,0l2.818,2.818a.465.465,0,0,1,0,.659l-4.214,4.212,4.3,4.3a.465.465,0,0,1,0,.659Z" transform="translate(-4.439 -4.436)" fill="#fff"/>
  </g>
</svg>
