<svg xmlns="http://www.w3.org/2000/svg" width="36" height="36" viewBox="0 0 36 36">
  <g id="Group_44185" data-name="Group 44185" transform="translate(-850 -37)">
    <path id="Path_39630" data-name="Path 39630" d="M6,0H30a6,6,0,0,1,6,6V30a6,6,0,0,1-6,6H6a6,6,0,0,1-6-6V6A6,6,0,0,1,6,0Z" transform="translate(850 37)" fill="#1d5a7f"/>
    <path id="Path_19" data-name="Path 19" d="M29.324,28.32a7.256,7.256,0,1,0-5.563,2.6,7.206,7.206,0,0,0,4.658-1.7l5.645,5.645a.662.662,0,0,0,.932,0,.679.679,0,0,0,0-.932Zm-5.59,1.288a5.946,5.946,0,1,1,5.946-5.946A5.941,5.941,0,0,1,23.734,29.608Z" transform="translate(842 29.1)" fill="#fff" stroke="#fff" stroke-width="0.4"/>
  </g>
</svg>
