<svg xmlns="http://www.w3.org/2000/svg" width="20.708" height="20.707" viewBox="0 0 20.708 20.707">
  <g id="_0f27a674e450f7ceaf67893039330093" data-name="0f27a674e450f7ceaf67893039330093" transform="translate(-1.854 -1.854)">
    <path id="Path_39410" data-name="Path 39410" d="M10.041,18.228a8.187,8.187,0,1,1,8.187-8.187A8.2,8.2,0,0,1,10.041,18.228Zm0-14.737a6.55,6.55,0,1,0,6.55,6.55A6.557,6.557,0,0,0,10.041,3.491Z" fill="#909090"/>
    <path id="Path_39411" data-name="Path 39411" d="M24.57,25.389a.816.816,0,0,1-.579-.24l-6.3-6.3a.819.819,0,0,1,1.158-1.158l6.3,6.3a.818.818,0,0,1-.579,1.4Z" transform="translate(-2.828 -2.828)" fill="#909090"/>
  </g>
</svg>
