<svg xmlns="http://www.w3.org/2000/svg" width="23.619" height="26.563" viewBox="0 0 23.619 26.563">
  <g id="Group_27567" data-name="Group 27567" transform="translate(-28 0.044)">
    <path id="Path_17751" data-name="Path 17751" d="M39.5,242.235H28.363a.354.354,0,0,1-.363-.363v-3.781A4.145,4.145,0,0,1,32.144,234h1.139a.444.444,0,0,1,.363.311c.725,0,2.434-.052,3.211,0A.346.346,0,0,1,37.22,234h1.139a4.155,4.155,0,0,1,4.04,3.159.461.461,0,0,1-.259.414c.207.984.518,3.936-2.279,4.351a.378.378,0,0,1-.361.311Z" transform="translate(0 -221.88)" fill="#f47320" fill-rule="evenodd"/>
    <path id="Path_17752" data-name="Path 17752" d="M71.725,294.387H71v-4.2a.363.363,0,0,1,.725,0Zm4.661,0h-.725v-5.024a.363.363,0,0,1,.725,0Z" transform="translate(-40.773 -274.032)" fill="#bf5816" fill-rule="evenodd"/>
    <path id="Path_17753" data-name="Path 17753" d="M125.331,187.008a.369.369,0,0,1-.311-.155L123.052,184h0v-.052H123V183.9h0v-.052h0v-.155a5.417,5.417,0,0,0,.311-1.865v-.466a.31.31,0,0,1,.311-.363c.207,0,.363.1.363.259a.051.051,0,0,0,.052.052v.052c.622,0,1.916-.052,2.59,0v-.052h0a.394.394,0,0,1,.414-.311.342.342,0,0,1,.311.363v.466a5.418,5.418,0,0,0,.311,1.865.381.381,0,0,1-.1.311l-1.916,2.849a.448.448,0,0,1-.316.155Z" transform="translate(-90.08 -171.625)" fill="#ffd2b5" fill-rule="evenodd"/>
    <path id="Path_17754" data-name="Path 17754" d="M128.816,182.347v-.984a.31.31,0,0,1,.311-.363c.207,0,.363.1.363.259a.051.051,0,0,0,.052.052v.052c.622,0,1.916-.052,2.59,0v-.052h0a.394.394,0,0,1,.414-.311.342.342,0,0,1,.311.363v.984a4.61,4.61,0,0,1-4.04,0Z" transform="translate(-95.585 -171.625)" fill="#ff9e7e" fill-rule="evenodd"/>
    <path id="Path_17755" data-name="Path 17755" d="M89.3,10.773a4.288,4.288,0,0,1-4.3-4.3V4.3a4.3,4.3,0,0,1,8.6,0V6.474a4.288,4.288,0,0,1-4.3,4.3Z" transform="translate(-54.048)" fill="#ffd2b5" fill-rule="evenodd"/>
    <path id="Path_17756" data-name="Path 17756" d="M89.506,3.936,90.49,3l.311-.1a4.386,4.386,0,0,1,2.8.984A4.309,4.309,0,0,0,85,4.3v.829a3.2,3.2,0,0,1,1.813-1.191,2.115,2.115,0,0,1,1.554.155C88.781,4.3,88.988,4.351,89.506,3.936Z" transform="translate(-54.048)" fill="#f47320" fill-rule="evenodd"/>
    <path id="Path_17757" data-name="Path 17757" d="M245.638,329.944H233.363a.354.354,0,0,1-.363-.363v-9.219a.354.354,0,0,1,.363-.363h12.275a.354.354,0,0,1,.363.363v9.219a.354.354,0,0,1-.363.363Z" transform="translate(-194.382 -303.426)" fill="#ffd2b5" fill-rule="evenodd"/>
    <path id="Path_17758" data-name="Path 17758" d="M233.277,281.849a.284.284,0,0,1-.311-.207.256.256,0,0,1,.052-.363l1.657-2.124a.448.448,0,0,1,.311-.155h8.857a.285.285,0,0,1,.259.155l1.709,2.124a.319.319,0,0,1,.052.363.284.284,0,0,1-.311.207Z" transform="translate(-194.297 -264.549)" fill="#ffd2b5" fill-rule="evenodd"/>
    <path id="Path_17759" data-name="Path 17759" d="M330.518,279h1.916c.155.932.363,1.916.518,2.849a7.09,7.09,0,0,1-2.952,0Z" transform="translate(-286.358 -264.549)" fill="#f47320" fill-rule="evenodd"/>
    <path id="Path_17760" data-name="Path 17760" d="M287.769,339.49h-7.407a.363.363,0,0,1,0-.725h7.407a.363.363,0,0,1,0,.725Zm0,1.191h-7.407a.363.363,0,0,1,0-.725h7.407a.363.363,0,0,1,0,.725Zm0,1.191h-7.407a.363.363,0,0,1,0-.725h7.407a.363.363,0,0,1,0,.725Zm-2.59-3.988a.448.448,0,0,1-.311-.155l-.777-1.191-.829,1.191a.429.429,0,0,1-.414.155.389.389,0,0,1-.259-.363V334h2.952v3.522a.389.389,0,0,1-.259.363Z" transform="translate(-238.948 -316.701)" fill="#f47320" fill-rule="evenodd"/>
  </g>
</svg>
