<svg xmlns="http://www.w3.org/2000/svg" width="18.568" height="18.436" viewBox="0 0 18.568 18.436">
  <path id="b711b6dcfb9a30f5fef15d2f7365200f" d="M12.16,19.03l7.355-17.1a.64.64,0,0,0-.812-.812L1.7,8.408a1.287,1.287,0,0,0-.715,1.3A1.155,1.155,0,0,0,1.841,10.8L8.7,11.94l1.228,7.02A1.452,1.452,0,0,0,12.16,19.03ZM16.238,3.522l-7.223,7.22L2.293,9.62a.959.959,0,0,1,.064-.15L16.238,3.522Zm.873.874L11.173,18.255a.2.2,0,0,1-.174,0L9.894,11.618Z" transform="translate(-0.981 -1.086)" fill="#707070"/>
</svg>
