<svg xmlns="http://www.w3.org/2000/svg" width="25.024" height="25.027" viewBox="0 0 25.024 25.027">
  <g id="Group_44894" data-name="Group 44894" transform="translate(-2 -2)">
    <circle id="Ellipse_1676" data-name="Ellipse 1676" cx="6" cy="6" r="6" transform="translate(10.514 10.514)" fill="#f47320" opacity="0.2"/>
    <path id="Path_40072" data-name="Path 40072" d="M16.915,27.452a10.729,10.729,0,0,1-4.471-.975.9.9,0,0,1,.753-1.626,8.938,8.938,0,1,0-3.772-13,.9.9,0,0,1-1.5-.983,10.726,10.726,0,1,1,8.992,16.581Z" transform="translate(-0.613 -0.425)" fill="#f47320"/>
    <path id="Path_40073" data-name="Path 40073" d="M17.2,2H15.407a2.681,2.681,0,0,0-2.681,2.681V6.469a.894.894,0,0,0,.894.894h5.363a.894.894,0,0,0,.894-.894V4.681A2.681,2.681,0,0,0,17.2,2Zm4.273,10.172a.894.894,0,0,0-1.251-.143l-2.512,2a2.583,2.583,0,0,0-1.4-.411A2.681,2.681,0,1,0,18.983,16.3a2.619,2.619,0,0,0-.161-.894l2.5-2A.894.894,0,0,0,21.468,12.172ZM10.044,13.62H4.681a.894.894,0,1,0,0,1.788h5.363a.894.894,0,1,0,0-1.788Zm0,3.575H2.894a.894.894,0,0,0,0,1.788h7.151a.894.894,0,1,0,0-1.788Zm0,3.575H4.681a.894.894,0,1,0,0,1.788h5.363a.894.894,0,1,0,0-1.788Z" fill="#f47320"/>
  </g>
</svg>
