<svg xmlns="http://www.w3.org/2000/svg" width="28.78" height="40.619" viewBox="0 0 28.78 40.619">
  <g id="Group_40452" data-name="Group 40452" transform="translate(-14.399 -1.95)">
    <path id="Path_38719" data-name="Path 38719" d="M20.348,2.515c-.2-.48-1.2-.521-1.2-.521H14.4l6.469,17.058a12.069,12.069,0,0,1,6.046-2.683Z" transform="translate(0 0)" fill="#d15241"/>
    <path id="Path_38720" data-name="Path 38720" d="M60.865,2.388C60.3,3.058,54.3,16.371,54.3,16.371a12.069,12.069,0,0,1,6.046,2.683L67.161,2.021S61.429,1.717,60.865,2.388Z" transform="translate(-23.981 -0.002)" fill="#d15241"/>
    <g id="Group_40453" data-name="Group 40453" transform="translate(15.354 15.652)">
      <path id="Path_38727" data-name="Path 38727" d="M121.149,188.23a13.458,13.458,0,1,1-9.517,3.942A13.418,13.418,0,0,1,121.149,188.23Z" transform="translate(-107.645 -188.23)" fill="#c4ced3" fill-rule="evenodd"/>
      <path id="Path_38728" data-name="Path 38728" d="M140.276,209.87a10.957,10.957,0,1,1-7.747,3.209A10.923,10.923,0,0,1,140.276,209.87Z" transform="translate(-126.775 -207.556)" fill="none" stroke="#b3bcc1" stroke-width="1.5" fill-rule="evenodd"/>
      <path id="Path_38733" data-name="Path 38733" d="M39.447,49.3l1.642,5.125h5.406L42.13,57.589l1.682,5.085-4.364-3.163-4.364,3.163,1.682-5.085L32.4,54.425h5.406Z" transform="translate(-25.944 -42.529)" fill="#f9f8fe"/>
    </g>
  </g>
</svg>
