<svg id="Group_44274" data-name="Group 44274" xmlns="http://www.w3.org/2000/svg" xmlns:xlink="http://www.w3.org/1999/xlink" width="420.951" height="244.378" viewBox="0 0 420.951 244.378">
  <defs>
    <linearGradient id="linear-gradient" x1="0.5" x2="0.5" y2="1" gradientUnits="objectBoundingBox">
      <stop offset="0" stop-color="#2f75b5"/>
      <stop offset="1" stop-color="#00376a"/>
    </linearGradient>
  </defs>
  <path id="Path_39748" data-name="Path 39748" d="M124.707,190.978c33.318-27.3,61.635-4.3,97.386-26.019,53.966-32.8,32.247-111.17,82.532-135.552,28.009-13.571,66.988-4.894,89.7,14.638,31.852,27.391,21.748,67.55,61.5,97.044,17.054,12.645,58.4,61.971,53.55,117.345-5.323,7.563-4.528,5.188-204.328,4.9-41.194,0-69.18-.075-90.364-.169-28.123-.125-43.458-.282-61.4-.331-15.668-.043-33.526,0-64.462.241C92.343,241.261,100.834,210.539,124.707,190.978Z" transform="translate(-88.823 -19.534)" fill="#00376a" opacity="0.25"/>
  <path id="Path_39749" data-name="Path 39749" d="M557.388,11.319C559.471,9.277,569.9-.905,583.558,1.093a26.706,26.706,0,0,1,11.252,4.54c7.438-.808,12.542.823,15.945,2.718a24.264,24.264,0,0,1,6.469,5.334A20.111,20.111,0,1,1,628.5,48.007c-.7-.1-1.394-.235-2.083-.4-.807,8.772-3.77,17.4-9.139,24.111-1.408,1.748-9.535,11.593-23.177,13.62-20.2,3-34.913-13.8-37.7-17.161a43.639,43.639,0,0,1-9.916-21.216C546.151,44.789,543.364,25.042,557.388,11.319Z" transform="translate(-278.202 -0.834)" fill="#24100d"/>
  <path id="Path_39750" data-name="Path 39750" d="M912.057,237.908c2.67-8.551,1-14.237,3.771-20.526,5.046.353,27.607-5.833,34.78-14.737-2.845,15.222,13.7,30.943,13.7,30.943,8.113-6.435,14.64,1.748,11.721,10.109-1.878,5.392-8.361,9.154-13.951,6.3-.19.632-.4,1.234-.615,1.837h.029l3.271,33.867-30.234,1.013-.1-17.308a28.241,28.241,0,0,1-5.971-.514C915.27,266.162,909.108,247.282,912.057,237.908Z" transform="translate(-641.717 -181.567)" fill="#fb9672"/>
  <path id="Path_39751" data-name="Path 39751" d="M1084.321,673.623h.029c-2.553,13.473-12.044,20.79-27.021,23.229l-.029-5.657C1066.454,691.093,1079.3,687.243,1084.321,673.623Z" transform="translate(-764.574 -603.353)" fill="#bb3832" opacity="0.2"/>
  <path id="Path_39752" data-name="Path 39752" d="M702.47,1045.811c1.541-8.83,17.97-35.218,18.865-40.494,6.366-1.63,10.782-2.292,17.148-3.923l34.8-.984c10.782,2.453,24.747,4.173,34.062,8.595-2.8,22.363-7.144,41.537-4.9,71.187,1.056,13.885,2.787,26.844,4.9,38.774a116.97,116.97,0,0,1-46.56,9.33c-17.941-.133-43.51-5.378-52.443-8.83-2.186-15.237,7.408-24.332,2.934-41.728C708.7,1067.615,700.827,1055.288,702.47,1045.811Z" transform="translate(-450.481 -896.009)" fill="#f47320"/>
  <path id="Path_39753" data-name="Path 39753" d="M546.728,1696.13c3.359-4.32,21.4-16.074,23.5-16.147,5.222-.191,23.089,1.851,23.089,1.851a260.858,260.858,0,0,1,46.121-19c2.332-.7,4.562-1.426,6.718-2.116-.777,8.419-4.107,15.236-4.3,23.656a41.907,41.907,0,0,1,4.943-2.16l21.374,1.278c10.253-5.569,25.714-14.429,44.462-20.13,1.848-.558,3.623-1.116,5.354-1.674-.059.19-1.247-13.268-2.2-24.45,10.914.838,32.228,1.264,40.385.5.88,12.811,1.936,32.868.851,45.253a21.457,21.457,0,0,1-21.358,19.585c-1.54,0-86.725.206-86.725.206-.7,0-3.007-.1-5.853-.221H549.162C546.141,1702.55,544.879,1698.524,546.728,1696.13Z" transform="translate(-384.294 -1466.325)" fill="#fb9672"/>
  <path id="Path_39754" data-name="Path 39754" d="M1634.052,2088.39a20.994,20.994,0,0,1,10.84,2.968,56.749,56.749,0,0,0-11.427,10.3c-1.1,1.292-.191,5.215,2.141,4.716,1.79-.4,12.747.1,18.336.324v.1H1614.19C1614.175,2096.632,1623.079,2088.39,1634.052,2088.39Z" transform="translate(-1392.331 -1870.354)"/>
  <path id="Path_39755" data-name="Path 39755" d="M1634.052,2088.39a20.994,20.994,0,0,1,10.84,2.968,56.749,56.749,0,0,0-11.427,10.3c-1.1,1.292-.191,5.215,2.141,4.716,1.79-.4,12.747.1,18.336.324v.1H1614.19C1614.175,2096.632,1623.079,2088.39,1634.052,2088.39Z" transform="translate(-1392.331 -1870.354)" fill="#fff" opacity="0.15"/>
  <path id="Path_39756" data-name="Path 39756" d="M594.51,1637.74l.5,6.127c-13.481-1.763-27.314-2.924-40.678-5.407l-.117-1.22C565.1,1638.078,586.31,1638.489,594.51,1637.74Z" transform="translate(-222.688 -1466.325)" fill="#bb3832" opacity="0.2"/>
  <path id="Path_39757" data-name="Path 39757" d="M536.253,972.7l1.246,3.732a15.217,15.217,0,0,1,.22-2.322c1.54-8.83,17.97-35.218,18.865-40.494C532.556,938.526,534.228,959.272,536.253,972.7Zm74.241-52.336,2.45,9.33c-13.246,10.344-28.311,11.74-38.727-.206l1.966-7.64C585.5,928.712,593.331,929.211,610.494,920.366Zm14.479,17.763c11.163-5.642,22.224,1.1,22.928,1.543a16.544,16.544,0,0,1,2.8,2.087c12.938,12.738,9.4,40.024,6.953,53.967-8.67.822-32.492.293-42.541-.661-4.122-18.513-5.647-29.988-.836-45.225A23.388,23.388,0,0,1,624.973,938.13Z" transform="translate(-285.716 -824.325)" fill="#fff"/>
  <path id="Path_39758" data-name="Path 39758" d="M536.253,972.7l1.246,3.732a15.217,15.217,0,0,1,.22-2.322c1.54-8.83,17.97-35.218,18.865-40.494C532.556,938.526,534.228,959.272,536.253,972.7Zm74.241-52.336,2.45,9.33c-13.246,10.344-28.311,11.74-38.727-.206l1.966-7.64C585.5,928.712,593.331,929.211,610.494,920.366Zm14.479,17.763c11.163-5.642,22.224,1.1,22.928,1.543a16.544,16.544,0,0,1,2.8,2.087c12.938,12.738,9.4,40.024,6.953,53.967-8.67.822-32.492.293-42.541-.661-4.122-18.513-5.647-29.988-.836-45.225A23.388,23.388,0,0,1,624.973,938.13Z" transform="translate(-285.716 -824.325)" opacity="0.05"/>
  <path id="Path_39761" data-name="Path 39761" d="M866.751,102.38A16.749,16.749,0,0,1,864.683,91.3c.954-6.847,5.412-12.063,10.5-12.812a73.015,73.015,0,0,0-4.929-30.767A68.465,68.465,0,0,0,865.225,37.6c1.966-1.4,4.225-1.66,6.925-.029a68.772,68.772,0,0,1,13.114,43.241c3.506,2.762,5.472,8.169,4.65,14-1.056,7.6-6.425,13.194-12.19,12.886v.029l-.719-.1h-.029l-3.4-.47a8.923,8.923,0,0,1-4.723-2.248c-.69.47-1.424.926-2.186,1.352a30.888,30.888,0,0,1-21.8,2.85c0-1.146-.015-2.292-.015-3.438C851.451,106.377,859.461,106.112,866.751,102.38Z" transform="translate(-548.134 -32.728)" fill="#c85b14"/>
  <path id="Path_39762" data-name="Path 39762" d="M938.185,463.369c-.572.455-1.174.9-1.789,1.308a8.922,8.922,0,0,0,4.723,2.248l3.4.47A9.363,9.363,0,0,1,938.185,463.369Zm-5.985-12.3c1.1-7.92,6.88-13.664,12.923-12.812l.249.029,3.154.441c-6.029-.837-11.808,4.893-12.909,12.812a17.451,17.451,0,0,0,1.115,9.212v-.015c-.1.059-.206.132-.308.191-.7.441-1.409.838-2.128,1.2A16.691,16.691,0,0,1,932.2,451.072Z" transform="translate(-615.666 -392.497)" fill="#f47320"/>
  <path id="Path_39763" data-name="Path 39763" d="M920.654,78.319a8.891,8.891,0,0,1,2.42-.015l.249.029,3.154.441c-.117-.015-.235-.029-.338-.044l.352.044.733.1v.029h-.015a9.133,9.133,0,0,1,3.565,1.719,68.771,68.771,0,0,0-13.114-43.241c-2.714-1.631-4.958-1.381-6.924.029a70.768,70.768,0,0,1,5.031,10.123A73.707,73.707,0,0,1,920.654,78.319ZM914.362,101c.1-.059.2-.132.308-.191a13.772,13.772,0,0,0,1.466,2.63,29.321,29.321,0,0,1-3.975,2.659,30.887,30.887,0,0,1-21.8,2.85c0-1.146-.015-2.292-.015-3.438C897.579,106.279,906.543,105.883,914.362,101Z" transform="translate(-593.617 -32.557)" fill="#f47320"/>
  <path id="Path_39764" data-name="Path 39764" d="M868.477,493.506c-4.237-.592-6.957-6.2-6.077-12.524s5.029-10.973,9.265-10.381,6.957,6.2,6.077,12.523S872.714,494.1,868.477,493.506Z" transform="translate(-537.758 -421.491)" fill="#f47320"/>
  <path id="Path_39765" data-name="Path 39765" d="M1233.328,674.831a4.657,4.657,0,1,0,5.251-3.982A4.658,4.658,0,0,0,1233.328,674.831Z" transform="translate(-941.204 -600.829)" fill="#24100d"/>
  <path id="Path_39766" data-name="Path 39766" d="M1763.5,472.6h56.066a17.456,17.456,0,0,1,5.178,34.117,28.929,28.929,0,0,0,3.536,9.506,27.042,27.042,0,0,0,2.728,3.82q-16.438-3-26.111-12.548h-41.4a17.448,17.448,0,0,1,0-34.9Z" transform="translate(-1589.152 -423.325)" fill="#f47320"/>
  <path id="Path_39767" data-name="Path 39767" d="M2010.178,611.647a3.433,3.433,0,1,0,3.433-3.438A3.44,3.44,0,0,0,2010.178,611.647Zm-16.752-3.438a3.438,3.438,0,1,1-3.432,3.438A3.44,3.44,0,0,1,1993.427,608.209Zm-19.774,0a3.438,3.438,0,1,1-3.433,3.438A3.44,3.44,0,0,1,1973.653,608.209Z" transform="translate(-1792.619 -544.771)" fill="#fff"/>
  <path id="Path_39768" data-name="Path 39768" d="M2023.46,974.1l7.848-1.969h136.733l28.429,108.007-4.4,2.453h-73.581l-4.357,15.708h18.63v8.345H2071V1098.3h12.748l4.562-15.708H2051.89Z" transform="translate(-1977.604 -870.686)" fill="url(#linear-gradient)"/>
  <path id="Path_39769" data-name="Path 39769" d="M2205.77,990.984l28.429,108.491h-73.581l7.907-28.474-2.948-9.815h-24.014l-11.119,38.289H2094.02l-28.43-108.491Z" transform="translate(-2019.734 -887.567)" fill="#00376a"/>
  <path id="Path_39770" data-name="Path 39770" d="M2670.191,1717.126l15.681-54,2.948,9.815-12.264,44.182h18.63v8.345H2633.43v-8.345Z" transform="translate(-2540.031 -1489.51)" opacity="0.5"/>
</svg>
