<svg xmlns="http://www.w3.org/2000/svg" xmlns:xlink="http://www.w3.org/1999/xlink" width="34.851" height="34.852" viewBox="0 0 34.851 34.852">
  <defs>
    <linearGradient id="linear-gradient" x1="0.5" x2="0.5" y2="1" gradientUnits="objectBoundingBox">
      <stop offset="0" stop-color="#2f75b5"/>
      <stop offset="1" stop-color="#00376a"/>
    </linearGradient>
  </defs>
  <g id="Group_44252" data-name="Group 44252" transform="translate(-227.497 -635.574)">
    <g id="_38ac84c187a695d2c7d226afaa1c7a36" data-name="38ac84c187a695d2c7d226afaa1c7a36" transform="translate(227.497 635.574)">
      <path id="Subtraction_14" data-name="Subtraction 14" d="M10365.93,18735.277a17.424,17.424,0,1,1,12.322-5.1A17.308,17.308,0,0,1,10365.93,18735.277Zm3.117-18.271a4.882,4.882,0,0,0-2.807.869c-.046.031-.093.064-.146.1l-.066.047-.065.047a4.987,4.987,0,0,0-.611.607,4.794,4.794,0,0,0-1.2,3.2,4.421,4.421,0,0,0,.268,1.576,4.118,4.118,0,0,0,.508,1.043,4.809,4.809,0,0,0,.339.48,5.739,5.739,0,0,0,.508.521.885.885,0,0,0,.192.17,4.888,4.888,0,0,0,7.448-6,4.541,4.541,0,0,0-.56-.855,3.15,3.15,0,0,0-.23-.268.166.166,0,0,1-.029-.029l-.006-.008-.009-.008a.334.334,0,0,0-.046-.045,4.211,4.211,0,0,0-.817-.682A4.842,4.842,0,0,0,10369.047,18717.006Zm-4.9.865a8.371,8.371,0,0,0-3.082.582,4.85,4.85,0,0,0-3,3.3l-.08.32a2.114,2.114,0,0,0,.311,1.711,2.281,2.281,0,0,0,1.617.959,35.577,35.577,0,0,0,4.237.25h.042a.156.156,0,0,0-.023-.037,4.844,4.844,0,0,1-.606-1.238,5.426,5.426,0,0,1-.3-1.838,5.728,5.728,0,0,1,1.42-3.795q.085-.094.164-.187C10364.614,18717.881,10364.381,18717.871,10364.15,18717.871Zm.275-9.941a4.5,4.5,0,1,0,4.5,4.5A4.5,4.5,0,0,0,10364.426,18707.93Zm4.57,16.2a.889.889,0,0,1-.889-.889v-.465h-.442a.889.889,0,0,1,0-1.777h.442v-.527a.894.894,0,0,1,1.534-.619.85.85,0,0,1,.247.619v.527h.522l.018,0a.889.889,0,0,1,.617,1.516.92.92,0,0,1-.635.264h-.522v.465a.88.88,0,0,1-.258.621A.9.9,0,0,1,10369,18724.133Z" transform="translate(-10348.505 -18700.426)" fill="url(#linear-gradient)"/>
    </g>
  </g>
</svg>
