<svg xmlns="http://www.w3.org/2000/svg" width="20.467" height="21" viewBox="0 0 20.467 21">
  <g id="Group_27580" data-name="Group 27580" transform="translate(-0.45 0.826)">
    <path id="Path_17811" data-name="Path 17811" d="M16.055,11.088a5.755,5.755,0,0,1,3.475,1.163V8H1V20.353H11.43a5.777,5.777,0,0,1,1.744-8.492H6.4V10.316h7.72v1.108a5.752,5.752,0,0,1,1.93-.337Z" transform="translate(-0.147 -1.713)" fill="#fbbf98"/>
    <path id="Path_17812" data-name="Path 17812" d="M19.014,13a5.014,5.014,0,1,0,5.014,5.014A5.014,5.014,0,0,0,19.014,13Zm-1.09,7.475-2.18-2.18.545-.545,1.635,1.635,3.821-3.82.545.545Z" transform="translate(-3.11 -2.853)" fill="#f47320"/>
    <rect id="Rectangle_4692" data-name="Rectangle 4692" width="19.619" height="6.54" rx="2" transform="translate(0.45 -0.826)" fill="#f47320"/>
  </g>
</svg>
