<svg xmlns="http://www.w3.org/2000/svg" width="21" height="23" viewBox="0 0 21 23">
  <g id="Group_27564" data-name="Group 27564" transform="translate(-3 -2)">
    <rect id="Rectangle_4691" data-name="Rectangle 4691" width="21" height="21" rx="3" transform="translate(3 4)" fill="#ffd2b5"/>
    <path id="Path_17727" data-name="Path 17727" d="M16.35,13.386H9.193a1.193,1.193,0,1,1,0-2.386H16.35a1.193,1.193,0,1,1,0,2.386Zm0,4.771H9.193a1.193,1.193,0,0,1,0-2.386H16.35a1.193,1.193,0,1,1,0,2.386Z" transform="translate(0.964 1.735)" fill="#f47320"/>
    <path id="Path_17728" data-name="Path 17728" d="M15.35,2H10.578a3.578,3.578,0,1,0,0,7.157H15.35A3.578,3.578,0,0,0,15.35,2Z" transform="translate(0.771)" fill="#f47320"/>
  </g>
</svg>
