<svg xmlns="http://www.w3.org/2000/svg" width="27.801" height="24.148" viewBox="0 0 27.801 24.148">
  <g id="Group_44346" data-name="Group 44346" transform="translate(12320 17638.593)">
    <path id="project_9912314" d="M165,139.447V121.874h-4.637a1.309,1.309,0,0,1-1.308-1.308V115.93h-8.29a.41.41,0,0,0-.409.409v23.108a.41.41,0,0,0,.409.409h13.825A.41.41,0,0,0,165,139.447ZM152.628,135.5a.512.512,0,0,0,0,1.025h8.721a.512.512,0,0,0,0-1.025Zm9.234-3.545a.512.512,0,0,0-.512-.512h-8.721a.512.512,0,0,0,0,1.025h8.721A.512.512,0,0,0,161.862,131.951Zm-.512-3.545a.512.512,0,1,0,0-1.025h-8.721a.512.512,0,1,0,0,1.025Zm0-4.058a.512.512,0,1,0,0-1.025h-8.721a.512.512,0,1,0,0,1.025Zm-4.314-5.518a.512.512,0,0,0-.512-.512h-3.895a.512.512,0,0,0,0,1.025h3.895A.513.513,0,0,0,157.036,118.83Zm3.331,2.02h3.913l-4.2-4.2v3.913A.282.282,0,0,0,160.366,120.85Z" transform="translate(-12457.202 -17754.523)" fill="#f47320" fill-rule="evenodd"/>
    <path id="project_9912314-2" data-name="project_9912314" d="M33.491,139.574v-6.8h-.9a.088.088,0,0,0-.088.084l-.084,1.8a1.256,1.256,0,0,1-.922,1.164,9.315,9.315,0,0,0-1.968.816,1.255,1.255,0,0,1-1.475-.172l-1.333-1.216a.089.089,0,0,0-.122,0l-2.109,2.109a.089.089,0,0,0,0,.122l1.215,1.334a1.257,1.257,0,0,1,.172,1.475,9.323,9.323,0,0,0-.816,1.969,1.255,1.255,0,0,1-1.164.921l-1.8.084a.088.088,0,0,0-.084.089v2.982a.089.089,0,0,0,.084.089l1.8.084a1.256,1.256,0,0,1,1.164.922,9.337,9.337,0,0,0,.816,1.968,1.257,1.257,0,0,1-.172,1.475l-1.216,1.334a.089.089,0,0,0,0,.122l2.109,2.109a.089.089,0,0,0,.122,0l1.333-1.215a1.255,1.255,0,0,1,1.475-.172,9.322,9.322,0,0,0,1.969.816,1.256,1.256,0,0,1,.922,1.164l.084,1.8a.088.088,0,0,0,.088.084h.9v-6.805a5.3,5.3,0,0,1,0-10.538Z" transform="translate(-12342.01 -17771.363)" fill="#ffd1b4" fill-rule="evenodd"/>
  </g>
</svg>
