<svg xmlns="http://www.w3.org/2000/svg" width="24.112" height="24.098" viewBox="0 0 24.112 24.098">
  <g id="Group_45534" data-name="Group 45534" transform="translate(-1.025 -1.058)">
    <path id="Path_40630" data-name="Path 40630" d="M23.92,22.661a.971.971,0,0,0-1,1V27.8h5.5V23.665a1,1,0,0,0-1-1Z" transform="translate(-5.275 -5.207)" fill="#fbc7a5"/>
    <path id="Path_40631" data-name="Path 40631" d="M4.708,17.535a1,1,0,0,0-1,1v7.345H9.2V18.539a1,1,0,0,0-1-1ZM12.2,14.724a1,1,0,0,0-1,1V25.884h5.1V15.728a1,1,0,0,0-1-1Z" transform="translate(-0.646 -3.294)" fill="#fbc7a5"/>
    <path id="Path_40632" data-name="Path 40632" d="M23.654,25.156H2.509a1.484,1.484,0,1,1,0-2.967H23.654a1.484,1.484,0,0,1,0,2.967ZM15.79,9.3c-.441.322-2.135-.516-2.681-.515s-2.236.847-2.679.527-.169-2.19-.339-2.709S8.6,4.737,8.763,4.218s2.03-.838,2.471-1.16,1.312-2,1.858-2S14.516,2.73,14.958,3.05s2.307.629,2.477,1.148-1.15,1.871-1.318,2.391S16.231,8.977,15.79,9.3Z" transform="translate(0 0)" fill="#f47320"/>
  </g>
</svg>
