<svg xmlns="http://www.w3.org/2000/svg" width="21.857" height="21.857" viewBox="0 0 21.857 21.857">
  <g id="Group_45535" data-name="Group 45535" transform="translate(-3.5 -3.5)">
    <path id="Path_40633" data-name="Path 40633" d="M16.607,5.25a3.536,3.536,0,0,0-3.536,3.536v4.179H9.214a.964.964,0,0,0,0,1.929h3.857v4.179a3.536,3.536,0,0,0,3.536,3.536h2.571a.964.964,0,1,0,0-1.929H16.607A1.608,1.608,0,0,1,15,19.072V14.893h4.5a.964.964,0,0,0,0-1.929H15V8.786a1.608,1.608,0,0,1,1.607-1.607h2.571a.964.964,0,1,0,0-1.929Z" transform="translate(1.357 0.5)" fill="#f47320"/>
    <path id="Path_40634" data-name="Path 40634" d="M8,8.5A4.5,4.5,0,1,0,12.5,13,4.5,4.5,0,0,0,8,8.5Z" transform="translate(0 1.429)" fill="#fbc7a5"/>
    <path id="Path_40635" data-name="Path 40635" d="M18.714,18.929a3.214,3.214,0,1,0,3.214,3.214A3.214,3.214,0,0,0,18.714,18.929Zm0-7.714a3.214,3.214,0,1,0,3.214,3.214A3.214,3.214,0,0,0,18.714,11.214Zm0-7.714a3.214,3.214,0,1,0,3.214,3.214A3.214,3.214,0,0,0,18.714,3.5Z" transform="translate(3.429)" fill="#fbc7a5"/>
  </g>
</svg>
