<svg xmlns="http://www.w3.org/2000/svg" width="67" height="66" viewBox="0 0 67 66">
  <g id="Group_44647" data-name="Group 44647" transform="translate(0.334)">
    <rect id="Rectangle_19773" data-name="Rectangle 19773" width="67" height="66" rx="33" transform="translate(-0.334)" fill="#d8e8f7" opacity="0.8"/>
    <g id="Group_44961" data-name="Group 44961" transform="translate(-940.335 -1246.047)">
      <g id="Group_44962" data-name="Group 44962" transform="translate(957 1260.74)">
        <path id="Path_40268" data-name="Path 40268" d="M16.978,32.479,9.883,31.5a3.041,3.041,0,0,1-3.418,1.874A3.153,3.153,0,0,1,4,30.287a3.06,3.06,0,1,1,6.113.1l7.018.968Z" transform="translate(-5 -13.123)" fill="#00376a"/>
        <path id="Path_40272" data-name="Path 40272" d="M.163,5.095,5.68,4.47a3.255,3.255,0,0,0,6.249-1.246,3.247,3.247,0,1,0-6.493.1L0,3.948Z" transform="translate(22.001 14.913) rotate(-9)" fill="#00376a"/>
        <path id="Path_40270" data-name="Path 40270" d="M12.449,5.437,6.493,4.644A3.382,3.382,0,0,1,0,3.349a3.374,3.374,0,1,1,6.747.109l5.872.787Z" transform="matrix(0.656, -0.755, 0.755, 0.656, 1.442, 30.806)" fill="#00376a"/>
        <path id="Path_40271" data-name="Path 40271" d="M8.251,4.375,5.209,3.726A2.713,2.713,0,0,1,0,2.687a2.707,2.707,0,1,1,5.413.087l2.974.644Z" transform="translate(24.13 34.044) rotate(-137)" fill="#00376a"/>
        <path id="Path_40269" data-name="Path 40269" d="M10.263,4.93,5.786,4.139A3.014,3.014,0,0,1,0,2.985a3.007,3.007,0,1,1,6.013.1l4.4.786Z" transform="translate(17.058 2.307) rotate(73)" fill="#00376a"/>
      </g>
      <g id="Group_44961-2" data-name="Group 44961" transform="translate(966.438 1273.09)">
        <path id="Path_40267" data-name="Path 40267" d="M68.829,12.409a7.062,7.062,0,0,0-.715-3.143L69.591,7.8l-.11-.182a8.855,8.855,0,0,0-2.389-2.583l-.17-.127L65.341,6.272a7.082,7.082,0,0,0-3.076-.953L61.735,3.3l-.212.008a8.841,8.841,0,0,0-3.434.779l-.194.088.39,2.044a7.021,7.021,0,0,0-2.364,2.189L53.91,7.86l-.1.187a8.969,8.969,0,0,0-1.042,3.362l-.023.212,1.969.687a7.03,7.03,0,0,0,.713,3.139l-1.478,1.468.11.182a8.842,8.842,0,0,0,2.392,2.584l.171.124,1.577-1.36a7.082,7.082,0,0,0,3.076.953l.534,2.014.211-.005a8.856,8.856,0,0,0,3.431-.779l.194-.088-.389-2.046a7.051,7.051,0,0,0,2.366-2.185l2.009.546.1-.187A8.969,8.969,0,0,0,70.773,13.3l.022-.212ZM63.6,15.834a3.926,3.926,0,1,1,1.923-2.313A3.929,3.929,0,0,1,63.6,15.834Z" transform="translate(-54.38 -4.943)" fill="#5a95cc"/>
      </g>
    </g>
  </g>
</svg>
