<svg xmlns="http://www.w3.org/2000/svg" width="27.425" height="15.921" viewBox="0 0 27.425 15.921">
  <g id="Group_44184" data-name="Group 44184" transform="translate(-98.019 -797.715)">
    <g id="Group_40514" data-name="Group 40514" transform="translate(93.019 782.234)">
      <path id="Path_38713" data-name="Path 38713" d="M11.708,25.611H8.165A3.17,3.17,0,0,0,5,28.776v2.073a.547.547,0,0,0,.548.548h8.776a.547.547,0,0,0,.548-.548V28.776A3.17,3.17,0,0,0,11.708,25.611Zm-4.618-3.6A2.847,2.847,0,1,0,9.936,19.16,2.848,2.848,0,0,0,7.09,22.007Zm17.552,0a2.847,2.847,0,1,0,2.847-2.847A2.848,2.848,0,0,0,24.642,22.007Zm4.618,3.6H25.717a3.17,3.17,0,0,0-3.165,3.165v2.073a.547.547,0,0,0,.548.548h8.776a.547.547,0,0,0,.548-.548V28.776A3.17,3.17,0,0,0,29.26,25.611Z" transform="translate(0 0)" fill="#f47320"/>
    </g>
    <path id="Path_38714" data-name="Path 38714" d="M28.58,35.778a4.279,4.279,0,0,1,2.315-3.79,4.1,4.1,0,0,0-2.671-1H23.457a4.076,4.076,0,0,0-2.677,1,4.264,4.264,0,0,1,2.315,3.785v2.073a1.55,1.55,0,0,1-.1.554h5.682a1.55,1.55,0,0,1-.1-.554Z" transform="translate(85.894 775.23)" fill="#ffd1b4"/>
    <circle id="Ellipse_630" data-name="Ellipse 630" cx="3.65" cy="3.65" r="3.65" transform="translate(108 797.715)" fill="#ffd1b4"/>
  </g>
</svg>
