<svg xmlns="http://www.w3.org/2000/svg" width="122.568" height="114.893" viewBox="0 0 122.568 114.893">
  <g id="Group_44134" data-name="Group 44134" transform="translate(-328.808 -384.49)">
    <g id="Group_44133" data-name="Group 44133" transform="translate(328.808 384.49)">
      <circle id="Ellipse_1639" data-name="Ellipse 1639" cx="31.175" cy="31.175" r="31.175" transform="translate(16.996 23.604)" fill="#fec246"/>
      <g id="Group_44130" data-name="Group 44130" transform="translate(45.499)">
        <path id="Path_39631" data-name="Path 39631" d="M461.854,396.6a2.673,2.673,0,0,1-2.672,2.672h0a2.673,2.673,0,0,1-2.672-2.672v-9.442a2.673,2.673,0,0,1,2.672-2.672h0a2.673,2.673,0,0,1,2.672,2.672Z" transform="translate(-456.51 -384.49)" fill="#fec246"/>
        <path id="Path_39632" data-name="Path 39632" d="M461.854,662.6a2.673,2.673,0,0,1-2.672,2.672h0a2.673,2.673,0,0,1-2.672-2.672v-9.442a2.673,2.673,0,0,1,2.672-2.672h0a2.673,2.673,0,0,1,2.672,2.672Z" transform="translate(-456.51 -555.717)" fill="#fec246"/>
      </g>
      <g id="Group_44131" data-name="Group 44131" transform="translate(0 26.714)">
        <path id="Path_39633" data-name="Path 39633" d="M565.051,469.074a2.671,2.671,0,0,1-3.634-1.03h0a2.671,2.671,0,0,1,1.03-3.634l8.245-4.6a2.672,2.672,0,0,1,3.634,1.03h0a2.676,2.676,0,0,1-1.03,3.638Z" transform="translate(-478.322 -459.468)" fill="#fec246"/>
        <path id="Path_39634" data-name="Path 39634" d="M332.781,598.72a2.671,2.671,0,0,1-3.634-1.03h0a2.671,2.671,0,0,1,1.03-3.634l8.245-4.6a2.671,2.671,0,0,1,3.634,1.03h0a2.671,2.671,0,0,1-1.03,3.634Z" transform="translate(-328.808 -542.925)" fill="#fec246"/>
      </g>
      <g id="Group_44132" data-name="Group 44132" transform="translate(0 26.714)">
        <path id="Path_39635" data-name="Path 39635" d="M338.421,469.074a2.671,2.671,0,0,0,3.634-1.03h0a2.671,2.671,0,0,0-1.03-3.634l-8.245-4.6a2.672,2.672,0,0,0-3.634,1.03h0a2.676,2.676,0,0,0,1.03,3.638Z" transform="translate(-328.808 -459.468)" fill="#fec246"/>
        <path id="Path_39636" data-name="Path 39636" d="M570.691,598.72a2.671,2.671,0,0,0,3.634-1.03h0a2.671,2.671,0,0,0-1.03-3.634l-8.245-4.6a2.671,2.671,0,0,0-3.634,1.03h0a2.671,2.671,0,0,0,1.03,3.634Z" transform="translate(-478.322 -542.925)" fill="#fec246"/>
      </g>
    </g>
    <path id="Path_39637" data-name="Path 39637" d="M449.8,533.523s0,0,.007,0a.177.177,0,0,1-.043-.007c-.189-.043-.378-.078-.566-.114a2.311,2.311,0,0,1-1.667-2.141h-.007a26,26,0,0,0-48.284-11.572v0c-.05.1-.1.185-.157.271-.021.039-.046.078-.068.118-1.108,1.746-2.458,1.418-2.458,1.418h0a21.554,21.554,0,0,0-26.469,18.338l0-.007c-.2,1.215-1.642,1.707-2.54,1.9-.224.032-.445.068-.666.107a.53.53,0,0,1-.053,0l0,0a17.1,17.1,0,1,0,12.164,31.307l0,0s6.021-3.285,10.707.164h0a27.731,27.731,0,0,0,16.2,4.935,27.381,27.381,0,0,0,17.038-5.569h0l.007-.007c.207-.167.413-.339.613-.509,1.333-.966,4.721-2.672,9.274.52h0A21.727,21.727,0,1,0,449.8,533.523Z" transform="translate(-15.457 -78.854)" fill="#fff"/>
  </g>
</svg>
