<svg xmlns="http://www.w3.org/2000/svg" width="21.982" height="17.586" viewBox="0 0 21.982 17.586">
  <g id="Group_27378" data-name="Group 27378" transform="translate(-2 -4)">
    <path id="Path_17643" data-name="Path 17643" d="M14.914,10.265V8.048a.791.791,0,0,1-.8-.769V4.631A.634.634,0,0,0,13.469,4h-7.3A4.115,4.115,0,0,0,2,8.048v2.673a.763.763,0,0,0,.234.55.812.812,0,0,0,.563.22,1.337,1.337,0,0,1,1.429,1.29,1.4,1.4,0,0,1-1.413,1.385A.761.761,0,0,0,2,14.9v2.644a4.1,4.1,0,0,0,4.156,4.038h7.313a.636.636,0,0,0,.648-.63V18.728a.786.786,0,0,1,.8-.769V15.947a.792.792,0,0,1-.8-.769V11.043a.791.791,0,0,1,.8-.769Z" transform="translate(0 0)" fill="#ffd2b5"/>
    <path id="Path_17644" data-name="Path 17644" d="M20.6,12.787a1.409,1.409,0,0,0,1.413,1.384.759.759,0,0,1,.808.722v2.654a4.1,4.1,0,0,1-4.156,4.038H15.2a.643.643,0,0,1-.648-.631V18.728a.778.778,0,0,0-.8-.769V15.947a.785.785,0,0,0,.8-.769V11.043a.785.785,0,0,0-.8-.769V8.048a.786.786,0,0,0,.8-.769V4.641A.642.642,0,0,1,15.2,4h3.465a4.1,4.1,0,0,1,4.156,4.037v2.6a.762.762,0,0,1-.234.55.808.808,0,0,1-.563.226,1.4,1.4,0,0,0-1.429,1.374Z" transform="translate(1.164)" fill="#f47320"/>
  </g>
</svg>
