<svg id="Group_32188" data-name="Group 32188" xmlns="http://www.w3.org/2000/svg" width="19.891" height="25.764" viewBox="0 0 19.891 25.764">
  <g id="Group_32186" data-name="Group 32186">
    <path id="Path_23200" data-name="Path 23200" d="M44.663,9.883,43.116,11.43,41.569,9.883A10.116,10.116,0,0,0,37.6,11.43l2.319,2.319a6.748,6.748,0,0,1,6.351,0l2.319-2.319a9.809,9.809,0,0,0-3.925-1.547Z" transform="translate(-33.171 -3.917)" fill="#f9f8fe"/>
    <path id="Path_23203" data-name="Path 23203" d="M43.851,7.666A2.674,2.674,0,0,1,41.239,5.1a2.591,2.591,0,0,1,5.181-.062A2.708,2.708,0,0,1,43.851,7.666Z" transform="translate(-33.885 -2.475)" fill="#f9f8fe" opacity="0.79"/>
    <path id="Path_23201" data-name="Path 23201" d="M33.094,43.1l-2.235,2.235a6.769,6.769,0,1,1-9.026,0L19.6,43.1a9.945,9.945,0,1,0,13.5,0Z" transform="translate(-16.4 -34.585)" fill="#f9f8fe"/>
    <path id="Path_23202" data-name="Path 23202" d="M62.413,66.751A.526.526,0,0,0,61.7,66.5l-2.507,1.212a1.565,1.565,0,0,0-1.108-.46,1.588,1.588,0,1,0,1.588,1.588.408.408,0,0,0-.021-.167l2.507-1.212a.559.559,0,0,0,.252-.711Z" transform="translate(-48.122 -53.055)" fill="#f9f8fe"/>
  </g>
</svg>
