<svg xmlns="http://www.w3.org/2000/svg" xmlns:xlink="http://www.w3.org/1999/xlink" width="33.023" height="31.574" viewBox="0 0 33.023 31.574">
  <defs>
    <linearGradient id="linear-gradient" x1="0.5" y1="0.384" x2="0.5" y2="1" gradientUnits="objectBoundingBox">
      <stop offset="0" stop-color="#2f75b5"/>
      <stop offset="1" stop-color="#00376a"/>
    </linearGradient>
  </defs>
  <path id="Path_40691" data-name="Path 40691" d="M34.71,14.13l-9.338-.81L21.726,4.735a1.93,1.93,0,0,0-3.55,0l-3.646,8.6-9.318.791a1.925,1.925,0,0,0-1.1,3.376l7.08,6.135L9.071,32.747a1.925,1.925,0,0,0,2.875,2.084l8.006-4.823,8.006,4.842a1.925,1.925,0,0,0,2.875-2.084L28.71,23.641l7.08-6.135a1.921,1.921,0,0,0-1.08-3.376ZM19.951,26.4,12.7,30.779l1.929-8.257L8.222,16.966l8.45-.733,3.28-7.775,3.3,7.794,8.45.733L25.3,22.541,27.225,30.8Z" transform="translate(-3.443 -3.563)" fill="url(#linear-gradient)"/>
</svg>
