<svg id="Group_44097" data-name="Group 44097" xmlns="http://www.w3.org/2000/svg" width="60.284" height="60.284" viewBox="0 0 60.284 60.284">
  <path id="Path_39622" data-name="Path 39622" d="M30.142,0A30.142,30.142,0,1,1,0,30.142,30.142,30.142,0,0,1,30.142,0Z" fill="#fff" opacity="0.4"/>
  <g id="Group_27557" data-name="Group 27557" transform="translate(16 16)">
    <path id="Path_17705" data-name="Path 17705" d="M14.636,2.657H1.909A1.112,1.112,0,0,0,.8,3.767V15.611a1.112,1.112,0,0,0,1.111,1.11H14.636a1.112,1.112,0,0,0,1.11-1.11V3.768A1.112,1.112,0,0,0,14.636,2.657Z" transform="translate(-0.8 -1.673)" fill="#8ca8c1"/>
    <path id="Path_17706" data-name="Path 17706" d="M14.636,2.657H1.909A1.112,1.112,0,0,0,.8,3.767V5.532a.216.216,0,0,0,.217.216H15.529a.217.217,0,0,0,.217-.216V3.768a1.112,1.112,0,0,0-1.11-1.111Z" transform="translate(-0.8 -1.673)" fill="#00376a"/>
    <g id="Group_27557-2" data-name="Group 27557" transform="translate(2.04 5.985)">
      <path id="Path_17707" data-name="Path 17707" d="M11.772,13.622H9.4a.143.143,0,0,0-.143.143v2.377a.143.143,0,0,0,.286,0V13.909h2.234a.143.143,0,1,0,0-.286Zm1.6,2.663a.143.143,0,0,0,.143-.143V13.908h2.234a.143.143,0,0,0,0-.286H13.371a.143.143,0,0,0-.143.143v2.377a.143.143,0,0,0,.143.143ZM7.8,17.685H5.419a.143.143,0,0,0-.143.143V20.2a.143.143,0,0,0,.286,0V17.971H7.8a.143.143,0,1,0,0-.286Zm3.976,0H9.4a.143.143,0,0,0-.143.143V20.2a.143.143,0,0,0,.286,0V17.971h2.234a.143.143,0,0,0,0-.286Zm3.976,0H13.371a.143.143,0,0,0-.143.143V20.2a.143.143,0,1,0,.286,0V17.971h2.234a.143.143,0,1,0,0-.286Z" transform="translate(-5.276 -13.622)" fill="#00376a"/>
    </g>
    <g id="Group_27558" data-name="Group 27558" transform="translate(2.551)">
      <path id="Path_17708" data-name="Path 17708" d="M6.764.5A.361.361,0,0,0,6.4.861V2.54a.361.361,0,1,0,.722,0V.861A.361.361,0,0,0,6.764.5ZM9.8.5a.361.361,0,0,0-.361.361V2.54a.361.361,0,1,0,.722,0V.861A.361.361,0,0,0,9.8.5Zm3.04,0a.361.361,0,0,0-.361.361V2.54a.361.361,0,0,0,.722,0V.861A.361.361,0,0,0,12.84.5Zm3.038,0a.361.361,0,0,0-.361.361V2.54a.361.361,0,1,0,.722,0V.861A.361.361,0,0,0,15.877.5Z" transform="translate(-6.4 -0.5)" fill="#00376a"/>
    </g>
    <g id="Group_27559" data-name="Group 27559" transform="translate(6.334 23.98)">
      <path id="Path_17709" data-name="Path 17709" d="M18.728,53.138a.212.212,0,0,0-.3,0l-3.447,3.448a.709.709,0,1,0,1,1l3.447-3.447a.212.212,0,0,0,0-.3Zm17.38,3.447L32.66,53.137a.218.218,0,0,0-.3,0l-.7.7a.212.212,0,0,0,0,.3l3.44,3.45a.709.709,0,0,0,1-1Z" transform="translate(-14.735 -53.076)" fill="#8ca8c1"/>
    </g>
    <path id="Path_17710" data-name="Path 17710" d="M37.16,29.481c-.213,0-.386.1-.386.221v15.53c0,.122.173.221.386.221s.386-.1.386-.221V29.7c0-.122-.173-.221-.386-.221Z" transform="translate(-20.404 -16.263)" fill="#00376a"/>
    <path id="Path_17711" data-name="Path 17711" d="M30.648,45.389H11.189a.469.469,0,0,1-.334-.139L6.03,40.426a.981.981,0,0,0-1.355,0A.98.98,0,0,0,4.552,41.9l5.124,5.121a.964.964,0,0,0,.678.281H30.648a.959.959,0,0,0,0-1.917Z" transform="translate(-2.689 -22.068)" fill="#8ca8c1"/>
    <path id="Path_17712" data-name="Path 17712" d="M26.95,21.543a8.619,8.619,0,0,0-8.644,8.36.22.22,0,0,0,.221.229H35.373a.221.221,0,0,0,.221-.229,8.619,8.619,0,0,0-8.644-8.36Z" transform="translate(-10.322 -11.945)" fill="#00376a"/>
    <path id="Path_17713" data-name="Path 17713" d="M32.7,21.706c-2.076,0-3.756,3.642-3.825,8.291a.146.146,0,0,0,.146.148H36.38A.147.147,0,0,0,36.522,30C36.452,25.348,34.773,21.706,32.7,21.706Z" transform="translate(-16.069 -12.034)" fill="#8ca8c1"/>
  </g>
</svg>
