<svg id="Group_44096" data-name="Group 44096" xmlns="http://www.w3.org/2000/svg" width="60.284" height="60.284" viewBox="0 0 60.284 60.284">
  <path id="Path_39622" data-name="Path 39622" d="M30.142,0A30.142,30.142,0,1,1,0,30.142,30.142,30.142,0,0,1,30.142,0Z" fill="#fff" opacity="0.4"/>
  <g id="Group_44095" data-name="Group 44095" transform="translate(13.854 13.852)">
    <path id="Path_17628" data-name="Path 17628" d="M16.7,2.05A16.331,16.331,0,1,0,28.669,30.945l-4.663-4.657A9.8,9.8,0,1,1,16.7,8.636V2.049Z" transform="translate(-2.004 -2.049)" fill="#00376a"/>
    <path id="Path_17629" data-name="Path 17629" d="M21.029,16.667A9.807,9.807,0,0,0,13,8.636V2.049A16.336,16.336,0,0,1,27.616,16.667Zm-1.677,7.312a9.745,9.745,0,0,0,1.679-4.046h6.587a16.257,16.257,0,0,1-3.605,8.7l-4.657-4.657Z" transform="translate(4.958 -2.049)" fill="#00376a" opacity="0.4"/>
  </g>
</svg>
