<svg xmlns="http://www.w3.org/2000/svg" width="23.929" height="24.51" viewBox="0 0 23.929 24.51">
  <g id="Layer_2" transform="translate(-2 -3)">
    <path id="Path_18135" data-name="Path 18135" d="M25.929,12.635v8.453c0,3.114-2.142,5.635-4.786,5.635H6.786C4.142,26.724,2,24.2,2,21.088V12.635C2,9.522,4.142,7,6.786,7H21.143C23.787,7,25.929,9.522,25.929,12.635Z" transform="translate(0 0.786)" fill="#fbc5a2"/>
    <path id="Path_18137" data-name="Path 18137" d="M15.375,3H10.589A3.6,3.6,0,0,0,7,6.589v1.2H9.393v-1.2a1.2,1.2,0,0,1,1.2-1.2h4.786a1.2,1.2,0,0,1,1.2,1.2v1.2h2.393v-1.2A3.6,3.6,0,0,0,15.375,3Z" transform="translate(0.982)" fill="#f47320"/>
    <path id="Path_18138" data-name="Path 18138" d="M14.7,6H10m4.7,2.351H10M10,6h.941a2.351,2.351,0,0,1,2.351,2.351h0A2.351,2.351,0,0,1,10.941,10.7H10l3.762,3.762" transform="translate(1.613 7.929)" fill="none" stroke="#f47320" stroke-linecap="round" stroke-linejoin="round" stroke-width="1.5"/>
  </g>
</svg>
