<svg xmlns="http://www.w3.org/2000/svg" width="17.003" height="17.003" viewBox="0 0 17.003 17.003">
  <g id="Group_45185" data-name="Group 45185" transform="translate(-2 -2)">
    <path id="Path_40388" data-name="Path 40388" d="M16.452,22H4.55A2.806,2.806,0,0,1,2,19V15a.934.934,0,0,1,.85-1,.934.934,0,0,1,.85,1v4a.935.935,0,0,0,.85,1h11.9a.935.935,0,0,0,.85-1V15A.861.861,0,1,1,19,15v4A2.806,2.806,0,0,1,16.452,22Z" transform="translate(0 -2.997)" fill="#fff"/>
    <path id="Path_40389" data-name="Path 40389" d="M16.707,6.293l-4-4a1,1,0,0,0-1.414,0h0l-4,4A1,1,0,0,0,8.707,7.707L11,5.414V15a1,1,0,0,0,2,0V5.414l2.293,2.293a1,1,0,0,0,1.414-1.414Z" transform="translate(-1.499)" fill="#fff"/>
  </g>
</svg>
