<svg id="Group_44193" data-name="Group 44193" xmlns="http://www.w3.org/2000/svg" width="41" height="41" viewBox="0 0 41 41">
  <path id="Path_38712" data-name="Path 38712" d="M20.5,0A20.5,20.5,0,1,1,0,20.5,20.5,20.5,0,0,1,20.5,0Z" fill="#e4e9eb"/>
  <path id="Path_39691" data-name="Path 39691" d="M14.615,5a9.615,9.615,0,1,0,9.615,9.615A9.626,9.626,0,0,0,14.615,5Zm3.708,9.919-5.4,4.231a.377.377,0,0,1-.235.081.382.382,0,0,1-.385-.385V10.388a.383.383,0,0,1,.619-.3l5.4,4.231a.385.385,0,0,1,0,.6Z" transform="translate(5.885 5.884)" fill="#707070"/>
</svg>
