<svg id="_38ac84c187a695d2c7d226afaa1c7a36" data-name="38ac84c187a695d2c7d226afaa1c7a36" xmlns="http://www.w3.org/2000/svg" xmlns:xlink="http://www.w3.org/1999/xlink" width="35.846" height="35.846" viewBox="0 0 35.846 35.846">
  <defs>
    <linearGradient id="linear-gradient" x1="0.5" x2="0.5" y2="1" gradientUnits="objectBoundingBox">
      <stop offset="0" stop-color="#2f75b5"/>
      <stop offset="1" stop-color="#00376a"/>
    </linearGradient>
  </defs>
  <path id="_38ac84c187a695d2c7d226afaa1c7a36-2" data-name="38ac84c187a695d2c7d226afaa1c7a36" d="M19.923,2A17.923,17.923,0,1,0,37.846,19.923,17.976,17.976,0,0,0,19.923,2Zm8.424,19.715a2.824,2.824,0,0,1-1.255,1.255l-8.961,5.2a3.475,3.475,0,0,1-4.839-1.255,3.028,3.028,0,0,1-.538-1.792v-10.4a3.6,3.6,0,0,1,3.585-3.585,3.028,3.028,0,0,1,1.792.538l8.961,5.2A3.338,3.338,0,0,1,28.347,21.715Z" transform="translate(-2 -2)" fill="url(#linear-gradient)"/>
</svg>
