<svg id="_1" data-name="1" xmlns="http://www.w3.org/2000/svg" width="42" height="42" viewBox="0 0 42 42">
  <path id="Path_40064" data-name="Path 40064" d="M42,9a6,6,0,0,0-6-6H9A6,6,0,0,0,3,9V24H42Z" transform="translate(-1.5 -1.5)" fill="#c7def3"/>
  <path id="Path_40065" data-name="Path 40065" d="M3,17v3a6,6,0,0,0,6,6H36a6,6,0,0,0,6-6V17ZM18,35l1.5-9h6.015L27,35Z" transform="translate(-1.5 5.5)" fill="#c7def3"/>
  <path id="Path_40066" data-name="Path 40066" d="M36.5,35H9.5A7.5,7.5,0,0,1,2,27.5V9.5A7.5,7.5,0,0,1,9.5,2h27A7.5,7.5,0,0,1,44,9.5v18A7.5,7.5,0,0,1,36.5,35ZM9.5,5A4.5,4.5,0,0,0,5,9.5v18A4.5,4.5,0,0,0,9.5,32h27A4.5,4.5,0,0,0,41,27.5V9.5A4.5,4.5,0,0,0,36.5,5Z" transform="translate(-2 -2)" fill="#00376a"/>
  <path id="Path_40067" data-name="Path 40067" d="M36.5,19H3.5a1.5,1.5,0,0,1,0-3h33a1.5,1.5,0,0,1,0,3Zm-6,18h-15a1.5,1.5,0,0,1,0-3h15a1.5,1.5,0,0,1,0,3Z" transform="translate(-2 5)" fill="#00376a"/>
  <path id="Path_40068" data-name="Path 40068" d="M13.507,34.006h-.24a1.5,1.5,0,0,1-1.26-1.74l1.5-9a1.519,1.519,0,1,1,3,.48l-1.5,9A1.5,1.5,0,0,1,13.507,34.006Zm9,0a1.5,1.5,0,0,1-1.5-1.26l-1.5-9a1.519,1.519,0,1,1,3-.48l1.5,9a1.5,1.5,0,0,1-1.26,1.74Z" transform="translate(2.993 7.994)" fill="#00376a"/>
  <circle id="Ellipse_1675" data-name="Ellipse 1675" cx="1.5" cy="1.5" r="1.5" transform="translate(20 26)" fill="#00376a"/>
</svg>
